<svg width="224" height="29" viewBox="0 0 224 29" fill="none" xmlns="http://www.w3.org/2000/svg">
<rect width="224" height="29" rx="4.83" fill="white"/>
<g clip-path="url(#clip0_53_5432)">
<path d="M21.6154 14.7972C21.6235 14.4246 21.7261 14.0602 21.9134 13.7381C22.1007 13.4159 22.3667 13.1465 22.6865 12.9552C22.4764 12.6687 22.2039 12.4338 21.8898 12.268C21.5756 12.1022 21.2279 12.01 20.8728 11.9982C20.1097 11.9197 19.3701 12.4438 18.9813 12.4438C18.5852 12.4438 17.9863 12.0055 17.3415 12.0188C16.5017 12.0453 15.718 12.5114 15.3093 13.2287C14.4308 14.7139 15.0859 16.8971 15.9281 18.0979C16.3489 18.686 16.841 19.3429 17.4858 19.3193C18.1155 19.294 18.351 18.9269 19.1117 18.9269C19.8652 18.9269 20.0861 19.3193 20.7436 19.3048C21.4198 19.294 21.8455 18.7137 22.2524 18.1203C22.5541 17.7028 22.7869 17.2397 22.9419 16.7485C22.1473 16.4207 21.6166 15.6395 21.6154 14.7972ZM20.3747 11.2085C20.743 10.7762 20.9247 10.2208 20.8807 9.65991C20.3203 9.71621 19.8009 9.97872 19.4232 10.3965C19.2421 10.5982 19.103 10.834 19.0138 11.09C18.9247 11.346 18.8874 11.6172 18.904 11.8877C19.184 11.8898 19.461 11.8299 19.7153 11.7125C19.9695 11.5951 20.1947 11.423 20.3747 11.2085Z" fill="#D00000"/>
</g>
<path d="M32.0006 8.91111C33.0366 8.91111 33.9419 9.11178 34.7166 9.51311C35.5006 9.90511 36.1026 10.4744 36.5226 11.2211C36.9519 11.9584 37.1666 12.8218 37.1666 13.8111C37.1666 14.8004 36.9519 15.6591 36.5226 16.3871C36.1026 17.1151 35.5006 17.6751 34.7166 18.0671C33.9419 18.4498 33.0366 18.6411 32.0006 18.6411H28.8226V8.91111H32.0006ZM32.0006 17.3391C33.1392 17.3391 34.0119 17.0311 34.6186 16.4151C35.2252 15.7991 35.5286 14.9311 35.5286 13.8111C35.5286 12.6818 35.2252 11.7998 34.6186 11.1651C34.0119 10.5304 33.1392 10.2131 32.0006 10.2131H30.4186V17.3391H32.0006ZM42.0944 18.7671C41.3664 18.7671 40.7084 18.6038 40.1204 18.2771C39.5324 17.9411 39.0704 17.4744 38.7344 16.8771C38.3984 16.2704 38.2304 15.5704 38.2304 14.7771C38.2304 13.9931 38.403 13.2978 38.7484 12.6911C39.0937 12.0844 39.565 11.6178 40.1624 11.2911C40.7597 10.9644 41.427 10.8011 42.1644 10.8011C42.9017 10.8011 43.569 10.9644 44.1664 11.2911C44.7637 11.6178 45.235 12.0844 45.5804 12.6911C45.9257 13.2978 46.0984 13.9931 46.0984 14.7771C46.0984 15.5611 45.921 16.2564 45.5664 16.8631C45.2117 17.4698 44.7264 17.9411 44.1104 18.2771C43.5037 18.6038 42.8317 18.7671 42.0944 18.7671ZM42.0944 17.3811C42.505 17.3811 42.8877 17.2831 43.2424 17.0871C43.6064 16.8911 43.9004 16.5971 44.1244 16.2051C44.3484 15.8131 44.4604 15.3371 44.4604 14.7771C44.4604 14.2171 44.353 13.7458 44.1384 13.3631C43.9237 12.9711 43.639 12.6771 43.2844 12.4811C42.9297 12.2851 42.547 12.1871 42.1364 12.1871C41.7257 12.1871 41.343 12.2851 40.9884 12.4811C40.643 12.6771 40.3677 12.9711 40.1624 13.3631C39.957 13.7458 39.8544 14.2171 39.8544 14.7771C39.8544 15.6078 40.0644 16.2518 40.4844 16.7091C40.9137 17.1571 41.4504 17.3811 42.0944 17.3811ZM58.0361 10.9271L55.6421 18.6411H53.9621L52.4081 12.9431L50.8541 18.6411H49.1741L46.7661 10.9271H48.3901L50.0001 17.1291L51.6381 10.9271H53.3041L54.8721 17.1011L56.4681 10.9271H58.0361ZM63.1208 10.8011C63.7275 10.8011 64.2688 10.9271 64.7448 11.1791C65.2302 11.4311 65.6082 11.8044 65.8788 12.2991C66.1495 12.7938 66.2848 13.3911 66.2848 14.0911V18.6411H64.7028V14.3291C64.7028 13.6384 64.5302 13.1111 64.1848 12.7471C63.8395 12.3738 63.3682 12.1871 62.7708 12.1871C62.1735 12.1871 61.6975 12.3738 61.3428 12.7471C60.9975 13.1111 60.8248 13.6384 60.8248 14.3291V18.6411H59.2288V10.9271H60.8248V11.8091C61.0862 11.4918 61.4175 11.2444 61.8188 11.0671C62.2295 10.8898 62.6635 10.8011 63.1208 10.8011ZM69.9166 8.28111V18.6411H68.3206V8.28111H69.9166ZM75.358 18.7671C74.63 18.7671 73.972 18.6038 73.384 18.2771C72.796 17.9411 72.334 17.4744 71.998 16.8771C71.662 16.2704 71.494 15.5704 71.494 14.7771C71.494 13.9931 71.6667 13.2978 72.012 12.6911C72.3574 12.0844 72.8287 11.6178 73.426 11.2911C74.0234 10.9644 74.6907 10.8011 75.428 10.8011C76.1654 10.8011 76.8327 10.9644 77.43 11.2911C78.0274 11.6178 78.4987 12.0844 78.844 12.6911C79.1894 13.2978 79.362 13.9931 79.362 14.7771C79.362 15.5611 79.1847 16.2564 78.83 16.8631C78.4754 17.4698 77.99 17.9411 77.374 18.2771C76.7674 18.6038 76.0954 18.7671 75.358 18.7671ZM75.358 17.3811C75.7687 17.3811 76.1514 17.2831 76.506 17.0871C76.87 16.8911 77.164 16.5971 77.388 16.2051C77.612 15.8131 77.724 15.3371 77.724 14.7771C77.724 14.2171 77.6167 13.7458 77.402 13.3631C77.1874 12.9711 76.9027 12.6771 76.548 12.4811C76.1934 12.2851 75.8107 12.1871 75.4 12.1871C74.9894 12.1871 74.6067 12.2851 74.252 12.4811C73.9067 12.6771 73.6314 12.9711 73.426 13.3631C73.2207 13.7458 73.118 14.2171 73.118 14.7771C73.118 15.6078 73.328 16.2518 73.748 16.7091C74.1774 17.1571 74.714 17.3811 75.358 17.3811ZM80.4078 14.7491C80.4078 13.9744 80.5664 13.2884 80.8838 12.6911C81.2104 12.0938 81.6491 11.6318 82.1998 11.3051C82.7598 10.9691 83.3758 10.8011 84.0478 10.8011C84.6544 10.8011 85.1818 10.9224 85.6298 11.1651C86.0871 11.3984 86.4511 11.6924 86.7218 12.0471V10.9271H88.3318V18.6411H86.7218V17.4931C86.4511 17.8571 86.0824 18.1604 85.6158 18.4031C85.1491 18.6458 84.6171 18.7671 84.0198 18.7671C83.3571 18.7671 82.7504 18.5991 82.1998 18.2631C81.6491 17.9178 81.2104 17.4418 80.8838 16.8351C80.5664 16.2191 80.4078 15.5238 80.4078 14.7491ZM86.7218 14.7771C86.7218 14.2451 86.6098 13.7831 86.3858 13.3911C86.1711 12.9991 85.8864 12.7004 85.5318 12.4951C85.1771 12.2898 84.7944 12.1871 84.3838 12.1871C83.9731 12.1871 83.5904 12.2898 83.2358 12.4951C82.8811 12.6911 82.5918 12.9851 82.3678 13.3771C82.1531 13.7598 82.0458 14.2171 82.0458 14.7491C82.0458 15.2811 82.1531 15.7478 82.3678 16.1491C82.5918 16.5504 82.8811 16.8584 83.2358 17.0731C83.5998 17.2784 83.9824 17.3811 84.3838 17.3811C84.7944 17.3811 85.1771 17.2784 85.5318 17.0731C85.8864 16.8678 86.1711 16.5691 86.3858 16.1771C86.6098 15.7758 86.7218 15.3091 86.7218 14.7771ZM89.8961 14.7491C89.8961 13.9744 90.0547 13.2884 90.3721 12.6911C90.6987 12.0938 91.1374 11.6318 91.6881 11.3051C92.2481 10.9691 92.8687 10.8011 93.5501 10.8011C94.0541 10.8011 94.5487 10.9131 95.0341 11.1371C95.5287 11.3518 95.9207 11.6411 96.2101 12.0051V8.28111H97.8201V18.6411H96.2101V17.4791C95.9487 17.8524 95.5847 18.1604 95.1181 18.4031C94.6607 18.6458 94.1334 18.7671 93.5361 18.7671C92.8641 18.7671 92.2481 18.5991 91.6881 18.2631C91.1374 17.9178 90.6987 17.4418 90.3721 16.8351C90.0547 16.2191 89.8961 15.5238 89.8961 14.7491ZM96.2101 14.7771C96.2101 14.2451 96.0981 13.7831 95.8741 13.3911C95.6594 12.9991 95.3747 12.7004 95.0201 12.4951C94.6654 12.2898 94.2827 12.1871 93.8721 12.1871C93.4614 12.1871 93.0787 12.2898 92.7241 12.4951C92.3694 12.6911 92.0801 12.9851 91.8561 13.3771C91.6414 13.7598 91.5341 14.2171 91.5341 14.7491C91.5341 15.2811 91.6414 15.7478 91.8561 16.1491C92.0801 16.5504 92.3694 16.8584 92.7241 17.0731C93.0881 17.2784 93.4707 17.3811 93.8721 17.3811C94.2827 17.3811 94.6654 17.2784 95.0201 17.0731C95.3747 16.8678 95.6594 16.5691 95.8741 16.1771C96.0981 15.7758 96.2101 15.3091 96.2101 14.7771ZM106.899 18.7671C106.171 18.7671 105.513 18.6038 104.925 18.2771C104.337 17.9411 103.875 17.4744 103.539 16.8771C103.203 16.2704 103.035 15.5704 103.035 14.7771C103.035 13.9931 103.208 13.2978 103.553 12.6911C103.898 12.0844 104.37 11.6178 104.967 11.2911C105.564 10.9644 106.232 10.8011 106.969 10.8011C107.706 10.8011 108.374 10.9644 108.971 11.2911C109.568 11.6178 110.04 12.0844 110.385 12.6911C110.73 13.2978 110.903 13.9931 110.903 14.7771C110.903 15.5611 110.726 16.2564 110.371 16.8631C110.016 17.4698 109.531 17.9411 108.915 18.2771C108.308 18.6038 107.636 18.7671 106.899 18.7671ZM106.899 17.3811C107.31 17.3811 107.692 17.2831 108.047 17.0871C108.411 16.8911 108.705 16.5971 108.929 16.2051C109.153 15.8131 109.265 15.3371 109.265 14.7771C109.265 14.2171 109.158 13.7458 108.943 13.3631C108.728 12.9711 108.444 12.6771 108.089 12.4811C107.734 12.2851 107.352 12.1871 106.941 12.1871C106.53 12.1871 106.148 12.2851 105.793 12.4811C105.448 12.6771 105.172 12.9711 104.967 13.3631C104.762 13.7458 104.659 14.2171 104.659 14.7771C104.659 15.6078 104.869 16.2518 105.289 16.7091C105.718 17.1571 106.255 17.3811 106.899 17.3811ZM116.373 10.8011C116.979 10.8011 117.521 10.9271 117.997 11.1791C118.482 11.4311 118.86 11.8044 119.131 12.2991C119.401 12.7938 119.537 13.3911 119.537 14.0911V18.6411H117.955V14.3291C117.955 13.6384 117.782 13.1111 117.437 12.7471C117.091 12.3738 116.62 12.1871 116.023 12.1871C115.425 12.1871 114.949 12.3738 114.595 12.7471C114.249 13.1111 114.077 13.6384 114.077 14.3291V18.6411H112.481V10.9271H114.077V11.8091C114.338 11.4918 114.669 11.2444 115.071 11.0671C115.481 10.8898 115.915 10.8011 116.373 10.8011ZM131.075 16.6531H127.001L126.301 18.6411H124.635L128.121 8.89711H129.969L133.455 18.6411H131.775L131.075 16.6531ZM130.627 15.3511L129.045 10.8291L127.449 15.3511H130.627ZM136.567 12.0611C136.838 11.7064 137.206 11.4078 137.673 11.1651C138.14 10.9224 138.667 10.8011 139.255 10.8011C139.927 10.8011 140.538 10.9691 141.089 11.3051C141.649 11.6318 142.088 12.0938 142.405 12.6911C142.722 13.2884 142.881 13.9744 142.881 14.7491C142.881 15.5238 142.722 16.2191 142.405 16.8351C142.088 17.4418 141.649 17.9178 141.089 18.2631C140.538 18.5991 139.927 18.7671 139.255 18.7671C138.667 18.7671 138.144 18.6504 137.687 18.4171C137.23 18.1744 136.856 17.8758 136.567 17.5211V22.3091H134.971V10.9271H136.567V12.0611ZM141.257 14.7491C141.257 14.2171 141.145 13.7598 140.921 13.3771C140.706 12.9851 140.417 12.6911 140.053 12.4951C139.698 12.2898 139.316 12.1871 138.905 12.1871C138.504 12.1871 138.121 12.2898 137.757 12.4951C137.402 12.7004 137.113 12.9991 136.889 13.3911C136.674 13.7831 136.567 14.2451 136.567 14.7771C136.567 15.3091 136.674 15.7758 136.889 16.1771C137.113 16.5691 137.402 16.8678 137.757 17.0731C138.121 17.2784 138.504 17.3811 138.905 17.3811C139.316 17.3811 139.698 17.2784 140.053 17.0731C140.417 16.8584 140.706 16.5504 140.921 16.1491C141.145 15.7478 141.257 15.2811 141.257 14.7491ZM146.055 12.0611C146.326 11.7064 146.695 11.4078 147.161 11.1651C147.628 10.9224 148.155 10.8011 148.743 10.8011C149.415 10.8011 150.027 10.9691 150.577 11.3051C151.137 11.6318 151.576 12.0938 151.893 12.6911C152.211 13.2884 152.369 13.9744 152.369 14.7491C152.369 15.5238 152.211 16.2191 151.893 16.8351C151.576 17.4418 151.137 17.9178 150.577 18.2631C150.027 18.5991 149.415 18.7671 148.743 18.7671C148.155 18.7671 147.633 18.6504 147.175 18.4171C146.718 18.1744 146.345 17.8758 146.055 17.5211V22.3091H144.459V10.9271H146.055V12.0611ZM150.745 14.7491C150.745 14.2171 150.633 13.7598 150.409 13.3771C150.195 12.9851 149.905 12.6911 149.541 12.4951C149.187 12.2898 148.804 12.1871 148.393 12.1871C147.992 12.1871 147.609 12.2898 147.245 12.4951C146.891 12.7004 146.601 12.9991 146.377 13.3911C146.163 13.7831 146.055 14.2451 146.055 14.7771C146.055 15.3091 146.163 15.7758 146.377 16.1771C146.601 16.5691 146.891 16.8678 147.245 17.0731C147.609 17.2784 147.992 17.3811 148.393 17.3811C148.804 17.3811 149.187 17.2784 149.541 17.0731C149.905 16.8584 150.195 16.5504 150.409 16.1491C150.633 15.7478 150.745 15.2811 150.745 14.7491ZM160.79 18.7391C160.137 18.7391 159.549 18.6271 159.026 18.4031C158.504 18.1698 158.093 17.8431 157.794 17.4231C157.496 17.0031 157.346 16.5131 157.346 15.9531H159.054C159.092 16.3731 159.255 16.7184 159.544 16.9891C159.843 17.2598 160.258 17.3951 160.79 17.3951C161.341 17.3951 161.77 17.2644 162.078 17.0031C162.386 16.7324 162.54 16.3871 162.54 15.9671C162.54 15.6404 162.442 15.3744 162.246 15.1691C162.06 14.9638 161.822 14.8051 161.532 14.6931C161.252 14.5811 160.86 14.4598 160.356 14.3291C159.722 14.1611 159.204 13.9931 158.802 13.8251C158.41 13.6478 158.074 13.3771 157.794 13.0131C157.514 12.6491 157.374 12.1638 157.374 11.5571C157.374 10.9971 157.514 10.5071 157.794 10.0871C158.074 9.66711 158.466 9.34511 158.97 9.12111C159.474 8.89711 160.058 8.78511 160.72 8.78511C161.663 8.78511 162.433 9.02311 163.03 9.49911C163.637 9.96578 163.973 10.6098 164.038 11.4311H162.274C162.246 11.0764 162.078 10.7731 161.77 10.5211C161.462 10.2691 161.056 10.1431 160.552 10.1431C160.095 10.1431 159.722 10.2598 159.432 10.4931C159.143 10.7264 158.998 11.0624 158.998 11.5011C158.998 11.7998 159.087 12.0471 159.264 12.2431C159.451 12.4298 159.684 12.5791 159.964 12.6911C160.244 12.8031 160.627 12.9244 161.112 13.0551C161.756 13.2324 162.279 13.4098 162.68 13.5871C163.091 13.7644 163.436 14.0398 163.716 14.4131C164.006 14.7771 164.15 15.2671 164.15 15.8831C164.15 16.3778 164.015 16.8444 163.744 17.2831C163.483 17.7218 163.096 18.0764 162.582 18.3471C162.078 18.6084 161.481 18.7391 160.79 18.7391ZM167.896 12.2291V16.4991C167.896 16.7884 167.961 16.9984 168.092 17.1291C168.232 17.2504 168.465 17.3111 168.792 17.3111H169.772V18.6411H168.512C167.793 18.6411 167.242 18.4731 166.86 18.1371C166.477 17.8011 166.286 17.2551 166.286 16.4991V12.2291H165.376V10.9271H166.286V9.00911H167.896V10.9271H169.772V12.2291H167.896ZM174.589 18.7671C173.861 18.7671 173.203 18.6038 172.615 18.2771C172.027 17.9411 171.565 17.4744 171.229 16.8771C170.893 16.2704 170.725 15.5704 170.725 14.7771C170.725 13.9931 170.897 13.2978 171.243 12.6911C171.588 12.0844 172.059 11.6178 172.657 11.2911C173.254 10.9644 173.921 10.8011 174.659 10.8011C175.396 10.8011 176.063 10.9644 176.661 11.2911C177.258 11.6178 177.729 12.0844 178.075 12.6911C178.42 13.2978 178.593 13.9931 178.593 14.7771C178.593 15.5611 178.415 16.2564 178.061 16.8631C177.706 17.4698 177.221 17.9411 176.605 18.2771C175.998 18.6038 175.326 18.7671 174.589 18.7671ZM174.589 17.3811C174.999 17.3811 175.382 17.2831 175.737 17.0871C176.101 16.8911 176.395 16.5971 176.619 16.2051C176.843 15.8131 176.955 15.3371 176.955 14.7771C176.955 14.2171 176.847 13.7458 176.633 13.3631C176.418 12.9711 176.133 12.6771 175.779 12.4811C175.424 12.2851 175.041 12.1871 174.631 12.1871C174.22 12.1871 173.837 12.2851 173.483 12.4811C173.137 12.6771 172.862 12.9711 172.657 13.3631C172.451 13.7458 172.349 14.2171 172.349 14.7771C172.349 15.6078 172.559 16.2518 172.979 16.7091C173.408 17.1571 173.945 17.3811 174.589 17.3811ZM181.766 12.0471C182 11.6551 182.308 11.3518 182.69 11.1371C183.082 10.9131 183.544 10.8011 184.076 10.8011V12.4531H183.67C183.045 12.4531 182.569 12.6118 182.242 12.9291C181.925 13.2464 181.766 13.7971 181.766 14.5811V18.6411H180.17V10.9271H181.766V12.0471ZM192.613 14.5951C192.613 14.8844 192.595 15.1458 192.557 15.3791H186.663C186.71 15.9951 186.939 16.4898 187.349 16.8631C187.76 17.2364 188.264 17.4231 188.861 17.4231C189.72 17.4231 190.327 17.0638 190.681 16.3451H192.403C192.17 17.0544 191.745 17.6378 191.129 18.0951C190.523 18.5431 189.767 18.7671 188.861 18.7671C188.124 18.7671 187.461 18.6038 186.873 18.2771C186.295 17.9411 185.837 17.4744 185.501 16.8771C185.175 16.2704 185.011 15.5704 185.011 14.7771C185.011 13.9838 185.17 13.2884 185.487 12.6911C185.814 12.0844 186.267 11.6178 186.845 11.2911C187.433 10.9644 188.105 10.8011 188.861 10.8011C189.589 10.8011 190.238 10.9598 190.807 11.2771C191.377 11.5944 191.82 12.0424 192.137 12.6211C192.455 13.1904 192.613 13.8484 192.613 14.5951ZM190.947 14.0911C190.938 13.5031 190.728 13.0318 190.317 12.6771C189.907 12.3224 189.398 12.1451 188.791 12.1451C188.241 12.1451 187.769 12.3224 187.377 12.6771C186.985 13.0224 186.752 13.4938 186.677 14.0911H190.947Z" fill="black"/>
<defs>
<clipPath id="clip0_53_5432">
<rect width="8.4525" height="9.66" fill="white" transform="translate(14.4901 9.65991)"/>
</clipPath>
</defs>
</svg>
