<svg width="14" height="14" viewBox="0 0 14 14" fill="none" xmlns="http://www.w3.org/2000/svg">
<g clip-path="url(#clip0_121_1520)">
<path d="M9.27837 4.20532C8.38743 4.20532 8.0109 4.64284 7.39043 4.64284C6.75404 4.64284 6.2688 4.20797 5.49719 4.20797C4.74148 4.20797 3.93539 4.68261 3.42363 5.49135C2.70505 6.63154 2.82702 8.77934 3.99107 10.6089C4.40738 11.2639 4.96421 11.9984 5.6934 12.0063H5.70666C6.34039 12.0063 6.52866 11.5794 7.40104 11.5741H7.41429C8.27341 11.5741 8.44577 12.0037 9.07685 12.0037H9.09011C9.8193 11.9957 10.4053 11.1817 10.8216 10.5294C11.1212 10.0601 11.2326 9.82407 11.4633 9.29375C9.77952 8.63615 9.50906 6.18077 11.1743 5.23945C10.6652 4.5845 9.95188 4.20532 9.27837 4.20532Z" fill="black"/>
<path d="M9.08269 1.82153C8.55237 1.85866 7.93454 2.20602 7.57127 2.65944C7.24247 3.07044 6.97201 3.68031 7.07807 4.27161H7.1205C7.68529 4.27161 8.26334 3.9216 8.60009 3.47348C8.92624 3.04657 9.17284 2.44201 9.08269 1.82153Z" fill="black"/>
</g>
<defs>
<clipPath id="clip0_121_1520">
<rect width="13.5762" height="13.5762" fill="white" transform="translate(0.431641 0.124512)"/>
</clipPath>
</defs>
</svg>
