<svg width="9" height="11" viewBox="0 0 9 11" fill="none" xmlns="http://www.w3.org/2000/svg">
<g clip-path="url(#clip0_53_5433)">
<path d="M7.61543 5.79722C7.62354 5.42465 7.72605 5.06022 7.91337 4.73806C8.10069 4.4159 8.3667 4.14653 8.68648 3.95518C8.47637 3.66875 8.20395 3.43378 7.88976 3.26801C7.57558 3.10224 7.22785 3.00999 6.87282 2.99824C6.10968 2.91975 5.37008 3.4438 4.98127 3.4438C4.58521 3.4438 3.98629 3.00548 3.34148 3.01876C2.50167 3.04533 1.718 3.51142 1.30926 4.22868C0.430803 5.7139 1.08587 7.89706 1.9281 9.09792C2.34892 9.68598 2.84097 10.3429 3.48578 10.3193C4.11549 10.294 4.35095 9.92687 5.11168 9.92687C5.86516 9.92687 6.08613 10.3193 6.74361 10.3048C7.41981 10.294 7.84546 9.71375 8.25238 9.12026C8.55409 8.70284 8.78687 8.23971 8.94187 7.74854C8.14733 7.42071 7.61664 6.63945 7.61543 5.79722ZM6.37472 2.20853C6.74301 1.77625 6.92474 1.2208 6.88066 0.659912C6.32032 0.716206 5.80088 0.978722 5.42321 1.39649C5.24214 1.59823 5.10299 1.83397 5.01385 2.08998C4.92471 2.34599 4.88737 2.61717 4.90399 2.88775C5.18401 2.88976 5.46103 2.82992 5.71526 2.71251C5.9695 2.5951 6.19467 2.42301 6.37472 2.20853Z" fill="#D00000"/>
</g>
<defs>
<clipPath id="clip0_53_5433">
<rect width="8.4525" height="9.66" fill="white" transform="translate(0.490112 0.659912)"/>
</clipPath>
</defs>
</svg>
