<svg width="24" height="25" viewBox="0 0 24 25" fill="none" xmlns="http://www.w3.org/2000/svg">
<g clip-path="url(#clip0_53_6281)">
<path d="M21.4439 11.2194L22.5633 12.3388C23.0373 12.8128 23.0373 13.5792 22.5633 14.0482L12.7658 23.8507C12.2918 24.3247 11.5254 24.3247 11.0564 23.8507L1.25393 14.0482C0.77994 13.5742 0.77994 12.8077 1.25393 12.3388L2.37335 11.2194C2.85238 10.7403 3.63396 10.7504 4.10291 11.2395L9.89163 17.3157V2.82371C9.89163 2.15307 10.4312 1.61353 11.1018 1.61353H12.7154C13.386 1.61353 13.9256 2.15307 13.9256 2.82371V17.3157L19.7143 11.2395C20.1833 10.7454 20.9648 10.7353 21.4439 11.2194Z" fill="#A5A8AD"/>
</g>
<defs>
<clipPath id="clip0_53_6281">
<rect width="24" height="25" fill="white"/>
</clipPath>
</defs>
</svg>
