<svg width="79" height="89" viewBox="0 0 79 89" fill="none" xmlns="http://www.w3.org/2000/svg">
<path d="M48.1752 67.2862L48.7447 67.1154C49.1336 66.9952 49.4077 66.7247 49.4635 66.3951L52.0697 43.3756C52.1124 43.1196 52.0254 42.8504 51.8219 42.6272L46.941 37.2425C46.7326 37.0094 46.4175 36.847 46.0696 36.7846L28.412 25.106C28.0674 25.0469 27.7228 25.0961 27.4471 25.2422L21.0662 28.6492C20.7986 28.792 20.6197 29.0169 20.5787 29.2778L15.2629 60.6967C15.2038 61.0362 15.3811 61.3894 15.7274 61.6321L15.8439 61.716C16.612 62.254 16.4183 63.188 15.4911 63.4011C15.2039 63.4687 14.9741 63.613 14.828 63.8068C14.7509 63.9101 14.7 64.0248 14.6754 64.1497L13.1097 73.4209C13.0178 73.9655 13.5249 74.5071 14.2454 74.6236C19.6695 75.4954 40.4666 78.8317 45.8365 79.6963C46.5389 79.8098 47.1757 79.4699 47.2693 78.9332L48.8005 70.1957C48.8612 69.8642 48.6922 69.5177 48.3623 69.2732L47.8978 68.929C47.1905 68.4068 47.3415 67.5404 48.1785 67.2826L48.1752 67.2862ZM34.5205 42.642C33.2322 42.4237 32.3641 41.2043 32.5823 39.9143C32.8006 38.6243 34.02 37.7578 35.3099 37.9761C36.5967 38.1944 37.4665 39.4138 37.2482 40.7037C37.0299 41.9937 35.8073 42.8586 34.5205 42.642Z" fill="#F58750" stroke="black" stroke-width="1.27191" stroke-linecap="round" stroke-linejoin="round"/>
<path d="M45.7661 67.7095L44.5516 67.5024" stroke="black" stroke-width="1.27191" stroke-linecap="round" stroke-linejoin="round"/>
<path d="M42.2968 67.1179L20.8728 63.4695" stroke="black" stroke-width="1.27191" stroke-linecap="round" stroke-linejoin="round"/>
<path d="M19.7454 63.2773L18.5309 63.0708" stroke="black" stroke-width="1.27191" stroke-linecap="round" stroke-linejoin="round"/>
<path d="M58.3123 62.0816L58.8457 61.8177C59.2101 61.6336 59.4349 61.3221 59.4349 60.987L59.6105 29.3089C59.6105 29.0496 59.4793 28.7985 59.2413 28.6131L53.53 24.1195C53.2854 23.9242 52.949 23.8159 52.5945 23.8143L31.7892 23.793C31.4397 23.793 31.1081 23.898 30.8603 24.0884L25.1375 28.5113C24.8979 28.6968 24.7584 28.9495 24.7616 29.2122V61.0775C24.76 61.4223 24.9931 61.7405 25.3755 61.9228L25.5051 61.9868C26.3536 62.3901 26.3159 63.3422 25.4395 63.7063C25.1687 63.8216 24.9652 64.0021 24.8536 64.217C24.7945 64.3318 24.7633 64.4531 24.76 64.5811V73.9833C24.7616 74.5369 25.3542 74.9861 26.0828 74.9813C31.5775 74.9354 52.6388 74.7567 58.0776 74.712C58.7883 74.7072 59.361 74.2641 59.3627 73.7195L59.4136 64.8486C59.4185 64.5123 59.1937 64.1989 58.8277 64.0136L58.3123 63.7528C57.5279 63.3567 57.5328 62.477 58.314 62.0834L58.3123 62.0816ZM42.1845 31.5131C40.8765 31.5131 39.8195 30.4545 39.8195 29.1481C39.8195 27.8418 40.8781 26.7832 42.1845 26.7832C43.4909 26.7832 44.5494 27.8418 44.5494 29.1481C44.5494 30.4545 43.4892 31.5131 42.1845 31.5131Z" fill="#FFC60C" stroke="black" stroke-width="1.27191" stroke-linecap="round" stroke-linejoin="round"/>
<path d="M56.0062 62.8987L54.7753 62.8975" stroke="black" stroke-width="1.27191" stroke-linecap="round" stroke-linejoin="round"/>
<path d="M52.4876 62.8976L30.7551 62.874" stroke="black" stroke-width="1.27191" stroke-linecap="round" stroke-linejoin="round"/>
<path d="M29.6111 62.8716L28.3802 62.8704" stroke="black" stroke-width="1.27191" stroke-linecap="round" stroke-linejoin="round"/>
<path d="M35.9567 23.4008C34.8801 21.8351 34.1152 20.0626 34.1152 18.1835C34.112 11.8173 38.0328 6.65416 42.8743 6.65088C47.7157 6.6476 51.6431 11.8058 51.648 18.172C51.6513 24.5381 42.8891 29.7046 42.8891 29.7046C42.8891 29.7046 41.8813 29.1121 40.5487 28.0798" stroke="black" stroke-width="1.27191" stroke-linecap="round" stroke-linejoin="round"/>
<g style="mix-blend-mode:multiply">
<path d="M29.9417 41.5906C29.7152 38.387 32.2771 35.7348 35.4659 35.8415C38.141 35.9301 40.3664 38.0604 40.5913 40.729C40.8851 44.2049 37.8456 47.0508 34.3942 46.4764C31.98 46.0743 30.1156 44.0326 29.9433 41.5906H29.9417ZM37.6618 40.683C37.4435 39.6458 36.5442 38.8563 35.4872 38.771C34.0495 38.6545 32.8728 39.7721 32.8515 41.159C32.8318 42.4899 33.8871 43.606 35.2476 43.6256C36.7575 43.6486 37.9917 42.2503 37.6618 40.683ZM46.6703 36.3535C47.8289 36.37 48.5855 37.5762 48.0964 38.6266L39.6148 56.8732C39.3489 57.4444 38.7712 57.8071 38.141 57.7972C36.9824 57.7808 36.2257 56.5746 36.7148 55.5242L45.1964 37.2775C45.4623 36.7064 46.04 36.3437 46.6703 36.3519V36.3535ZM44.4628 52.8835C44.5055 49.9573 46.941 47.5907 49.8673 47.635C52.9363 47.681 55.3242 50.2314 55.1338 53.3021C54.9648 56.0264 52.7 58.224 49.9723 58.3142C46.8984 58.4143 44.4185 55.9525 44.4628 52.8852V52.8835ZM52.1764 53.4284C52.4734 51.8496 51.2294 50.4349 49.6293 50.5334C48.4526 50.6056 47.4761 51.5558 47.3677 52.7293C47.2217 54.3278 48.6003 55.6112 50.1857 55.3617C51.1802 55.2042 51.9893 54.418 52.1764 53.4284Z" fill="#FFC60C"/>
<path d="M48.1244 38.5581C48.1244 38.5581 49.5178 35.6187 46.5472 34.698L45.666 36.2768L48.1244 38.5581Z" fill="#FFC60C"/>
<path d="M37.405 57.6058C37.405 57.6058 34.7298 56.5735 36.115 54.1855L38.1238 55.0964L37.4033 57.6058H37.405Z" fill="#FFC60C"/>
</g>
<path d="M29.1111 39.96C28.8846 36.7563 31.4465 34.1042 34.6353 34.2109C37.3104 34.2995 39.5358 36.4298 39.7607 39.0984C40.0544 42.5744 37.015 45.4202 33.5636 44.8457C31.1494 44.4437 29.2851 42.4021 29.1127 39.96H29.1111ZM36.8312 39.0524C36.6129 38.0152 35.7135 37.2258 34.6566 37.1404C33.2189 37.0239 32.0422 38.1415 32.0209 39.5283C32.0012 40.8593 33.0564 41.9753 34.417 41.995C35.9269 42.018 37.161 40.6197 36.8312 39.0524ZM45.8396 34.7229C46.9983 34.7393 47.7549 35.9456 47.2658 36.996L38.7842 55.2426C38.5183 55.8138 37.9406 56.1765 37.3104 56.1667C36.1517 56.1502 35.3951 54.944 35.8842 53.8936L44.3658 35.647C44.6317 35.0758 45.2094 34.7131 45.8396 34.7213V34.7229ZM43.6323 51.2529C43.6749 48.3267 46.1104 45.9601 49.0367 46.0044C52.1057 46.0504 54.4936 48.6008 54.3032 51.6714C54.1342 54.3958 51.8693 56.5933 49.1417 56.6836C46.0677 56.7837 43.588 54.322 43.6323 51.2546V51.2529ZM51.3458 51.7978C51.6428 50.219 50.3989 48.8043 48.7987 48.9028C47.622 48.975 46.6455 49.9252 46.5371 51.0987C46.391 52.6972 47.7696 53.9806 49.355 53.7311C50.3496 53.5736 51.1587 52.7874 51.3458 51.7978Z" fill="#FAA307" stroke="black" stroke-width="0.794946" stroke-linecap="round" stroke-linejoin="round"/>
</svg>
