<svg width="34" height="34" viewBox="0 0 34 34" fill="none" xmlns="http://www.w3.org/2000/svg">
<mask id="mask0_1_2817" style="mask-type:luminance" maskUnits="userSpaceOnUse" x="0" y="0" width="34" height="34">
<path d="M34 0H0V34H34V0Z" fill="white"/>
</mask>
<g mask="url(#mask0_1_2817)">
<path d="M17 34C15.8785 34 14.8455 33.7197 13.901 33.1588C12.9861 32.6276 12.2483 31.9046 11.6875 30.9896C11.1562 30.0451 10.8906 29.0122 10.8906 27.8905C10.8906 26.4739 11.2153 25.2935 11.8646 24.3489C12.5139 23.4046 13.5174 22.2977 14.875 21.0287C15.8785 20.1137 16.3802 19.243 16.3802 18.4166V17.6198H15.5833C14.6684 17.6198 13.4141 18.5348 11.8203 20.3646C10.2561 22.1945 8.35242 23.1093 6.10938 23.1093C4.98785 23.1093 3.95486 22.8438 3.01041 22.3125C2.09549 21.7517 1.35764 21.0139 0.796875 20.0989C0.265625 19.1546 0 18.1215 0 17C0 15.8785 0.265625 14.8602 0.796875 13.9453C1.35764 13.0009 2.09549 12.263 3.01041 11.7318C3.95486 11.171 4.98785 10.8906 6.10938 10.8906C8.32291 10.8906 10.2118 11.7908 11.776 13.5911C13.3403 15.3915 14.6094 16.2917 15.5833 16.2917H16.3802V15.5833C16.3802 14.7569 15.8785 13.8863 14.875 12.9714L13.8568 12.0417C13.1189 11.3629 12.4401 10.5512 11.8203 9.60677C11.2005 8.6328 10.8906 7.46701 10.8906 6.10938C10.8906 4.98785 11.1562 3.96962 11.6875 3.0547C12.2483 2.11024 12.9861 1.3724 13.901 0.841145C14.8455 0.280381 15.8785 0 17 0C18.1215 0 19.1398 0.280381 20.0547 0.841145C20.9991 1.40191 21.7371 2.13976 22.2683 3.0547C22.829 3.96962 23.1093 4.98785 23.1093 6.10938C23.1093 8.32291 22.2091 10.2118 20.4088 11.776C18.6085 13.3403 17.7084 14.6094 17.7084 15.5833V16.2917H18.4166C19.4201 16.2917 20.6892 15.3915 22.2239 13.5911C23.7291 11.7908 25.618 10.8906 27.8907 10.8906C29.0122 10.8906 30.0303 11.171 30.9453 11.7318C31.8898 12.263 32.6276 12.9861 33.1588 13.901C33.7197 14.816 34 15.849 34 17C34 18.1215 33.7197 19.1546 33.1588 20.0989C32.6276 21.0139 31.8898 21.7517 30.9453 22.3125C30.0303 22.8438 29.0122 23.1093 27.8907 23.1093C26.5035 23.1093 25.3082 22.77 24.3047 22.0912C23.3308 21.4123 22.2387 20.4236 21.0287 19.125C20.1137 18.1215 19.243 17.6198 18.4166 17.6198H17.7084V18.4166C17.7084 19.5087 18.6085 20.7777 20.4088 22.2239C22.2091 23.6701 23.1093 25.559 23.1093 27.8905C23.1093 29.0122 22.829 30.0451 22.2683 30.9896C21.7371 31.9046 21.0139 32.6276 20.0989 33.1588C19.184 33.7197 18.1511 34 17 34Z" fill="#FAA307"/>
</g>
</svg>
