<svg width="29" height="28" viewBox="0 0 29 28" fill="none" xmlns="http://www.w3.org/2000/svg">
<mask id="mask0_1_3039" style="mask-type:luminance" maskUnits="userSpaceOnUse" x="0" y="0" width="29" height="28">
<path d="M28.3438 0H0.34375V28H28.3438V0Z" fill="white"/>
</mask>
<g mask="url(#mask0_1_3039)">
<path d="M12.9342 0.858009C13.5257 -0.286003 15.1618 -0.286003 15.7533 0.858009L19.52 8.14302C19.6709 8.43494 19.9088 8.6728 20.2008 8.82375L27.4857 12.5905C28.6298 13.182 28.6298 14.818 27.4857 15.4095L20.2008 19.1762C19.9088 19.3271 19.6709 19.565 19.52 19.857L15.7533 27.1419C15.1618 28.286 13.5257 28.286 12.9342 27.1419L9.1675 19.857C9.01655 19.565 8.77869 19.3271 8.48677 19.1762L1.20176 15.4095C0.0577472 14.818 0.0577472 13.182 1.20176 12.5905L8.48677 8.82375C8.77869 8.6728 9.01655 8.43494 9.1675 8.14302L12.9342 0.858009Z" fill="#80C807"/>
</g>
</svg>
