<svg width="17" height="17" viewBox="0 0 17 17" fill="none" xmlns="http://www.w3.org/2000/svg">
<mask id="mask0_53_6844" style="mask-type:luminance" maskUnits="userSpaceOnUse" x="0" y="0" width="17" height="17">
<path d="M17 0H0V17H17V0Z" fill="white"/>
</mask>
<g mask="url(#mask0_53_6844)">
<path d="M7.6442 0.520934C8.00334 -0.173645 8.99666 -0.173645 9.35578 0.520934L11.6427 4.94397C11.7343 5.12122 11.8787 5.26563 12.0561 5.35728L16.479 7.6442C17.1737 8.00334 17.1737 8.99666 16.479 9.35578L12.0561 11.6427C11.8787 11.7343 11.7343 11.8787 11.6427 12.0561L9.35578 16.479C8.99666 17.1737 8.00334 17.1737 7.6442 16.479L5.35728 12.0561C5.26563 11.8787 5.12122 11.7343 4.94397 11.6427L0.520934 9.35578C-0.173645 8.99666 -0.173645 8.00334 0.520934 7.6442L4.94397 5.35728C5.12122 5.26563 5.26563 5.12122 5.35728 4.94397L7.6442 0.520934Z" fill="#80C807"/>
</g>
</svg>
