<svg width="54" height="53" viewBox="0 0 54 53" fill="none" xmlns="http://www.w3.org/2000/svg">
<g style="mix-blend-mode:multiply">
<path d="M4.70519 40.2795C2.73998 34.0372 3.80808 27.0078 7.14122 21.3769C10.4744 15.7459 15.9437 11.5086 22.0759 9.22251C25.7862 7.84053 29.7939 7.13783 33.7314 7.55243C37.6688 7.96936 41.5337 9.55044 44.3913 12.2933C46.6353 14.4483 48.2632 17.5917 47.5816 20.6273C48.392 20.2315 49.4156 20.5898 50.034 21.248C50.65 21.9086 50.9428 22.8034 51.163 23.6794C52.3623 28.4273 51.9664 33.6156 49.774 37.9957C48.118 41.3054 45.4243 44.0905 42.1474 45.8168C40.578 46.6436 39.2616 47.6297 37.5072 48.035C35.2352 48.5596 32.8905 48.6814 30.5669 48.7377C26.2617 48.8407 21.9518 48.7166 17.6583 48.3652C14.7679 48.1287 11.6455 47.8523 8.96121 46.6647C6.53456 45.5919 5.4524 42.657 4.70285 40.2795H4.70519Z" fill="#FEE5E2"/>
</g>
<path d="M37.8369 25.9986C37.8369 25.919 37.8369 25.8393 37.8346 25.7573C37.8275 25.064 37.94 24.202 37.5605 23.5696C37.5371 23.5298 37.509 23.4946 37.4809 23.4572C37.3052 23.2557 37.0546 23.1246 36.8016 23.0191C36.0075 22.6842 35.1245 22.6139 34.293 22.3727C33.3186 22.0892 32.3465 21.7965 31.3932 21.4592C30.5991 21.1781 29.8121 20.8783 29.0344 20.5574C28.84 20.4777 27.7883 19.7867 27.6126 19.8593C25.7786 20.6183 23.8813 21.1617 21.9934 21.7496C20.075 22.3469 18.0419 22.642 16.346 23.7195C16.2547 23.7781 16.161 23.8413 16.1047 23.9303C16.0392 24.0357 16.0321 24.1622 16.0275 24.2817C15.99 25.1881 16.0696 26.0525 16.0743 26.9543C16.079 28.2472 16.0977 29.5379 16.1305 30.8308C16.1633 32.1238 16.2102 33.4144 16.2711 34.705C16.3015 35.3281 16.332 35.9512 16.3694 36.5742C16.3882 36.9139 16.6833 38.1858 16.4865 38.4434C15.9619 39.1531 15.8963 40.1346 16.3202 40.9005C16.4303 41.102 16.5779 41.3011 16.5732 41.5283C16.5685 41.7836 16.3718 41.9967 16.2593 42.231C16.0509 42.6596 16.1282 43.1585 16.2078 43.6246C16.428 44.9082 16.6505 46.1918 16.8707 47.4754C16.8965 47.6324 16.9293 47.7963 17.0417 47.9158C17.1939 48.0798 17.4516 48.1055 17.6811 48.1219C23.6916 48.5295 29.7301 48.5553 35.7452 48.1969C35.7991 48.1945 36.373 42.3949 36.4456 41.8585C36.7407 39.7083 37.0639 37.5603 37.3286 35.4054C37.5933 33.2598 37.8018 31.1049 37.8627 28.9452C37.8908 27.9615 37.8556 26.98 37.8439 25.9963L37.8369 25.9986Z" fill="#FF865C"/>
<g style="mix-blend-mode:multiply" opacity="0.57">
<path d="M37.7338 27.338C37.5933 27.8791 37.4504 28.4202 37.3099 28.9613C37.2724 29.1065 37.2302 29.2587 37.1202 29.3641C37.0288 29.4531 36.9 29.493 36.7782 29.5304C35.9396 29.7858 35.1011 30.0411 34.2625 30.2964C34.1337 30.3362 34.0002 30.376 33.8667 30.3503C33.2834 30.2378 33.4216 29.1416 32.8454 29.0034C32.6721 28.9613 32.4636 29.0245 32.3254 28.9097C32.1778 28.7879 32.22 28.5537 32.2809 28.3733C32.494 27.7222 32.7634 27.0897 33.0843 26.4854C33.1827 26.298 33.2904 26.0896 33.2366 25.8858C33.185 25.6914 33 25.5625 32.822 25.4665C31.7445 24.8786 30.482 24.7544 29.2593 24.642C31.2128 24.0049 33.1757 23.3935 35.1456 22.8056C33.9065 22.2997 32.6557 21.9085 31.3932 21.4611C30.5991 21.18 29.8121 20.8802 29.0344 20.5593C28.84 20.4797 27.7883 19.7887 27.6126 19.8613C25.7786 20.6202 23.8813 21.1636 21.9934 21.7516C20.075 22.3489 18.0419 22.644 16.346 23.7215C16.2547 23.78 16.161 23.8433 16.1047 23.9323C16.0392 24.0377 16.0321 24.1642 16.0275 24.2836C15.99 25.1901 16.0696 26.0544 16.0743 26.9562C16.079 28.2492 16.0977 29.5398 16.1305 30.8328C16.1633 32.1257 16.2102 33.4164 16.2711 34.707C16.3015 35.3301 16.332 35.9531 16.3694 36.5762C16.3882 36.9158 16.6833 38.1877 16.4865 38.4454C15.9619 39.1551 15.8963 40.1365 16.3202 40.9025C16.4303 41.1039 16.5779 41.303 16.5732 41.5302C16.5685 41.7855 16.3718 41.9987 16.2593 42.2329C16.0509 42.6616 16.1282 43.1605 16.2078 43.6266C16.428 44.9102 16.6505 46.1938 16.8707 47.4774C16.8965 47.6343 16.9293 47.7983 17.0417 47.9178C17.1939 48.0817 17.4516 48.1075 17.6811 48.1239C23.6916 48.5314 29.7301 48.5572 35.7452 48.1988C36.0848 48.1778 36.1411 43.0715 36.2746 42.7107C35.8928 43.7531 34.6794 44.1981 33.5973 44.4511C30.7701 45.1093 27.8375 45.3178 24.9447 45.0648C23.8649 44.9711 22.771 44.8071 21.7896 44.348C24.5254 44.6736 27.3526 44.1958 29.8332 42.9918C29.0391 43.376 27.4229 43.1652 26.5539 43.1441C25.3406 43.1136 24.1296 42.9848 22.942 42.7271C21.8247 42.4859 20.7215 42.1392 19.6862 41.6497C19.0303 41.3405 17.6741 41.0453 17.4891 40.2396C17.379 39.7664 17.6928 39.2722 18.1168 39.038C18.5408 38.8014 19.0491 38.7756 19.5316 38.8014C23.2817 39.0052 26.4555 42.0221 30.2103 42.1556C31.7023 42.2095 32.5081 41.392 33.7519 40.8205C34.7193 40.3778 35.8295 39.7407 36.5205 38.9091C37.2724 38.005 37.1881 36.5621 37.331 35.405C37.5956 33.2594 37.8041 31.1045 37.865 28.9449C37.8767 28.5256 37.6402 27.7151 37.7409 27.338H37.7338Z" fill="#FF865C"/>
</g>
<path d="M49.0777 36.0704C48.3375 35.5293 47.5551 34.9109 47.1874 34.1543C46.9415 33.6507 46.8267 32.9972 46.2856 32.7747C45.9553 32.6388 45.508 32.688 45.3042 32.4093C45.0746 32.0954 45.3651 31.627 45.1613 31.299C44.9528 30.9617 44.4024 31.0179 44.0721 30.779C43.6739 30.4886 43.7465 29.91 43.5427 29.4767C43.3038 28.9684 42.7112 28.7131 42.2685 28.3477C41.7391 27.912 41.4089 27.3077 41.0388 26.7455C40.0152 25.1879 38.5934 23.8621 36.9303 22.9111C37.0451 22.9767 36.4923 27.7949 36.5064 28.336C36.5579 30.2122 36.771 32.1071 37.1435 33.9505C37.4527 35.4824 38.8674 35.7401 40.0691 36.7848C41.5447 38.066 43.0813 39.2864 44.6741 40.4365C46.5854 41.8161 48.6514 43.1278 51.0171 43.5611C51.5418 43.6572 52.111 43.704 52.5912 43.4815C54.0949 42.7811 53.0245 40.05 52.2867 39.1576C51.5277 38.2394 50.6634 37.2415 49.7007 36.5271C49.504 36.3795 49.2908 36.2296 49.0753 36.0704H49.0777Z" fill="#FF865C"/>
<g style="mix-blend-mode:multiply" opacity="0.23">
<path d="M48.7708 36.6745C48.5951 36.5855 48.4242 36.4988 48.2578 36.4145C47.7004 36.1334 47.1124 35.864 46.6885 35.4049C46.2645 34.9435 46.0467 34.2268 46.3559 33.6833C45.6602 33.6786 44.9669 33.9129 44.4164 34.3392C44.6881 33.7981 44.9575 33.2547 45.2292 32.7136C43.9573 33.4186 42.484 33.763 41.0318 33.6904C41.6548 32.4817 42.4981 31.3855 43.5099 30.4743C42.2287 30.4978 40.9662 31.0342 40.0573 31.9383C40.4954 30.3947 40.8327 28.823 41.0692 27.2372C40.1721 28.0617 39.5584 29.1907 39.3523 30.3924C39.1719 29.0525 38.9916 27.7127 38.8112 26.3729C38.6028 24.8153 38.3287 23.719 36.9303 22.918C37.0451 22.9836 36.4923 27.8017 36.5064 28.3428C36.5579 30.219 36.771 32.114 37.1435 33.9574C37.4527 35.4893 38.8674 35.7469 40.0691 36.7916C41.5447 38.0729 43.0813 39.2932 44.6741 40.4433C46.5854 41.8229 48.6514 43.1346 51.0171 43.568C51.5418 43.664 52.111 43.7109 52.5912 43.4883C53.9544 42.8536 53.2213 40.7338 52.6849 39.7757C51.8978 38.368 50.2254 37.424 48.7685 36.6792L48.7708 36.6745Z" fill="#FF865C"/>
</g>
<path d="M11.7341 27.6121C11.2305 28.2726 11.0805 29.1979 10.4013 29.7108C10.1717 29.8842 9.90001 29.9943 9.65641 30.1489C9.12704 30.4862 8.76867 31.0061 8.39155 31.4957C7.55768 32.5802 6.55516 33.3508 5.61589 34.3018C4.47283 35.4613 3.49842 36.8456 2.57086 38.162C2.20077 38.6867 1.83771 39.2254 1.63861 39.825C1.43951 40.4247 1.41374 41.1016 1.71122 41.6638C2.05086 42.3102 2.77464 42.7272 3.52887 42.8654C4.28076 43.0036 5.0631 42.8958 5.80327 42.7084C10.0663 41.6333 13.444 37.2836 16.0627 34.1519C17.4868 32.449 17.3299 30.1465 17.351 28.0689C17.3674 26.4761 17.0839 24.8364 17.2034 23.2554C16.5897 23.5154 15.3904 23.7332 14.9782 24.2532C14.8095 24.4664 14.765 24.7685 14.5402 24.9278C14.2708 25.1199 13.8258 25.0496 13.6314 25.3096C13.54 25.4291 13.5353 25.5883 13.5095 25.7336C13.4276 26.1927 13.1043 26.5206 12.7342 26.8063C12.493 26.9914 12.2189 27.1343 11.9941 27.3357C11.898 27.42 11.8137 27.5137 11.7387 27.6145L11.7341 27.6121Z" fill="#FF865C"/>
<g style="mix-blend-mode:multiply" opacity="0.23">
<path d="M12.0362 27.8158C12.3267 28.2632 12.7014 28.6567 13.1348 28.9682C12.3126 29.0127 11.4951 29.1767 10.7198 29.4531C11.4577 29.7272 12.055 30.3502 12.2986 31.0974C10.9096 31.2192 9.52993 31.4581 8.1784 31.8095C8.61642 32.2053 9.20434 32.4302 9.79695 32.4326C8.30254 32.9783 6.88309 33.7185 5.57841 34.6297C4.28778 35.5315 3.47265 36.8806 2.57086 38.1596C2.20077 38.6842 1.83771 39.223 1.63861 39.8226C1.43951 40.4222 1.41374 41.0992 1.71122 41.6613C2.05086 42.3078 2.77464 42.7248 3.52887 42.863C4.28076 43.0012 5.0631 42.8934 5.80327 42.706C10.0663 41.6309 13.444 37.2812 16.0627 34.1495C17.4868 32.4466 17.3299 30.1441 17.351 28.0664C17.3674 26.4737 17.1776 24.8809 17.1847 23.2881C16.4351 23.4942 15.5521 23.8385 15.4865 24.752C15.442 25.3704 15.7465 25.9583 16.0861 26.476C15.1632 26.4596 14.2427 26.3846 13.3292 26.2511C13.9523 26.6165 14.5753 26.9796 15.1984 27.345C14.142 27.4785 13.0856 27.6355 12.0362 27.8135V27.8158Z" fill="#FF865C"/>
</g>
<path d="M23.7126 22.7869C24.4505 23.3913 25.5326 23.848 26.2775 24.0846C26.8092 24.2532 27.3737 24.3774 27.9312 24.3141C28.4231 24.2579 28.8845 24.0588 29.3155 23.8293C30.1494 23.3866 30.9059 22.8174 31.5501 22.1522C31.1402 22.0187 30.7279 21.857 30.4234 21.5666C30.0322 21.1965 29.962 20.6039 29.9198 20.105C29.9058 19.9199 29.8776 18.1725 30.0252 18.1421C28.0951 18.5262 26.0878 18.5637 24.1436 18.2569C24.2069 19.0041 24.406 19.7583 24.3193 20.5102C24.2795 20.8592 24.1905 21.1965 23.9633 21.4823C23.893 21.5689 23.1388 22.199 23.0427 22.0116C23.1856 22.2904 23.4222 22.5504 23.7126 22.7869Z" fill="#AF5D54"/>
<g style="mix-blend-mode:multiply" opacity="0.36">
<path d="M23.7126 22.787C24.4505 23.3914 25.5326 23.8481 26.2775 24.0847C26.8092 24.2533 27.3737 24.3775 27.9312 24.3142C28.5964 24.2393 29.2218 23.9231 29.7558 23.5342C29.0625 23.8879 28.2895 24.0355 27.5166 23.895C26.753 23.7544 26.0433 23.3398 25.5443 22.7449C26.8631 22.1242 28.1818 21.5034 29.5005 20.8827C29.6739 20.8007 29.8753 20.7211 30.0463 20.8054C29.9596 20.5712 29.9409 20.3557 29.9198 20.1074C29.9058 19.92 29.8776 18.175 30.0252 18.1445C28.0951 18.5287 26.0878 18.5662 24.1436 18.2593C24.2069 19.0065 24.406 19.7607 24.3193 20.5126C24.2795 20.8616 24.1905 21.1989 23.9633 21.4847C23.893 21.5714 23.1388 22.2015 23.0427 22.0141C23.1856 22.2928 23.4222 22.5528 23.7126 22.7894V22.787Z" fill="#AF5D54"/>
</g>
<path d="M30.2291 18.8704C30.8896 18.3786 31.4494 17.8305 32.035 17.2659C32.3185 16.9919 32.473 16.7319 32.6394 16.3993C32.6721 16.3337 33.0282 15.4178 32.9462 15.4319C34.2157 15.2164 35.326 14.3076 35.7219 13.1528C35.8882 12.6656 35.935 12.1269 35.7476 11.6444C35.5602 11.1618 35.1129 10.7566 34.5741 10.684C33.9956 10.6044 33.5622 11.0026 33.1945 11.3656C33.2765 10.2717 33.4803 9.15211 33.2484 8.06761C33.0352 7.06275 32.5808 6.07429 31.7938 5.36456C31.1894 4.82114 30.4165 4.4651 29.6201 4.22618C27.8024 3.68042 25.7927 3.72024 23.9985 4.33159C23.2888 4.57285 22.6095 4.9078 22.0403 5.37393C20.3163 6.7887 19.9673 9.34887 20.4264 11.3539C19.7893 10.5036 18.7493 10.958 18.3113 11.7099C17.2877 13.462 19.1288 16.4555 21.4008 15.6427C21.2088 15.713 21.621 16.753 21.6843 16.8701C21.8904 17.2519 22.2066 17.5096 22.5158 17.807C23.2279 18.4933 23.968 18.9969 24.8792 19.4373C25.8653 19.9128 26.9873 20.2899 28.0671 20.0533C28.8541 19.88 29.517 19.4022 30.1518 18.9313C30.1799 18.9103 30.2057 18.8915 30.2338 18.8704H30.2291Z" fill="#C97063"/>
<g style="mix-blend-mode:multiply" opacity="0.43">
<path d="M30.2291 18.8704C30.8896 18.3786 31.4494 17.8305 32.035 17.2659C32.3185 16.9919 32.473 16.7319 32.6394 16.3993C32.6721 16.3337 33.0282 15.4178 32.9462 15.4319C34.2157 15.2164 35.326 14.3076 35.7219 13.1528C35.8882 12.6656 35.935 12.1269 35.7476 11.6444C35.5602 11.1618 35.1129 10.7566 34.5741 10.684C33.8503 10.5856 33.143 11.2227 33.0633 11.9184C32.9509 12.8905 32.8385 13.8625 32.8127 14.8393C32.7986 15.3406 32.8267 15.8465 32.6159 16.3126C32.4262 16.7319 32.117 17.0856 31.8008 17.4135C31.0325 18.2076 30.1354 19.1656 29.0041 19.3436C27.437 19.5895 25.9848 18.5659 24.7293 17.5962C24.2749 17.2449 23.8134 16.8865 23.4902 16.4133C23.1927 15.9777 23.0264 15.467 22.8952 14.9564C22.3753 12.9022 22.4104 10.7543 22.4479 8.6368C23.1365 8.75391 23.8345 8.81247 24.5325 8.81481C24.645 8.81481 24.7715 8.80544 24.8417 8.71878C24.9097 8.63211 24.8886 8.50797 24.8652 8.40022C24.7972 8.08869 24.7293 7.77716 24.6614 7.46563C25.6498 7.93644 26.5399 8.58761 27.4909 9.12634C28.4419 9.66508 29.4959 10.1054 30.5898 10.089C30.5594 9.80094 30.468 9.51986 30.3251 9.26923C31.1145 9.97427 32.1076 10.4451 33.1523 10.6114C33.2858 9.73769 33.4381 8.96238 33.2484 8.06761C33.0352 7.06275 32.5808 6.07429 31.7938 5.36456C31.1894 4.82114 30.4165 4.4651 29.6201 4.22618C27.8024 3.68042 25.7927 3.72024 23.9985 4.33159C23.2888 4.57285 22.6095 4.9078 22.0403 5.37393C20.3163 6.7887 19.9673 9.34887 20.4264 11.3539C19.7893 10.5036 18.7493 10.958 18.3113 11.7099C17.2877 13.462 19.1288 16.4555 21.4008 15.6427C21.2088 15.713 21.621 16.753 21.6843 16.8701C21.8904 17.2519 22.2066 17.5096 22.5158 17.807C23.2279 18.4933 23.968 18.9969 24.8792 19.4373C25.8653 19.9128 26.9873 20.2899 28.0671 20.0533C28.8541 19.88 29.517 19.4022 30.1518 18.9313C30.1799 18.9103 30.2057 18.8915 30.2338 18.8704H30.2291Z" fill="#C97063"/>
</g>
<g style="mix-blend-mode:multiply">
<path d="M19.0814 13.3708C18.8542 13.0382 18.7956 12.4666 19.1165 12.1645C19.2781 12.0474 19.4421 12.1902 19.5733 12.2699C20.0417 12.5884 20.3954 13.0803 20.55 13.6308C20.639 13.9892 20.6859 14.3569 20.5711 14.7176C20.3767 15.0596 20.0534 14.7434 19.9598 14.5021C19.7044 13.9868 19.8216 13.3099 20.2643 12.9445C19.9082 13.3638 19.8637 13.9774 20.119 14.4178C20.2455 14.6169 20.4001 14.8137 20.4025 14.4623C20.4727 13.6144 20.0136 12.7711 19.3109 12.3003C19.2617 12.2699 19.2383 12.2675 19.1985 12.2886C18.9338 12.5393 18.9291 13.0358 19.0814 13.3731V13.3708Z" fill="#C97063"/>
</g>
<g style="mix-blend-mode:multiply">
<path d="M34.8713 12.0194C34.7776 11.6048 34.1545 11.7781 33.9976 12.0498C33.768 12.612 33.5244 13.1859 33.5432 13.7879C33.5432 13.8675 33.5807 13.9003 33.6298 13.9073C33.7751 13.8862 33.9039 13.6309 33.9671 13.488C34.1358 13.1016 34.2131 12.4598 33.5877 12.687C33.7329 12.6003 33.9531 12.53 34.096 12.6729C34.4543 13.0219 33.9789 14.5163 33.4026 14.0291C33.3324 13.9588 33.3183 13.8652 33.3136 13.8019C33.2785 13.207 33.5174 12.6331 33.768 12.1271C33.8172 12.0217 33.8852 11.8859 33.9906 11.825C34.2506 11.6306 34.8619 11.5907 34.8713 12.0217V12.0194Z" fill="#C97063"/>
</g>
<g style="mix-blend-mode:multiply">
<path d="M26.5717 10.5884C26.7685 12.0125 26.6771 13.5069 26.0869 14.835L26.0072 14.6968C26.2743 14.7296 26.5717 14.6336 26.8224 14.5235C27.087 14.4017 27.3564 14.2635 27.5415 14.0293C27.3986 14.2963 27.1362 14.486 26.8786 14.6359C26.5671 14.8046 26.2227 14.9404 25.855 14.8842C26.4054 13.521 26.5249 12.0453 26.5717 10.5884Z" fill="#C97063"/>
</g>
<path d="M29.8005 15.1464C29.14 16.3105 28.2077 17.8026 26.5142 17.4653C26.0739 17.3786 25.671 17.1655 25.3032 16.9195C24.9776 16.7017 24.638 16.444 24.4178 16.1255C24.3335 16.0037 24.1133 15.3221 23.9728 15.2986C26.02 15.6172 27.7955 15.6149 29.8005 15.144V15.1464Z" fill="#A42424"/>
<path d="M29.8005 15.1465C29.2172 16.1748 27.4909 16.4886 26.3596 16.4207C25.8021 16.3879 25.2423 16.2614 24.734 16.0413C24.5185 15.9476 24.4529 15.9077 24.3124 15.711C24.2351 15.6056 24.132 15.3268 23.9751 15.3011C26.0223 15.6196 27.7978 15.6173 29.8028 15.1465H29.8005Z" fill="white"/>
<g style="mix-blend-mode:multiply" opacity="0.58">
<path d="M29.7292 13.0196C29.6168 13.0477 29.5067 13.0829 29.3989 13.1204C28.6189 13.3874 28.3144 13.9753 29.078 14.4438C29.9307 14.9661 31.226 15.102 32.1254 14.5913C32.3456 14.4672 32.5306 14.2611 32.5541 14.0198C32.5869 13.7013 32.3362 13.4108 32.0528 13.2328C31.3829 12.8135 30.5139 12.8159 29.7292 13.0196Z" fill="#FFA188"/>
</g>
<g style="mix-blend-mode:multiply" opacity="0.58">
<path d="M22.686 13.1153C22.5736 13.1435 22.4635 13.1786 22.3557 13.2161C21.5757 13.4831 21.2712 14.071 22.0348 14.5395C22.8874 15.0618 24.1828 15.1977 25.0822 14.687C25.3024 14.5629 25.4874 14.3568 25.5109 14.1155C25.5436 13.797 25.293 13.5065 25.0096 13.3285C24.3397 12.9092 23.4707 12.9116 22.686 13.1153Z" fill="#FFA188"/>
</g>
<path d="M22.5083 12.4622C22.5669 11.804 23.3024 11.3331 23.9442 11.4995C24.5836 11.654 24.9771 12.1436 25.1668 12.7315C24.0777 12.3567 23.6654 11.8063 22.5083 12.4622Z" fill="black"/>
<path d="M28.5985 12.743C28.8702 11.8623 29.9946 10.937 30.9502 11.3961C31.2852 11.5742 31.4983 11.956 31.4093 12.2815C31.0158 11.8412 30.627 11.8342 30.1351 12.0379C29.6268 12.2581 29.1466 12.5251 28.5962 12.7406L28.5985 12.743Z" fill="black"/>
<path d="M22.3795 9.48956C22.4615 9.41694 22.5482 9.35136 22.6395 9.29046C23.2298 8.90866 24.0356 8.81496 24.6844 9.10073C25.3332 9.38649 25.7806 10.0587 25.7197 10.731C25.6002 10.5202 25.4293 10.3375 25.2255 10.1969C25.2325 10.3141 25.2395 10.4312 25.2466 10.5483C25.2395 10.4452 24.4478 10.2813 24.3541 10.2672C23.9536 10.2133 23.5437 10.2508 23.1431 10.2906C22.5013 10.3562 22.1125 10.642 21.6066 10.9933C21.6675 10.4288 21.9392 9.87838 22.3772 9.48956H22.3795Z" fill="#3F1F1F"/>
<path d="M31.5474 9.48956C31.4583 9.41694 31.36 9.35136 31.2592 9.29046C30.6081 8.90866 29.7157 8.81496 28.9989 9.10073C28.2821 9.38649 27.7856 10.0587 27.8535 10.731C27.9847 10.5202 28.1744 10.3375 28.3993 10.1969C28.3922 10.3141 28.3829 10.4312 28.3758 10.5483C28.3829 10.4452 29.2589 10.2813 29.362 10.2672C29.8047 10.2133 30.2591 10.2508 30.6994 10.2906C31.4092 10.3562 31.8378 10.642 32.3976 10.9933C32.332 10.4288 32.0299 9.87838 31.545 9.48956H31.5474Z" fill="#3F1F1F"/>
<path d="M32.4731 12.406C32.4544 12.5254 32.438 12.6144 32.431 12.6566C32.4193 12.7175 32.4099 12.7924 32.4567 12.837C32.4919 12.8697 32.5458 12.8744 32.5949 12.8838C32.794 12.9119 32.9838 13.0009 33.129 13.1344C33.0447 13.0571 33.2485 11.5206 33.3281 11.3753C33.649 10.8038 34.3025 10.5227 34.9677 10.7499C34.8951 10.08 35.1176 9.26724 35.1504 8.58328C35.1692 8.20616 35.1621 7.8267 35.1106 7.45193C35.0802 7.22707 34.8038 6.64148 34.8623 6.4541C34.7569 6.78671 34.7241 7.13806 34.7616 7.48238C34.6351 6.24797 34.1784 4.9714 33.1501 4.1914C33.9816 4.17501 34.8108 4.0696 35.6189 3.87753C35.1903 3.20762 34.429 2.79069 33.6584 2.4979C32.773 2.15826 31.8313 1.94511 30.8804 1.86312C31.2692 1.7624 31.6205 1.54457 31.8712 1.24709C30.1378 0.898084 28.3061 0.98475 26.6197 1.50006C26.8188 1.37123 26.9687 1.17682 27.0366 0.958984C25.3033 1.10655 23.6449 1.91231 22.5159 3.15609C22.5651 2.8633 22.6143 2.57285 22.6635 2.28006C21.4033 3.02726 20.4429 4.21249 20.0166 5.55464C19.9909 5.42113 19.9651 5.28527 19.9393 5.15176C19.0422 7.05608 18.9134 8.9112 19.1968 10.9373C20.0916 10.3986 20.6701 12.7339 20.799 13.1719C20.8247 13.2609 20.8505 13.3523 20.9161 13.4202C21.0145 13.5209 21.1714 13.542 21.3166 13.5584C21.4009 13.5678 21.5087 13.5654 21.5438 13.4928C21.5696 13.4436 21.5438 13.3851 21.5227 13.3359C21.1667 12.5301 21.0402 11.5979 20.9372 10.7382C20.909 10.5087 20.9559 9.63733 20.7966 9.48508C20.9606 9.64201 21.2393 9.64435 21.4478 9.54598C21.6563 9.4476 21.8062 9.26724 21.9373 9.08454C22.3449 8.51301 22.6119 7.85247 22.715 7.17085C23.0125 7.46598 23.4552 7.62995 23.8862 7.60418C23.8346 7.06076 23.7035 6.52671 23.4973 6.01608C25.0737 6.72581 26.6524 7.43553 28.2288 8.14526C28.1445 7.59013 27.8728 7.0631 27.4606 6.65788C27.6105 6.80545 28.1281 6.88509 28.3389 6.98346C28.6434 7.12869 28.8402 7.2786 29.0627 7.49878C29.585 8.01643 30.0746 8.50832 30.7211 8.89949C30.6625 8.32094 30.5688 7.74707 30.44 7.18022C30.6836 7.67914 30.9295 8.1804 31.2856 8.61373C31.6416 9.04706 32.1218 9.41246 32.6886 9.54129C32.8901 9.5858 32.5949 11.6377 32.4708 12.4036L32.4731 12.406Z" fill="#3F1F1F"/>
<g style="mix-blend-mode:multiply" opacity="0.42">
<path d="M23.1577 4.15617C23.1108 4.24049 25.4695 5.674 25.7014 5.78409C25.514 5.38824 25.3243 4.99238 25.1369 4.59653C26.7719 4.99472 28.3436 5.65058 29.7794 6.53129C29.5803 6.07922 29.3812 5.62481 29.1821 5.17274C30.4095 6.04643 31.5783 7.00445 32.6792 8.03273C32.8947 7.60174 32.9252 7.08409 32.7612 6.62967C33.8106 7.61814 34.3095 9.15705 34.0378 10.5718C34.3681 10.4711 34.7007 10.5788 34.9677 10.7334C34.8951 10.0097 35.1153 9.29993 35.1481 8.58084C35.1668 8.20372 35.1598 7.82426 35.1082 7.44949C35.0778 7.22463 34.8014 6.63904 34.8599 6.45165C34.7545 6.78427 34.7217 7.13562 34.7592 7.47994C34.6327 6.24553 34.176 4.96896 33.1477 4.18896C33.9792 4.17257 34.8084 4.06716 35.6165 3.87509C35.1879 3.20518 34.4266 2.78825 33.656 2.49546C32.7706 2.15582 31.829 1.94266 30.878 1.86068C31.2668 1.75996 31.6182 1.54213 31.8688 1.24465C30.1355 0.895642 28.3038 0.982308 26.6173 1.49762C26.8164 1.36879 26.9663 1.17438 27.0342 0.956543C25.3009 1.10411 23.6425 1.90987 22.5135 3.15365C22.5627 2.86086 22.6119 2.57041 22.6611 2.27762C21.4009 3.02482 20.4405 4.21004 20.0142 5.5522C19.9885 5.41869 19.9627 5.28283 19.9369 5.14932C19.0398 7.05129 18.9133 8.90876 19.1944 10.9325C19.1476 10.5882 19.9791 11.1832 20.0002 11.2042C20.3047 11.4994 20.4569 11.8437 20.6396 12.2232C20.3211 11.0778 20.0025 9.93236 19.684 8.78696C19.8245 9.00948 20.1571 9.03759 20.389 8.91345C20.6209 8.7893 20.7732 8.55975 20.9043 8.33255C21.436 7.42138 21.8155 6.42355 22.024 5.39058C22.1458 5.69274 22.3261 5.96913 22.551 6.20337C22.6025 5.48661 22.811 4.78157 23.1553 4.15148L23.1577 4.15617Z" fill="#3F1F1F"/>
</g>
<path d="M36.7082 33.4673C36.6989 33.4884 36.6848 33.5071 36.6684 33.5235C36.3194 33.8959 35.6565 34.0857 35.1576 34.2051C34.5392 34.3504 33.9045 34.3996 33.2767 34.4768C32.04 34.6244 30.7915 34.6478 29.5454 34.6361C26.9922 34.6127 24.329 34.4792 21.8836 33.7296C21.7571 33.6898 21.5065 33.6055 21.5042 33.4462C21.4995 33.123 22.776 33.0035 23.0454 32.9614C26.1912 32.4624 29.3041 32.2704 32.4944 32.4624C33.2229 32.5069 33.9537 32.5655 34.6728 32.685C35.0382 32.7459 35.4036 32.8232 35.7596 32.9239C36.0711 33.0105 36.4389 33.0855 36.6591 33.3291C36.6918 33.3666 36.7246 33.4134 36.7129 33.4603C36.7129 33.4626 36.7129 33.4673 36.7106 33.4696L36.7082 33.4673Z" fill="white"/>
<path d="M22.2074 32.067C22.2285 31.9148 22.273 31.7625 22.3761 31.6431C22.4791 31.5259 22.6478 31.4487 22.8071 31.4838C22.9078 31.1488 23.2521 30.8888 23.6222 30.8724C23.9923 30.856 24.3647 31.0762 24.5029 31.4018C24.5708 31.273 24.7793 31.3292 24.8988 31.4159C25.3157 31.725 25.5429 32.2497 25.4656 32.744C25.3883 33.2382 25.0065 33.6809 24.5029 33.8472C23.3458 34.2313 22.0598 33.1726 22.2074 32.0647V32.067Z" fill="#874341"/>
<path d="M31.1506 31.214C31.3169 30.8533 31.6425 30.5465 32.0453 30.434C32.4482 30.3216 32.9214 30.4247 33.1954 30.7221C33.4297 30.9751 33.4999 31.3358 33.4414 31.6661C33.3828 31.9964 33.2071 32.2985 32.9987 32.5702C32.8183 32.8021 32.6075 33.0176 32.3381 33.1558C32.0711 33.2917 31.7385 33.3409 31.4574 33.2331C30.7126 32.9474 30.8999 31.7598 31.1506 31.214Z" fill="#9AA55B"/>
<path d="M27.3882 31.9285C27.5451 31.9309 27.6974 31.9707 27.8285 32.0597C28.0042 32.1768 28.1213 32.3666 28.3157 32.4556C28.6741 32.6195 29.0817 32.3759 29.4073 32.1581C29.7329 31.9402 30.1896 31.7435 30.5011 31.9754C30.6604 32.0948 30.7401 32.3057 30.9274 32.383C31.0984 32.4532 31.2952 32.3806 31.4662 32.3057C31.7379 32.1862 32.026 32.0597 32.3235 32.0878C32.621 32.1183 32.9161 32.3783 32.8411 32.6523C32.8177 32.7366 32.7638 32.8163 32.7755 32.9006C32.799 33.0669 33.0379 33.1067 33.2136 33.088C33.6516 33.0388 34.2161 32.8702 34.5768 33.2004C34.8883 33.4862 34.7033 33.9125 34.7431 34.2732C32.9325 34.6901 30.8384 34.6948 28.981 34.6831C27.0579 34.6714 25.1325 34.4864 23.268 34.032C23.1486 34.0038 23.0197 33.964 22.9612 33.8633C22.8698 33.7017 23.2188 33.2801 23.3781 33.2332C23.5913 33.17 23.8232 33.2168 24.048 33.1887C24.4884 33.1348 23.7365 32.5235 24.3759 32.3314C24.6617 32.2448 24.9639 32.3736 25.2379 32.4907C25.512 32.6078 25.8282 32.7179 26.1022 32.6008C26.2639 32.5329 26.3786 32.3947 26.5075 32.2799C26.7417 32.0667 27.0767 31.9192 27.3929 31.9239L27.3882 31.9285Z" fill="#FEB543"/>
<g style="mix-blend-mode:multiply">
<path d="M24.0239 34.1C23.881 34.2242 23.6187 34.0743 23.6374 33.8728C23.7264 33.4512 24.2511 33.4981 24.5744 33.4934C24.743 33.4864 24.9187 33.4442 25.0171 33.3271L25.0616 33.4301C24.6681 33.3973 24.6517 32.8024 25.0616 32.7837C25.3778 32.779 25.5839 32.9734 25.8158 33.0249C26.0032 33.0718 26.31 33.1303 26.4576 33.0015C26.5349 32.9148 26.5091 32.7673 26.6098 32.6595C26.8535 32.4019 27.2259 32.533 27.4507 32.7017C28.287 33.47 28.9756 32.0786 29.9008 32.3175C30.1913 32.3644 30.3365 32.69 30.4864 32.875C30.8846 33.217 31.3578 32.526 31.8051 32.5307C31.9433 32.5166 32.1214 32.533 32.2408 32.6642C32.3509 32.7766 32.3579 32.9523 32.3439 33.0928C32.2806 33.7604 33.0911 33.4091 33.4518 33.3318C33.7095 33.2685 34.0725 33.3622 34.117 33.6667C34.1592 33.9431 34.0304 34.1844 34.0538 34.4397H34.0374L34.0538 34.2125V34.442H34.0374C33.9765 34.1 34.2482 33.6011 33.8289 33.4372C33.323 33.3083 32.7842 33.8939 32.3041 33.5051C32.1799 33.3903 32.1705 33.21 32.1776 33.0882C32.2385 32.6197 31.7887 32.6759 31.5006 32.8375C31.1844 33.0437 30.6855 33.3856 30.3365 33.0273C30.1515 32.8375 30.1116 32.5939 29.8493 32.5354C29.0763 32.3948 28.4907 33.4442 27.6733 33.0975C27.4062 32.9734 27.2399 32.7602 27.0291 32.7345C26.8488 32.7087 26.7434 32.7555 26.7129 32.9289C26.6778 33.1889 26.3826 33.3013 26.1671 33.2732C26.0289 33.2662 25.8954 33.2404 25.7666 33.1982C25.4926 33.128 24.9749 32.704 24.8976 33.1046C24.8976 33.2029 24.9749 33.3013 25.0663 33.306L25.2021 33.3107L25.1108 33.4091C24.8156 33.7112 24.3963 33.5355 24.0473 33.5871C23.8857 33.6105 23.7077 33.7089 23.6772 33.8775C23.6445 34.0368 23.8693 34.2125 24.0239 34.0977V34.1Z" fill="#FEB543"/>
</g>
<g style="mix-blend-mode:multiply">
<path d="M33.4876 34.5777C33.4572 33.3409 32.4008 34.5004 31.8925 33.9569C31.7613 33.8141 31.7332 33.5962 31.588 33.4955C31.1523 33.3011 30.6979 33.5611 30.2833 33.7297C30.1006 33.8023 29.8617 33.8586 29.6415 33.7813C29.4284 33.711 29.2668 33.5728 29.1168 33.4815C28.7093 33.2449 28.2268 33.3878 27.9223 33.7297C27.7396 33.8914 27.4468 33.8141 27.2664 33.7087C27.0134 33.5822 26.7487 33.4955 26.4677 33.4604C26.2006 33.4229 25.5776 33.4042 25.7064 33.8094L25.7486 33.8703C25.5003 33.9968 25.2239 33.9382 24.9897 33.9733C24.7976 33.9968 24.5235 34.2287 24.6828 34.4278C24.5868 34.3481 24.6102 34.1959 24.6828 34.1069C24.8913 33.7953 25.3621 33.9359 25.6338 33.7906L25.6104 33.8773C25.5307 33.7719 25.5495 33.629 25.608 33.533C25.6666 33.4299 25.7743 33.3643 25.8727 33.3315C26.2779 33.2261 26.6855 33.2824 27.0743 33.4065C27.3437 33.4744 27.5568 33.7227 27.7911 33.5587C27.8543 33.5119 27.9152 33.4323 28.0042 33.362C28.3532 33.095 28.8498 33.0575 29.2316 33.2777C29.5595 33.5072 29.8125 33.704 30.206 33.526C30.5644 33.3901 30.9603 33.1699 31.3678 33.2425C31.4662 33.2566 31.581 33.273 31.684 33.3456C31.7871 33.4182 31.8386 33.526 31.8785 33.615C32.012 34.0834 32.3821 33.9968 32.7615 33.9148C33.2557 33.807 33.5649 34.0553 33.4853 34.573L33.4876 34.5777Z" fill="#FEB543"/>
</g>
<path d="M35.2884 32.4392C35.2181 32.0082 34.8457 31.6194 34.3842 31.5679C34.0938 31.5351 33.8033 31.6335 33.548 31.767C32.7821 32.1722 32.2105 33.0225 32.0583 33.8306C32.0325 33.9711 32.0255 34.1327 32.1309 34.2358C32.1754 34.2803 32.2386 34.3084 32.2995 34.3342C32.9132 34.5801 33.6487 34.545 34.232 34.2381C34.8948 33.8891 35.4102 33.1653 35.2907 32.4369L35.2884 32.4392Z" fill="white"/>
<path d="M33.1499 33.0502C33.2927 32.7411 33.5808 32.4951 33.9205 32.3897C34.0798 32.3405 34.2742 32.3265 34.3936 32.4342C34.4616 32.4928 34.492 32.5794 34.5108 32.6638C34.5857 33.0081 34.4639 33.3852 34.1969 33.6311C33.5645 34.2167 32.7446 33.9122 33.1475 33.0502H33.1499Z" fill="#FF8E00"/>
<path d="M16.0367 31.0829C15.5472 31.4975 14.9897 31.8419 14.3877 32.0948C14.3362 32.1159 14.2776 32.1393 14.2214 32.13C14.1605 32.1206 14.1137 32.0808 14.0692 32.041C13.9333 31.9238 13.7857 31.8091 13.6639 31.6802C13.9778 31.4202 14.2636 31.015 14.3456 30.6285C14.3901 30.4154 14.3854 30.1929 14.4322 29.9797C14.5165 29.6002 14.7672 29.2723 15.0108 28.9585C15.4207 28.4291 15.8634 27.8412 16.4771 27.5015C16.62 27.4219 18.2268 26.834 18.0652 26.6255C18.454 27.1291 18.2081 27.8224 17.7419 28.1949C17.5686 28.333 17.3672 28.4385 17.1774 28.5579C17.1212 28.593 17.0627 28.6329 17.0252 28.6867C16.8659 28.921 16.7956 29.1927 16.7511 29.4621C16.7324 29.5698 16.6855 29.7197 16.7066 29.8275C16.7301 29.9516 16.8565 30.0453 16.8519 30.1765C16.8495 30.2514 16.798 30.3193 16.7464 30.3779C16.531 30.6309 16.2944 30.8651 16.0391 31.0829H16.0367Z" fill="#AF5D54"/>
<path d="M12.9048 28.3823C13.0289 28.3706 13.1554 28.3589 13.2796 28.3472C14.3078 28.2535 15.3338 28.1575 16.3597 28.0591C18.3624 27.867 20.3394 27.7194 22.3514 27.614C24.4502 27.504 26.5489 27.3775 28.6429 27.2299C29.5447 27.1667 30.4442 27.1011 31.346 27.0308C31.346 26.8926 31.3249 26.7521 31.278 26.6209C31.257 26.5623 29.7977 26.6373 29.6103 26.642C28.8303 26.6631 28.0503 26.6841 27.2727 26.7076C24.8554 26.7802 22.4451 26.8692 20.0325 27.0004C19.1752 27.0472 18.3203 27.0987 17.4653 27.1573C15.8233 27.2697 14.1837 27.4032 12.5488 27.5625C12.523 27.5649 12.4949 27.5672 12.4715 27.5813C12.441 27.5976 12.4246 27.6304 12.4106 27.6585C12.2325 28.0661 12.4293 28.4221 12.9071 28.38L12.9048 28.3823Z" fill="#E0D8B6"/>
<path d="M31.6503 34.5072C31.8049 34.4885 31.9595 34.4674 32.1141 34.4463C32.2031 34.1676 31.9174 33.9193 31.6691 33.746C31.4208 33.5726 31.1491 33.3033 31.2662 33.0339C31.3294 32.8887 31.4934 32.795 31.5309 32.6427C31.5894 32.3898 31.2756 32.2141 31.0179 32.1274C30.7603 32.0408 30.4464 31.8651 30.5049 31.6121C30.5588 31.3826 30.8961 31.2959 30.9664 31.0687C31.0132 30.9141 30.9148 30.7525 30.7884 30.6447C30.6619 30.5393 30.5049 30.4667 30.3761 30.3613C30.1114 30.1411 30.006 29.7827 30.0505 29.4525C30.095 29.1222 30.273 28.8201 30.4979 28.5624C30.6338 28.4055 30.7907 28.2602 30.8797 28.0775C30.9687 27.8948 30.9781 27.6559 30.8282 27.5083C30.7275 27.41 30.5705 27.3655 30.4885 27.253C30.2403 26.9134 30.8821 26.3864 30.5775 26.0912C30.3316 25.8523 29.9217 26.1896 29.568 26.1662C29.3502 26.1521 29.1745 25.9999 28.9637 25.9437C28.3945 25.7938 27.8604 26.3911 27.2725 26.3255C26.9961 26.295 26.7478 26.117 26.4714 26.1311C26.2396 26.1451 26.0264 26.3114 25.9678 26.5222C25.928 26.6721 25.9585 26.8361 25.8905 26.9743C25.8132 27.1312 25.6352 27.2179 25.4947 27.3303C24.8529 27.8503 25.2511 28.806 25.7758 29.251C26.0287 29.4665 26.263 29.579 26.1014 29.9514C25.8999 30.4199 25.3588 30.6845 25.0965 31.1272C24.8693 31.509 24.9044 32.0033 25.148 32.371C25.3893 32.7364 25.8554 32.7107 26.1037 33.0526C26.4738 33.5633 25.846 34.4487 25.5509 34.8609C27.5887 34.8844 29.6289 34.7672 31.6503 34.5119V34.5072Z" fill="#FFD16C"/>
<g style="mix-blend-mode:multiply">
<path d="M26.7426 34.8655C27.1057 34.3174 27.3774 33.6521 27.375 32.9986C27.2228 32.2772 26.1781 32.4552 25.8268 31.8415C25.4168 31.099 26.321 30.5556 26.6606 30.0239C26.8761 29.6678 26.7777 29.1947 26.4545 28.93C26.0961 28.663 25.6323 28.2765 25.808 27.7518C25.8689 27.5176 26.0516 27.3091 26.2648 27.2107C26.3631 27.1592 26.4522 27.1053 26.4779 27.0116C26.506 26.9179 26.4943 26.7891 26.5529 26.679C26.663 26.4612 26.9159 26.3464 27.1385 26.3862C26.9113 26.3698 26.6911 26.508 26.6091 26.7048C26.5646 26.8008 26.588 26.9086 26.5646 27.0351C26.5388 27.1709 26.4147 27.2552 26.3233 27.3114C25.9275 27.4988 25.808 28.0516 26.0821 28.3538C26.2132 28.5107 26.4077 28.6232 26.588 28.7777C26.9815 29.0846 27.1174 29.6959 26.855 30.1316C26.588 30.661 25.712 31.0662 26.0095 31.7291C26.239 32.0875 26.7567 32.1484 27.115 32.3826C27.3212 32.4974 27.5132 32.7222 27.5226 32.9799C27.5296 33.104 27.5085 33.2235 27.4875 33.3336C27.3727 33.8934 27.1103 34.4275 26.7449 34.8584L26.7426 34.8655Z" fill="#FEB543"/>
</g>
<g style="mix-blend-mode:multiply">
<path d="M27.9965 26.1567C27.8583 26.3582 27.5725 26.3488 27.3804 26.4566C27.1954 26.569 27.1204 26.74 27.3219 26.8712C27.3476 26.8946 27.3781 26.9555 27.3547 27.007C27.3172 27.0866 27.2516 27.1007 27.1907 27.1405C26.8581 27.3092 26.488 27.5598 26.7199 27.972C26.9565 28.3562 27.439 28.5248 27.7482 28.8738C28.1417 29.2533 28.0105 29.9209 27.6639 30.2792C27.5069 30.4643 27.3312 30.6189 27.2048 30.7946C27.0103 31.0546 26.9026 31.3661 27.1087 31.6355C27.3078 31.9142 27.6147 32.0641 27.8817 32.2913C28.8327 33.0854 28.2143 34.041 27.6779 34.8538C27.952 34.2565 28.4321 33.6218 28.1721 32.9354C28.0082 32.4881 27.5491 32.3194 27.1977 32.029C26.7199 31.6659 26.6567 31.1436 27.0221 30.6681C27.7716 29.8131 28.2424 29.3681 27.0689 28.5904C26.3428 28.0938 26.2163 27.4146 27.1345 27.0375C27.1837 27.014 27.2516 26.9789 27.2493 26.9719C27.2633 26.9766 27.2329 26.9321 27.1837 26.8922C27.008 26.733 27.1837 26.473 27.3523 26.4097C27.5725 26.3066 27.8325 26.3535 27.9965 26.1638V26.1567Z" fill="#FEB543"/>
</g>
<g style="mix-blend-mode:multiply">
<path d="M28.5799 34.6339C29.0788 33.7344 29.2615 32.9872 28.3456 32.3079C27.9943 32.0105 27.575 31.6872 27.5188 31.1813C27.3946 30.2865 28.793 29.6307 28.2754 28.7804C28.013 28.4033 26.8981 27.9184 27.5703 27.3984C27.753 27.2719 27.9685 27.1618 28.1395 27.04C28.1746 27.0119 28.2027 26.9651 28.2027 26.9487C28.1957 26.9182 28.1489 26.9182 28.1161 26.8925C28.0013 26.8433 27.9029 26.7098 27.9193 26.5762C27.9709 26.2296 28.2988 25.9368 28.6361 25.897C28.3222 25.9274 27.7202 26.5739 28.1676 26.7871C28.3737 26.8433 28.3644 27.0096 28.2332 27.1337C28.1278 27.2227 28.0435 27.2672 27.9474 27.3375C27.7694 27.464 27.5258 27.5858 27.5422 27.738C27.6804 28.148 28.1934 28.2885 28.4464 28.6492C28.793 29.0708 28.5494 29.6517 28.2777 30.0312C28.0341 30.3779 27.7062 30.7292 27.7319 31.1625C27.7741 31.5959 28.1676 31.884 28.4674 32.1744C29.3973 32.938 29.2076 33.7508 28.5822 34.6339H28.5799Z" fill="#FEB543"/>
</g>
<g style="mix-blend-mode:multiply">
<path d="M29.7357 26.1545C29.3961 26.1545 28.9253 26.1428 28.7356 26.4637C28.7004 26.5645 28.8105 26.6113 28.93 26.6441C29.101 26.6886 29.4172 26.7612 29.4031 27.0165C29.3914 27.2554 29.1385 27.3796 28.9698 27.4522C28.7637 27.5436 28.5927 27.7309 28.5505 27.9488C28.5365 28.0472 28.5646 28.087 28.67 28.1291C29.3212 28.2299 29.5648 28.8318 29.3118 29.4151C29.1127 29.8882 28.6887 30.2208 28.5669 30.708C28.3022 31.6426 29.7123 31.5396 29.7756 32.3875C29.7943 32.5304 29.6912 32.6943 29.5999 32.7787C29.5624 32.8208 29.553 32.8513 29.5577 32.8864C29.6069 33.0457 29.7873 33.0879 29.9512 33.1441C30.4923 33.3057 30.2909 33.828 30.0075 34.1396C29.8505 34.3387 29.6936 34.5378 29.532 34.7345C29.7264 34.416 29.984 34.1208 30.1433 33.7835C30.1878 33.6734 30.2112 33.5493 30.1667 33.4556C30.052 33.2214 29.7334 33.287 29.5366 33.116C29.4804 33.0691 29.4242 33.0106 29.4031 32.9192C29.3797 32.8279 29.4242 32.7295 29.4711 32.6779C29.5179 32.6217 29.553 32.5819 29.5718 32.5397C29.635 32.3898 29.5601 32.2376 29.457 32.1134C29.1314 31.7434 28.4334 31.6684 28.335 31.0805C28.1289 30.1365 29.4523 29.5837 29.1361 28.6772C29.0939 28.5765 29.026 28.4922 28.9394 28.4407C28.7988 28.3493 28.5201 28.3587 28.4006 28.1713C28.2718 27.9488 28.4264 27.7028 28.5646 27.5412C28.7215 27.3351 29.0377 27.2976 29.204 27.1383C29.4476 26.8104 28.8855 26.8174 28.7098 26.6605C28.6442 26.6113 28.6208 26.5082 28.6536 26.4356C28.8855 26.0726 29.3727 26.1218 29.7357 26.1569V26.1545Z" fill="#FEB543"/>
</g>
<g style="mix-blend-mode:multiply">
<path d="M31.3407 34.4369C30.7949 34.3572 30.6169 34.1347 30.8043 33.596C30.8558 33.4109 30.7832 33.2493 30.6357 33.1345C29.8205 32.6098 29.7737 32.5607 30.036 31.6284C30.0852 31.1623 29.5512 31.2513 29.2865 30.9468C28.9703 30.5931 29.0593 30.0684 29.2701 29.703C29.5441 29.2041 29.9985 28.7286 29.7268 28.1782C29.6847 28.1032 29.6308 28.047 29.5512 27.9931C29.4739 27.9416 29.3567 27.8502 29.338 27.7144C29.3169 27.5832 29.3661 27.4708 29.4223 27.3794C29.5558 27.1428 29.9166 26.9765 29.8838 26.6908L29.9611 26.7142C29.9072 26.7657 29.8252 26.747 29.7854 26.7142C29.4949 26.412 30.1906 26.2528 30.3686 26.1333L29.9259 26.405C29.8557 26.4472 29.7854 26.5104 29.7854 26.5737C29.7807 26.6322 29.8814 26.6861 29.8955 26.6486L29.94 26.5456L29.9728 26.672C30.0712 27.0983 29.4551 27.2857 29.4926 27.6839C29.5067 27.7519 29.5605 27.794 29.6472 27.8479C30.4061 28.3655 29.7994 29.2744 29.4668 29.8108C29.3005 30.1082 29.2209 30.5252 29.4504 30.7922C29.6144 30.9866 30.0571 31.0077 30.1883 31.3052C30.3499 31.6097 30.1274 31.9634 30.0805 32.2304C29.9915 32.645 30.4553 32.7926 30.7176 33.0315C30.8863 33.1626 30.98 33.4226 30.8957 33.6241C30.6755 34.13 30.8277 34.301 31.3313 34.4392L31.3407 34.4369Z" fill="#FEB543"/>
</g>
<path d="M13.28 30.4972C13.4018 30.4691 13.5236 30.441 13.6454 30.4153C14.6479 30.1881 15.6504 29.9585 16.6529 29.729C18.6088 29.2769 20.5435 28.874 22.5205 28.5086C24.5817 28.1268 26.6406 27.7263 28.6949 27.307C29.5779 27.1266 30.461 26.9439 31.3417 26.7565C31.323 26.6183 31.2785 26.4848 31.2129 26.3583C31.1848 26.3021 29.7489 26.5691 29.5639 26.5973C28.7956 26.7191 28.025 26.8409 27.2567 26.9673C24.8745 27.3538 22.4994 27.7567 20.1289 28.2018C19.288 28.3587 18.4472 28.5227 17.6086 28.6913C15.9994 29.0145 14.3949 29.3612 12.7998 29.7336C12.774 29.7407 12.7483 29.7454 12.7272 29.7617C12.6991 29.7828 12.6874 29.8156 12.6803 29.8484C12.5656 30.2747 12.8115 30.6026 13.2776 30.4972H13.28Z" fill="white"/>
<path d="M18.5808 34.0249C18.3231 34.1327 18.0561 34.2123 17.7774 34.2498C17.2667 34.3201 16.7467 34.2428 16.2314 34.2709C15.7161 34.2966 15.1633 34.4583 14.8822 34.8635C14.9572 34.7534 14.4021 33.7181 14.3154 33.5565C14.2123 33.3644 13.2614 32.1042 13.3574 32.0129C13.7813 31.6147 14.2264 31.1813 14.3435 30.6309C14.3716 30.4997 14.3529 30.3639 14.3833 30.235C14.7792 30.1624 15.175 30.0804 15.5662 29.9868C15.9386 29.8977 16.304 29.7713 16.6858 29.7478C16.6554 29.7478 16.7233 29.8368 16.7819 29.8345C16.8404 29.8345 16.9201 29.7736 16.9693 29.7455C17.0676 29.6893 17.166 29.626 17.255 29.5534C17.6275 29.2466 17.9905 28.9304 18.3583 28.6165C19.0586 28.0192 19.7801 27.2931 20.5811 26.834C20.8037 26.6747 21.2347 26.5084 21.3119 26.9089C21.3424 27.0659 21.2768 27.2228 21.2065 27.3657C20.9793 27.8341 20.7006 28.2792 20.3774 28.6938C20.5015 28.5322 20.7779 28.5275 20.9419 28.6516C21.1058 28.7758 21.1691 28.9913 21.1527 29.188C21.1363 29.3801 21.0566 29.5628 20.977 29.7408C21.312 29.5042 21.4384 30.2421 21.401 30.4318C21.3471 30.6941 21.1878 30.9237 21.0332 31.1462C20.9512 31.2657 20.8692 31.3828 20.7849 31.5022C20.9465 31.5397 21.0449 31.706 21.0402 31.863C21.0168 32.5516 20.0635 33.1606 19.5294 33.5049C19.2273 33.6993 18.9111 33.8844 18.5761 34.0226L18.5808 34.0249Z" fill="#C97063"/>
<g style="mix-blend-mode:multiply" opacity="0.27">
<path d="M18.5808 34.0248C18.3231 34.1326 18.0561 34.2122 17.7774 34.2497C17.2667 34.32 16.7467 34.2427 16.2314 34.2708C15.7161 34.2966 15.1633 34.4582 14.8822 34.8634C14.9572 34.7533 14.4021 33.718 14.3154 33.5564C14.2123 33.3643 13.2614 32.1041 13.3574 32.0128C13.7813 31.6146 14.2264 31.1813 14.3435 30.6308C14.3716 30.4996 14.3529 30.3638 14.3833 30.235C14.7792 30.1623 15.175 30.0804 15.5662 29.9867C15.9386 29.8977 16.304 29.7712 16.6858 29.7478C16.6554 29.7478 16.7233 29.8368 16.7819 29.8344C16.8404 29.8344 16.9201 29.7735 16.9693 29.7454C17.0676 29.6892 17.166 29.6259 17.255 29.5533C17.6275 29.2465 17.9905 28.9303 18.3583 28.6164C19.0586 28.0191 19.7801 27.293 20.5811 26.8339C20.642 26.7988 20.9184 26.5762 20.9676 26.7285C20.3984 27.3188 19.8175 27.8973 19.2273 28.4665C18.6323 29.0404 18.0046 29.6377 17.7563 30.4247C17.7118 30.5676 17.7048 30.769 17.8453 30.8205C17.9437 30.858 18.0514 30.7901 18.1357 30.7268C18.9485 30.1014 19.7145 29.4128 20.4195 28.6679C20.5132 28.5672 20.6678 28.4618 20.7732 28.5485C20.881 28.6375 20.799 28.8108 20.7123 28.9186C20.0846 29.7056 19.3772 30.4434 18.9111 31.3335C18.8642 31.4249 18.8291 31.556 18.9157 31.6122C18.9884 31.6591 19.082 31.6029 19.15 31.5513C19.8714 30.9822 20.5366 30.3474 21.141 29.6564C21.2792 29.7314 21.2112 29.9445 21.1199 30.0733C20.8552 30.4505 20.5507 30.8018 20.2181 31.1204C19.8878 31.4342 19.4966 31.7692 19.4638 32.2236C19.4592 32.2751 19.4639 32.3313 19.5037 32.3641C19.5575 32.411 19.6395 32.3805 19.7028 32.3477C20.1127 32.1276 20.4851 31.8348 20.792 31.4858C20.8739 31.3921 21.0449 31.8207 21.0426 31.8629C21.0192 32.5515 20.0658 33.1605 19.5318 33.5049C19.2296 33.6993 18.9134 33.8843 18.5784 34.0225L18.5808 34.0248Z" fill="#C97063"/>
</g>
<g style="mix-blend-mode:multiply">
<path d="M20.7864 28.0684C20.5101 28.6727 20.0744 29.1857 19.6293 29.6635C19.1773 30.1273 18.7135 30.6543 18.0811 30.8745C18.6198 30.4927 19.0063 29.975 19.4607 29.5042C19.9128 29.0311 20.3578 28.5696 20.7888 28.0707L20.7864 28.0684Z" fill="#C97063"/>
</g>
<g style="mix-blend-mode:multiply">
<path d="M21.1342 29.3169C20.8859 30.3827 20.0075 31.1837 19.1151 31.7459C19.8038 30.9214 20.5838 30.2491 21.1342 29.3169Z" fill="#C97063"/>
</g>
<g style="mix-blend-mode:multiply">
<path d="M21.1802 30.8931C20.9693 31.6098 20.365 32.1509 19.7021 32.4554C20.1753 31.8839 20.6836 31.4482 21.1802 30.8931Z" fill="#C97063"/>
</g>
<path d="M36.6728 33.7345C36.3847 34.8752 35.8436 35.9878 34.9559 36.824C33.3444 38.3325 31.0348 38.5269 28.8728 38.5035C27.95 38.4941 27.0669 38.3653 26.1815 38.1263C25.0455 37.8218 23.9891 37.2386 23.1599 36.4492C22.2628 35.5966 21.8107 34.6128 21.5085 33.4651C21.7147 33.5588 21.9419 33.608 22.1644 33.6572C23.2372 33.8914 24.2912 33.9687 25.3851 34.0788C26.6055 34.2006 27.8328 34.2873 29.0602 34.2943C30.3696 34.3037 31.679 34.2615 32.9813 34.1327C34.2415 34.0085 35.5789 33.8727 36.7501 33.4019C36.7267 33.5119 36.7009 33.6244 36.6728 33.7345Z" fill="#A42424"/>
<g style="mix-blend-mode:multiply" opacity="0.53">
<path d="M36.6727 33.7346C36.3846 34.8753 35.8435 35.9879 34.9558 36.8241C33.3442 38.3326 31.0347 38.527 28.8727 38.5036C27.9498 38.4942 27.0668 38.3654 26.1814 38.1264C25.4787 37.9367 24.8017 37.6416 24.1881 37.2504C23.654 36.9108 23.2535 36.3744 22.7264 36.0488C24.1061 36.9037 25.8488 36.8054 27.465 36.6508C29.203 36.4845 31.2478 36.3018 32.6837 35.1985C32.2668 35.5194 30.5639 34.4466 30.1821 34.2756C31.194 34.3459 32.337 34.2054 33.3513 34.1C33.7752 34.0555 36.654 33.8751 36.7523 33.4043C36.7289 33.5144 36.7031 33.6268 36.675 33.7369L36.6727 33.7346Z" fill="#A42424"/>
</g>
<path d="M36.3095 38.4893C36.7264 38.2714 37.1551 38.0653 37.5416 37.7983C37.9093 37.5453 38.1084 37.2221 38.5933 37.119C38.6753 37.1026 38.7619 37.0909 38.8416 37.112C39.0336 37.1635 39.1226 37.3743 39.2913 37.4727C40.097 36.6693 40.8372 35.8073 41.5001 34.8938C41.1581 34.6572 40.7435 34.5424 40.3524 34.3855C39.9471 34.2239 39.6684 33.9943 39.3733 33.6992C39.0875 33.4134 38.9165 33.0457 38.6214 32.7622C38.263 32.4179 37.7758 32.2399 37.3565 31.9776C36.97 31.7363 36.7335 31.7035 36.2767 31.7855C35.9628 31.8441 35.6513 31.926 35.3374 31.9869C34.7261 32.1087 34.1077 32.2118 33.4893 32.2938C33.6392 33.1183 34.5106 33.226 35.2484 33.1815C35.6536 33.1581 36.1713 33.0246 36.5554 33.1886C36.0378 34.0927 35.321 34.8938 34.4708 35.5379C34.0468 35.8612 33.5877 36.1446 33.1028 36.3835C32.6648 36.599 32.1917 36.8566 31.7256 36.9995C31.4773 37.0768 31.2102 37.1541 31.0463 37.3462C30.9057 37.5102 30.8776 37.8264 31.0884 37.9529C31.2243 38.0348 31.6857 38.0887 31.8239 38.0161C31.6038 38.1309 31.6483 38.4705 31.8474 38.6157C32.1917 38.8687 32.7866 38.7633 33.1848 38.7282C33.152 38.7914 33.1895 38.8687 33.2504 38.9085C33.3113 38.9483 33.3886 38.9577 33.4612 38.9624C33.932 38.9952 34.4122 38.8968 34.8245 38.6813C34.7589 38.7586 34.8174 38.8851 34.9135 38.9249C35.0095 38.9671 35.1219 38.9483 35.225 38.9249C35.6068 38.8336 35.9652 38.6649 36.3118 38.4869L36.3095 38.4893Z" fill="#C97063"/>
<g style="mix-blend-mode:multiply" opacity="0.32">
<path d="M36.3098 38.4897C36.7267 38.2719 37.1553 38.0658 37.5418 37.7987C37.9096 37.5458 38.1087 37.2225 38.5935 37.1195C38.6755 37.1031 38.7622 37.0914 38.8418 37.1124C39.0339 37.164 39.1229 37.3748 39.2915 37.4732C39.4204 37.5481 41.32 35.3088 41.3809 34.9973C41.3809 34.9973 39.7975 34.6249 39.6359 34.5499C39.0831 34.2899 38.5607 33.8168 38.1227 33.3975C37.673 32.9665 37.3216 32.5262 36.6705 32.4137C36.1411 32.3247 35.6024 32.4207 35.0707 32.4816C34.539 32.5425 33.9768 32.5636 33.4919 32.3364C33.2858 32.5449 34.026 33.0157 34.1759 33.0743C34.5108 33.2031 34.8997 33.2031 35.2534 33.182C35.7007 33.1539 36.8579 32.8072 36.9094 33.5334C36.9258 33.7512 36.8298 33.962 36.7243 34.1541C35.8858 35.6719 34.3188 36.6487 32.726 37.335C32.1334 37.5903 31.5525 37.7636 30.9036 37.6957C30.7608 38.0259 31.604 38.1314 31.8289 38.0142C31.6087 38.129 31.6532 38.4686 31.8523 38.6139C32.1966 38.8668 32.7916 38.7614 33.1898 38.7263C33.157 38.7896 33.1945 38.8668 33.2554 38.9067C33.3163 38.9465 33.3935 38.9559 33.4662 38.9605C33.937 38.9933 34.4172 38.895 34.8294 38.6795C34.7638 38.7568 34.8224 38.8832 34.9184 38.9231C35.0144 38.9652 35.1269 38.9465 35.2299 38.9231C35.6117 38.8317 35.9701 38.6631 36.3168 38.485L36.3098 38.4897Z" fill="#C97063"/>
</g>
<g style="mix-blend-mode:multiply">
<path d="M31.2178 37.9602C32.0517 38.1405 32.8176 37.6978 33.5672 37.4003C34.3214 37.0701 35.0522 36.6789 35.5909 36.0371C35.1998 36.796 34.4221 37.2785 33.6608 37.6158C32.9113 37.9157 32.0118 38.3326 31.2155 37.9625L31.2178 37.9602Z" fill="#C97063"/>
</g>
<g style="mix-blend-mode:multiply">
<path d="M32.8103 38.7584C34.1525 38.4023 35.2955 37.6575 36.366 36.7861C35.5391 37.8894 34.2157 38.7303 32.8103 38.7584Z" fill="#C97063"/>
</g>
<g style="mix-blend-mode:multiply">
<path d="M34.5974 38.8366C35.3563 38.2978 36.0707 37.7989 36.8367 37.2695C36.305 38.0284 35.4922 38.5929 34.5974 38.8366Z" fill="#C97063"/>
</g>
<path d="M1.06208 40.9534C1.27758 40.1664 1.63361 39.4122 2.1091 38.7329C3.73 36.421 6.38855 35.1702 8.85034 33.8281C9.16889 33.6547 13.5327 31.125 13.5303 31.125C13.8395 31.4295 16.5238 35.4115 15.8539 35.6012C15.5635 35.6832 15.3128 35.8542 15.0692 36.0275C14.3337 36.5522 14.0128 37.2151 13.4226 37.8381C12.741 38.5596 11.9492 39.2271 11.195 39.8806C8.72854 42.0192 5.91774 43.7502 2.41595 43.3613C2.04118 43.3192 1.65001 43.2489 1.3619 43.0194C0.837217 42.6001 0.851271 41.8388 0.998838 41.2064C1.01758 41.1221 1.041 41.0377 1.06442 40.9534H1.06208Z" fill="#FFA188"/>
<g style="mix-blend-mode:multiply" opacity="0.37">
<path d="M1.06208 40.9539C1.31037 40.0497 1.83037 38.895 2.58928 38.2953C2.66424 39.0285 2.83288 39.7499 3.09288 40.4386C3.17955 40.6658 3.2873 40.9047 3.49342 41.0312C3.96423 41.3169 4.53576 40.8485 4.81684 40.3753C5.639 38.984 5.79359 37.1054 7.11935 36.1825C7.46836 36.8337 7.74944 37.5223 7.96025 38.2321C7.90872 37.5762 8.01412 36.9087 8.26241 36.302C8.69574 36.8642 9.26259 37.3233 9.90204 37.6301C10.0965 36.2645 10.1175 34.8779 9.96763 33.5076C11.1294 34.1611 12.0945 35.1589 12.7082 36.3442C12.5067 35.009 12.3053 33.6716 12.1015 32.3364C13.0642 33.0743 13.9121 33.962 14.6078 34.9552C14.3689 34.6132 14.4438 33.3858 14.4415 32.9665C14.7624 33.1633 16.5215 35.4142 15.8539 35.6063C15.5635 35.6883 15.3128 35.8593 15.0692 36.0326C14.3337 36.5573 14.0128 37.2202 13.4226 37.8432C12.741 38.5647 11.9492 39.2323 11.195 39.8858C8.72854 42.0243 5.91774 43.7553 2.41595 43.3665C2.04118 43.3243 1.65001 43.254 1.3619 43.0245C0.837217 42.6052 0.851271 41.844 0.998838 41.2115C1.01758 41.1272 1.041 41.0429 1.06442 40.9586L1.06208 40.9539Z" fill="#FFA188"/>
</g>
<path d="M39.7409 36.0276C40.2352 35.2733 40.8418 34.5824 41.5422 33.9897C44.4959 35.7605 47.7236 37.0699 50.8717 38.5058C51.551 38.815 52.249 39.1405 52.7315 39.6863C53.3405 40.3773 53.5068 41.3166 53.6263 42.209C53.6614 42.4643 53.6919 42.7266 53.6216 42.9749C53.1227 44.7293 49.2906 44.2234 48.0211 43.865C46.0582 43.3099 44.2406 42.0146 42.6033 40.8739C41.9802 40.4405 41.3595 39.951 40.6732 39.6137C40.4998 39.5294 38.5229 38.7798 38.5135 38.822C38.7572 37.8359 39.1764 36.8896 39.7409 36.0299V36.0276Z" fill="#FFA188"/>
<g style="mix-blend-mode:multiply" opacity="0.37">
<path d="M39.633 36.5758L39.612 38.1569C40.4505 37.1239 41.2914 36.091 42.13 35.0557C42.2049 36.6274 42.6429 38.1827 43.3995 39.5647C43.868 38.4052 44.9782 37.5292 46.215 37.3418C45.8918 38.0984 45.6224 38.8784 45.4116 39.6747C45.791 39.2765 46.2361 38.9463 46.7256 38.698C46.489 39.4218 46.5172 40.2486 46.9013 40.9045C47.2854 41.5603 48.0584 42.0007 48.8103 41.8976C49.5645 41.7946 50.2157 41.0848 50.1595 40.3259C50.389 40.6304 50.3984 41.0473 50.5507 41.3964C50.7029 41.7477 51.1643 42.0405 51.4501 41.7875C51.5485 41.7009 51.5977 41.572 51.6398 41.4455C51.8694 40.7569 52.0123 40.0378 52.0615 39.314C52.0615 39.3257 53.0078 40.087 53.1108 40.258C53.4551 40.8201 53.5371 41.5673 53.6238 42.2068C53.6589 42.4621 53.6894 42.7245 53.6191 42.9727C53.1202 44.7272 49.2881 44.2212 48.0186 43.8628C46.0557 43.3077 44.2381 42.0124 42.6008 40.8717C41.9777 40.4383 41.357 39.9488 40.6707 39.6115C40.0031 39.2836 39.2325 39.0119 38.5157 38.8245C38.6469 38.0281 39.1857 37.2364 39.6284 36.5758H39.633Z" fill="#FFA188"/>
</g>
<path d="M43.7424 46.4165C43.7752 46.4165 43.808 46.4165 43.8408 46.4189C45.9137 46.4868 48.1015 46.6016 49.8325 47.6744C54.3274 50.4594 42.4822 51.5767 41.3321 51.6587C35.9026 52.0451 30.4543 52.0405 25.0131 52.0358C19.5133 52.0311 13.9877 52.0241 8.55119 51.2441C6.41966 50.9372 4.23193 50.4828 2.49626 49.2812C2.13788 49.0329 1.76779 48.6488 1.90599 48.2506C1.995 47.9929 2.26905 47.8407 2.52436 47.7189C4.15229 46.9553 5.63967 46.9459 7.36597 46.7562C13.189 46.1144 19.1877 46.2198 25.0506 46.1799C31.2835 46.1354 37.5165 46.2151 43.7447 46.4165H43.7424Z" fill="white"/>
<g style="mix-blend-mode:multiply" opacity="0.37">
<path d="M43.8407 46.4212C43.8079 46.4212 43.7751 46.4212 43.7423 46.4188C37.5141 46.2174 31.2811 46.1378 25.0482 46.1823C21.3332 46.208 17.6183 46.1097 13.9033 46.2315C12.0459 46.2924 10.1907 46.4071 8.34499 46.6203C6.80841 46.7983 4.93221 46.7749 3.49167 47.3605C2.58285 47.7306 3.21059 48.096 3.89689 48.0983C6.82481 48.1124 9.93543 47.8196 12.8142 48.4309C12.9055 48.4497 13.0226 48.5223 12.9758 48.6042C12.9524 48.6441 12.9032 48.6534 12.8587 48.6605C11.6524 48.8197 10.4601 48.6324 9.24444 48.8221C8.72913 48.9017 6.9185 49.2109 8.00535 49.7918C8.62841 50.1244 9.52552 50.1478 10.2189 50.2087C12.5237 50.4055 15.1471 50.5741 17.3349 49.7426C17.4731 49.6911 17.6276 49.6138 17.6487 49.4756C17.6604 49.403 17.6323 49.3397 17.5831 49.2835C18.8222 48.9837 20.0613 48.6277 21.2864 48.3442C25.9734 47.2597 30.8337 47.2433 35.6449 47.234C37.0456 47.2316 38.4604 47.2293 39.8306 47.5197C40.62 47.6861 41.3836 47.9484 42.1636 48.1498C44.5738 48.7706 47.6657 48.9931 50.0245 48.0678C49.7176 46.4095 45.0915 46.4657 43.8383 46.4259L43.8407 46.4212Z" fill="#2D83A5"/>
</g>
<path d="M11.5516 48.2481C11.3314 47.9858 11.1511 47.6883 11.0269 47.351C10.7786 46.6858 10.5889 45.9878 10.6006 45.2827C12.0201 45.606 13.5121 45.6598 14.9691 45.6762C16.1871 45.6879 17.7307 45.7887 18.8972 45.4186C18.8409 46.3696 18.7051 47.358 18.1453 48.1521C16.7609 50.1149 13.046 50.0142 11.5516 48.2458V48.2481Z" fill="#CC3334"/>
<path d="M11.4391 45.9596C13.4793 46.5686 16.3159 46.6412 18.3397 45.9338C18.5036 45.8752 18.6723 45.8073 18.787 45.6832C18.9018 45.559 18.9463 45.3623 18.8456 45.2288C18.7683 45.128 18.6301 45.0859 18.5013 45.0531C16.8921 44.6362 15.3368 44.6291 13.6854 44.6689C12.7532 44.69 11.6054 44.6549 10.7763 45.107C10.7177 45.1398 10.6568 45.1772 10.624 45.2335C10.446 45.5403 10.8254 45.7792 11.4391 45.9619V45.9596Z" fill="white"/>
<path d="M11.4249 46.0067C13.0247 46.6157 14.9758 46.5782 16.6529 46.4072C17.276 46.344 17.9108 46.2386 18.4542 45.9271C18.3254 45.6952 18.0092 45.5593 17.7562 45.5101C16.6319 45.2946 15.4841 45.2244 14.3411 45.2548C13.7602 45.2689 13.1769 45.3087 12.5984 45.3672C12.1276 45.4141 11.46 45.4516 11.1836 45.906C11.2632 45.9411 11.3452 45.9739 11.4249 46.0067Z" fill="#3F1F1F"/>
</svg>
