<svg width="48" height="50" viewBox="0 0 48 50" fill="none" xmlns="http://www.w3.org/2000/svg">
<path d="M24.3989 0.476283C8.25565 0.07293 3.02568 10.8828 3.24005 21.1244C3.24312 21.2747 3.24705 21.4261 3.25122 21.5782C4.40729 21.5801 5.56323 21.5834 6.71942 21.5908C8.30363 21.6009 9.90318 21.5674 11.4776 21.774C13.9599 22.1 16.6651 22.9914 18.0252 25.252C19.2802 27.3377 19.5168 29.8233 19.8531 32.1828C20.0911 33.8521 20.124 35.5026 20.1128 37.1868C20.1069 38.0597 20.1 38.9357 20.162 39.8072C20.2134 40.5306 20.2461 41.3215 20.6462 41.9547C20.6731 41.9971 20.7024 42.0362 20.731 42.0762C21.6477 42.1483 22.6092 42.1876 23.6242 42.1873C26.3543 42.1866 28.74 41.8779 30.8248 41.3301C30.8239 41.319 30.8237 41.3085 30.8227 41.2974C30.6869 39.7975 30.3915 38.1879 30.7856 36.7035C31.9709 32.2387 38.4548 29.7274 42.2738 32.4089C44.121 28.8842 44.7502 25.0545 44.9007 22.1117C45.6417 7.62142 38.8877 0.75987 24.3989 0.476283Z" fill="#F1F1F2"/>
<path d="M3.93237 45.8989C14.2394 46.3957 24.4106 45.9899 33.9729 45.9779C37.1377 45.9737 40.3042 45.9696 43.4684 46.0755C44.632 46.0942 47.41 46.0705 47.41 47.5612C47.41 48.9667 42.8272 48.8778 41.5316 48.9137C36.7334 49.0472 33.0029 48.9973 28.7407 49.0391C20.7282 49.1309 13.8483 49.1226 4.83688 48.7926C1.86051 48.6835 0.779909 48.5777 0.779663 46.9848C0.779418 46.2052 2.51787 45.9605 3.93237 45.8989Z" fill="#E3E3E5"/>
<path d="M18.9086 31.1138C18.1615 32.2982 16.2132 33.9137 17.5764 34.6999C18.1368 35.0478 19.5832 35.7961 20.2585 36.1316C20.8068 36.3642 22.4668 37.5271 23.0193 37.206C23.8428 36.7275 22.3822 35.5866 21.7336 34.9572C20.9581 34.225 19.9131 33.6961 20.7751 32.4994" fill="#F9C03B"/>
<path d="M16.9668 34.5173C18.803 35.7178 20.8111 36.8434 22.8457 37.663C23.213 37.8109 23.371 37.2172 23.0088 37.0713C21.0277 36.2734 19.0645 35.1566 17.2765 33.9877C16.9442 33.7705 16.6371 34.3019 16.9668 34.5173Z" fill="#A63944"/>
<path d="M19.6176 21.5967C24.7337 23.9127 26.0126 25.3879 26.5502 27.4283C26.9277 28.861 19.9513 34.4902 19.0858 32.2726C18.1997 30.0022 20.6575 29.1563 23.258 27.855C21.2499 27.2894 19.7375 26.5663 17.6542 25.319" fill="#14161A"/>
<path d="M38.1964 39.0043V32.6191C34.7197 32.7215 31.9223 35.5227 31.8262 39.0009C33.9445 39.2054 36.0714 38.9962 38.1964 39.0043Z" fill="#DCDCDE"/>
<path d="M38.6285 39.2169C38.554 39.2158 38.4794 39.2158 38.4049 39.2153V45.756C41.9559 45.7495 44.8444 42.9259 44.9584 39.401C42.8479 39.3589 40.7395 39.2475 38.6285 39.2169Z" fill="#DCDCDE"/>
<path d="M9.64627 38.7849C9.67032 36.729 9.69229 34.6732 9.6983 32.6172C6.24078 32.6704 3.43154 35.3926 3.24109 38.8151C5.37615 38.8125 7.51133 38.7995 9.64627 38.7849Z" fill="#DCDCDE"/>
<path d="M9.85252 38.9919C9.82614 41.2467 9.79792 43.5014 9.78528 45.7563C9.79068 45.7563 9.79583 45.7566 9.80123 45.7566C13.4303 45.7566 16.3726 42.8146 16.3726 39.1855C16.3726 39.1103 16.3695 39.0355 16.3668 38.9609C14.1954 38.9636 12.024 38.9771 9.85252 38.9919Z" fill="#DCDCDE"/>
<path d="M2.84802 28.7549L9.47445 39.2672" stroke="#DD4C5B" stroke-width="0.613558" stroke-miterlimit="10" stroke-linecap="round" stroke-linejoin="round"/>
<path d="M12.4196 28.7549L9.79895 39.1855" stroke="#DD4C5B" stroke-width="0.613558" stroke-miterlimit="10" stroke-linecap="round" stroke-linejoin="round"/>
<path d="M31.8142 26.4185L17.655 27.8958" stroke="#DD4C5B" stroke-width="0.613558" stroke-miterlimit="10" stroke-linecap="round" stroke-linejoin="round"/>
<path d="M31.317 25.4414L38.3524 39.2668" stroke="#DD4C5B" stroke-width="0.613558" stroke-miterlimit="10" stroke-linecap="round" stroke-linejoin="round"/>
<path d="M17.655 27.8955L9.8833 39.2667" stroke="#DD4C5B" stroke-width="0.613558" stroke-miterlimit="10" stroke-linecap="round" stroke-linejoin="round"/>
<path d="M9.4743 39.2671H24.7346" stroke="#DD4C5B" stroke-width="0.613558" stroke-miterlimit="10" stroke-linecap="round" stroke-linejoin="round"/>
<path d="M31.8143 26.4185L24.7347 39.267" stroke="#DD4C5B" stroke-width="0.613558" stroke-miterlimit="10" stroke-linecap="round" stroke-linejoin="round"/>
<path d="M31.3177 25.7482C32.7249 25.9154 34.9165 25.8331 34.9274 23.9429C34.9394 21.877 32.5111 22.0176 31.0723 22.0258C30.6766 22.0281 30.6764 22.6417 31.0723 22.6394C32.2071 22.6327 34.2073 22.3528 34.3138 23.9429C34.4119 25.4047 32.248 25.2452 31.3177 25.1346C30.9254 25.0881 30.9298 25.7021 31.3177 25.7482Z" fill="#DD4C5B"/>
<path d="M34.9145 22.7803C33.9937 21.5252 32.4571 21.7041 31.0725 21.7193C30.2818 21.728 30.2809 22.9551 31.0725 22.9464C31.8627 22.9377 33.3055 22.6506 33.855 23.3995C34.3177 24.0305 35.3834 23.4194 34.9145 22.7803Z" fill="#24272E"/>
<path d="M13.237 17.0972H2.06757V28.7547H13.237V17.0972Z" fill="#F9C03B"/>
<path d="M10.1553 23.8667C10.1553 25.2493 9.03441 26.3699 7.65194 26.3699C6.26947 26.3699 5.14874 25.2492 5.14874 23.8667C5.14874 22.4843 6.26959 21.3633 7.65194 21.3633C9.03441 21.3632 10.1553 22.4841 10.1553 23.8667Z" fill="white" stroke="#DD4C5B" stroke-width="0.312915" stroke-miterlimit="10"/>
<path d="M5.98816 23.7365C5.98951 22.9296 6.73547 22.2765 7.65446 22.2783C8.57333 22.2796 9.31733 22.9351 9.3161 23.7417" fill="#F9AC2A"/>
<path d="M9.315 24.8756C9.31488 24.9651 9.24211 25.0378 9.15241 25.0378L6.14904 25.0329C6.05946 25.0327 5.98694 24.9599 5.98694 24.8703L5.98731 24.6754C5.98743 24.5858 6.06032 24.5131 6.1499 24.5132L9.15339 24.5182C9.24285 24.5183 9.31549 24.5912 9.31512 24.6807L9.315 24.8756Z" fill="#F9AC2A"/>
<path d="M9.31549 24.1495C9.31549 24.2851 9.2053 24.3951 9.0697 24.3951H6.23322C6.0975 24.3951 5.98743 24.2852 5.98743 24.1495C5.98743 24.0138 6.09738 23.9038 6.23322 23.9038H9.0697C9.2053 23.9038 9.31549 24.0138 9.31549 24.1495Z" fill="#7D4E24"/>
<path d="M1.57855 19.3253V16.9979C1.57855 16.1847 2.21383 15.5254 2.99747 15.5254H12.308C13.0919 15.5254 13.7269 16.1847 13.7269 16.9979V19.3253" fill="#24272E"/>
<path d="M5.13265 17.7864C5.12937 17.7866 5.12611 17.7859 5.12314 17.7845C5.12016 17.7831 5.11756 17.7811 5.11554 17.7785C5.11347 17.7759 5.11202 17.7729 5.11128 17.7696C5.11054 17.7664 5.11053 17.7631 5.11126 17.7598L5.25874 17.0666C5.2601 17.059 5.26429 17.0522 5.27047 17.0475C5.27619 17.0428 5.28334 17.0402 5.29075 17.0401H5.78091C5.78421 17.0398 5.78753 17.0404 5.79058 17.0417C5.79363 17.0429 5.79633 17.0449 5.79846 17.0475C5.80045 17.0502 5.80182 17.0533 5.80247 17.0566C5.80312 17.06 5.80304 17.0634 5.80222 17.0666L5.7801 17.1744C5.77876 17.182 5.77466 17.1888 5.7686 17.1935C5.76277 17.1984 5.75539 17.201 5.7478 17.2009H5.41825L5.38521 17.3577H5.69235C5.69571 17.3575 5.69908 17.3581 5.70216 17.3595C5.70523 17.3609 5.70792 17.363 5.70997 17.3657C5.71195 17.3685 5.7133 17.3718 5.71394 17.3752C5.71457 17.3786 5.71448 17.3821 5.71366 17.3854L5.69154 17.4921C5.6897 17.4995 5.68547 17.5062 5.67948 17.511C5.6735 17.5158 5.66611 17.5185 5.65843 17.5188H5.35107L5.29879 17.7598C5.29719 17.7671 5.29322 17.7737 5.2875 17.7785C5.28182 17.7837 5.27439 17.7865 5.26671 17.7864H5.13265Z" fill="#FAA307"/>
<path d="M6.01396 17.7973C5.95703 17.7973 5.9094 17.7877 5.87105 17.7684C5.83471 17.7514 5.80547 17.7221 5.78838 17.6858C5.77167 17.6499 5.76722 17.6071 5.77504 17.5573C5.77678 17.541 5.77944 17.5248 5.783 17.5087C5.78691 17.4907 5.79104 17.4748 5.79532 17.4613C5.80701 17.4146 5.82806 17.3707 5.85719 17.3323C5.88541 17.2963 5.92227 17.268 5.96433 17.2501C6.01315 17.2299 6.06564 17.2201 6.11845 17.2213C6.17464 17.2213 6.22194 17.2309 6.26033 17.2501C6.29676 17.2674 6.32641 17.2963 6.34462 17.3323C6.36237 17.3678 6.36728 17.4108 6.35937 17.4613C6.35649 17.4748 6.35332 17.4908 6.34978 17.5087C6.34624 17.5266 6.34241 17.5431 6.33909 17.5573C6.32724 17.6036 6.30661 17.6472 6.27833 17.6858C6.25097 17.7221 6.21463 17.7508 6.17287 17.7688C6.12951 17.7878 6.07654 17.7973 6.01396 17.7973ZM6.02996 17.6671C6.0442 17.6677 6.05842 17.6655 6.07178 17.6606C6.08515 17.6556 6.09741 17.6481 6.10783 17.6384C6.1275 17.6191 6.14242 17.5903 6.1526 17.5519C6.15547 17.5413 6.15879 17.5271 6.16277 17.5093C6.16675 17.4915 6.16934 17.4773 6.17074 17.4666C6.17713 17.4289 6.17536 17.4003 6.16543 17.3808C6.1555 17.3613 6.1345 17.3514 6.10245 17.3513C6.08849 17.3509 6.07459 17.3532 6.06158 17.3583C6.04856 17.3634 6.03671 17.371 6.02672 17.3808C6.00705 17.4005 5.99213 17.4291 5.98196 17.4666C5.97911 17.4773 5.97571 17.4915 5.97178 17.5093C5.96785 17.5271 5.96519 17.5413 5.96382 17.5519C5.95743 17.5903 5.95902 17.6191 5.96861 17.6384C5.9782 17.6576 5.99865 17.6672 6.02996 17.6671Z" fill="#FAA307"/>
<path d="M6.64818 17.7973C6.59125 17.7973 6.54361 17.7877 6.50527 17.7684C6.46892 17.7514 6.43969 17.7221 6.4226 17.6858C6.40589 17.6499 6.40144 17.6071 6.40925 17.5573C6.41099 17.541 6.41367 17.5248 6.41729 17.5087C6.42113 17.4907 6.42526 17.4748 6.42953 17.4613C6.44123 17.4146 6.46227 17.3707 6.4914 17.3323C6.51963 17.2963 6.55649 17.268 6.59855 17.2501C6.64737 17.2299 6.69985 17.2201 6.75267 17.2213C6.80886 17.2213 6.85615 17.2309 6.89455 17.2501C6.93099 17.2674 6.96065 17.2963 6.97884 17.3323C6.99658 17.3678 7.0015 17.4108 6.99358 17.4613C6.99078 17.4748 6.98754 17.4908 6.984 17.5087C6.98046 17.5266 6.97662 17.5431 6.97331 17.5573C6.96146 17.6036 6.94083 17.6472 6.91254 17.6858C6.88519 17.7221 6.84885 17.7508 6.80709 17.7688C6.76373 17.7878 6.71076 17.7973 6.64818 17.7973ZM6.66418 17.6671C6.67842 17.6677 6.69263 17.6655 6.706 17.6606C6.71937 17.6556 6.73162 17.6481 6.74205 17.6384C6.76172 17.6191 6.77664 17.5903 6.78681 17.5519C6.78966 17.5413 6.79306 17.5271 6.79699 17.5093C6.80092 17.4915 6.80358 17.4772 6.80495 17.4665C6.81134 17.4288 6.80957 17.4002 6.79964 17.3806C6.78971 17.3611 6.76872 17.3513 6.73667 17.3511C6.72272 17.3507 6.70882 17.3531 6.69582 17.3581C6.68281 17.3632 6.67097 17.3709 6.66101 17.3806C6.64105 17.4003 6.6261 17.4289 6.61617 17.4665C6.6133 17.4772 6.60998 17.4914 6.60607 17.5092C6.60216 17.5269 6.59943 17.5412 6.59803 17.5518C6.59159 17.5902 6.59319 17.619 6.60283 17.6382C6.61246 17.6574 6.63291 17.6671 6.66418 17.6671Z" fill="#FAA307"/>
<path d="M7.23189 17.7972C7.20068 17.7979 7.16966 17.7923 7.14067 17.7807C7.11561 17.7704 7.09386 17.7534 7.07777 17.7316C7.06106 17.7082 7.05025 17.6811 7.04628 17.6527C7.0413 17.6175 7.04165 17.5817 7.04731 17.5466C7.05016 17.5323 7.05284 17.5197 7.05535 17.5087C7.05786 17.4977 7.06081 17.4851 7.06442 17.4708C7.07288 17.4352 7.08576 17.4008 7.10277 17.3684C7.1182 17.3392 7.13811 17.3126 7.16176 17.2895C7.18414 17.2677 7.2106 17.2505 7.23963 17.2388C7.27054 17.2268 7.30349 17.2208 7.33667 17.2212C7.3685 17.2203 7.40015 17.2264 7.42944 17.2388C7.45241 17.2484 7.47233 17.2641 7.48703 17.2842L7.53615 17.056C7.53739 17.0484 7.54138 17.0415 7.54736 17.0367C7.55284 17.032 7.55981 17.0294 7.56704 17.0293H7.6972C7.70058 17.0291 7.70397 17.0297 7.7071 17.031C7.71024 17.0322 7.71306 17.0342 7.71534 17.0367C7.71749 17.0394 7.719 17.0425 7.71974 17.0458C7.72048 17.0492 7.72044 17.0526 7.71962 17.056L7.56918 17.7599C7.56763 17.7672 7.56369 17.7738 7.55797 17.7786C7.55229 17.7837 7.54486 17.7866 7.53718 17.7865H7.41772C7.41428 17.7867 7.41085 17.7861 7.40771 17.7847C7.40456 17.7833 7.40177 17.7812 7.39958 17.7786C7.39752 17.776 7.39608 17.7729 7.39535 17.7697C7.39463 17.7665 7.39463 17.7631 7.39537 17.7599L7.40275 17.7258C7.38172 17.7462 7.35782 17.7634 7.33181 17.7769C7.3057 17.7904 7.2724 17.7972 7.23189 17.7972ZM7.30563 17.6543C7.32693 17.6549 7.34796 17.6495 7.36639 17.6388C7.38313 17.6288 7.39735 17.6152 7.40798 17.5988C7.41869 17.5825 7.42661 17.5644 7.43143 17.5455C7.43497 17.5313 7.43822 17.5177 7.44109 17.505C7.44397 17.4922 7.4464 17.479 7.44847 17.4655C7.4513 17.4491 7.45093 17.4322 7.44736 17.4159C7.44416 17.4012 7.43607 17.3881 7.42443 17.3786C7.41273 17.369 7.39552 17.3641 7.37281 17.3638C7.35277 17.3632 7.33298 17.3684 7.31573 17.3786C7.29952 17.3887 7.28599 17.4027 7.27628 17.4191C7.26566 17.4369 7.25724 17.4558 7.25121 17.4756C7.24833 17.4863 7.24568 17.4973 7.24317 17.5087C7.24066 17.5202 7.23875 17.5309 7.23734 17.5418C7.23454 17.5605 7.23416 17.5795 7.23624 17.5983C7.23759 17.6138 7.24464 17.6282 7.256 17.6388C7.26684 17.6493 7.28343 17.6543 7.30548 17.6543H7.30563Z" fill="#FAA307"/>
<path d="M8.75304 17.7972C8.72219 17.7978 8.69155 17.7922 8.66292 17.7807C8.63796 17.7704 8.61635 17.7534 8.60054 17.7316C8.58417 17.7081 8.57358 17.681 8.56964 17.6527C8.5647 17.6174 8.56542 17.5816 8.57178 17.5466C8.57458 17.5323 8.57704 17.5197 8.57915 17.5087C8.58129 17.4977 8.58409 17.4851 8.58771 17.4708C8.59613 17.4352 8.60902 17.4008 8.62605 17.3684C8.64149 17.3392 8.6614 17.3126 8.68505 17.2895C8.70782 17.2674 8.73484 17.2502 8.76447 17.2388C8.79629 17.2268 8.83008 17.2208 8.86409 17.2212C8.90745 17.2212 8.94034 17.2275 8.96276 17.2399C8.98389 17.2513 9.00226 17.2671 9.01659 17.2863L9.0219 17.2586C9.02324 17.2511 9.02718 17.2443 9.03303 17.2394C9.03889 17.2345 9.04628 17.2319 9.0539 17.2319H9.17336C9.17667 17.2317 9.17999 17.2322 9.18306 17.2335C9.18612 17.2348 9.18884 17.2367 9.19099 17.2393C9.19298 17.242 9.19434 17.2452 9.19499 17.2485C9.19564 17.2518 9.19556 17.2552 9.19475 17.2585L9.08915 17.76C9.08757 17.7672 9.08363 17.7738 9.07794 17.7786C9.07226 17.7838 9.06483 17.7866 9.05715 17.7866H8.93651C8.93324 17.7867 8.93 17.786 8.92704 17.7846C8.92408 17.7833 8.92149 17.7812 8.91947 17.7786C8.91741 17.776 8.91595 17.773 8.91521 17.7698C8.91447 17.7666 8.91446 17.7632 8.91519 17.76L8.92257 17.7258C8.90128 17.7459 8.87742 17.7631 8.85163 17.777C8.82646 17.7904 8.79359 17.7972 8.75304 17.7972ZM8.82774 17.6543C8.84872 17.655 8.86945 17.6496 8.88747 17.6388C8.90373 17.6286 8.91758 17.615 8.92803 17.5988C8.93855 17.5825 8.94604 17.5644 8.95015 17.5455C8.95442 17.5313 8.95752 17.5177 8.96032 17.505C8.96313 17.4922 8.96512 17.479 8.96726 17.4655C8.97077 17.4492 8.97095 17.4323 8.96777 17.4159C8.96501 17.4012 8.95718 17.388 8.94565 17.3786C8.93395 17.369 8.91706 17.3641 8.89499 17.3638C8.87477 17.3631 8.85477 17.3682 8.8374 17.3786C8.82158 17.3887 8.80857 17.4027 8.79957 17.4191C8.78956 17.4372 8.78152 17.4563 8.7756 17.4761C8.7728 17.4868 8.76992 17.4978 8.76712 17.5092C8.76434 17.5201 8.76219 17.5312 8.76071 17.5423C8.7586 17.5611 8.75823 17.58 8.7596 17.5988C8.76025 17.6142 8.76674 17.6286 8.77774 17.6393C8.78828 17.6493 8.8051 17.6543 8.82774 17.6543Z" fill="#D00000"/>
<path d="M9.18652 17.7867C9.18317 17.7869 9.17982 17.7863 9.17675 17.7849C9.17368 17.7836 9.17097 17.7815 9.16882 17.7789C9.16668 17.7764 9.16516 17.7733 9.16439 17.7701C9.16363 17.7668 9.16363 17.7634 9.16439 17.7601L9.2711 17.2587C9.27267 17.2513 9.27683 17.2446 9.28282 17.24C9.28872 17.2348 9.29629 17.232 9.30414 17.232H9.42677C9.43014 17.2318 9.43352 17.2324 9.4366 17.2338C9.43968 17.2352 9.44235 17.2373 9.44439 17.24C9.44633 17.2427 9.44767 17.2457 9.44832 17.2489C9.44897 17.2522 9.44891 17.2555 9.44815 17.2587L9.43916 17.3014C9.45642 17.28 9.4783 17.2627 9.50316 17.2508C9.53332 17.2375 9.56608 17.2311 9.59903 17.2321H9.65876C9.66199 17.2318 9.66524 17.2324 9.66821 17.2337C9.67118 17.235 9.67379 17.237 9.67579 17.2395C9.67762 17.2423 9.67885 17.2455 9.67939 17.2488C9.67994 17.2521 9.67979 17.2555 9.67897 17.2587L9.65684 17.3686C9.65504 17.3761 9.65079 17.3828 9.64476 17.3876C9.63872 17.3925 9.63125 17.3952 9.62351 17.3953H9.52145C9.49499 17.3942 9.46901 17.4027 9.44837 17.4193C9.42844 17.4371 9.41479 17.4609 9.40944 17.4871L9.35185 17.7599C9.35002 17.7673 9.3458 17.774 9.33983 17.7788C9.33386 17.7836 9.32647 17.7863 9.31881 17.7865L9.18652 17.7867Z" fill="#D00000"/>
<path d="M9.9824 17.7865C9.93324 17.7865 9.8929 17.7791 9.86139 17.7643C9.84653 17.758 9.83314 17.7486 9.82204 17.7369C9.81094 17.7251 9.80237 17.7112 9.79687 17.6961C9.78546 17.6652 9.78475 17.6252 9.79473 17.5761L9.83846 17.3713H9.7552C9.7519 17.3715 9.74859 17.371 9.74554 17.3697C9.74249 17.3684 9.73979 17.3664 9.73765 17.3639C9.73566 17.3612 9.7343 17.358 9.73365 17.3547C9.733 17.3514 9.73308 17.348 9.73389 17.3447L9.75203 17.2583C9.75336 17.2507 9.7575 17.244 9.76361 17.2393C9.76934 17.2346 9.77649 17.232 9.78389 17.2319H9.86832L9.90564 17.056C9.90693 17.0483 9.91113 17.0414 9.91736 17.0367C9.92309 17.032 9.93024 17.0294 9.93764 17.0294H10.0614C10.0647 17.0291 10.068 17.0297 10.071 17.0309C10.0741 17.0322 10.0768 17.0342 10.0789 17.0367C10.0809 17.0395 10.0823 17.0426 10.0829 17.0459C10.0836 17.0493 10.0835 17.0527 10.0827 17.056L10.0454 17.2318H10.1787C10.182 17.2316 10.1853 17.2322 10.1884 17.2334C10.1914 17.2347 10.1941 17.2367 10.1963 17.2392C10.1982 17.242 10.1996 17.2451 10.2003 17.2484C10.2009 17.2518 10.2008 17.2552 10.2 17.2585L10.1819 17.3448C10.1806 17.3525 10.1764 17.3594 10.1701 17.3641C10.1644 17.3687 10.1573 17.3713 10.1499 17.3714H10.0155L9.97495 17.5613C9.97228 17.575 9.97085 17.5889 9.97068 17.6029C9.97033 17.608 9.97111 17.6132 9.97296 17.618C9.9748 17.6228 9.97768 17.6271 9.98137 17.6306C9.98874 17.637 10.0005 17.6402 10.0176 17.6402H10.1019C10.1051 17.64 10.1084 17.6405 10.1113 17.6418C10.1143 17.6431 10.1169 17.6451 10.119 17.6476C10.1208 17.6504 10.122 17.6536 10.1225 17.6569C10.1231 17.6602 10.123 17.6635 10.1221 17.6668L10.1028 17.7598C10.1012 17.7671 10.0973 17.7737 10.0916 17.7785C10.0859 17.7837 10.0785 17.7865 10.0708 17.7865H9.9824Z" fill="#D00000"/>
<path d="M8.5623 17.5365L8.43281 17.4929C8.42656 17.4908 8.41974 17.4909 8.41357 17.4933C8.40741 17.4957 8.40231 17.5002 8.39918 17.5061C8.3802 17.5425 8.34821 17.5706 8.30955 17.5846C8.27089 17.5986 8.22838 17.5976 8.19043 17.5817C8.15249 17.5659 8.12187 17.5364 8.10464 17.4991C8.08742 17.4617 8.08485 17.4193 8.09743 17.3801C8.09802 17.3783 8.09861 17.3765 8.09927 17.3748L8.12346 17.3306L8.26357 17.0747L8.31482 16.9812L8.40427 16.818C8.406 16.8151 8.40703 16.8118 8.40729 16.8084C8.40754 16.805 8.40702 16.8016 8.40574 16.7984C8.40446 16.7955 8.40254 16.7929 8.40013 16.7909C8.39772 16.7888 8.39488 16.7873 8.39181 16.7864L8.25376 16.7449C8.24665 16.7429 8.23904 16.7433 8.23223 16.7462C8.22496 16.7488 8.21897 16.7541 8.21549 16.761L7.94264 17.2563L7.98298 17.0662C7.9838 17.0629 7.98385 17.0594 7.98312 17.0561C7.98239 17.0528 7.98091 17.0497 7.97878 17.047C7.97666 17.0446 7.97403 17.0427 7.97107 17.0414C7.9681 17.0401 7.96489 17.0395 7.96167 17.0397H7.81802C7.81062 17.0397 7.80346 17.0423 7.79774 17.047C7.79152 17.0517 7.78732 17.0585 7.78602 17.0662L7.63772 17.7594C7.63695 17.7626 7.63695 17.766 7.63772 17.7693C7.63849 17.7726 7.64001 17.7756 7.64215 17.7782C7.6443 17.7808 7.64701 17.7828 7.65008 17.7842C7.65315 17.7855 7.65649 17.7862 7.65984 17.786H7.80386C7.81134 17.7859 7.81851 17.783 7.82407 17.778C7.83004 17.7734 7.83419 17.7668 7.83579 17.7594L7.89884 17.4625C7.90604 17.541 7.93911 17.6149 7.99286 17.6726C8.0466 17.7303 8.11798 17.7685 8.19579 17.7812C8.2736 17.794 8.35344 17.7805 8.42277 17.743C8.49211 17.7055 8.54702 17.646 8.57889 17.5738C8.58037 17.5703 8.58112 17.5665 8.58108 17.5627C8.58104 17.5588 8.58022 17.5551 8.57867 17.5516C8.57711 17.5481 8.57486 17.5449 8.57204 17.5423C8.56923 17.5397 8.56591 17.5377 8.5623 17.5365Z" fill="#D00000"/>
<path d="M8.06785 18.0517C8.12002 18.0517 8.16232 18.0094 8.16232 17.9573C8.16232 17.9051 8.12002 17.8628 8.06785 17.8628C8.01568 17.8628 7.97339 17.9051 7.97339 17.9573C7.97339 18.0094 8.01568 18.0517 8.06785 18.0517Z" fill="#D00000"/>
<path d="M8.35734 18.0517C8.40951 18.0517 8.45181 18.0094 8.45181 17.9573C8.45181 17.9051 8.40951 17.8628 8.35734 17.8628C8.30517 17.8628 8.26288 17.9051 8.26288 17.9573C8.26288 18.0094 8.30517 18.0517 8.35734 18.0517Z" fill="#D00000"/>
<path d="M1.63388 19.6326C5.64716 19.6326 9.66032 19.6326 13.6735 19.6326C14.0691 19.6326 14.0691 19.019 13.6735 19.019C9.6602 19.019 5.64704 19.019 1.63388 19.019C1.23825 19.019 1.23825 19.6326 1.63388 19.6326Z" fill="#A63944"/>
<path d="M3.41815 15.5345C3.41815 19.8564 3.41815 24.1783 3.41815 28.5002C3.41815 28.896 4.03171 28.896 4.03171 28.5002C4.03171 24.1783 4.03171 19.8564 4.03171 15.5345C4.03171 15.1389 3.41815 15.1389 3.41815 15.5345Z" fill="#14161A"/>
<path d="M11.2712 15.534C11.2712 19.8559 11.2712 24.1778 11.2712 28.4997C11.2712 28.8955 11.8848 28.8955 11.8848 28.4997C11.8848 24.1778 11.8848 19.8559 11.8848 15.534C11.8848 15.1384 11.2712 15.1384 11.2712 15.534Z" fill="#14161A"/>
<path d="M2.06781 28.7544H13.2373" stroke="#24272E" stroke-width="0.858982" stroke-miterlimit="10" stroke-linecap="round" stroke-linejoin="round"/>
<path d="M39.9382 39.1853C39.9382 40.0393 39.2458 40.7315 38.3919 40.7315C37.5379 40.7315 36.8457 40.0393 36.8457 39.1853C36.8457 38.3314 37.5379 37.6392 38.3919 37.6392C39.2458 37.6393 39.9382 38.3314 39.9382 39.1853Z" fill="#24272E"/>
<path d="M39.1033 39.1854C39.1033 39.5782 38.7848 39.8966 38.392 39.8966C37.9992 39.8966 37.6807 39.5782 37.6807 39.1854C37.6807 38.7926 37.9992 38.4741 38.392 38.4741C38.7848 38.4742 39.1033 38.7926 39.1033 39.1854Z" fill="#505258"/>
<path d="M38.392 46.9163C42.6616 46.9163 46.1228 43.455 46.1228 39.1854C46.1228 34.9158 42.6616 31.4546 38.392 31.4546C34.1223 31.4546 30.6611 34.9158 30.6611 39.1854C30.6611 43.455 34.1223 46.9163 38.392 46.9163Z" stroke="#505258" stroke-width="1.10441" stroke-miterlimit="10" stroke-linecap="round" stroke-linejoin="round"/>
<path d="M38.3915 46.9163C42.6611 46.9163 46.1223 43.455 46.1223 39.1854C46.1223 34.9158 42.6611 31.4546 38.3915 31.4546C34.1219 31.4546 30.6606 34.9158 30.6606 39.1854C30.6606 43.455 34.1219 46.9163 38.3915 46.9163Z" stroke="#24272E" stroke-width="0.490847" stroke-miterlimit="10"/>
<path d="M9.80072 46.9163C14.0703 46.9163 17.5316 43.455 17.5316 39.1854C17.5316 34.9158 14.0703 31.4546 9.80072 31.4546C5.5311 31.4546 2.06989 34.9158 2.06989 39.1854C2.06989 43.455 5.5311 46.9163 9.80072 46.9163Z" stroke="#505258" stroke-width="1.10441" stroke-miterlimit="10" stroke-linecap="round" stroke-linejoin="round"/>
<path d="M9.80072 46.9163C14.0703 46.9163 17.5316 43.455 17.5316 39.1854C17.5316 34.9158 14.0703 31.4546 9.80072 31.4546C5.5311 31.4546 2.06989 34.9158 2.06989 39.1854C2.06989 43.455 5.5311 46.9163 9.80072 46.9163Z" stroke="#24272E" stroke-width="0.490847" stroke-miterlimit="10"/>
<path d="M11.9653 39.1853C11.9653 40.3807 10.9963 41.3499 9.80068 41.3499C8.6051 41.3499 7.63593 40.3807 7.63593 39.1853C7.63593 37.9897 8.6051 37.0205 9.80068 37.0205C10.9963 37.0205 11.9653 37.9897 11.9653 39.1853Z" fill="#24272E"/>
<path d="M10.7963 39.1853C10.7963 39.7353 10.3505 40.1809 9.80061 40.1809C9.25074 40.1809 8.80493 39.7351 8.80493 39.1853C8.80493 38.6353 9.25074 38.1895 9.80061 38.1895C10.3506 38.1895 10.7963 38.6353 10.7963 39.1853Z" fill="#505258"/>
<path d="M10.2541 39.3348L10.1246 39.2913C10.1184 39.2891 10.1116 39.2892 10.1054 39.2916C10.0992 39.2941 10.0941 39.2986 10.091 39.3044C10.072 39.3409 10.04 39.3689 10.0014 39.3829C9.96273 39.3969 9.92021 39.3959 9.88227 39.3801C9.84432 39.3642 9.8137 39.3347 9.79648 39.2974C9.77925 39.2601 9.77668 39.2176 9.78926 39.1785C9.78985 39.1766 9.79044 39.1748 9.79111 39.1731L9.81529 39.1289L9.9554 38.873L10.0067 38.7796L10.0961 38.6163C10.0978 38.6134 10.0989 38.6101 10.0991 38.6067C10.0994 38.6033 10.0988 38.5999 10.0976 38.5968C10.0963 38.5939 10.0944 38.5913 10.092 38.5892C10.0896 38.5871 10.0867 38.5856 10.0836 38.5848L9.9456 38.5432C9.93848 38.5412 9.93087 38.5417 9.92406 38.5446C9.9168 38.5472 9.9108 38.5524 9.90732 38.5593L9.63448 39.0546L9.67482 38.8645C9.67564 38.8612 9.67569 38.8578 9.67496 38.8545C9.67423 38.8511 9.67274 38.848 9.67061 38.8454C9.6685 38.8429 9.66586 38.841 9.6629 38.8397C9.65994 38.8384 9.65673 38.8379 9.6535 38.838H9.50985C9.50245 38.8381 9.49529 38.8407 9.48958 38.8454C9.48335 38.85 9.47915 38.8569 9.47785 38.8645L9.32956 39.5577C9.32879 39.561 9.32879 39.5644 9.32956 39.5676C9.33032 39.5709 9.33184 39.574 9.33399 39.5765C9.33613 39.5791 9.33884 39.5812 9.34191 39.5825C9.34498 39.5839 9.34833 39.5845 9.35168 39.5843H9.4957C9.50317 39.5842 9.51034 39.5814 9.5159 39.5764C9.52187 39.5717 9.52602 39.5651 9.52763 39.5577L9.59068 39.2608C9.59788 39.3393 9.63095 39.4132 9.68469 39.4709C9.73843 39.5286 9.80981 39.5668 9.88762 39.5796C9.96543 39.5923 10.0453 39.5789 10.1146 39.5413C10.1839 39.5038 10.2389 39.4443 10.2707 39.3722C10.2722 39.3686 10.273 39.3648 10.2729 39.361C10.2729 39.3572 10.2721 39.3534 10.2705 39.3499C10.2689 39.3464 10.2667 39.3433 10.2639 39.3407C10.2611 39.3381 10.2577 39.3361 10.2541 39.3348Z" fill="white"/>
<path d="M9.75969 39.8501C9.81186 39.8501 9.85415 39.8078 9.85415 39.7556C9.85415 39.7034 9.81186 39.6611 9.75969 39.6611C9.70751 39.6611 9.66522 39.7034 9.66522 39.7556C9.66522 39.8078 9.70751 39.8501 9.75969 39.8501Z" fill="white"/>
<path d="M10.0489 39.8501C10.1011 39.8501 10.1434 39.8078 10.1434 39.7556C10.1434 39.7034 10.1011 39.6611 10.0489 39.6611C9.99676 39.6611 9.95447 39.7034 9.95447 39.7556C9.95447 39.8078 9.99676 39.8501 10.0489 39.8501Z" fill="white"/>
<path d="M38.6074 39.5936L38.5361 39.477C38.5327 39.4714 38.5274 39.4671 38.5212 39.4649C38.5149 39.4628 38.5081 39.463 38.5019 39.4655C38.464 39.4812 38.4214 39.4821 38.3828 39.468C38.3442 39.4539 38.3123 39.4258 38.2934 39.3893C38.2745 39.3527 38.27 39.3104 38.2808 39.2708C38.2916 39.2311 38.3169 39.1969 38.3517 39.175C38.3534 39.174 38.355 39.173 38.3566 39.1721L38.4035 39.1538L38.6754 39.0478L38.7747 39.0092L38.9481 38.9416C38.9513 38.9405 38.9542 38.9387 38.9566 38.9362C38.959 38.9338 38.9608 38.9308 38.9618 38.9276C38.9627 38.9246 38.9629 38.9213 38.9624 38.9182C38.9619 38.9151 38.9607 38.9121 38.9589 38.9095L38.8798 38.7889C38.8757 38.7828 38.8696 38.7782 38.8625 38.7761C38.8552 38.7734 38.8473 38.7736 38.8402 38.7766L38.3128 38.9807L38.4659 38.861C38.4686 38.859 38.4709 38.8564 38.4724 38.8534C38.474 38.8503 38.4749 38.847 38.475 38.8436C38.4749 38.8404 38.4741 38.8372 38.4727 38.8343C38.4712 38.8314 38.4692 38.8289 38.4666 38.827L38.3566 38.7346C38.3508 38.7299 38.3437 38.7273 38.3363 38.7272C38.3285 38.7268 38.3209 38.7293 38.315 38.7344L37.7558 39.1701C37.7531 39.1721 37.7509 39.1747 37.7494 39.1777C37.7479 39.1807 37.7471 39.184 37.7471 39.1873C37.7471 39.1907 37.7479 39.194 37.7493 39.197C37.7508 39.2 37.753 39.2026 37.7556 39.2047L37.866 39.2972C37.8718 39.3019 37.8791 39.3044 37.8866 39.3041C37.8941 39.3044 37.9016 39.302 37.9075 39.2974L38.1467 39.1105C38.1017 39.1753 38.0796 39.2531 38.0836 39.3319C38.0877 39.4106 38.1178 39.4858 38.1693 39.5455C38.2207 39.6053 38.2905 39.6463 38.3677 39.6621C38.445 39.6779 38.5253 39.6677 38.596 39.6329C38.5995 39.6311 38.6025 39.6287 38.6049 39.6258C38.6073 39.6228 38.6091 39.6194 38.6102 39.6157C38.6113 39.612 38.6116 39.6082 38.6111 39.6044C38.6106 39.6006 38.6093 39.5969 38.6074 39.5936Z" fill="white"/>
<path d="M37.8974 39.6703C37.9374 39.7038 37.9969 39.6986 38.0305 39.6586C38.064 39.6187 38.0588 39.5591 38.0188 39.5256C37.9789 39.492 37.9193 39.4972 37.8858 39.5372C37.8522 39.5772 37.8574 39.6368 37.8974 39.6703Z" fill="white"/>
<path d="M38.1191 39.8563C38.159 39.8899 38.2186 39.8846 38.2522 39.8447C38.2857 39.8047 38.2805 39.7451 38.2405 39.7116C38.2005 39.6781 38.141 39.6833 38.1074 39.7232C38.0739 39.7632 38.0791 39.8228 38.1191 39.8563Z" fill="white"/>
<path d="M23.9348 40.9426C25.0531 40.9426 25.9596 40.036 25.9596 38.9178C25.9596 37.7996 25.0531 36.8931 23.9348 36.8931C22.8166 36.8931 21.9101 37.7996 21.9101 38.9178C21.9101 40.036 22.8166 40.9426 23.9348 40.9426Z" fill="#505258"/>
<path d="M23.9347 40.3287C24.7141 40.3287 25.3459 39.6969 25.3459 38.9175C25.3459 38.1382 24.7141 37.5063 23.9347 37.5063C23.1553 37.5063 22.5235 38.1382 22.5235 38.9175C22.5235 39.6969 23.1553 40.3287 23.9347 40.3287Z" stroke="white" stroke-width="0.489988" stroke-linecap="round" stroke-linejoin="round"/>
<path d="M23.9348 39.777C24.4092 39.777 24.7938 39.3925 24.7938 38.9181C24.7938 38.4437 24.4092 38.0591 23.9348 38.0591C23.4604 38.0591 23.0758 38.4437 23.0758 38.9181C23.0758 39.3925 23.4604 39.777 23.9348 39.777Z" fill="#24272E"/>
<path d="M24.036 10.716C27.2265 10.4705 25.2631 6.95276 27.5538 6.21649C30.3353 5.2348 30.4305 9.03064 31.0716 10.6341C29.1082 10.5523 30.3353 12.5975 28.5355 12.8429C27.1448 13.0065 25.9994 11.534 24.6906 12.8429" fill="#F5BB9C"/>
<path d="M29.4345 9.75997C29.7312 9.75997 29.7312 9.2998 29.4345 9.2998C29.1378 9.2998 29.1378 9.75997 29.4345 9.75997Z" fill="#24272E"/>
<path d="M28.0992 10.6728C28.2778 11.0071 28.6079 11.1931 28.9836 11.2016C29.0826 11.2039 29.0823 11.0505 28.9836 11.0482C28.6601 11.0408 28.3852 10.8826 28.2317 10.5954C28.1851 10.5082 28.0527 10.5856 28.0992 10.6728Z" fill="#24272E"/>
<path d="M28.9473 8.96694C29.2561 8.96694 29.5647 8.96694 29.8734 8.96694C30.0712 8.96694 30.0712 8.66016 29.8734 8.66016C29.5647 8.66016 29.2561 8.66016 28.9473 8.66016C28.7495 8.66016 28.7495 8.96694 28.9473 8.96694Z" fill="#24272E"/>
<path d="M26.3308 10.4415C25.9768 7.98553 27.613 8.25133 27.4186 9.71368L27.7977 9.81614C28.125 9.57072 28.8612 7.52549 28.8612 7.03464C28.9431 5.88937 28.0431 5.7258 26.8979 5.80752C22.8689 5.29631 25.3573 9.214 25.5209 10.1138C25.5209 10.1138 26.2826 10.3699 26.3308 10.4415Z" fill="#24272E"/>
<path d="M27.4085 4.2018C27.4085 4.3007 27.4085 4.39949 27.4085 4.49827C27.4085 4.66553 27.5482 4.80505 27.7153 4.80505C27.8824 4.80505 28.0221 4.66553 28.0221 4.49827C28.0221 4.39936 28.0221 4.30058 28.0221 4.2018C28.0221 4.03454 27.8824 3.89502 27.7153 3.89502C27.5482 3.89502 27.4085 4.03454 27.4085 4.2018Z" fill="#A63944"/>
<path d="M24.4985 7.41199C26.0759 7.50243 29.0099 7.52452 30.5875 7.61484C30.5875 7.61484 31.1885 4.62546 28.075 4.44114C25.786 4.30567 24.602 4.96071 24.4985 7.41199Z" fill="#DD4C5B"/>
<path d="M29.1807 6.94269C29.1775 6.94281 29.1742 6.94215 29.1712 6.94076C29.1683 6.93938 29.1657 6.93731 29.1636 6.93473C29.1616 6.93214 29.1601 6.92912 29.1594 6.92589C29.1586 6.92266 29.1586 6.9193 29.1594 6.91607L29.3068 6.2229C29.3082 6.21526 29.3124 6.20841 29.3186 6.20373C29.3243 6.19902 29.3314 6.19642 29.3388 6.19635H29.829C29.8323 6.19609 29.8356 6.19663 29.8387 6.19791C29.8417 6.1992 29.8444 6.20119 29.8466 6.20373C29.8485 6.20645 29.8499 6.20958 29.8506 6.21289C29.8512 6.21621 29.8511 6.21962 29.8503 6.2229L29.8282 6.33064C29.8269 6.3382 29.8228 6.34501 29.8167 6.34973C29.8109 6.35461 29.8035 6.35723 29.7959 6.35711H29.4663L29.4333 6.51396H29.7404C29.7438 6.51373 29.7472 6.51434 29.7503 6.51573C29.7533 6.51712 29.756 6.51925 29.7581 6.52192C29.76 6.52477 29.7614 6.528 29.762 6.53141C29.7627 6.53481 29.7626 6.53832 29.7618 6.54169L29.7396 6.64832C29.7378 6.65578 29.7336 6.66243 29.7276 6.66725C29.7216 6.67207 29.7142 6.6748 29.7065 6.67501H29.3992L29.3469 6.91607C29.3453 6.92337 29.3413 6.92993 29.3356 6.93473C29.3299 6.9399 29.3225 6.94274 29.3148 6.94269H29.1807Z" fill="#FAA307"/>
<path d="M30.0621 6.95353C30.0051 6.95353 29.9575 6.94392 29.9191 6.9247C29.8828 6.90761 29.8536 6.87838 29.8365 6.84203C29.8198 6.8062 29.8153 6.76338 29.8231 6.71358C29.8249 6.69724 29.8275 6.68102 29.8311 6.66498C29.835 6.64691 29.8391 6.63106 29.8434 6.61756C29.8551 6.57081 29.8762 6.52691 29.9053 6.48852C29.9335 6.45255 29.9704 6.42429 30.0124 6.40637C30.0613 6.38619 30.1137 6.37637 30.1665 6.37753C30.2227 6.37753 30.27 6.38715 30.3084 6.40637C30.3449 6.42365 30.3745 6.45255 30.3927 6.48852C30.4105 6.52406 30.4154 6.56708 30.4075 6.61756C30.4046 6.63106 30.4014 6.64706 30.3979 6.66498C30.3943 6.6829 30.3905 6.69934 30.3872 6.71358C30.3753 6.75989 30.3547 6.8035 30.3264 6.84203C30.2991 6.87839 30.2627 6.907 30.221 6.92507C30.1776 6.94409 30.1246 6.95358 30.0621 6.95353ZM30.0781 6.82338C30.0923 6.82398 30.1065 6.82175 30.1199 6.81681C30.1332 6.81187 30.1455 6.80433 30.1559 6.79462C30.1756 6.7754 30.1905 6.74659 30.2007 6.70819C30.2036 6.69757 30.2069 6.68334 30.2109 6.66557C30.2149 6.6478 30.2174 6.63357 30.2188 6.62287C30.2252 6.58517 30.2235 6.55656 30.2135 6.53704C30.2036 6.51752 30.1826 6.50769 30.1505 6.50754C30.1366 6.50711 30.1227 6.5095 30.1097 6.51457C30.0967 6.51963 30.0848 6.52728 30.0748 6.53704C30.0551 6.5567 30.0402 6.58531 30.0301 6.62287C30.0272 6.63354 30.0238 6.64777 30.0199 6.66557C30.0159 6.68337 30.0133 6.69757 30.0119 6.70819C30.0055 6.74659 30.0071 6.7754 30.0167 6.79462C30.0263 6.81384 30.0467 6.82343 30.0781 6.82338Z" fill="#FAA307"/>
<path d="M24.4945 7.70969C27.164 7.89682 29.8392 7.96824 32.5116 8.09831C32.9074 8.11758 32.9054 7.5039 32.5116 7.48475C29.8392 7.35468 27.164 7.28326 24.4945 7.09613C24.0994 7.06839 24.1021 7.6822 24.4945 7.70969Z" fill="#A63944"/>
<path d="M18.9261 40.6658C19.6597 40.5315 20.3999 40.4504 21.1424 40.3882C21.4868 38.6113 21.047 31.6029 21.02 31.209C20.6606 25.9757 20.2921 26.4185 18.7995 21.0648L12.4185 21.0239C12.0141 25.877 16.3231 28.2197 18.1451 31.8634C18.1451 31.8634 17.2247 37.6553 18.9261 40.6658Z" fill="#24272E"/>
<path d="M15.1591 20.4702C15.4085 23.6265 17.5195 26.1799 18.787 28.9713C20.3766 32.4722 19.5625 36.588 19.863 40.3086C19.8947 40.7001 20.5085 40.7033 20.4766 40.3086C20.1827 36.6691 20.9202 32.7172 19.5613 29.2389C18.4105 26.2935 16.0299 23.7245 15.7727 20.4702C15.7417 20.0785 15.1279 20.0755 15.1591 20.4702Z" fill="#DD4C5B"/>
<path d="M20.271 44.9007C22.0033 44.6494 23.7213 44.3209 25.4249 43.919C25.8098 43.8281 25.6466 43.2366 25.2617 43.3273C23.5581 43.7293 21.8401 44.0578 20.1078 44.309C19.7176 44.3656 19.8842 44.9568 20.271 44.9007Z" fill="#24272E"/>
<path d="M18.8493 40.549C19.0129 41.9397 18.5132 44.4208 20.0675 44.1753C20.722 44.0936 22.3173 43.7663 23.0535 43.6028C23.6261 43.4391 25.648 43.2998 25.8759 42.7028C26.2156 41.8129 24.3624 41.8438 23.4625 41.7621C22.399 41.6802 21.2537 41.9257 21.1719 40.4531" fill="#F9C03B"/>
<path d="M20.5931 41.9716C20.8817 42.4863 21.3199 42.6422 21.8866 42.6719C22.7712 42.7181 23.7199 42.7179 23.9555 41.7969C23.7754 41.7853 23.6066 41.7751 23.4626 41.7621C22.399 41.6802 21.2538 41.9257 21.1719 40.4531L20.2054 40.493C20.277 40.9966 20.3473 41.533 20.5931 41.9716Z" fill="#F9AC2A"/>
<path d="M18.8195 40.9438C19.6605 40.9406 20.4953 40.8902 21.3144 40.6875C21.6983 40.5924 21.5354 40.0007 21.1513 40.0958C20.3844 40.2858 19.6068 40.3273 18.8195 40.3303C18.4238 40.3319 18.4236 40.9454 18.8195 40.9438Z" fill="#A63944"/>
<path d="M19.4335 44.4204C21.6156 44.1997 23.8917 43.8224 25.9881 43.1823C26.3654 43.0671 26.2045 42.4748 25.8249 42.5906C23.7822 43.2144 21.5597 43.5918 19.4335 43.8068C19.0438 43.8463 19.04 44.4603 19.4335 44.4204Z" fill="#A63944"/>
<path d="M21.3517 41.0834C21.229 41.247 21.1063 41.4107 20.9836 41.5742C20.9081 41.6747 20.9672 41.8311 21.0661 41.889C21.1837 41.9579 21.3058 41.9067 21.3809 41.8064C21.5036 41.6428 21.6263 41.4791 21.749 41.3156C21.8245 41.2151 21.7653 41.0587 21.6664 41.0007C21.549 40.932 21.4269 40.9833 21.3517 41.0834Z" fill="#24272E"/>
<path d="M22.033 41.4146C21.9512 41.619 21.8694 41.8236 21.7875 42.0281C21.7409 42.1447 21.8375 42.2807 21.9483 42.3111C22.0795 42.3473 22.1847 42.2668 22.2314 42.1503C22.3132 41.9459 22.395 41.7414 22.4768 41.5368C22.5234 41.4202 22.4269 41.2842 22.316 41.2538C22.1849 41.2177 22.0796 41.2982 22.033 41.4146Z" fill="#24272E"/>
<path d="M22.769 41.6287C22.7282 41.8024 22.6873 41.9763 22.6463 42.1502C22.5785 42.4388 23.0222 42.5613 23.09 42.2724C23.1309 42.0987 23.1719 41.9248 23.2128 41.7509C23.2807 41.4624 22.837 41.3399 22.769 41.6287Z" fill="#24272E"/>
<path d="M11.5187 20.2058C12.4185 16.9335 14.8728 14.8065 17.6543 13.0885C19.5358 11.9432 22.0719 10.0617 24.4443 10.6343C27.4712 11.3705 25.7532 15.2156 24.5261 16.7698C23.5444 18.0788 22.4809 19.2241 21.8265 20.6966C21.6628 20.942 21.4173 21.9237 21.2538 22.0873C20.6811 22.4146 18.7177 22.0873 18.0633 22.0873C15.609 21.9237 13.4821 21.351 11.5187 20.124" fill="#DD4C5B"/>
<path d="M19.0542 15.1219C20.3234 14.3314 20.3059 12.9684 19.8013 11.771C19.0301 12.2104 18.303 12.6931 17.654 13.0881C16.8297 13.5971 16.0348 14.1426 15.2999 14.7427C16.4001 15.4917 17.8658 15.8623 19.0542 15.1219Z" fill="#A63944"/>
<path d="M19.6302 11.784C20.2716 12.9828 20.2132 14.3014 18.9302 15.0022C17.8381 15.599 16.3582 15.4082 15.4092 14.6341C15.2572 14.5102 15.0388 14.7259 15.1922 14.8511C16.2836 15.7413 17.8267 15.8919 19.085 15.2672C20.5507 14.5395 20.5892 12.9268 19.8949 11.6293C19.8017 11.4548 19.5369 11.6098 19.6302 11.784Z" fill="#F9C03B"/>
<path d="M11.2396 20.278C12.2378 21.4719 14.0411 21.9356 15.492 22.2716C17.3997 22.7133 19.4986 22.8489 21.4368 22.5657C21.8272 22.5087 21.6606 21.9176 21.2737 21.9741C19.4895 22.2349 17.5482 22.0881 15.7904 21.7102C14.3981 21.4108 12.627 20.9846 11.6734 19.8442C11.4194 19.5403 10.9877 19.9767 11.2396 20.278Z" fill="#A63944"/>
<path d="M21.7671 15.3015C19.3905 16.6306 18.0075 19.6417 17.4585 22.1994C17.3757 22.5852 17.9671 22.7492 18.0501 22.3624C18.5657 19.9601 19.8387 17.0828 22.0767 15.8312C22.4221 15.6382 22.1128 15.1082 21.7671 15.3015Z" fill="#A63944"/>
<path d="M25.9364 12.1262C24.7093 9.99925 21.9279 6.80875 19.7191 9.9174C18.4102 11.6354 21.4371 11.3491 22.7459 11.5127C23.8095 11.5945 24.9547 11.7989 26.0183 12.2081" fill="#F9C03B"/>
<path d="M26.6498 12.1354C25.4557 10.5787 23.8898 9.2 22.163 8.26223C21.8152 8.07338 21.5056 8.60313 21.8534 8.79198C23.4826 9.67673 24.9909 10.9729 26.12 12.4451C26.3572 12.7545 26.8907 12.4494 26.6498 12.1354Z" fill="#A63944"/>
<path d="M29.6417 20.7216C28.1731 19.8334 24.8759 19.0737 24.8121 18.6922C24.5448 17.097 25.8642 10.7183 22.1079 11.9703C19.5497 12.823 21.8077 19.3978 22.5624 20.6556C23.604 22.3915 27.2173 22.3915 29.3809 22.5567C29.4679 22.1086 29.5547 21.1698 29.6417 20.7216Z" fill="#A63944"/>
<path d="M32.7065 21.4738C31.8086 20.9024 30.5033 20.7774 29.6036 21.0223C29.5427 21.4039 29.4436 21.9018 29.3601 22.2802C30.3168 22.6893 30.8882 23.5146 31.9703 23.4371C33.361 23.3554 33.9336 22.3737 32.7065 21.4738Z" fill="#F5BB9C"/>
<path d="M22.6381 12.6987C22.6985 14.0612 22.8222 15.4158 23.0286 16.7639C23.1321 17.4404 23.2623 18.1125 23.4016 18.7825C23.4853 19.1853 23.5079 19.6926 23.7926 20.0181C24.3406 20.6453 25.2699 20.9178 26.0377 21.151C27.1082 21.4759 28.2216 21.672 29.3309 21.805C29.6251 21.8404 29.6217 21.3797 29.3309 21.3449C28.3158 21.2231 27.3103 21.0282 26.3251 20.7551C25.6129 20.5577 24.5668 20.3035 24.1028 19.6695C23.8563 19.3325 23.8428 18.6522 23.7607 18.2476C23.6391 17.6488 23.5345 17.0468 23.442 16.4428C23.2521 15.2029 23.1537 13.9511 23.0984 12.6987C23.0853 12.4031 22.625 12.4019 22.6381 12.6987Z" fill="#F9C03B"/>
<path d="M29.4452 20.5935C29.2421 21.2409 29.156 21.9612 29.148 22.6385C29.1433 23.0344 29.7569 23.0339 29.7615 22.6385C29.7689 22.0112 29.8487 21.3564 30.0369 20.7567C30.1557 20.378 29.5632 20.2174 29.4452 20.5935Z" fill="#DD4C5B"/>
</svg>
