<svg width="302" height="64" viewBox="0 0 302 64" fill="none" xmlns="http://www.w3.org/2000/svg">
<rect width="302" height="64" rx="8" fill="#0C513F"/>
<g clip-path="url(#clip0_53_396)">
<path d="M40.666 31.3115L27.6614 44.7857L27.6633 44.7933C27.873 45.5295 28.3184 46.1766 28.9312 46.6353C29.544 47.0941 30.2903 47.3391 31.0558 47.3329C31.7055 47.3329 32.315 47.1604 32.8383 46.8614L32.8805 46.8365L47.518 38.5929L40.666 31.3096V31.3115Z" fill="#EA4335"/>
<path d="M53.8254 29.0178L53.812 29.0101L47.4927 25.4336L40.3723 31.6168L47.5176 38.5896L53.8043 35.0495C54.9064 34.4688 55.6539 33.336 55.6539 32.0269C55.6539 30.7293 54.916 29.6004 53.8254 29.0178Z" fill="#FBBC04"/>
<path d="M27.6606 19.2158C27.5839 19.4957 27.5417 19.7908 27.5417 20.0975V43.9025C27.5417 44.2092 27.582 44.5062 27.6606 44.7842L41.1156 31.6569L27.6587 19.2158H27.6606Z" fill="#4285F4"/>
<path d="M40.7618 31.9998L47.4931 25.4314L32.869 17.1572C32.3189 16.8354 31.693 16.6661 31.0558 16.6665C29.4305 16.6665 28.0581 17.7456 27.6614 19.2099V19.2138L40.7599 31.9998H40.7618Z" fill="#34A853"/>
</g>
<path d="M80.6982 39.24C79.6449 39.24 78.6715 39.0533 77.7782 38.68C76.8849 38.2933 76.1115 37.7533 75.4582 37.06C74.8049 36.3667 74.2915 35.5533 73.9182 34.62C73.5582 33.6867 73.3782 32.6667 73.3782 31.56C73.3782 30.44 73.5582 29.4133 73.9182 28.48C74.2782 27.5467 74.7849 26.7333 75.4382 26.04C76.0915 25.3467 76.8649 24.8133 77.7582 24.44C78.6515 24.0533 79.6249 23.86 80.6782 23.86C81.7049 23.86 82.6249 24.04 83.4382 24.4C84.2649 24.76 84.9582 25.2267 85.5182 25.8C86.0915 26.3733 86.4982 26.9867 86.7382 27.64L84.9782 28.5C84.6315 27.6333 84.0915 26.9467 83.3582 26.44C82.6249 25.9333 81.7315 25.68 80.6782 25.68C79.6382 25.68 78.7115 25.9267 77.8982 26.42C77.0982 26.9133 76.4715 27.6 76.0182 28.48C75.5649 29.36 75.3382 30.3867 75.3382 31.56C75.3382 32.72 75.5649 33.74 76.0182 34.62C76.4849 35.5 77.1182 36.1867 77.9182 36.68C78.7315 37.1733 79.6582 37.42 80.6982 37.42C81.6049 37.42 82.4249 37.2267 83.1582 36.84C83.8915 36.4533 84.4715 35.92 84.8982 35.24C85.3249 34.56 85.5382 33.7733 85.5382 32.88V31.96L86.4382 32.8H80.6782V31.1H87.5182V32.42C87.5182 33.46 87.3382 34.4 86.9782 35.24C86.6182 36.08 86.1249 36.8 85.4982 37.4C84.8715 37.9867 84.1449 38.44 83.3182 38.76C82.4915 39.08 81.6182 39.24 80.6982 39.24ZM94.9059 39.24C93.8659 39.24 92.9392 38.9933 92.1259 38.5C91.3125 38.0067 90.6725 37.3333 90.2059 36.48C89.7392 35.6133 89.5059 34.6467 89.5059 33.58C89.5059 32.5 89.7325 31.54 90.1859 30.7C90.6525 29.86 91.2792 29.2 92.0659 28.72C92.8659 28.2267 93.7592 27.98 94.7459 27.98C95.5459 27.98 96.2525 28.1267 96.8659 28.42C97.4925 28.7 98.0192 29.0867 98.4459 29.58C98.8859 30.06 99.2192 30.6133 99.4459 31.24C99.6859 31.8533 99.8059 32.4933 99.8059 33.16C99.8059 33.3067 99.7925 33.4733 99.7659 33.66C99.7525 33.8333 99.7325 34 99.7059 34.16H90.8659V32.56H98.6259L97.7459 33.28C97.8659 32.5867 97.7992 31.9667 97.5459 31.42C97.2925 30.8733 96.9192 30.44 96.4259 30.12C95.9325 29.8 95.3725 29.64 94.7459 29.64C94.1192 29.64 93.5459 29.8 93.0259 30.12C92.5059 30.44 92.0992 30.9 91.8059 31.5C91.5259 32.0867 91.4125 32.7867 91.4659 33.6C91.4125 34.3867 91.5325 35.08 91.8259 35.68C92.1325 36.2667 92.5592 36.7267 93.1059 37.06C93.6659 37.38 94.2725 37.54 94.9259 37.54C95.6459 37.54 96.2525 37.3733 96.7459 37.04C97.2392 36.7067 97.6392 36.28 97.9459 35.76L99.5059 36.56C99.2925 37.0533 98.9592 37.5067 98.5059 37.92C98.0659 38.32 97.5392 38.64 96.9259 38.88C96.3259 39.12 95.6525 39.24 94.9059 39.24ZM106.611 39.12C105.558 39.12 104.744 38.82 104.171 38.22C103.611 37.62 103.331 36.7733 103.331 35.68V30H101.371V28.22H101.771C102.251 28.22 102.631 28.0733 102.911 27.78C103.191 27.4867 103.331 27.1 103.331 26.62V25.74H105.191V28.22H107.611V30H105.191V35.62C105.191 35.98 105.244 36.2933 105.351 36.56C105.471 36.8267 105.664 37.04 105.931 37.2C106.198 37.3467 106.551 37.42 106.991 37.42C107.084 37.42 107.198 37.4133 107.331 37.4C107.478 37.3867 107.611 37.3733 107.731 37.36V39C107.558 39.04 107.364 39.0667 107.151 39.08C106.938 39.1067 106.758 39.12 106.611 39.12ZM113.618 39V28.22H115.478V39H113.618ZM113.618 26.5V24.1H115.478V26.5H113.618ZM122.744 39.12C121.69 39.12 120.877 38.82 120.304 38.22C119.744 37.62 119.464 36.7733 119.464 35.68V30H117.504V28.22H117.904C118.384 28.22 118.764 28.0733 119.044 27.78C119.324 27.4867 119.464 27.1 119.464 26.62V25.74H121.324V28.22H123.744V30H121.324V35.62C121.324 35.98 121.377 36.2933 121.484 36.56C121.604 36.8267 121.797 37.04 122.064 37.2C122.33 37.3467 122.684 37.42 123.124 37.42C123.217 37.42 123.33 37.4133 123.464 37.4C123.61 37.3867 123.744 37.3733 123.864 37.36V39C123.69 39.04 123.497 39.0667 123.284 39.08C123.07 39.1067 122.89 39.12 122.744 39.12ZM134.871 39.24C133.831 39.24 132.891 39 132.051 38.52C131.211 38.0267 130.544 37.3533 130.051 36.5C129.557 35.6467 129.311 34.68 129.311 33.6C129.311 32.52 129.551 31.56 130.031 30.72C130.524 29.88 131.191 29.2133 132.031 28.72C132.871 28.2267 133.817 27.98 134.871 27.98C135.911 27.98 136.851 28.2267 137.691 28.72C138.531 29.2 139.191 29.86 139.671 30.7C140.164 31.54 140.411 32.5067 140.411 33.6C140.411 34.6933 140.157 35.6667 139.651 36.52C139.144 37.36 138.471 38.0267 137.631 38.52C136.804 39 135.884 39.24 134.871 39.24ZM134.871 37.44C135.537 37.44 136.137 37.2733 136.671 36.94C137.217 36.6067 137.644 36.1467 137.951 35.56C138.271 34.9733 138.431 34.32 138.431 33.6C138.431 32.8667 138.271 32.22 137.951 31.66C137.644 31.0867 137.217 30.6333 136.671 30.3C136.137 29.9533 135.537 29.78 134.871 29.78C134.191 29.78 133.577 29.9533 133.031 30.3C132.497 30.6333 132.071 31.0867 131.751 31.66C131.431 32.22 131.271 32.8667 131.271 33.6C131.271 34.32 131.431 34.9733 131.751 35.56C132.071 36.1467 132.497 36.6067 133.031 36.94C133.577 37.2733 134.191 37.44 134.871 37.44ZM142.836 39V28.22H144.656V30.32L144.356 30.14C144.623 29.46 145.05 28.9333 145.636 28.56C146.236 28.1733 146.936 27.98 147.736 27.98C148.51 27.98 149.196 28.1533 149.796 28.5C150.41 28.8467 150.89 29.3267 151.236 29.94C151.596 30.5533 151.776 31.2467 151.776 32.02V39H149.896V32.62C149.896 32.02 149.79 31.5133 149.576 31.1C149.363 30.6867 149.056 30.3667 148.656 30.14C148.27 29.9 147.823 29.78 147.316 29.78C146.81 29.78 146.356 29.9 145.956 30.14C145.57 30.3667 145.263 30.6933 145.036 31.12C144.81 31.5333 144.696 32.0333 144.696 32.62V39H142.836ZM164.995 39.24C163.942 39.24 162.968 39.0533 162.075 38.68C161.182 38.2933 160.408 37.7533 159.755 37.06C159.102 36.3667 158.588 35.5533 158.215 34.62C157.855 33.6867 157.675 32.6667 157.675 31.56C157.675 30.44 157.855 29.4133 158.215 28.48C158.575 27.5467 159.082 26.7333 159.735 26.04C160.388 25.3467 161.162 24.8133 162.055 24.44C162.948 24.0533 163.922 23.86 164.975 23.86C166.002 23.86 166.922 24.04 167.735 24.4C168.562 24.76 169.255 25.2267 169.815 25.8C170.388 26.3733 170.795 26.9867 171.035 27.64L169.275 28.5C168.928 27.6333 168.388 26.9467 167.655 26.44C166.922 25.9333 166.028 25.68 164.975 25.68C163.935 25.68 163.008 25.9267 162.195 26.42C161.395 26.9133 160.768 27.6 160.315 28.48C159.862 29.36 159.635 30.3867 159.635 31.56C159.635 32.72 159.862 33.74 160.315 34.62C160.782 35.5 161.415 36.1867 162.215 36.68C163.028 37.1733 163.955 37.42 164.995 37.42C165.902 37.42 166.722 37.2267 167.455 36.84C168.188 36.4533 168.768 35.92 169.195 35.24C169.622 34.56 169.835 33.7733 169.835 32.88V31.96L170.735 32.8H164.975V31.1H171.815V32.42C171.815 33.46 171.635 34.4 171.275 35.24C170.915 36.08 170.422 36.8 169.795 37.4C169.168 37.9867 168.442 38.44 167.615 38.76C166.788 39.08 165.915 39.24 164.995 39.24ZM179.363 39.24C178.323 39.24 177.383 39 176.543 38.52C175.703 38.0267 175.036 37.3533 174.543 36.5C174.049 35.6467 173.803 34.68 173.803 33.6C173.803 32.52 174.043 31.56 174.523 30.72C175.016 29.88 175.683 29.2133 176.523 28.72C177.363 28.2267 178.309 27.98 179.363 27.98C180.403 27.98 181.343 28.2267 182.183 28.72C183.023 29.2 183.683 29.86 184.163 30.7C184.656 31.54 184.903 32.5067 184.903 33.6C184.903 34.6933 184.649 35.6667 184.143 36.52C183.636 37.36 182.963 38.0267 182.123 38.52C181.296 39 180.376 39.24 179.363 39.24ZM179.363 37.44C180.029 37.44 180.629 37.2733 181.163 36.94C181.709 36.6067 182.136 36.1467 182.443 35.56C182.763 34.9733 182.923 34.32 182.923 33.6C182.923 32.8667 182.763 32.22 182.443 31.66C182.136 31.0867 181.709 30.6333 181.163 30.3C180.629 29.9533 180.029 29.78 179.363 29.78C178.683 29.78 178.069 29.9533 177.523 30.3C176.989 30.6333 176.563 31.0867 176.243 31.66C175.923 32.22 175.763 32.8667 175.763 33.6C175.763 34.32 175.923 34.9733 176.243 35.56C176.563 36.1467 176.989 36.6067 177.523 36.94C178.069 37.2733 178.683 37.44 179.363 37.44ZM192.449 39.24C191.409 39.24 190.469 39 189.629 38.52C188.789 38.0267 188.122 37.3533 187.629 36.5C187.135 35.6467 186.889 34.68 186.889 33.6C186.889 32.52 187.129 31.56 187.609 30.72C188.102 29.88 188.769 29.2133 189.609 28.72C190.449 28.2267 191.395 27.98 192.449 27.98C193.489 27.98 194.429 28.2267 195.269 28.72C196.109 29.2 196.769 29.86 197.249 30.7C197.742 31.54 197.989 32.5067 197.989 33.6C197.989 34.6933 197.735 35.6667 197.229 36.52C196.722 37.36 196.049 38.0267 195.209 38.52C194.382 39 193.462 39.24 192.449 39.24ZM192.449 37.44C193.115 37.44 193.715 37.2733 194.249 36.94C194.795 36.6067 195.222 36.1467 195.529 35.56C195.849 34.9733 196.009 34.32 196.009 33.6C196.009 32.8667 195.849 32.22 195.529 31.66C195.222 31.0867 194.795 30.6333 194.249 30.3C193.715 29.9533 193.115 29.78 192.449 29.78C191.769 29.78 191.155 29.9533 190.609 30.3C190.075 30.6333 189.649 31.0867 189.329 31.66C189.009 32.22 188.849 32.8667 188.849 33.6C188.849 34.32 189.009 34.9733 189.329 35.56C189.649 36.1467 190.075 36.6067 190.609 36.94C191.155 37.2733 191.769 37.44 192.449 37.44ZM205.555 43.4C204.795 43.4 204.088 43.28 203.435 43.04C202.795 42.8 202.241 42.4667 201.775 42.04C201.321 41.6267 200.975 41.14 200.735 40.58L202.475 39.78C202.661 40.2867 203.015 40.7133 203.535 41.06C204.068 41.42 204.735 41.6 205.535 41.6C206.148 41.6 206.701 41.48 207.195 41.24C207.701 41.0133 208.101 40.6667 208.395 40.2C208.688 39.7467 208.835 39.1933 208.835 38.54V36.12L209.175 36.48C208.801 37.2133 208.261 37.7733 207.555 38.16C206.861 38.5467 206.095 38.74 205.255 38.74C204.241 38.74 203.335 38.5067 202.535 38.04C201.735 37.56 201.108 36.9133 200.655 36.1C200.201 35.2733 199.975 34.36 199.975 33.36C199.975 32.3467 200.201 31.4333 200.655 30.62C201.108 29.8067 201.728 29.1667 202.515 28.7C203.315 28.22 204.221 27.98 205.235 27.98C206.075 27.98 206.835 28.1733 207.515 28.56C208.208 28.9333 208.761 29.4533 209.175 30.12L208.895 30.62V28.22H210.715V38.54C210.715 39.4733 210.495 40.3067 210.055 41.04C209.615 41.7733 209.001 42.3467 208.215 42.76C207.441 43.1867 206.555 43.4 205.555 43.4ZM205.415 36.94C206.055 36.94 206.628 36.78 207.135 36.46C207.655 36.14 208.068 35.7133 208.375 35.18C208.681 34.6333 208.835 34.0267 208.835 33.36C208.835 32.7067 208.681 32.1067 208.375 31.56C208.068 31.0133 207.655 30.58 207.135 30.26C206.628 29.94 206.055 29.78 205.415 29.78C204.761 29.78 204.168 29.94 203.635 30.26C203.101 30.58 202.681 31.0133 202.375 31.56C202.081 32.0933 201.935 32.6933 201.935 33.36C201.935 34.0267 202.081 34.6333 202.375 35.18C202.681 35.7133 203.095 36.14 203.615 36.46C204.148 36.78 204.748 36.94 205.415 36.94ZM213.598 39V23.86H215.458V39H213.598ZM223.304 39.24C222.264 39.24 221.338 38.9933 220.524 38.5C219.711 38.0067 219.071 37.3333 218.604 36.48C218.138 35.6133 217.904 34.6467 217.904 33.58C217.904 32.5 218.131 31.54 218.584 30.7C219.051 29.86 219.678 29.2 220.464 28.72C221.264 28.2267 222.158 27.98 223.144 27.98C223.944 27.98 224.651 28.1267 225.264 28.42C225.891 28.7 226.418 29.0867 226.844 29.58C227.284 30.06 227.618 30.6133 227.844 31.24C228.084 31.8533 228.204 32.4933 228.204 33.16C228.204 33.3067 228.191 33.4733 228.164 33.66C228.151 33.8333 228.131 34 228.104 34.16H219.264V32.56H227.024L226.144 33.28C226.264 32.5867 226.198 31.9667 225.944 31.42C225.691 30.8733 225.318 30.44 224.824 30.12C224.331 29.8 223.771 29.64 223.144 29.64C222.518 29.64 221.944 29.8 221.424 30.12C220.904 30.44 220.498 30.9 220.204 31.5C219.924 32.0867 219.811 32.7867 219.864 33.6C219.811 34.3867 219.931 35.08 220.224 35.68C220.531 36.2667 220.958 36.7267 221.504 37.06C222.064 37.38 222.671 37.54 223.324 37.54C224.044 37.54 224.651 37.3733 225.144 37.04C225.638 36.7067 226.038 36.28 226.344 35.76L227.904 36.56C227.691 37.0533 227.358 37.5067 226.904 37.92C226.464 38.32 225.938 38.64 225.324 38.88C224.724 39.12 224.051 39.24 223.304 39.24ZM234.306 39V24.1H239.566C240.553 24.1 241.42 24.2867 242.166 24.66C242.913 25.0333 243.493 25.5667 243.906 26.26C244.333 26.9533 244.546 27.7667 244.546 28.7C244.546 29.6333 244.333 30.4467 243.906 31.14C243.493 31.82 242.913 32.3533 242.166 32.74C241.433 33.1133 240.566 33.3 239.566 33.3H236.266V39H234.306ZM236.266 31.5H239.626C240.226 31.5 240.746 31.3867 241.186 31.16C241.626 30.9333 241.966 30.6067 242.206 30.18C242.446 29.7533 242.566 29.26 242.566 28.7C242.566 28.1267 242.446 27.6333 242.206 27.22C241.966 26.7933 241.626 26.4667 241.186 26.24C240.746 26.0133 240.226 25.9 239.626 25.9H236.266V31.5ZM246.977 39V23.86H248.837V39H246.977ZM254.883 39.24C254.177 39.24 253.55 39.1133 253.003 38.86C252.47 38.5933 252.05 38.2333 251.743 37.78C251.437 37.3133 251.283 36.78 251.283 36.18C251.283 35.6067 251.403 35.0933 251.643 34.64C251.897 34.1733 252.283 33.78 252.803 33.46C253.337 33.14 254.003 32.9133 254.803 32.78L258.803 32.12V33.68L255.223 34.28C254.53 34.4 254.023 34.62 253.703 34.94C253.397 35.26 253.243 35.6533 253.243 36.12C253.243 36.56 253.417 36.9267 253.763 37.22C254.123 37.5133 254.57 37.66 255.103 37.66C255.783 37.66 256.37 37.52 256.863 37.24C257.37 36.9467 257.763 36.5533 258.043 36.06C258.337 35.5667 258.483 35.02 258.483 34.42V31.68C258.483 31.0933 258.263 30.62 257.823 30.26C257.397 29.8867 256.83 29.7 256.123 29.7C255.51 29.7 254.963 29.86 254.483 30.18C254.017 30.4867 253.67 30.9 253.443 31.42L251.823 30.58C252.023 30.0867 252.343 29.6467 252.783 29.26C253.223 28.86 253.737 28.5467 254.323 28.32C254.91 28.0933 255.523 27.98 256.163 27.98C256.99 27.98 257.717 28.14 258.343 28.46C258.97 28.7667 259.457 29.2 259.803 29.76C260.163 30.3067 260.343 30.9467 260.343 31.68V39H258.523V36.96L258.863 37.08C258.637 37.5067 258.33 37.88 257.943 38.2C257.557 38.52 257.103 38.7733 256.583 38.96C256.063 39.1467 255.497 39.24 254.883 39.24ZM263.807 43.4C263.567 43.4 263.327 43.38 263.087 43.34C262.847 43.3133 262.62 43.2533 262.407 43.16V41.5C262.554 41.5133 262.734 41.54 262.947 41.58C263.174 41.62 263.394 41.64 263.607 41.64C264.234 41.64 264.707 41.5 265.027 41.22C265.36 40.94 265.674 40.4667 265.967 39.8L266.647 38.18L266.607 39.8L262.007 28.22H264.027L267.607 37.42H267.007L270.567 28.22H272.627L267.767 40.28C267.54 40.8533 267.247 41.38 266.887 41.86C266.54 42.34 266.114 42.7133 265.607 42.98C265.1 43.26 264.5 43.4 263.807 43.4Z" fill="white"/>
<defs>
<clipPath id="clip0_53_396">
<rect width="32" height="30.6667" fill="white" transform="translate(24 16.6665)"/>
</clipPath>
</defs>
</svg>
