<svg width="302" height="64" viewBox="0 0 302 64" fill="none" xmlns="http://www.w3.org/2000/svg">
<rect width="302" height="64" rx="8" fill="#0C513F"/>
<g clip-path="url(#clip0_53_404)">
<path d="M46.4896 32.7131C46.4775 30.661 47.4073 29.1143 49.285 27.9739C48.2348 26.4694 46.646 25.6419 44.5518 25.4824C42.5688 25.326 40.3993 26.6379 39.6049 26.6379C38.7654 26.6379 36.8456 25.5366 35.3351 25.5366C32.2177 25.5847 28.9048 28.0221 28.9048 32.9809C28.9048 34.4463 29.1726 35.9599 29.7082 37.5186C30.4243 39.5707 33.0061 44.5988 35.6992 44.5176C37.1074 44.4845 38.1034 43.5186 39.9359 43.5186C41.7142 43.5186 42.635 44.5176 44.2057 44.5176C46.9229 44.4785 49.2579 39.9077 49.9379 37.8496C46.294 36.1314 46.4896 32.8185 46.4896 32.7131ZM43.3271 23.5356C44.8527 21.7242 44.7142 20.0752 44.6691 19.4824C43.3211 19.5607 41.7624 20.4002 40.8747 21.4323C39.8968 22.5396 39.3221 23.9087 39.4454 25.4523C40.9018 25.5637 42.2318 24.8144 43.3271 23.5356Z" fill="white"/>
</g>
<path d="M89.6005 40.24C88.5472 40.24 87.5739 40.0533 86.6805 39.68C85.7872 39.2933 85.0139 38.7533 84.3605 38.06C83.7072 37.3667 83.1939 36.5533 82.8205 35.62C82.4605 34.6867 82.2805 33.6667 82.2805 32.56C82.2805 31.44 82.4605 30.4133 82.8205 29.48C83.1805 28.5467 83.6872 27.7333 84.3405 27.04C84.9939 26.3467 85.7672 25.8133 86.6605 25.44C87.5539 25.0533 88.5272 24.86 89.5805 24.86C90.6072 24.86 91.5272 25.04 92.3405 25.4C93.1672 25.76 93.8605 26.2267 94.4205 26.8C94.9939 27.3733 95.4005 27.9867 95.6405 28.64L93.8805 29.5C93.5339 28.6333 92.9939 27.9467 92.2605 27.44C91.5272 26.9333 90.6339 26.68 89.5805 26.68C88.5405 26.68 87.6139 26.9267 86.8005 27.42C86.0005 27.9133 85.3739 28.6 84.9205 29.48C84.4672 30.36 84.2405 31.3867 84.2405 32.56C84.2405 33.72 84.4672 34.74 84.9205 35.62C85.3872 36.5 86.0205 37.1867 86.8205 37.68C87.6339 38.1733 88.5605 38.42 89.6005 38.42C90.5072 38.42 91.3272 38.2267 92.0605 37.84C92.7939 37.4533 93.3739 36.92 93.8005 36.24C94.2272 35.56 94.4405 34.7733 94.4405 33.88V32.96L95.3405 33.8H89.5805V32.1H96.4205V33.42C96.4205 34.46 96.2405 35.4 95.8805 36.24C95.5205 37.08 95.0272 37.8 94.4005 38.4C93.7739 38.9867 93.0472 39.44 92.2205 39.76C91.3939 40.08 90.5205 40.24 89.6005 40.24ZM103.808 40.24C102.768 40.24 101.842 39.9933 101.028 39.5C100.215 39.0067 99.5749 38.3333 99.1082 37.48C98.6415 36.6133 98.4082 35.6467 98.4082 34.58C98.4082 33.5 98.6349 32.54 99.0882 31.7C99.5549 30.86 100.182 30.2 100.968 29.72C101.768 29.2267 102.662 28.98 103.648 28.98C104.448 28.98 105.155 29.1267 105.768 29.42C106.395 29.7 106.922 30.0867 107.348 30.58C107.788 31.06 108.122 31.6133 108.348 32.24C108.588 32.8533 108.708 33.4933 108.708 34.16C108.708 34.3067 108.695 34.4733 108.668 34.66C108.655 34.8333 108.635 35 108.608 35.16H99.7682V33.56H107.528L106.648 34.28C106.768 33.5867 106.702 32.9667 106.448 32.42C106.195 31.8733 105.822 31.44 105.328 31.12C104.835 30.8 104.275 30.64 103.648 30.64C103.022 30.64 102.448 30.8 101.928 31.12C101.408 31.44 101.002 31.9 100.708 32.5C100.428 33.0867 100.315 33.7867 100.368 34.6C100.315 35.3867 100.435 36.08 100.728 36.68C101.035 37.2667 101.462 37.7267 102.008 38.06C102.568 38.38 103.175 38.54 103.828 38.54C104.548 38.54 105.155 38.3733 105.648 38.04C106.142 37.7067 106.542 37.28 106.848 36.76L108.408 37.56C108.195 38.0533 107.862 38.5067 107.408 38.92C106.968 39.32 106.442 39.64 105.828 39.88C105.228 40.12 104.555 40.24 103.808 40.24ZM115.513 40.12C114.46 40.12 113.647 39.82 113.073 39.22C112.513 38.62 112.233 37.7733 112.233 36.68V31H110.273V29.22H110.673C111.153 29.22 111.533 29.0733 111.813 28.78C112.093 28.4867 112.233 28.1 112.233 27.62V26.74H114.093V29.22H116.513V31H114.093V36.62C114.093 36.98 114.147 37.2933 114.253 37.56C114.373 37.8267 114.567 38.04 114.833 38.2C115.1 38.3467 115.453 38.42 115.893 38.42C115.987 38.42 116.1 38.4133 116.233 38.4C116.38 38.3867 116.513 38.3733 116.633 38.36V40C116.46 40.04 116.267 40.0667 116.053 40.08C115.84 40.1067 115.66 40.12 115.513 40.12ZM122.52 40V29.22H124.38V40H122.52ZM122.52 27.5V25.1H124.38V27.5H122.52ZM131.646 40.12C130.593 40.12 129.78 39.82 129.206 39.22C128.646 38.62 128.366 37.7733 128.366 36.68V31H126.406V29.22H126.806C127.286 29.22 127.666 29.0733 127.946 28.78C128.226 28.4867 128.366 28.1 128.366 27.62V26.74H130.226V29.22H132.646V31H130.226V36.62C130.226 36.98 130.28 37.2933 130.386 37.56C130.506 37.8267 130.7 38.04 130.966 38.2C131.233 38.3467 131.586 38.42 132.026 38.42C132.12 38.42 132.233 38.4133 132.366 38.4C132.513 38.3867 132.646 38.3733 132.766 38.36V40C132.593 40.04 132.4 40.0667 132.186 40.08C131.973 40.1067 131.793 40.12 131.646 40.12ZM143.773 40.24C142.733 40.24 141.793 40 140.953 39.52C140.113 39.0267 139.446 38.3533 138.953 37.5C138.46 36.6467 138.213 35.68 138.213 34.6C138.213 33.52 138.453 32.56 138.933 31.72C139.426 30.88 140.093 30.2133 140.933 29.72C141.773 29.2267 142.72 28.98 143.773 28.98C144.813 28.98 145.753 29.2267 146.593 29.72C147.433 30.2 148.093 30.86 148.573 31.7C149.066 32.54 149.313 33.5067 149.313 34.6C149.313 35.6933 149.06 36.6667 148.553 37.52C148.046 38.36 147.373 39.0267 146.533 39.52C145.706 40 144.786 40.24 143.773 40.24ZM143.773 38.44C144.44 38.44 145.04 38.2733 145.573 37.94C146.12 37.6067 146.546 37.1467 146.853 36.56C147.173 35.9733 147.333 35.32 147.333 34.6C147.333 33.8667 147.173 33.22 146.853 32.66C146.546 32.0867 146.12 31.6333 145.573 31.3C145.04 30.9533 144.44 30.78 143.773 30.78C143.093 30.78 142.48 30.9533 141.933 31.3C141.4 31.6333 140.973 32.0867 140.653 32.66C140.333 33.22 140.173 33.8667 140.173 34.6C140.173 35.32 140.333 35.9733 140.653 36.56C140.973 37.1467 141.4 37.6067 141.933 37.94C142.48 38.2733 143.093 38.44 143.773 38.44ZM151.739 40V29.22H153.559V31.32L153.259 31.14C153.525 30.46 153.952 29.9333 154.539 29.56C155.139 29.1733 155.839 28.98 156.639 28.98C157.412 28.98 158.099 29.1533 158.699 29.5C159.312 29.8467 159.792 30.3267 160.139 30.94C160.499 31.5533 160.679 32.2467 160.679 33.02V40H158.799V33.62C158.799 33.02 158.692 32.5133 158.479 32.1C158.265 31.6867 157.959 31.3667 157.559 31.14C157.172 30.9 156.725 30.78 156.219 30.78C155.712 30.78 155.259 30.9 154.859 31.14C154.472 31.3667 154.165 31.6933 153.939 32.12C153.712 32.5333 153.599 33.0333 153.599 33.62V40H151.739ZM165.577 40L170.917 25.1H173.237L178.577 40H176.477L175.257 36.5H168.897L167.677 40H165.577ZM169.517 34.7H174.637L171.797 26.52H172.357L169.517 34.7ZM180.235 44V29.22H182.055V31.54L181.815 31.08C182.215 30.44 182.762 29.9333 183.455 29.56C184.148 29.1733 184.942 28.98 185.835 28.98C186.848 28.98 187.755 29.2267 188.555 29.72C189.368 30.2133 190.008 30.8867 190.475 31.74C190.942 32.58 191.175 33.54 191.175 34.62C191.175 35.6733 190.942 36.6267 190.475 37.48C190.008 38.3333 189.368 39.0067 188.555 39.5C187.755 39.9933 186.842 40.24 185.815 40.24C184.948 40.24 184.155 40.0467 183.435 39.66C182.728 39.2733 182.182 38.7267 181.795 38.02L182.095 37.7V44H180.235ZM185.675 38.44C186.355 38.44 186.962 38.2733 187.495 37.94C188.028 37.6067 188.442 37.1533 188.735 36.58C189.042 35.9933 189.195 35.34 189.195 34.62C189.195 33.8733 189.042 33.22 188.735 32.66C188.442 32.0867 188.028 31.6333 187.495 31.3C186.962 30.9533 186.355 30.78 185.675 30.78C184.995 30.78 184.382 30.9467 183.835 31.28C183.302 31.6133 182.875 32.0733 182.555 32.66C182.248 33.2333 182.095 33.8867 182.095 34.62C182.095 35.34 182.248 35.9933 182.555 36.58C182.875 37.1533 183.302 37.6067 183.835 37.94C184.382 38.2733 184.995 38.44 185.675 38.44ZM193.614 44V29.22H195.434V31.54L195.194 31.08C195.594 30.44 196.14 29.9333 196.834 29.56C197.527 29.1733 198.32 28.98 199.214 28.98C200.227 28.98 201.134 29.2267 201.934 29.72C202.747 30.2133 203.387 30.8867 203.854 31.74C204.32 32.58 204.554 33.54 204.554 34.62C204.554 35.6733 204.32 36.6267 203.854 37.48C203.387 38.3333 202.747 39.0067 201.934 39.5C201.134 39.9933 200.22 40.24 199.194 40.24C198.327 40.24 197.534 40.0467 196.814 39.66C196.107 39.2733 195.56 38.7267 195.174 38.02L195.474 37.7V44H193.614ZM199.054 38.44C199.734 38.44 200.34 38.2733 200.874 37.94C201.407 37.6067 201.82 37.1533 202.114 36.58C202.42 35.9933 202.574 35.34 202.574 34.62C202.574 33.8733 202.42 33.22 202.114 32.66C201.82 32.0867 201.407 31.6333 200.874 31.3C200.34 30.9533 199.734 30.78 199.054 30.78C198.374 30.78 197.76 30.9467 197.214 31.28C196.68 31.6133 196.254 32.0733 195.934 32.66C195.627 33.2333 195.474 33.8867 195.474 34.62C195.474 35.34 195.627 35.9933 195.934 36.58C196.254 37.1533 196.68 37.6067 197.214 37.94C197.76 38.2733 198.374 38.44 199.054 38.44ZM215.79 40.24C214.843 40.24 213.976 40.0667 213.19 39.72C212.403 39.36 211.736 38.8733 211.19 38.26C210.643 37.6467 210.25 36.96 210.01 36.2L211.71 35.5C212.07 36.46 212.603 37.2 213.31 37.72C214.03 38.2267 214.87 38.48 215.83 38.48C216.416 38.48 216.93 38.3867 217.37 38.2C217.81 38.0133 218.15 37.7533 218.39 37.42C218.643 37.0733 218.77 36.6733 218.77 36.22C218.77 35.5933 218.59 35.1 218.23 34.74C217.883 34.3667 217.37 34.0867 216.69 33.9L213.95 33.06C212.87 32.7267 212.043 32.2 211.47 31.48C210.896 30.76 210.61 29.9333 210.61 29C210.61 28.1867 210.803 27.4733 211.19 26.86C211.59 26.2333 212.136 25.7467 212.83 25.4C213.536 25.04 214.336 24.86 215.23 24.86C216.123 24.86 216.93 25.02 217.65 25.34C218.383 25.66 219.003 26.0933 219.51 26.64C220.016 27.1733 220.39 27.7867 220.63 28.48L218.95 29.18C218.63 28.34 218.15 27.7067 217.51 27.28C216.87 26.84 216.116 26.62 215.25 26.62C214.716 26.62 214.243 26.7133 213.83 26.9C213.43 27.0733 213.116 27.3333 212.89 27.68C212.676 28.0133 212.57 28.4133 212.57 28.88C212.57 29.4267 212.743 29.9133 213.09 30.34C213.436 30.7667 213.963 31.0933 214.67 31.32L217.17 32.06C218.343 32.42 219.23 32.9333 219.83 33.6C220.43 34.2667 220.73 35.0933 220.73 36.08C220.73 36.8933 220.516 37.6133 220.09 38.24C219.676 38.8667 219.096 39.36 218.35 39.72C217.616 40.0667 216.763 40.24 215.79 40.24ZM227.759 40.12C226.706 40.12 225.893 39.82 225.319 39.22C224.759 38.62 224.479 37.7733 224.479 36.68V31H222.519V29.22H222.919C223.399 29.22 223.779 29.0733 224.059 28.78C224.339 28.4867 224.479 28.1 224.479 27.62V26.74H226.339V29.22H228.759V31H226.339V36.62C226.339 36.98 226.393 37.2933 226.499 37.56C226.619 37.8267 226.813 38.04 227.079 38.2C227.346 38.3467 227.699 38.42 228.139 38.42C228.233 38.42 228.346 38.4133 228.479 38.4C228.626 38.3867 228.759 38.3733 228.879 38.36V40C228.706 40.04 228.513 40.0667 228.299 40.08C228.086 40.1067 227.906 40.12 227.759 40.12ZM236.136 40.24C235.096 40.24 234.156 40 233.316 39.52C232.476 39.0267 231.81 38.3533 231.316 37.5C230.823 36.6467 230.576 35.68 230.576 34.6C230.576 33.52 230.816 32.56 231.296 31.72C231.79 30.88 232.456 30.2133 233.296 29.72C234.136 29.2267 235.083 28.98 236.136 28.98C237.176 28.98 238.116 29.2267 238.956 29.72C239.796 30.2 240.456 30.86 240.936 31.7C241.43 32.54 241.676 33.5067 241.676 34.6C241.676 35.6933 241.423 36.6667 240.916 37.52C240.41 38.36 239.736 39.0267 238.896 39.52C238.07 40 237.15 40.24 236.136 40.24ZM236.136 38.44C236.803 38.44 237.403 38.2733 237.936 37.94C238.483 37.6067 238.91 37.1467 239.216 36.56C239.536 35.9733 239.696 35.32 239.696 34.6C239.696 33.8667 239.536 33.22 239.216 32.66C238.91 32.0867 238.483 31.6333 237.936 31.3C237.403 30.9533 236.803 30.78 236.136 30.78C235.456 30.78 234.843 30.9533 234.296 31.3C233.763 31.6333 233.336 32.0867 233.016 32.66C232.696 33.22 232.536 33.8667 232.536 34.6C232.536 35.32 232.696 35.9733 233.016 36.56C233.336 37.1467 233.763 37.6067 234.296 37.94C234.843 38.2733 235.456 38.44 236.136 38.44ZM244.102 40V29.22H245.922V31.2L245.722 30.92C245.975 30.3067 246.362 29.8533 246.882 29.56C247.402 29.2533 248.035 29.1 248.782 29.1H249.442V30.86H248.502C247.742 30.86 247.129 31.1 246.662 31.58C246.195 32.0467 245.962 32.7133 245.962 33.58V40H244.102ZM256.054 40.24C255.014 40.24 254.088 39.9933 253.274 39.5C252.461 39.0067 251.821 38.3333 251.354 37.48C250.888 36.6133 250.654 35.6467 250.654 34.58C250.654 33.5 250.881 32.54 251.334 31.7C251.801 30.86 252.428 30.2 253.214 29.72C254.014 29.2267 254.908 28.98 255.894 28.98C256.694 28.98 257.401 29.1267 258.014 29.42C258.641 29.7 259.168 30.0867 259.594 30.58C260.034 31.06 260.368 31.6133 260.594 32.24C260.834 32.8533 260.954 33.4933 260.954 34.16C260.954 34.3067 260.941 34.4733 260.914 34.66C260.901 34.8333 260.881 35 260.854 35.16H252.014V33.56H259.774L258.894 34.28C259.014 33.5867 258.948 32.9667 258.694 32.42C258.441 31.8733 258.068 31.44 257.574 31.12C257.081 30.8 256.521 30.64 255.894 30.64C255.268 30.64 254.694 30.8 254.174 31.12C253.654 31.44 253.248 31.9 252.954 32.5C252.674 33.0867 252.561 33.7867 252.614 34.6C252.561 35.3867 252.681 36.08 252.974 36.68C253.281 37.2667 253.708 37.7267 254.254 38.06C254.814 38.38 255.421 38.54 256.074 38.54C256.794 38.54 257.401 38.3733 257.894 38.04C258.388 37.7067 258.788 37.28 259.094 36.76L260.654 37.56C260.441 38.0533 260.108 38.5067 259.654 38.92C259.214 39.32 258.688 39.64 258.074 39.88C257.474 40.12 256.801 40.24 256.054 40.24Z" fill="white"/>
<defs>
<clipPath id="clip0_53_404">
<rect width="30.8125" height="30.8125" fill="white" transform="translate(24 16.5938)"/>
</clipPath>
</defs>
</svg>
