<svg width="173" height="79" viewBox="0 0 173 79" fill="none" xmlns="http://www.w3.org/2000/svg">
<rect width="173" height="80.2339" fill="#ADD7DE"/>
<g clip-path="url(#clip0_53_6300)">
<g clip-path="url(#clip1_53_6300)">
<path d="M-38.1569 56.812C-38.1569 56.812 -35.5008 55.8593 -32.6785 59.7302C-32.6785 59.7302 -30.1338 54.2088 -29.3472 54.4864C-28.5607 54.764 -29.3472 61.2877 -29.3472 61.2877C-29.3472 61.2877 -25.4608 57.4938 -25.0443 58.0953C-24.6279 58.6967 -26.1085 62.4444 -26.1085 62.4444C-26.1085 62.4444 -22.7314 60.7325 -21.7134 63.416H29.0423C29.0423 63.416 28.5796 62.0742 30.1065 62.028C30.1065 62.028 29.3199 58.6292 30.3841 58.5242C31.4483 58.4191 33.9004 61.0564 33.9004 61.0564C33.9004 61.0564 34.1489 54.233 35.4763 54.0382C36.8037 53.8434 36.6302 59.7302 36.6302 59.7302C36.6302 59.7302 40.8184 53.5536 43.1429 54.4826V66.561H-38.1569V56.812Z" fill="#816B05"/>
</g>
<path d="M122.35 0H41.0596V81.2902H122.35V0Z" fill="url(#paint0_linear_53_6300)"/>
<path d="M122.35 62.5657H41.0596V69.4612H122.35V62.5657Z" fill="#978507"/>
<path d="M164.654 69.2627H-1.24451V81.2903H164.654V69.2627Z" fill="#4D4849"/>
<path d="M122.35 69.2627H41.0596V70.0922H122.35V69.2627Z" fill="#706B6C"/>
<path d="M57.9235 63.6702H41.0596V53.8972C42.8721 53.2065 46.9261 58.3832 46.9261 58.3832C46.9261 58.3832 48.5574 52.6454 50.2793 53.5202C52.0012 54.395 50.9137 60.0942 50.9137 60.0942C50.9137 60.0942 53.7657 56.5534 54.9014 57.0863C56.0369 57.6192 54.9014 61.8162 54.9014 61.8162C54.9014 61.8162 58.1287 61.899 57.9235 63.6702Z" fill="#978507"/>
<path d="M107.044 62.7557H122.359V52.9827C120.547 52.292 116.493 57.4687 116.493 57.4687C116.493 57.4687 116.71 52.6664 114.693 52.7408C112.763 52.8121 112.505 59.1797 112.505 59.1797C112.505 59.1797 110.064 56.9358 108.928 57.4687C107.792 58.0015 108.517 60.9017 108.517 60.9017C108.517 60.9017 106.838 60.9845 107.044 62.7557Z" fill="#978507"/>
<path d="M41.0596 56.812C41.0596 56.812 43.7156 55.8593 46.5379 59.7302C46.5379 59.7302 49.0826 54.2088 49.8692 54.4864C50.6558 54.764 49.8692 61.2877 49.8692 61.2877C49.8692 61.2877 53.7557 57.4938 54.1721 58.0953C54.5885 58.6967 53.1079 62.4444 53.1079 62.4444C53.1079 62.4444 56.485 60.7325 57.503 63.416H108.259C108.259 63.416 107.796 62.0742 109.323 62.028C109.323 62.028 108.536 58.6292 109.601 58.5242C110.665 58.4191 113.117 61.0564 113.117 61.0564C113.117 61.0564 113.365 54.233 114.693 54.0382C116.02 53.8434 115.847 59.7302 115.847 59.7302C115.847 59.7302 120.035 53.5536 122.359 54.4826V66.561H41.0596V56.812Z" fill="#816B05"/>
<path d="M203.649 56.812C203.649 56.812 200.993 55.8593 198.171 59.7302C198.171 59.7302 195.626 54.2088 194.84 54.4864C194.053 54.764 194.84 61.2877 194.84 61.2877C194.84 61.2877 190.953 57.4938 190.537 58.0953C190.12 58.6967 191.601 62.4444 191.601 62.4444C191.601 62.4444 188.224 60.7325 187.206 63.416H136.45C136.45 63.416 136.913 62.0742 135.386 62.028C135.386 62.028 136.172 58.6292 135.108 58.5242C134.044 58.4191 131.592 61.0564 131.592 61.0564C131.592 61.0564 131.343 54.233 130.016 54.0382C128.689 53.8434 128.862 59.7302 128.862 59.7302C128.862 59.7302 124.674 53.5536 122.349 54.4826V66.561H203.649V56.812Z" fill="#816B05"/>
<path d="M45.3124 76.0486H46.8366" stroke="#EDEDED" stroke-width="0.203225" stroke-miterlimit="10"/>
<path d="M54.5222 76.0486H114.153" stroke="#EDEDED" stroke-width="0.203225" stroke-miterlimit="10" stroke-dasharray="2.89 7.69"/>
<path d="M117.995 76.0486H119.519" stroke="#EDEDED" stroke-width="0.203225" stroke-miterlimit="10"/>
<path d="M165.898 66.3594H-2.48865V69.2626H165.898V66.3594Z" fill="#878283"/>
<path d="M121.474 25.0033C121.474 25.0033 120.094 23.545 117.855 23.6307C117.855 23.6307 117.264 20.9748 115.368 20.7997C113.471 20.6247 112.548 23.2017 112.548 23.2017C112.548 23.2017 111.822 18.7407 109.01 18.7407C106.198 18.7407 105.362 23.5449 105.362 23.5449C105.362 23.5449 100.626 23.0071 98.6301 25.0032H121.474V25.0033Z" fill="url(#paint1_linear_53_6300)"/>
<path d="M74.4851 24.6329H45.7338C45.7338 24.6329 46.9848 17.6987 50.8046 16.7643C54.6682 15.8192 58.0303 20.6987 58.0303 20.6987C58.0303 20.6987 58.7229 12.7929 63.4562 13.5252C68.1385 14.2496 67.4534 21.6145 67.4534 21.6145C67.4534 21.6145 74.4851 21.9767 74.4851 24.6329Z" fill="url(#paint2_linear_53_6300)"/>
<path d="M76.3429 21.8201H75.6665V25.6179H76.3429V21.8201Z" fill="#A12B21"/>
<path d="M97.099 21.8201H96.4226V25.6179H97.099V21.8201Z" fill="#A12B21"/>
<path d="M98.8226 21.8197H74.7034C71.7357 21.8197 69.3298 19.4139 69.3298 16.4461C69.3298 13.4784 71.7356 11.0725 74.7034 11.0725H98.8226C101.79 11.0725 104.196 13.4783 104.196 16.4461C104.196 19.4139 101.79 21.8197 98.8226 21.8197Z" fill="#CB5539"/>
<path d="M74.7034 20.9578C72.2157 20.9578 70.1918 18.9339 70.1918 16.4462C70.1918 13.9585 72.2157 11.9346 74.7034 11.9346H98.8227C101.31 11.9346 103.334 13.9585 103.334 16.4462C103.334 18.9339 101.31 20.9578 98.8227 20.9578H74.7034Z" fill="#7D3831"/>
<path d="M105.535 35.1912H64.6172V66.5612H105.535V35.1912Z" fill="#CB5539"/>
<path d="M105.755 25.6177H64.8375V26.9856H105.755V25.6177Z" fill="#A12B21"/>
<path d="M105.755 25.2363H64.8375V25.6176H105.755V25.2363Z" fill="#ECB69A"/>
<path d="M90.9982 39.7H68.0156V56.8123H90.9982V39.7Z" fill="#C04533"/>
<path d="M90.7369 56.4767V40.0354L68.2769 40.0354V56.4767H90.7369Z" fill="#D89294"/>
<path d="M90.4451 56.2629V40.249L68.569 40.249V56.2629H90.4451Z" fill="#EFCAB7"/>
<path d="M89.5085 55.4387V41.0732L69.5056 41.0732V55.4387H89.5085Z" fill="#5E848D"/>
<path d="M70.6051 42.1949L89.5085 41.4138V41.0732H69.5055V55.4387H69.8241L70.6051 42.1949Z" fill="#3F2C48"/>
<path d="M106.946 64.4683H63.6499V66.5615H106.946V64.4683Z" fill="#ECB69A"/>
<path d="M106.526 63.8113H64.0703V64.4679H106.526V63.8113Z" fill="#FFEBC2"/>
<path d="M104.589 38.5957H92.0459V64.4534H104.589V38.5957Z" fill="#FFEBC2"/>
<path d="M60.6299 37.4258C61.6706 37.4258 62.5144 36.5821 62.5144 35.5413H58.7455C58.7455 36.5821 59.5892 37.4258 60.6299 37.4258Z" fill="#FFDC78"/>
<path d="M64.3908 37.426C65.4315 37.426 66.2753 36.5823 66.2753 35.5415H62.5063C62.5063 36.5823 63.35 37.426 64.3908 37.426Z" fill="#DB3400"/>
<path d="M68.152 37.426C69.1927 37.426 70.0365 36.5823 70.0365 35.5415H66.2676C66.2675 36.5823 67.1112 37.426 68.152 37.426Z" fill="#FFDC78"/>
<path d="M71.9129 37.426C72.9536 37.426 73.7974 36.5823 73.7974 35.5415H70.0284C70.0283 36.5823 70.872 37.426 71.9129 37.426Z" fill="#DB3400"/>
<path d="M75.674 37.426C76.7147 37.426 77.5585 36.5823 77.5585 35.5415H73.7896C73.7894 36.5823 74.6331 37.426 75.674 37.426Z" fill="#FFDC78"/>
<path d="M79.4347 37.426C80.4754 37.426 81.3192 36.5823 81.3192 35.5415H77.5503C77.5503 36.5823 78.394 37.426 79.4347 37.426Z" fill="#DB3400"/>
<path d="M83.1957 37.426C84.2364 37.426 85.0802 36.5823 85.0802 35.5415H81.3113C81.3113 36.5823 82.155 37.426 83.1957 37.426Z" fill="#FFDC78"/>
<path d="M86.9567 37.426C87.9974 37.426 88.8412 36.5823 88.8412 35.5415H85.0723C85.0722 36.5823 85.916 37.426 86.9567 37.426Z" fill="#DB3400"/>
<path d="M90.7177 37.426C91.7584 37.426 92.6022 36.5823 92.6022 35.5415H88.8333C88.8332 36.5823 89.6769 37.426 90.7177 37.426Z" fill="#FFDC78"/>
<path d="M94.4788 37.426C95.5195 37.426 96.3633 36.5823 96.3633 35.5415H92.5944C92.5943 36.5823 93.438 37.426 94.4788 37.426Z" fill="#DB3400"/>
<path d="M98.2398 37.426C99.2805 37.426 100.124 36.5823 100.124 35.5415H96.3553C96.3552 36.5823 97.1989 37.426 98.2398 37.426Z" fill="#FFDC78"/>
<path d="M102.001 37.426C103.041 37.426 103.885 36.5823 103.885 35.5415H100.116C100.116 36.5823 100.96 37.426 102.001 37.426Z" fill="#DB3400"/>
<path d="M105.762 37.426C106.802 37.426 107.646 36.5823 107.646 35.5415H103.877C103.877 36.5823 104.721 37.426 105.762 37.426Z" fill="#FFDC78"/>
<path d="M109.523 37.426C110.563 37.426 111.407 36.5823 111.407 35.5415H107.638C107.638 36.5823 108.482 37.426 109.523 37.426Z" fill="#DB3400"/>
<path d="M60.6378 36.8435C59.8005 36.8435 59.0917 36.297 58.8462 35.5415H58.7534C58.7534 36.5822 59.5971 37.426 60.6379 37.426C61.6787 37.426 62.5224 36.5823 62.5224 35.5415H62.4297C62.184 36.2969 61.4751 36.8435 60.6378 36.8435Z" fill="#FFE9A5"/>
<path d="M64.3906 36.8435C63.5533 36.8435 62.8445 36.297 62.599 35.5415H62.5062C62.5062 36.5822 63.3499 37.426 64.3907 37.426C65.4316 37.426 66.2752 36.5823 66.2752 35.5415H66.1825C65.9368 36.2969 65.2279 36.8435 64.3906 36.8435Z" fill="#F64501"/>
<path d="M68.1597 36.8435C67.3224 36.8435 66.6135 36.297 66.368 35.5415H66.2753C66.2753 36.5822 67.119 37.426 68.1598 37.426C69.2006 37.426 70.0443 36.5823 70.0443 35.5415H69.9515C69.7058 36.2969 68.997 36.8435 68.1597 36.8435Z" fill="#FFE9A5"/>
<path d="M71.9126 36.8435C71.0753 36.8435 70.3665 36.297 70.121 35.5415H70.0282C70.0282 36.5822 70.8719 37.426 71.9127 37.426C72.9534 37.426 73.7972 36.5823 73.7972 35.5415H73.7044C73.4587 36.2969 72.7499 36.8435 71.9126 36.8435Z" fill="#F64501"/>
<path d="M75.6815 36.8435C74.8442 36.8435 74.1354 36.297 73.8899 35.5415H73.7971C73.7971 36.5822 74.6408 37.426 75.6816 37.426C76.7223 37.426 77.5661 36.5823 77.5661 35.5415H77.4733C77.2277 36.2969 76.5188 36.8435 75.6815 36.8435Z" fill="#FFE9A5"/>
<path d="M79.4346 36.8435C78.5973 36.8435 77.8884 36.297 77.6429 35.5415H77.5502C77.5502 36.5822 78.3939 37.426 79.4347 37.426C80.4754 37.426 81.3192 36.5823 81.3192 35.5415H81.2264C80.9808 36.2969 80.272 36.8435 79.4346 36.8435Z" fill="#F64501"/>
<path d="M83.2036 36.8435C82.3663 36.8435 81.6575 36.297 81.412 35.5415H81.3191C81.3191 36.5822 82.1628 37.426 83.2036 37.426C84.2443 37.426 85.0881 36.5823 85.0881 35.5415H84.9952C84.7497 36.2969 84.0409 36.8435 83.2036 36.8435Z" fill="#FFE9A5"/>
<path d="M86.9567 36.8435C86.1194 36.8435 85.4105 36.297 85.165 35.5415H85.0723C85.0723 36.5822 85.916 37.426 86.9568 37.426C87.9976 37.426 88.8413 36.5823 88.8413 35.5415H88.7485C88.5028 36.2969 87.794 36.8435 86.9567 36.8435Z" fill="#F64501"/>
<path d="M90.7256 36.8435C89.8883 36.8435 89.1794 36.297 88.9339 35.5415H88.8411C88.8411 36.5822 89.6848 37.426 90.7256 37.426C91.7663 37.426 92.6101 36.5823 92.6101 35.5415H92.5172C92.2717 36.2969 91.5629 36.8435 90.7256 36.8435Z" fill="#FFE9A5"/>
<path d="M94.4785 36.8435C93.6412 36.8435 92.9324 36.297 92.6869 35.5415H92.5941C92.5941 36.5822 93.4378 37.426 94.4786 37.426C95.5193 37.426 96.3631 36.5823 96.3631 35.5415H96.2703C96.0247 36.2969 95.3158 36.8435 94.4785 36.8435Z" fill="#F64501"/>
<path d="M98.2474 36.8435C97.4102 36.8435 96.7013 36.297 96.4558 35.5415H96.363C96.363 36.5822 97.2067 37.426 98.2475 37.426C99.2883 37.426 100.132 36.5823 100.132 35.5415H100.039C99.7936 36.2969 99.0847 36.8435 98.2474 36.8435Z" fill="#FFE9A5"/>
<path d="M102.001 36.8435C101.163 36.8435 100.454 36.297 100.209 35.5415H100.116C100.116 36.5822 100.96 37.426 102.001 37.426C103.041 37.426 103.885 36.5823 103.885 35.5415H103.792C103.547 36.2969 102.838 36.8435 102.001 36.8435Z" fill="#F64501"/>
<path d="M105.769 36.8435C104.932 36.8435 104.223 36.297 103.978 35.5415H103.885C103.885 36.5822 104.729 37.426 105.77 37.426C106.81 37.426 107.654 36.5823 107.654 35.5415H107.561C107.316 36.2969 106.607 36.8435 105.769 36.8435Z" fill="#FFE9A5"/>
<path d="M109.522 36.8435C108.685 36.8435 107.976 36.297 107.731 35.5415H107.638C107.638 36.5822 108.482 37.426 109.522 37.426C110.563 37.426 111.407 36.5823 111.407 35.5415H111.314C111.069 36.2969 110.36 36.8435 109.522 36.8435Z" fill="#F64501"/>
<path d="M81.327 26.4524H77.5581V35.5415H81.327V26.4524Z" fill="#F64501"/>
<path d="M73.8052 26.4524H70.0363V35.5415H73.8052V26.4524Z" fill="#F64501"/>
<path d="M77.5501 26.4524H73.7971V35.5415H77.5501V26.4524Z" fill="#FFE9A5"/>
<path d="M85.0721 26.4524H81.3191V35.5415H85.0721V26.4524Z" fill="#FFE9A5"/>
<path d="M62.5064 26.4524H58.7534V35.5415H62.5064V26.4524Z" fill="#FFE9A5"/>
<path d="M66.2832 26.4524H62.5143V35.5415H66.2832V26.4524Z" fill="#F64501"/>
<path d="M70.0282 26.4524H66.2753V35.5415H70.0282V26.4524Z" fill="#FFE9A5"/>
<path d="M103.885 26.4524H100.116V35.5415H103.885V26.4524Z" fill="#F64501"/>
<path d="M107.638 26.4524H103.885V35.5415H107.638V26.4524Z" fill="#FFE9A5"/>
<path d="M100.116 26.4524H96.363V35.5415H100.116V26.4524Z" fill="#FFE9A5"/>
<path d="M111.407 26.4524H107.638V35.5415H111.407V26.4524Z" fill="#F64501"/>
<path d="M96.363 26.4524H92.5941V35.5415H96.363V26.4524Z" fill="#F64501"/>
<path d="M92.5942 26.4524H88.8412V35.5415H92.5942V26.4524Z" fill="#FFE9A5"/>
<path d="M88.8491 26.4524H85.0802V35.5415H88.8491V26.4524Z" fill="#F64501"/>
<path d="M71.2861 42.6633L70.6954 51.556L80.2185 42.1814L71.2861 42.6633Z" fill="#A7B6BD"/>
<path d="M81.4047 42.1811L70.7424 52.6626L82.8128 42.095L81.4047 42.1811Z" fill="#A7B6BD"/>
<path d="M104.041 39.26H92.6356V66.5613H104.041V39.26Z" fill="#ECB69A"/>
<path d="M103.172 40.2964H93.6433V64.4678H103.172V40.2964Z" fill="#A12B21"/>
<path d="M101.81 42.0562H95.3702V55.8301H101.81V42.0562Z" fill="#5E848D"/>
<path d="M95.3702 42.0562V55.8301L95.9429 42.5949L101.81 42.0562H95.3702Z" fill="#3F2C48"/>
<path d="M101.569 42.4087L96.2787 42.9484L96.1486 49.3059L101.569 42.4087Z" fill="#A7B6BD"/>
<path d="M101.569 43.1628L96.1486 50.0801L101.569 44.1178V43.1628Z" fill="#A7B6BD"/>
<path d="M72.3206 17.9255V14.7629H73.3892C73.6363 14.7629 73.8391 14.8051 73.9977 14.8895C74.1562 14.9729 74.2736 15.0877 74.3498 15.2339C74.426 15.3801 74.4641 15.5463 74.4641 15.7327C74.4641 15.919 74.426 16.0842 74.3498 16.2284C74.2736 16.3725 74.1567 16.4858 73.9992 16.5681C73.8417 16.6494 73.6404 16.6901 73.3954 16.6901H72.5306V16.3442H73.3831C73.5519 16.3442 73.6878 16.3195 73.7908 16.2701C73.8947 16.2207 73.9699 16.1506 74.0162 16.0601C74.0636 15.9684 74.0873 15.8593 74.0873 15.7327C74.0873 15.606 74.0636 15.4954 74.0162 15.4006C73.9689 15.3059 73.8932 15.2328 73.7892 15.1814C73.6852 15.1289 73.5478 15.1026 73.3769 15.1026H72.7036V17.9255H72.3206ZM73.8093 16.5048L74.5876 17.9255H74.1428L73.3769 16.5048H73.8093ZM75.1022 17.9255V14.7629H77.011V15.1026H75.4852V16.1712H76.9121V16.511H75.4852V17.5858H77.0357V17.9255H75.1022ZM79.4308 15.5535C79.4123 15.397 79.3372 15.2756 79.2054 15.1891C79.0736 15.1026 78.912 15.0594 78.7205 15.0594C78.5805 15.0594 78.4579 15.082 78.3529 15.1273C78.249 15.1726 78.1676 15.2349 78.1089 15.3142C78.0513 15.3934 78.0225 15.4835 78.0225 15.5844C78.0225 15.6688 78.0425 15.7414 78.0827 15.8022C78.1239 15.8619 78.1764 15.9118 78.2402 15.952C78.304 15.9911 78.371 16.0235 78.441 16.0492C78.511 16.0739 78.5753 16.094 78.634 16.1095L78.9552 16.1959C79.0376 16.2176 79.1292 16.2474 79.2301 16.2855C79.332 16.3236 79.4293 16.3756 79.522 16.4415C79.6156 16.5063 79.6929 16.5897 79.7536 16.6917C79.8143 16.7936 79.8447 16.9187 79.8447 17.0669C79.8447 17.2378 79.7999 17.3922 79.7104 17.5302C79.6218 17.6682 79.4921 17.7778 79.3212 17.8591C79.1513 17.9405 78.9449 17.9811 78.7019 17.9811C78.4754 17.9811 78.2793 17.9446 78.1136 17.8715C77.9488 17.7984 77.8191 17.6965 77.7244 17.5657C77.6307 17.435 77.5777 17.2831 77.5654 17.1102H77.9607C77.971 17.2296 78.0111 17.3284 78.0811 17.4067C78.1522 17.4839 78.2417 17.5415 78.3498 17.5796C78.459 17.6167 78.5763 17.6352 78.7019 17.6352C78.8481 17.6352 78.9794 17.6115 79.0957 17.5642C79.2121 17.5158 79.3042 17.4489 79.3722 17.3634C79.4401 17.2769 79.4741 17.176 79.4741 17.0607C79.4741 16.9557 79.4447 16.8703 79.3861 16.8044C79.3274 16.7385 79.2502 16.685 79.1544 16.6438C79.0587 16.6026 78.9552 16.5666 78.844 16.5357L78.4549 16.4245C78.2078 16.3535 78.0122 16.2521 77.868 16.1203C77.7239 15.9885 77.6518 15.8161 77.6518 15.6029C77.6518 15.4259 77.6997 15.2714 77.7955 15.1397C77.8922 15.0069 78.0219 14.9039 78.1846 14.8308C78.3483 14.7567 78.531 14.7196 78.7328 14.7196C78.9367 14.7196 79.1179 14.7562 79.2764 14.8293C79.435 14.9013 79.5606 15.0002 79.6532 15.1258C79.7469 15.2514 79.7963 15.394 79.8015 15.5535H79.4308ZM80.3014 15.1026V14.7629H82.6734V15.1026H81.6789V17.9255H81.2959V15.1026H80.3014ZM83.0248 17.9255H82.6232L83.7845 14.7629H84.1799L85.3412 17.9255H84.9397L83.9946 15.2632H83.9699L83.0248 17.9255ZM83.173 16.6901H84.7914V17.0299H83.173V16.6901ZM87.9093 14.7629H88.2923V16.8569C88.2923 17.0731 88.2413 17.2661 88.1394 17.436C88.0385 17.6048 87.8959 17.7382 87.7116 17.836C87.5274 17.9327 87.3112 17.9811 87.063 17.9811C86.8149 17.9811 86.5987 17.9327 86.4144 17.836C86.2302 17.7382 86.0871 17.6048 85.9851 17.436C85.8842 17.2661 85.8338 17.0731 85.8338 16.8569V14.7629H86.2168V16.826C86.2168 16.9804 86.2508 17.1179 86.3187 17.2383C86.3866 17.3578 86.4834 17.452 86.609 17.5209C86.7357 17.5889 86.887 17.6229 87.063 17.6229C87.2391 17.6229 87.3904 17.5889 87.5171 17.5209C87.6437 17.452 87.7405 17.3578 87.8074 17.2383C87.8753 17.1179 87.9093 16.9804 87.9093 16.826V14.7629ZM89.0571 17.9255V14.7629H90.1257C90.3728 14.7629 90.5756 14.8051 90.7342 14.8895C90.8927 14.9729 91.0101 15.0877 91.0863 15.2339C91.1625 15.3801 91.2005 15.5463 91.2005 15.7327C91.2005 15.919 91.1625 16.0842 91.0863 16.2284C91.0101 16.3725 90.8932 16.4858 90.7357 16.5681C90.5782 16.6494 90.3769 16.6901 90.1319 16.6901H89.2671V16.3442H90.1195C90.2884 16.3442 90.4243 16.3195 90.5272 16.2701C90.6312 16.2207 90.7064 16.1506 90.7527 16.0601C90.8001 15.9684 90.8237 15.8593 90.8237 15.7327C90.8237 15.606 90.8001 15.4954 90.7527 15.4006C90.7053 15.3059 90.6297 15.2328 90.5257 15.1814C90.4217 15.1289 90.2843 15.1026 90.1134 15.1026H89.4401V17.9255H89.0571ZM90.5458 16.5048L91.3241 17.9255H90.8793L90.1134 16.5048H90.5458ZM91.9684 17.9255H91.5669L92.7282 14.7629H93.1236L94.2849 17.9255H93.8833L92.9382 15.2632H92.9135L91.9684 17.9255ZM92.1167 16.6901H93.7351V17.0299H92.1167V16.6901ZM97.2854 14.7629V17.9255H96.9148L95.1913 15.4423H95.1605V17.9255H94.7775V14.7629H95.1481L96.8777 17.2522H96.9086V14.7629H97.2854ZM97.8788 15.1026V14.7629H100.251V15.1026H99.2563V17.9255H98.8733V15.1026H97.8788Z" fill="white"/>
<path d="M75.6281 9.38849H95.0922C95.0922 9.38849 91.9181 6.72939 90.5929 6.34956C89.2676 5.96973 88.2873 7.86898 88.2873 7.86898C88.2873 7.86898 87.5362 3.99438 86.0847 3.76646C84.6333 3.53855 83.4347 8.02099 83.4347 8.02099C83.4347 8.02099 82.1581 5.66581 80.8886 5.5139C79.619 5.36199 75.6281 9.38849 75.6281 9.38849Z" fill="url(#paint3_linear_53_6300)"/>
<path d="M53.7036 50.4873L52.423 66.5609H53.7036L53.9073 64.7778H60.5141L60.3395 66.5609H61.4164L62.697 50.4873H61.5504L61.0089 51.551H54.8502L53.7036 50.4873Z" fill="#701D1D"/>
<path d="M61.5506 50.4875V51.5512H54.8503V50.4875H53.7037V66.5612H54.8503V65.0109H61.5506V66.5612H62.6972V50.4875H61.5506Z" fill="#ECB69A"/>
<path d="M62.6972 54.0386H53.7037V63.4685H62.6972V54.0386Z" fill="#FFEBC2"/>
<path d="M62.2732 54.4829H54.1276V63.024H62.2732V54.4829Z" fill="#7D3831"/>
<path d="M56.4908 57.2105C56.4908 56.7475 56.3858 56.516 56.1758 56.516C56.1758 56.4983 56.1846 56.4818 56.2023 56.4667C56.2352 56.4388 56.2757 56.4249 56.3238 56.4249C56.4933 56.4249 56.6046 56.5565 56.6577 56.8196C56.6805 56.9259 56.6919 57.0384 56.6919 57.1574C56.6919 57.3825 56.6527 57.633 56.5742 57.9088C56.4427 58.3819 56.2441 58.7348 55.9784 58.9676C55.7963 59.127 55.6002 59.2067 55.3902 59.2067C55.0486 59.2067 54.8171 59.0334 54.6957 58.6868C54.6375 58.5248 54.6084 58.3452 54.6084 58.1479C54.6084 57.9505 54.6362 57.7367 54.6919 57.5065C54.8057 57.0486 54.9917 56.6817 55.2498 56.4059C55.4724 56.1681 55.7115 56.0492 55.967 56.0492C56.0379 56.0492 56.0923 56.0656 56.1302 56.0985C56.1682 56.1289 56.1872 56.1605 56.1872 56.1934L56.1909 56.2389C56.1656 56.2288 56.1188 56.2238 56.0505 56.2238C55.7773 56.2238 55.5344 56.3983 55.3219 56.7475C55.1119 57.0966 54.9829 57.4901 54.9348 57.9278C54.9221 58.0391 54.9158 58.1415 54.9158 58.2352C54.9158 58.5236 54.9727 58.745 55.0866 58.8993C55.1777 59.0182 55.2966 59.0777 55.4433 59.0777C55.7495 59.0777 55.9999 58.8689 56.1947 58.4515C56.3921 58.0315 56.4908 57.6178 56.4908 57.2105ZM57.6657 58.6374C57.6657 58.7892 57.7062 58.8651 57.7871 58.8651C57.8909 58.8651 58.0047 58.726 58.1287 58.4477C58.2729 58.1289 58.345 57.8303 58.345 57.552C58.345 57.3623 58.2944 57.2674 58.1932 57.2674C58.0945 57.2674 57.9857 57.3446 57.8668 57.4989C57.7479 57.6532 57.6416 57.8329 57.548 58.0378C57.457 58.2402 57.3785 58.4325 57.3127 58.6147C57.247 58.7943 57.2065 58.9271 57.1913 59.0131C57.1786 59.1017 57.1685 59.1675 57.1609 59.2105C57.1533 59.256 57.1407 59.3269 57.123 59.423C57.1078 59.5191 57.0926 59.5925 57.0774 59.6431C57.0648 59.6937 57.0471 59.757 57.0243 59.8329C57.0015 59.9113 56.9775 59.9708 56.9522 60.0112C56.9294 60.0542 56.9029 60.0973 56.8725 60.1403C56.8118 60.2238 56.7346 60.2655 56.641 60.2655C56.5196 60.2655 56.4589 60.1959 56.4589 60.0568C56.4589 59.8088 56.6486 59.342 57.0281 58.6564C57.0661 58.3781 57.1053 58.1529 57.1458 57.9809C57.2343 57.5735 57.3279 57.2586 57.4266 57.0359C57.5278 56.8107 57.6189 56.6982 57.6998 56.6982C57.7403 56.6982 57.7606 56.7222 57.7606 56.7703C57.6391 57.0916 57.5139 57.4989 57.3848 57.9923L57.3621 58.0796H57.4114C57.6998 57.4521 57.9718 57.1384 58.2274 57.1384C58.4652 57.1384 58.5841 57.3269 58.5841 57.7038C58.5841 57.9771 58.5145 58.2503 58.3754 58.5236C58.221 58.8322 58.0363 58.9866 57.8213 58.9866C57.6467 58.9866 57.5594 58.8727 57.5594 58.645C57.5594 58.5236 57.5923 58.3844 57.6581 58.2276C57.7264 58.0682 57.815 57.9505 57.9237 57.8746C57.9465 57.862 57.9655 57.867 57.9807 57.8898C57.9832 57.9025 57.9819 57.9113 57.9769 57.9164C57.8807 57.9923 57.8048 58.1036 57.7492 58.2503C57.6935 58.3971 57.6657 58.5261 57.6657 58.6374ZM56.5613 60.0226C56.5613 60.0985 56.5892 60.1365 56.6448 60.1365C56.7587 60.1365 56.8434 59.9821 56.8991 59.6735C56.9193 59.5672 56.9547 59.299 57.0053 58.8689C56.7751 59.3142 56.6322 59.6596 56.5765 59.905C56.5664 59.9505 56.5613 59.9897 56.5613 60.0226ZM59.7735 57.146C59.9657 57.146 60.0619 57.2586 60.0619 57.4837C60.0619 57.6128 60.0189 57.7481 59.9328 57.8898C59.7861 58.1251 59.5913 58.2427 59.3484 58.2427C59.3105 58.2427 59.2788 58.2364 59.2535 58.2238C59.2282 58.2111 59.2093 58.1921 59.1966 58.1668C59.3762 58.1668 59.5407 58.0631 59.69 57.8556C59.8114 57.6887 59.8721 57.5356 59.8721 57.3964C59.8721 57.2927 59.8304 57.2408 59.7469 57.2408C59.5799 57.2408 59.4243 57.3711 59.2801 57.6317C59.1258 57.9151 59.0486 58.2061 59.0486 58.5046C59.0486 58.7576 59.1207 58.9094 59.2649 58.96C59.2927 58.9701 59.3282 58.9752 59.3712 58.9752C59.4142 58.9752 59.4597 58.9651 59.5078 58.9448C59.5559 58.9221 59.5963 58.8955 59.6292 58.8651C59.695 58.8044 59.7494 58.7374 59.7924 58.664C59.8025 58.6438 59.8215 58.6336 59.8494 58.6336C59.8949 58.6336 59.9164 58.6412 59.9139 58.6564C59.9063 58.6842 59.8772 58.731 59.8266 58.7968C59.7785 58.8626 59.733 58.9157 59.69 58.9562C59.6495 58.9942 59.5951 59.0283 59.5268 59.0587C59.461 59.0916 59.3939 59.108 59.3256 59.108C59.0575 59.108 58.8867 58.9815 58.8133 58.7285C58.7905 58.6425 58.7791 58.5539 58.7791 58.4629C58.7791 58.2933 58.8184 58.1086 58.8968 57.9088C59.0208 57.6052 59.1915 57.3863 59.4091 57.2522C59.528 57.1814 59.6495 57.146 59.7735 57.146ZM60.5492 58.3718C60.8756 57.5647 61.1931 57.1611 61.5017 57.1611C61.6308 57.1611 61.6953 57.2231 61.6953 57.3471C61.6776 57.4053 61.6548 57.4825 61.627 57.5786C61.5991 57.6722 61.5612 57.8417 61.5131 58.0871C61.4676 58.3326 61.4448 58.5476 61.4448 58.7323C61.4448 59.0005 61.484 59.1346 61.5625 59.1346C61.5928 59.1346 61.6219 59.1219 61.6497 59.0966C61.6776 59.0739 61.6966 59.0625 61.7067 59.0625C61.7421 59.0625 61.7421 59.0903 61.7067 59.146C61.694 59.1637 61.67 59.1877 61.6346 59.2181C61.6017 59.2484 61.5675 59.2636 61.5321 59.2636C61.436 59.2636 61.3601 59.194 61.3044 59.0549C61.2513 58.9183 61.2247 58.7399 61.2247 58.5198C61.2247 58.1706 61.2791 57.7873 61.3879 57.3699C61.398 57.337 61.3879 57.3205 61.3575 57.3205C61.3373 57.3205 61.3145 57.3307 61.2892 57.3509C61.1678 57.4572 61.04 57.633 60.9059 57.8784C60.7718 58.1238 60.6668 58.3439 60.5909 58.5388C60.515 58.731 60.4771 58.8436 60.4771 58.8765C60.4771 58.9069 60.4594 58.9221 60.4239 58.9221C60.343 58.9221 60.3025 58.8221 60.3025 58.6222C60.3025 58.2453 60.3405 57.9037 60.4164 57.5976C60.4948 57.2914 60.5884 57.1384 60.6972 57.1384C60.7427 57.1384 60.7655 57.1662 60.7655 57.2219C60.6491 57.5988 60.5656 57.9821 60.515 58.3718H60.5492ZM62.2 58.683C62.2203 58.6096 62.2607 58.5729 62.3215 58.5729C62.3822 58.5729 62.4125 58.602 62.4125 58.6602C62.4125 58.7108 62.3847 58.8069 62.3291 58.9486L62.2987 59.0169C62.2557 59.0169 62.2228 58.9802 62.2 58.9069C62.1899 58.8689 62.1848 58.8322 62.1848 58.7968C62.1848 58.7589 62.1899 58.7209 62.2 58.683ZM62.2076 58.0796C62.2076 57.8367 62.2367 57.5571 62.2949 57.2408C62.3531 56.9246 62.4303 56.6476 62.5264 56.4097C62.6251 56.1694 62.7225 56.0492 62.8186 56.0492C62.8591 56.0492 62.8793 56.0694 62.8793 56.1099C62.7781 56.3376 62.6681 56.7032 62.5492 57.2067C62.4328 57.7076 62.3746 58.0568 62.3746 58.2541C62.3746 58.287 62.3569 58.3035 62.3215 58.3035C62.2456 58.3035 62.2076 58.2288 62.2076 58.0796Z" fill="#FFEBC2"/>
<path d="M81.857 77.7374C81.8525 77.7239 81.8481 77.7108 81.8437 77.6972C81.9139 77.6908 81.961 77.6069 81.9266 77.5444C81.8955 77.4738 81.7871 77.4653 81.7453 77.5298C81.7005 77.5867 81.7355 77.6769 81.8039 77.6952C81.8081 77.7096 81.8123 77.7241 81.8164 77.7386C81.7111 77.745 81.6039 77.7688 81.5157 77.829C81.5248 77.8545 81.5337 77.8801 81.5428 77.9058C81.7208 77.8278 81.9209 77.8448 82.1088 77.8634C82.1151 77.8387 82.1213 77.8139 82.1276 77.789C82.0427 77.7507 81.9492 77.7367 81.857 77.7374Z" fill="white"/>
<path d="M49.441 31.5742H48.6072V66.6626H49.441V31.5742Z" fill="#A12B21"/>
<path d="M49.4935 24.2055C49.4935 24.4646 49.2834 24.6746 49.0243 24.6746C48.7652 24.6746 48.5552 24.4646 48.5552 24.2055C48.5552 23.9464 48.7652 23.7363 49.0243 23.7363C49.2834 23.7363 49.4935 23.9464 49.4935 24.2055Z" fill="#CB5539"/>
<path d="M49.8503 31.3271C49.8503 31.3271 48.8589 31.3271 48.1982 31.3271C47.6483 29.6641 47.0984 28.0011 46.5485 26.3381C48.5291 26.3381 49.5195 26.3381 51.5002 26.3381C50.9502 28.0011 49.8503 31.3271 49.8503 31.3271Z" fill="#FFE9A5" stroke="#CB5539" stroke-width="0.402172" stroke-miterlimit="10"/>
<path d="M49.8503 24.2056C49.1895 24.2056 48.8589 24.2056 48.1982 24.2056C47.6483 24.7582 47.0984 25.3109 46.5485 25.8636C48.5291 25.8636 49.5195 25.8636 51.5002 25.8636C50.9502 25.3109 50.4002 24.7582 49.8503 24.2056Z" fill="#7D3831"/>
<path d="M49.024 26.3381V31.3271" stroke="#CB5539" stroke-width="0.268115" stroke-miterlimit="10" stroke-linecap="round" stroke-linejoin="round"/>
<path d="M47.3181 28.5205H50.7304" stroke="#CB5539" stroke-width="0.268115" stroke-miterlimit="10" stroke-linecap="round" stroke-linejoin="round"/>
<path d="M50.1778 31.7711H47.8705C47.7078 31.7711 47.576 31.6392 47.576 31.4766C47.576 31.3139 47.7079 31.1821 47.8705 31.1821H50.1777C50.3404 31.1821 50.4722 31.314 50.4722 31.4766C50.4723 31.6392 50.3404 31.7711 50.1778 31.7711Z" fill="#CB5539"/>
<path d="M51.7839 25.8638H46.2646C46.1503 25.8638 46.0576 25.9564 46.0576 26.0708V26.2764C46.0576 26.3907 46.1503 26.4834 46.2646 26.4834H51.7839C51.8982 26.4834 51.9909 26.3907 51.9909 26.2764V26.0708C51.9909 25.9564 51.8982 25.8638 51.7839 25.8638Z" fill="#CB5539"/>
<path d="M50.2845 66.3473C50.2845 66.5214 50.1434 66.6626 49.9692 66.6626H48.0732C47.8991 66.6626 47.7579 66.5214 47.7579 66.3473C47.7579 66.1731 47.8991 66.032 48.0732 66.032H49.9692C50.1434 66.032 50.2845 66.1731 50.2845 66.3473Z" fill="#CB5539"/>
<path d="M117.568 31.5742H116.735V66.6626H117.568V31.5742Z" fill="#A12B21"/>
<path d="M117.621 24.2055C117.621 24.4646 117.411 24.6746 117.152 24.6746C116.893 24.6746 116.683 24.4646 116.683 24.2055C116.683 23.9464 116.893 23.7363 117.152 23.7363C117.411 23.7362 117.621 23.9464 117.621 24.2055Z" fill="#CB5539"/>
<path d="M117.978 31.3271C117.978 31.3271 116.986 31.3271 116.326 31.3271C115.776 29.6641 115.226 28.0011 114.676 26.3381C116.656 26.3381 117.647 26.3381 119.627 26.3381C119.077 28.0011 117.978 31.3271 117.978 31.3271Z" fill="#FFE9A5" stroke="#CB5539" stroke-width="0.402172" stroke-miterlimit="10"/>
<path d="M117.978 24.2056C117.317 24.2056 116.986 24.2056 116.326 24.2056C115.776 24.7582 115.226 25.3109 114.676 25.8636C116.656 25.8636 117.647 25.8636 119.627 25.8636C119.077 25.3109 118.528 24.7582 117.978 24.2056Z" fill="#7D3831"/>
<path d="M117.151 26.3381V31.3271" stroke="#CB5539" stroke-width="0.268115" stroke-miterlimit="10" stroke-linecap="round" stroke-linejoin="round"/>
<path d="M115.445 28.5205H118.858" stroke="#CB5539" stroke-width="0.268115" stroke-miterlimit="10" stroke-linecap="round" stroke-linejoin="round"/>
<path d="M118.305 31.7711H115.998C115.835 31.7711 115.703 31.6392 115.703 31.4766C115.703 31.3139 115.835 31.1821 115.998 31.1821H118.305C118.468 31.1821 118.6 31.314 118.6 31.4766C118.6 31.6392 118.468 31.7711 118.305 31.7711Z" fill="#CB5539"/>
<path d="M119.911 25.8638H114.392C114.278 25.8638 114.185 25.9564 114.185 26.0708V26.2764C114.185 26.3907 114.278 26.4834 114.392 26.4834H119.911C120.026 26.4834 120.118 26.3907 120.118 26.2764V26.0708C120.118 25.9564 120.026 25.8638 119.911 25.8638Z" fill="#CB5539"/>
<path d="M118.412 66.3473C118.412 66.5214 118.271 66.6626 118.097 66.6626H116.201C116.026 66.6626 115.885 66.5214 115.885 66.3473C115.885 66.1731 116.026 66.032 116.201 66.032H118.097C118.271 66.032 118.412 66.1731 118.412 66.3473Z" fill="#CB5539"/>
</g>
<defs>
<linearGradient id="paint0_linear_53_6300" x1="81.7047" y1="72.1159" x2="81.7047" y2="3.23713" gradientUnits="userSpaceOnUse">
<stop stop-color="#85AABD"/>
<stop offset="0.5563" stop-color="#A8D0D8"/>
<stop offset="1" stop-color="#B0DBE1"/>
</linearGradient>
<linearGradient id="paint1_linear_53_6300" x1="110.052" y1="18.9575" x2="110.052" y2="25.8192" gradientUnits="userSpaceOnUse">
<stop stop-color="white"/>
<stop offset="0.7281" stop-color="#C0DDE3" stop-opacity="0.4903"/>
<stop offset="1" stop-color="#A8D0D8" stop-opacity="0.3"/>
</linearGradient>
<linearGradient id="paint2_linear_53_6300" x1="60.1094" y1="13.8874" x2="60.1094" y2="24.153" gradientUnits="userSpaceOnUse">
<stop stop-color="white"/>
<stop offset="1" stop-color="#A8D0D8" stop-opacity="0.3"/>
</linearGradient>
<linearGradient id="paint3_linear_53_6300" x1="85.3601" y1="3.6476" x2="85.3601" y2="10.0981" gradientUnits="userSpaceOnUse">
<stop stop-color="white"/>
<stop offset="1" stop-color="#A8D0D8" stop-opacity="0.3"/>
</linearGradient>
<clipPath id="clip0_53_6300">
<rect width="163.682" height="77.7454" fill="white"/>
</clipPath>
<clipPath id="clip1_53_6300">
<rect width="163.675" height="77.7454" fill="white" transform="translate(0.00366211)"/>
</clipPath>
</defs>
</svg>
