<svg width="117" height="30" viewBox="0 0 117 30" fill="none" xmlns="http://www.w3.org/2000/svg">
<path d="M1.45049 23.7178C1.37633 23.7204 1.30261 23.7054 1.23533 23.6741C1.16806 23.6428 1.10915 23.596 1.0634 23.5376C1.0167 23.4789 0.983752 23.4106 0.967002 23.3375C0.950253 23.2644 0.950126 23.1886 0.966632 23.1154L4.30361 7.43166C4.33429 7.25883 4.42902 7.10392 4.56889 6.99786C4.69826 6.8914 4.8602 6.83251 5.02773 6.83101H16.1182C16.1929 6.8252 16.2679 6.8373 16.3369 6.86632C16.406 6.89535 16.4671 6.94044 16.5153 6.99786C16.5603 7.05954 16.5913 7.13036 16.606 7.20531C16.6207 7.28027 16.6188 7.35753 16.6004 7.43166L16.0998 9.86932C16.0694 10.0406 15.9767 10.1945 15.8395 10.3015C15.7078 10.4117 15.5408 10.471 15.369 10.4683H7.91254L7.16506 14.0172H14.1143C14.1905 14.0121 14.2667 14.0259 14.3363 14.0573C14.4058 14.0887 14.4666 14.1368 14.5131 14.1974C14.5578 14.2618 14.5884 14.3349 14.6028 14.412C14.6172 14.4891 14.615 14.5683 14.5965 14.6445L14.096 17.0572C14.0544 17.2259 13.9586 17.3764 13.8233 17.4855C13.6879 17.5946 13.5206 17.6563 13.3468 17.6612H6.39255L5.20959 23.1154C5.17339 23.2804 5.08364 23.4289 4.95432 23.5376C4.82567 23.6546 4.6577 23.7189 4.4838 23.7178H1.45049Z" fill="#E49200"/>
<path d="M21.3898 23.9599C20.1018 23.9599 19.0239 23.7425 18.1563 23.3076C17.3341 22.921 16.6725 22.2594 16.2859 21.4372C15.9078 20.6263 15.8071 19.6575 15.9839 18.5307C16.0233 18.1611 16.0835 17.794 16.1641 17.4312C16.2526 17.0224 16.346 16.6637 16.4428 16.3583C16.7074 15.3005 17.1836 14.3072 17.8426 13.4385C18.4814 12.6247 19.3152 11.9853 20.2669 11.5798C21.3716 11.1232 22.5591 10.901 23.7541 10.9274C25.0255 10.9274 26.0955 11.1449 26.9643 11.5798C27.7884 11.9708 28.4593 12.6246 28.8713 13.4385C29.2729 14.2427 29.3841 15.216 29.205 16.3583C29.14 16.6637 29.0682 17.0257 28.9881 17.4312C28.908 17.8366 28.8213 18.2087 28.7462 18.5307C28.4781 19.5786 28.0114 20.5652 27.3714 21.4372C26.7524 22.2597 25.9302 22.9071 24.9854 23.3159C24.0044 23.7464 22.8058 23.9611 21.3898 23.9599ZM21.7519 21.0151C22.074 21.0287 22.3957 20.9782 22.6981 20.8665C23.0006 20.7548 23.2779 20.5841 23.5138 20.3644C23.9588 19.9294 24.2963 19.2776 24.5266 18.4089C24.5917 18.1686 24.6667 17.8466 24.7568 17.4445C24.8469 17.0424 24.9053 16.7204 24.937 16.4785C25.0816 15.6253 25.0416 14.9779 24.8169 14.5363C24.5922 14.0947 24.1173 13.8723 23.392 13.8689C23.0762 13.8591 22.7616 13.9132 22.4672 14.0279C22.1727 14.1426 21.9045 14.3155 21.6785 14.5363C21.2336 14.9813 20.896 15.6286 20.6657 16.4785C20.6012 16.7198 20.5245 17.0418 20.4355 17.4445C20.3465 17.8472 20.2864 18.1686 20.2553 18.4089C20.1107 19.2776 20.1468 19.9294 20.3637 20.3644C20.5806 20.7993 21.0434 21.0162 21.7519 21.0151Z" fill="#E49200"/>
<path d="M35.7398 23.9599C34.4517 23.9599 33.3739 23.7425 32.5063 23.3076C31.684 22.921 31.0225 22.2594 30.6359 21.4372C30.2577 20.6263 30.1571 19.6575 30.3339 18.5307C30.3731 18.161 30.4338 17.7938 30.5158 17.4312C30.6025 17.0224 30.696 16.6637 30.7928 16.3583C31.0574 15.3005 31.5336 14.3072 32.1926 13.4385C32.8313 12.6247 33.6652 11.9853 34.6169 11.5798C35.7216 11.1232 36.909 10.901 38.1041 10.9274C39.3754 10.9274 40.4455 11.1449 41.3142 11.5798C42.1388 11.9703 42.8098 12.6242 43.2213 13.4385C43.6229 14.2427 43.7341 15.216 43.555 16.3583C43.4916 16.6637 43.4182 17.0257 43.3381 17.4312C43.258 17.8366 43.1713 18.2087 43.0962 18.5307C42.828 19.5786 42.3613 20.5652 41.7213 21.4372C41.1024 22.2597 40.2802 22.9071 39.3354 23.3159C38.3543 23.7464 37.1558 23.9611 35.7398 23.9599ZM36.1019 21.0151C36.424 21.0287 36.7457 20.9782 37.0481 20.8665C37.3506 20.7548 37.6278 20.5841 37.8638 20.3644C38.3087 19.9294 38.6463 19.2776 38.8766 18.4089C38.9411 18.1686 39.0178 17.8472 39.1068 17.4445C39.1958 17.0418 39.2559 16.7187 39.287 16.4751C39.4316 15.622 39.3916 14.9746 39.1669 14.533C38.9422 14.0914 38.4672 13.8689 37.742 13.8656C37.4264 13.8553 37.1119 13.9092 36.8177 14.0239C36.5235 14.1386 36.2555 14.3118 36.0301 14.533C35.5785 14.9779 35.2404 15.6253 35.0157 16.4751C34.9506 16.717 34.8755 17.0391 34.7871 17.4412C34.6987 17.8433 34.6369 18.1653 34.6052 18.4056C34.4595 19.2743 34.4957 19.9261 34.7137 20.361C34.9317 20.7959 35.3944 21.014 36.1019 21.0151Z" fill="#E49200"/>
<path d="M48.9465 23.9593C48.2404 23.9745 47.5385 23.8474 46.8825 23.5856C46.3157 23.3519 45.8235 22.9676 45.4593 22.4744C45.0812 21.9455 44.8368 21.333 44.7469 20.6891C44.6342 19.8921 44.6421 19.0828 44.7702 18.2881C44.8348 17.9656 44.8954 17.6797 44.9521 17.4305C45.0088 17.1819 45.0756 16.8966 45.1573 16.5746C45.3488 15.7689 45.6402 14.9904 46.0249 14.2571C46.3743 13.5962 46.8246 12.9938 47.3597 12.4718C47.8661 11.9778 48.4648 11.5883 49.1217 11.3256C49.8211 11.0527 50.5666 10.9173 51.3174 10.9268C52.0376 10.9071 52.7535 11.0431 53.4163 11.3256C53.9361 11.5425 54.3867 11.8973 54.7194 12.3517L55.8306 7.18771C55.8589 7.01634 55.9491 6.86134 56.0842 6.75223C56.2083 6.64563 56.3662 6.5865 56.5297 6.58538H59.4746C59.5511 6.58082 59.6277 6.59343 59.6987 6.6223C59.7698 6.65117 59.8334 6.69557 59.8851 6.75223C59.9338 6.8124 59.9678 6.88303 59.9846 6.95859C60.0014 7.03416 60.0005 7.11258 59.9818 7.18771L56.5781 23.1151C56.5431 23.2802 56.4538 23.4288 56.3245 23.5372C56.1959 23.6542 56.0279 23.7186 55.854 23.7174H53.151C53.0733 23.7213 52.9958 23.7071 52.9245 23.6758C52.8533 23.6445 52.7903 23.5971 52.7406 23.5372C52.6942 23.4784 52.6615 23.41 52.6451 23.3369C52.6286 23.2639 52.6288 23.1881 52.6455 23.1151L52.8123 22.3426C52.3366 22.8046 51.7958 23.1947 51.2073 23.5005C50.6166 23.8053 49.863 23.9582 48.9465 23.9593ZM50.615 20.7258C51.0968 20.7386 51.5728 20.6173 51.9898 20.3754C52.3684 20.1498 52.6903 19.8404 52.9308 19.4711C53.173 19.1004 53.3523 18.6923 53.4614 18.2631C53.5415 17.9428 53.6149 17.6358 53.68 17.3471C53.745 17.0585 53.8001 16.7598 53.8468 16.4545C53.911 16.0821 53.9025 15.7008 53.8218 15.3316C53.7493 14.9996 53.5664 14.7019 53.3029 14.4873C53.0381 14.2704 52.6488 14.1592 52.1349 14.1536C51.6816 14.1403 51.2337 14.256 50.8435 14.4873C50.4768 14.7173 50.1707 15.032 49.9509 15.405C49.7107 15.8065 49.5202 16.2356 49.3836 16.6831C49.3185 16.925 49.2585 17.1736 49.2017 17.4322C49.145 17.6908 49.1016 17.9328 49.0699 18.1797C49.0064 18.6034 48.998 19.0336 49.0449 19.4594C49.0756 19.8095 49.2349 20.1359 49.4921 20.3754C49.7373 20.6123 50.1127 20.7258 50.6116 20.7258H50.615Z" fill="#E49200"/>
<path d="M83.3628 23.9597C82.665 23.9732 81.9716 23.8461 81.3239 23.5859C80.7591 23.3542 80.2702 22.9694 79.9124 22.4747C79.5421 21.9429 79.3026 21.3313 79.2133 20.6894C79.1016 19.8916 79.1179 19.0811 79.2617 18.2885C79.3251 17.9659 79.3807 17.68 79.4285 17.4309C79.4769 17.1823 79.5403 16.897 79.6221 16.5749C79.8128 15.7691 80.1043 14.9904 80.4897 14.2574C80.839 13.5965 81.2894 12.9942 81.8245 12.4721C82.3397 11.9724 82.9511 11.5824 83.6214 11.3259C84.3415 11.0541 85.1059 10.9188 85.8756 10.9271C86.8566 10.9271 87.6008 11.0684 88.108 11.3509C88.586 11.6072 89.0018 11.9655 89.326 12.4004L89.4461 11.773C89.4764 11.6032 89.5656 11.4495 89.6981 11.339C89.8305 11.2285 89.9977 11.1683 90.1702 11.169H92.8732C92.9481 11.1636 93.0232 11.1759 93.0925 11.2049C93.1617 11.2339 93.2232 11.2788 93.272 11.3359C93.3169 11.3979 93.3479 11.469 93.3625 11.5442C93.3772 11.6195 93.3754 11.697 93.3571 11.7714L90.9678 23.1171C90.932 23.2819 90.8429 23.4303 90.7142 23.5392C90.5855 23.6562 90.4176 23.7206 90.2437 23.7194H87.514C87.4401 23.7218 87.3667 23.7067 87.2998 23.6754C87.2328 23.6441 87.1742 23.5974 87.1286 23.5392C87.0819 23.4806 87.0489 23.4122 87.0322 23.3392C87.0154 23.2661 87.0153 23.1902 87.0318 23.1171L87.1987 22.3446C86.7169 22.7995 86.1773 23.1889 85.5936 23.5025C85.0241 23.8062 84.2805 23.9586 83.3628 23.9597ZM85.053 20.7261C85.5277 20.741 85.9968 20.6194 86.4045 20.3758C86.7725 20.1447 87.0857 19.8361 87.3221 19.4714C87.5602 19.1021 87.7297 18.6929 87.8227 18.2635C87.9195 17.9431 87.9895 17.6361 88.0529 17.3475C88.1163 17.0588 88.1614 16.7601 88.2098 16.4548C88.2894 16.0851 88.2933 15.7032 88.2215 15.3319C88.1589 15.0005 87.9817 14.7016 87.7209 14.4877C87.4562 14.2708 87.0741 14.1595 86.5747 14.154C86.1172 14.1374 85.6647 14.2532 85.2716 14.4877C84.9138 14.7169 84.6195 15.0325 84.4156 15.4053C84.1891 15.8145 84.0073 16.2469 83.8734 16.6951C83.81 16.937 83.7449 17.1856 83.6815 17.4442C83.6185 17.6903 83.57 17.9399 83.5363 18.1917C83.4887 18.6166 83.4803 19.045 83.5113 19.4714C83.5261 19.818 83.673 20.1457 83.9218 20.3874C84.1604 20.6127 84.5408 20.7261 85.053 20.7261Z" fill="#D00000"/>
<path d="M93.1735 23.7176C93.0977 23.7212 93.022 23.7071 92.9526 23.6765C92.8831 23.6459 92.8217 23.5996 92.7732 23.5412C92.7247 23.4828 92.6904 23.4139 92.673 23.34C92.6556 23.2661 92.6556 23.1892 92.6729 23.1153L95.0873 11.7696C95.1228 11.6019 95.2168 11.4523 95.3525 11.3475C95.4859 11.2303 95.6572 11.1657 95.8347 11.1656H98.6094C98.6858 11.1604 98.7622 11.1743 98.8318 11.2061C98.9015 11.2378 98.9621 11.2864 99.0082 11.3475C99.0521 11.4075 99.0824 11.4763 99.0971 11.5492C99.1118 11.6221 99.1105 11.6973 99.0933 11.7696L98.8897 12.7373C99.2804 12.2514 99.7753 11.8597 100.338 11.5911C101.02 11.2894 101.761 11.1451 102.507 11.169H103.858C103.932 11.1626 104.005 11.1746 104.072 11.2037C104.14 11.2328 104.199 11.2782 104.244 11.3358C104.285 11.3995 104.313 11.4711 104.325 11.546C104.338 11.621 104.334 11.6977 104.316 11.7713L103.815 14.2557C103.774 14.426 103.678 14.5779 103.542 14.6876C103.405 14.7972 103.236 14.8583 103.061 14.8613H100.752C100.153 14.835 99.5652 15.0278 99.0983 15.4036C98.6473 15.8066 98.3384 16.3443 98.2173 16.9369L96.9142 23.1103C96.8729 23.2788 96.7774 23.429 96.6423 23.5379C96.5073 23.6467 96.3402 23.7081 96.1668 23.7126L93.1735 23.7176Z" fill="#D00000"/>
<path d="M111.182 23.7175C110.07 23.7175 109.157 23.5507 108.444 23.217C108.108 23.0732 107.805 22.8618 107.554 22.596C107.302 22.3303 107.109 22.0157 106.984 21.672C106.726 20.9734 106.71 20.0685 106.936 18.9573L107.925 14.3239H106.041C105.967 14.3294 105.892 14.3171 105.823 14.2881C105.754 14.2591 105.693 14.2142 105.644 14.1571C105.599 14.0951 105.568 14.024 105.554 13.9487C105.539 13.8735 105.541 13.796 105.559 13.7216L105.97 11.7678C106 11.5965 106.093 11.4429 106.232 11.3374C106.361 11.2314 106.523 11.1725 106.69 11.1705H108.601L109.445 7.1895C109.474 7.0157 109.569 6.85981 109.71 6.75403C109.84 6.64805 110.002 6.58922 110.169 6.58718H112.969C113.044 6.58178 113.118 6.59407 113.187 6.62306C113.256 6.65206 113.318 6.69693 113.366 6.75403C113.411 6.81602 113.442 6.88712 113.457 6.96234C113.471 7.03757 113.469 7.1151 113.451 7.1895L112.607 11.1688H115.623C115.698 11.1634 115.773 11.1757 115.842 11.2047C115.911 11.2337 115.972 11.2786 116.021 11.3357C116.065 11.3977 116.096 11.4688 116.111 11.544C116.126 11.6192 116.124 11.6968 116.106 11.7712L115.695 13.725C115.665 13.8986 115.57 14.0543 115.43 14.1604C115.3 14.2662 115.138 14.325 114.971 14.3273H111.931L111.013 18.622C110.953 18.9327 110.921 19.2482 110.917 19.5647C110.909 19.6805 110.926 19.7967 110.968 19.9051C111.01 20.0134 111.075 20.1114 111.159 20.192C111.325 20.3355 111.592 20.4089 111.979 20.4089H113.885C113.958 20.4028 114.032 20.4148 114.099 20.4439C114.167 20.473 114.226 20.5183 114.272 20.5758C114.313 20.6393 114.34 20.7106 114.353 20.7852C114.365 20.8599 114.362 20.9362 114.344 21.0096L113.907 23.1152C113.871 23.28 113.782 23.4284 113.653 23.5373C113.524 23.6543 113.356 23.7187 113.182 23.7175H111.182Z" fill="#D00000"/>
<path d="M79.0551 18.0614L76.1253 17.077C75.9839 17.0279 75.8296 17.0308 75.6901 17.0852C75.5506 17.1397 75.4352 17.2421 75.3644 17.374C74.9349 18.1993 74.2112 18.8333 73.3365 19.1504C72.4618 19.4675 71.4999 19.4446 70.6413 19.0862C69.7827 18.7278 69.09 18.0601 68.7003 17.2152C68.3105 16.3704 68.2523 15.41 68.537 14.5242C68.5503 14.4825 68.5637 14.4425 68.5787 14.4041L69.126 13.403L72.2961 7.61335L73.4557 5.49938L75.4796 1.80535C75.5187 1.73917 75.5421 1.66485 75.5479 1.58817C75.5537 1.51149 75.5417 1.43451 75.5129 1.3632C75.4838 1.29732 75.4404 1.23874 75.3859 1.1917C75.3314 1.14466 75.267 1.11034 75.1976 1.09124L72.0742 0.151881C71.9132 0.10562 71.7411 0.116226 71.587 0.181914C71.4226 0.240349 71.2869 0.359845 71.2082 0.515611L65.0348 11.7228L65.9475 7.42148C65.9661 7.34673 65.9672 7.26869 65.9507 7.19345C65.9342 7.11821 65.9006 7.04779 65.8524 6.98767C65.8046 6.93256 65.7449 6.88894 65.6779 6.86005C65.6109 6.83116 65.5382 6.81775 65.4653 6.82082H62.2151C62.0476 6.82233 61.8856 6.88122 61.7563 6.98767C61.6154 7.09281 61.5204 7.24816 61.491 7.42148L58.1357 23.1053C58.1183 23.1791 58.1183 23.2561 58.1357 23.33C58.1531 23.4039 58.1874 23.4727 58.2359 23.5311C58.2844 23.5895 58.3458 23.6358 58.4153 23.6664C58.4847 23.6971 58.5604 23.7111 58.6362 23.7076H61.8948C62.0638 23.7044 62.2261 23.6404 62.3519 23.5274C62.487 23.422 62.5809 23.2727 62.6172 23.1053L64.0438 16.3879C64.2067 18.1644 64.9549 19.8366 66.1709 21.1419C67.3869 22.4473 69.002 23.3119 70.7625 23.6002C72.523 23.8885 74.3295 23.584 75.8983 22.7347C77.4671 21.8853 78.7095 20.5391 79.4305 18.9073C79.4641 18.8274 79.481 18.7415 79.4801 18.6548C79.4792 18.5681 79.4607 18.4825 79.4255 18.4033C79.3903 18.3241 79.3393 18.2529 79.2757 18.1941C79.212 18.1353 79.1369 18.0901 79.0551 18.0614Z" fill="#D00000"/>
<path d="M67.8661 29.7161C69.0465 29.7161 70.0034 28.7592 70.0034 27.5787C70.0034 26.3983 69.0465 25.4414 67.8661 25.4414C66.6857 25.4414 65.7288 26.3983 65.7288 27.5787C65.7288 28.7592 66.6857 29.7161 67.8661 29.7161Z" fill="#D00000"/>
<path d="M74.413 29.7161C75.5934 29.7161 76.5504 28.7592 76.5504 27.5787C76.5504 26.3983 75.5934 25.4414 74.413 25.4414C73.2326 25.4414 72.2757 26.3983 72.2757 27.5787C72.2757 28.7592 73.2326 29.7161 74.413 29.7161Z" fill="#D00000"/>
</svg>
