<svg width="108" height="104" viewBox="0 0 108 104" fill="none" xmlns="http://www.w3.org/2000/svg">
<g style="mix-blend-mode:multiply">
<path d="M7.72669 80.0621C3.72549 67.3527 5.90016 53.0409 12.6865 41.5762C19.4728 30.1114 30.6084 21.4843 43.0937 16.8297C50.6478 14.016 58.8076 12.5853 66.8243 13.4294C74.841 14.2783 82.7099 17.4974 88.5281 23.0819C93.0968 27.4694 96.4113 33.8694 95.0235 40.0501C96.6736 39.2441 98.7577 39.9738 100.017 41.3139C101.271 42.6587 101.867 44.4805 102.315 46.2641C104.757 55.9309 103.951 66.4943 99.4873 75.4123C96.1156 82.1509 90.6312 87.8213 83.9594 91.3361C80.7642 93.0195 78.084 95.0273 74.512 95.8523C69.886 96.9206 65.1123 97.1686 60.3814 97.283C51.6159 97.4929 42.841 97.2401 34.0993 96.5247C28.2144 96.0431 21.8573 95.4803 16.392 93.0624C11.4513 90.8782 9.24801 84.9026 7.72193 80.0621H7.72669Z" fill="#FEE5E2"/>
</g>
<path d="M75.1832 50.986C75.1832 50.8239 75.1832 50.6617 75.1785 50.4948C75.1642 49.0832 75.3931 47.3282 74.6205 46.0406C74.5728 45.9595 74.5156 45.888 74.4583 45.8117C74.1007 45.4015 73.5904 45.1345 73.0753 44.9199C71.4586 44.2379 69.6607 44.0948 67.9677 43.6036C65.9838 43.0266 64.0047 42.4304 62.0637 41.7437C60.447 41.1714 58.8446 40.561 57.2613 39.9076C56.8654 39.7455 54.7242 38.3386 54.3665 38.4865C50.6323 40.0316 46.7694 41.138 42.9256 42.335C39.0198 43.5511 34.8803 44.152 31.4275 46.3458C31.2415 46.465 31.0508 46.5938 30.9363 46.775C30.8028 46.9896 30.7885 47.2471 30.7789 47.4904C30.7026 49.336 30.8648 51.0957 30.8743 52.9318C30.8838 55.5643 30.922 58.192 30.9888 60.8245C31.0555 63.457 31.1509 66.0847 31.2749 68.7125C31.3369 69.981 31.3989 71.2496 31.4752 72.5181C31.5134 73.2097 32.1143 75.7992 31.7137 76.3238C30.6454 77.7688 30.5119 79.767 31.3751 81.3265C31.5992 81.7367 31.8996 82.142 31.8901 82.6046C31.8806 83.1244 31.48 83.5584 31.2511 84.0353C30.8266 84.908 30.984 85.9238 31.1461 86.8729C31.5944 89.4863 32.0475 92.0997 32.4958 94.7131C32.5482 95.0327 32.615 95.3665 32.8439 95.6097C33.1539 95.9435 33.6785 95.996 34.1459 96.0294C46.3831 96.8592 58.6777 96.9117 70.9245 96.182C71.0342 96.1772 72.2026 84.3691 72.3504 83.277C72.9513 78.8991 73.6095 74.5259 74.1484 70.1384C74.6873 65.77 75.1117 61.3825 75.2357 56.9855C75.2929 54.9825 75.2214 52.9843 75.1975 50.9813L75.1832 50.986Z" fill="#FF865C"/>
<g style="mix-blend-mode:multiply" opacity="0.57">
<path d="M74.9734 53.714C74.6872 54.8157 74.3963 55.9173 74.1102 57.019C74.0339 57.3146 73.9481 57.6246 73.7239 57.8392C73.5379 58.0205 73.2756 58.1015 73.0276 58.1778C71.3203 58.6976 69.613 59.2175 67.9057 59.7373C67.6434 59.8184 67.3716 59.8994 67.0997 59.847C65.9123 59.6181 66.1936 57.3862 65.0205 57.1048C64.6675 57.019 64.2431 57.1477 63.9617 56.914C63.6613 56.6661 63.7471 56.1892 63.8711 55.8219C64.3051 54.4962 64.8535 53.2085 65.5069 51.9781C65.7072 51.5966 65.9266 51.1721 65.8169 50.7572C65.712 50.3614 65.3352 50.0991 64.9728 49.9036C62.779 48.7066 60.2085 48.4538 57.7191 48.2249C61.6965 46.9277 65.6929 45.683 69.7036 44.486C67.1808 43.4559 64.6342 42.6595 62.0637 41.7486C60.447 41.1763 58.8446 40.5659 57.2613 39.9125C56.8654 39.7504 54.7242 38.3435 54.3665 38.4913C50.6323 40.0365 46.7694 41.1429 42.9256 42.3399C39.0198 43.556 34.8803 44.1569 31.4275 46.3507C31.2415 46.4699 31.0508 46.5987 30.9363 46.7799C30.8028 46.9945 30.7885 47.252 30.7789 47.4952C30.7026 49.3408 30.8648 51.1006 30.8743 52.9367C30.8838 55.5692 30.922 58.1969 30.9888 60.8294C31.0555 63.4619 31.1509 66.0896 31.2749 68.7174C31.3369 69.9859 31.3989 71.2545 31.4752 72.523C31.5134 73.2145 32.1143 75.8041 31.7137 76.3287C30.6454 77.7737 30.5119 79.7719 31.3751 81.3314C31.5992 81.7415 31.8996 82.1469 31.8901 82.6095C31.8806 83.1293 31.48 83.5633 31.2511 84.0402C30.8266 84.9129 30.984 85.9287 31.1461 86.8778C31.5944 89.4912 32.0475 92.1046 32.4958 94.718C32.5482 95.0375 32.615 95.3714 32.8439 95.6146C33.1539 95.9484 33.6785 96.0009 34.1459 96.0343C46.3831 96.8641 58.6777 96.9165 70.9245 96.1869C71.616 96.144 71.7305 85.7475 72.0023 85.0131C71.2249 87.1353 68.7546 88.0414 66.5513 88.5565C60.7951 89.8965 54.8243 90.321 48.9346 89.8059C46.7361 89.6152 44.5089 89.2813 42.5107 88.3466C48.0809 89.0095 53.8371 88.0366 58.8875 85.5854C57.2708 86.3675 53.9802 85.9383 52.2109 85.8953C49.7405 85.8333 47.275 85.5711 44.8571 85.0465C42.5822 84.5553 40.336 83.8494 38.2281 82.8527C36.8928 82.2232 34.1315 81.6223 33.7548 79.9818C33.5306 79.0184 34.1697 78.0122 35.0329 77.5353C35.8961 77.0536 36.931 77.0011 37.9134 77.0536C45.5486 77.4685 52.0106 83.611 59.6553 83.8828C62.6932 83.9925 64.3337 82.3281 66.8661 81.1645C68.8357 80.2631 71.0962 78.966 72.503 77.273C74.0339 75.4321 73.8622 72.4944 74.1531 70.1385C74.692 65.7701 75.1165 61.3826 75.2405 56.9856C75.2643 56.1319 74.7826 54.4818 74.9877 53.714H74.9734Z" fill="#FF865C"/>
</g>
<path d="M98.0696 71.4928C96.5626 70.3911 94.9697 69.1321 94.221 67.5917C93.7202 66.5664 93.4865 65.2358 92.3849 64.7828C91.7125 64.5062 90.8016 64.6063 90.3867 64.0388C89.9193 63.3997 90.5107 62.4459 90.0958 61.7783C89.6713 61.0915 88.5506 61.206 87.8782 60.7196C87.0674 60.1282 87.2153 58.9503 86.8004 58.068C86.3139 57.0331 85.1074 56.5133 84.206 55.7693C83.1282 54.8823 82.4558 53.6519 81.7023 52.5073C79.6182 49.3359 76.7235 46.6367 73.3375 44.7004C73.5711 44.834 72.4456 54.6438 72.4743 55.7455C72.5792 59.5655 73.0132 63.4236 73.7714 67.1768C74.4009 70.2957 77.2814 70.8203 79.7279 72.9473C82.7324 75.556 85.8609 78.0406 89.1038 80.3822C92.9953 83.1912 97.2016 85.8618 102.018 86.7441C103.087 86.9396 104.245 87.035 105.223 86.5819C108.285 85.156 106.105 79.5953 104.603 77.7783C103.058 75.9089 101.298 73.8773 99.3381 72.4227C98.9375 72.1223 98.5035 71.8171 98.0648 71.4928H98.0696Z" fill="#FF865C"/>
<g style="mix-blend-mode:multiply" opacity="0.23">
<path d="M97.4448 72.7233C97.0871 72.542 96.739 72.3656 96.4004 72.1939C95.2654 71.6216 94.0684 71.0732 93.2052 70.1385C92.342 69.199 91.8985 67.7397 92.528 66.6332C91.1116 66.6237 89.6999 67.1006 88.5792 67.9686C89.1324 66.8669 89.6809 65.7605 90.2341 64.6589C87.6445 66.0943 84.6448 66.7954 81.688 66.6475C82.9566 64.1867 84.6734 61.9548 86.7336 60.0997C84.125 60.1474 81.5545 61.2395 79.7041 63.0803C80.5959 59.9375 81.2826 56.7375 81.7643 53.5089C79.9378 55.1876 78.6883 57.4863 78.2686 59.9328C77.9014 57.2049 77.5342 54.477 77.167 51.7491C76.7425 48.5777 76.1846 46.3458 73.3375 44.7148C73.5711 44.8484 72.4456 54.6582 72.4743 55.7599C72.5792 59.5799 73.0132 63.438 73.7714 67.1912C74.4009 70.3102 77.2814 70.8347 79.7279 72.9617C82.7324 75.5704 85.8609 78.055 89.1038 80.3966C92.9953 83.2056 97.2016 85.8762 102.018 86.7585C103.087 86.954 104.245 87.0494 105.223 86.5963C107.999 85.3039 106.506 80.988 105.414 79.0374C103.811 76.1713 100.406 74.2494 97.4401 72.7328L97.4448 72.7233Z" fill="#FF865C"/>
</g>
<path d="M22.0374 54.272C21.012 55.6168 20.7068 57.5006 19.3238 58.545C18.8564 58.8979 18.3032 59.1221 17.8073 59.4368C16.7295 60.1236 15.9998 61.1823 15.232 62.179C13.5342 64.3871 11.4931 65.9561 9.5807 67.8923C7.25342 70.253 5.26951 73.0714 3.38098 75.7516C2.62748 76.8199 1.88828 77.9168 1.48291 79.1376C1.07755 80.3585 1.02509 81.7367 1.63075 82.8813C2.32226 84.1975 3.79589 85.0464 5.33151 85.3278C6.86236 85.6092 8.45521 85.3898 9.96222 85.0083C18.6418 82.8193 25.5188 73.9632 30.8505 67.5871C33.7501 64.12 33.4305 59.4321 33.4735 55.2019C33.5069 51.959 32.9298 48.6207 33.173 45.4016C31.9235 45.931 29.4818 46.3745 28.6425 47.4332C28.2991 47.8672 28.2085 48.4824 27.7506 48.8067C27.2022 49.1977 26.2961 49.0547 25.9003 49.584C25.7143 49.8273 25.7047 50.1516 25.6523 50.4472C25.4854 51.382 24.8272 52.0496 24.0737 52.6314C23.5825 53.0082 23.0246 53.2991 22.5667 53.7092C22.3712 53.8809 22.1995 54.0717 22.0469 54.2767L22.0374 54.272Z" fill="#FF865C"/>
<g style="mix-blend-mode:multiply" opacity="0.23">
<path d="M22.6526 54.6865C23.2439 55.5974 24.007 56.3986 24.8892 57.0329C23.2153 57.1235 21.5509 57.4573 19.9724 58.0201C21.4746 58.578 22.6907 59.8466 23.1867 61.3679C20.3587 61.6159 17.5497 62.1023 14.798 62.8177C15.6898 63.6237 16.8868 64.0815 18.0934 64.0862C15.0508 65.1974 12.1607 66.7044 9.5044 68.5596C6.87667 70.3957 5.21705 73.1426 3.38098 75.7465C2.62748 76.8148 1.88828 77.9116 1.48291 79.1325C1.07755 80.3534 1.02509 81.7316 1.63075 82.8762C2.32226 84.1924 3.79589 85.0413 5.33151 85.3227C6.86236 85.604 8.45521 85.3847 9.96222 85.0032C18.6418 82.8142 25.5188 73.9581 30.8505 67.5819C33.7501 64.1149 33.4305 59.4269 33.4735 55.1968C33.5069 51.9539 33.1206 48.7109 33.1349 45.468C31.6088 45.8877 29.8109 46.5887 29.6773 48.4487C29.5867 49.7077 30.2067 50.9047 30.8982 51.9586C29.0192 51.9253 27.145 51.7727 25.2851 51.5008C26.5536 52.2448 27.8222 52.984 29.0907 53.7279C26.9399 53.9998 24.7891 54.3193 22.6526 54.6818V54.6865Z" fill="#FF865C"/>
</g>
<path d="M46.426 44.4477C47.9282 45.6781 50.1315 46.608 51.6481 47.0897C52.7306 47.4331 53.88 47.6858 55.015 47.5571C56.0165 47.4426 56.956 47.0373 57.8335 46.5699C59.5313 45.6685 61.0717 44.5097 62.3831 43.1553C61.5486 42.8834 60.7092 42.5544 60.0892 41.963C59.2928 41.2095 59.1497 40.003 59.0639 38.9872C59.0353 38.6104 58.9781 35.0527 59.2785 34.9907C55.3488 35.7728 51.2618 35.8491 47.3035 35.2244C47.4323 36.7457 47.8376 38.2813 47.6612 39.8122C47.5801 40.5228 47.3989 41.2095 46.9363 41.7913C46.7932 41.9678 45.2576 43.2507 45.0621 42.8691C45.353 43.4367 45.8346 43.966 46.426 44.4477Z" fill="#AF5D54"/>
<g style="mix-blend-mode:multiply" opacity="0.36">
<path d="M46.426 44.4475C47.9282 45.678 50.1315 46.6079 51.6481 47.0896C52.7306 47.433 53.88 47.6857 55.015 47.5569C56.3694 47.4043 57.6427 46.7605 58.7301 45.9689C57.3184 46.689 55.7447 46.9894 54.1709 46.7033C52.6162 46.4172 51.1712 45.573 50.1554 44.3617C52.8403 43.0979 55.5253 41.8341 58.2102 40.5703C58.5632 40.4034 58.9733 40.2413 59.3214 40.413C59.145 39.9361 59.1068 39.4973 59.0639 38.9918C59.0353 38.6103 58.9781 35.0574 59.2785 34.9954C55.3488 35.7775 51.2618 35.8538 47.3035 35.229C47.4323 36.7504 47.8376 38.286 47.6612 39.8168C47.5801 40.5274 47.3989 41.2142 46.9363 41.796C46.7932 41.9724 45.2576 43.2553 45.0621 42.8738C45.353 43.4413 45.8346 43.9706 46.426 44.4523V44.4475Z" fill="#AF5D54"/>
</g>
<path d="M59.6936 36.4734C61.0384 35.472 62.1782 34.356 63.3705 33.2067C63.9475 32.6487 64.2623 32.1193 64.6009 31.4421C64.6677 31.3086 65.3926 29.4439 65.2256 29.4725C67.8104 29.0338 70.071 27.1834 70.8769 24.8323C71.2155 23.8403 71.3109 22.7435 70.9294 21.761C70.5479 20.7786 69.637 19.9536 68.5401 19.8057C67.3622 19.6436 66.4799 20.4543 65.7312 21.1935C65.8981 18.9664 66.313 16.6868 65.8408 14.4787C65.4069 12.4328 64.4817 10.4203 62.8793 8.97531C61.6489 7.86889 60.0751 7.144 58.4536 6.65756C54.7529 5.54638 50.6611 5.62746 47.008 6.87217C45.563 7.36338 44.18 8.04535 43.0211 8.99438C39.5111 11.8749 38.8005 17.0874 39.7353 21.1697C38.4381 19.4385 36.3206 20.3637 35.4288 21.8946C33.3448 25.4618 37.0932 31.5566 41.7192 29.9017C41.3281 30.0448 42.1674 32.1623 42.2962 32.4007C42.7159 33.1781 43.3597 33.7026 43.9892 34.3083C45.439 35.7056 46.946 36.731 48.8012 37.6275C50.8089 38.5957 53.0933 39.3635 55.2918 38.8818C56.8942 38.5289 58.2438 37.556 59.5362 36.5974C59.5934 36.5545 59.6459 36.5164 59.7031 36.4734H59.6936Z" fill="#C97063"/>
<g style="mix-blend-mode:multiply" opacity="0.43">
<path d="M59.6936 36.4734C61.0384 35.472 62.1782 34.356 63.3705 33.2067C63.9475 32.6487 64.2623 32.1193 64.6009 31.4421C64.6677 31.3086 65.3926 29.4439 65.2256 29.4725C67.8104 29.0338 70.071 27.1834 70.8769 24.8323C71.2155 23.8403 71.3109 22.7435 70.9294 21.761C70.5479 20.7786 69.637 19.9536 68.5401 19.8057C67.0665 19.6054 65.6262 20.9026 65.4641 22.319C65.2352 24.2982 65.0063 26.2773 64.9538 28.266C64.9252 29.2865 64.9824 30.3166 64.5532 31.2657C64.1669 32.1193 63.5374 32.8395 62.8936 33.5071C61.3294 35.1238 59.5028 37.0743 57.1994 37.4368C54.0089 37.9375 51.0521 35.8535 48.4959 33.8791C47.5707 33.1637 46.6312 32.4341 45.9731 31.4707C45.3675 30.5837 45.0289 29.5441 44.7618 28.5044C43.7031 24.322 43.7746 19.9488 43.8509 15.6376C45.253 15.8761 46.6742 15.9953 48.0953 16.0001C48.3242 16.0001 48.5818 15.981 48.7248 15.8045C48.8631 15.6281 48.8202 15.3753 48.7725 15.1559C48.6342 14.5217 48.4959 13.8874 48.3576 13.2531C50.3702 14.2117 52.1824 15.5375 54.1186 16.6343C56.0548 17.7312 58.2009 18.6278 60.428 18.5944C60.366 18.0078 60.18 17.4355 59.8891 16.9253C61.4963 18.3607 63.5183 19.3193 65.6453 19.6579C65.9171 17.8791 66.2271 16.3005 65.8408 14.4787C65.4069 12.4328 64.4817 10.4203 62.8793 8.97531C61.6489 7.86889 60.0751 7.144 58.4536 6.65756C54.7529 5.54638 50.6611 5.62746 47.008 6.87217C45.563 7.36338 44.18 8.04535 43.0211 8.99438C39.5111 11.8749 38.8005 17.0874 39.7353 21.1697C38.4381 19.4385 36.3206 20.3637 35.4288 21.8946C33.3448 25.4618 37.0932 31.5566 41.7192 29.9017C41.3281 30.0448 42.1674 32.1623 42.2962 32.4007C42.7159 33.1781 43.3597 33.7026 43.9892 34.3083C45.439 35.7056 46.946 36.731 48.8012 37.6275C50.8089 38.5957 53.0933 39.3635 55.2918 38.8818C56.8942 38.5289 58.2438 37.556 59.5362 36.5974C59.5934 36.5545 59.6459 36.5164 59.7031 36.4734H59.6936Z" fill="#C97063"/>
</g>
<g style="mix-blend-mode:multiply">
<path d="M36.9967 25.2759C36.5341 24.5987 36.4149 23.435 37.0682 22.8198C37.3973 22.5814 37.7311 22.8723 37.9982 23.0344C38.952 23.683 39.6721 24.6845 39.9868 25.8052C40.1681 26.5349 40.2634 27.2836 40.0298 28.018C39.6339 28.7143 38.9758 28.0705 38.7851 27.5793C38.2652 26.5301 38.5037 25.1519 39.405 24.4079C38.6801 25.2616 38.5895 26.511 39.1093 27.4076C39.3669 27.813 39.6816 28.2136 39.6864 27.4982C39.8295 25.7718 38.8947 24.055 37.464 23.0964C37.3639 23.0344 37.3162 23.0297 37.2351 23.0726C36.6962 23.5829 36.6867 24.5939 36.9967 25.2806V25.2759Z" fill="#C97063"/>
</g>
<g style="mix-blend-mode:multiply">
<path d="M69.1452 22.524C68.9545 21.6799 67.6859 22.0328 67.3664 22.586C66.899 23.7305 66.403 24.8989 66.4412 26.1246C66.4412 26.2867 66.5175 26.3535 66.6176 26.3678C66.9133 26.3249 67.1756 25.8051 67.3044 25.5141C67.6477 24.7273 67.8051 23.4205 66.5318 23.8831C66.8275 23.7067 67.2758 23.5636 67.5667 23.8545C68.2963 24.5651 67.3282 27.6077 66.155 26.6158C66.012 26.4727 65.9834 26.282 65.9738 26.1532C65.9023 24.9419 66.3887 23.7735 66.899 22.7433C66.9992 22.5287 67.1375 22.2521 67.3521 22.1281C67.8814 21.7323 69.1261 21.6512 69.1452 22.5287V22.524Z" fill="#C97063"/>
</g>
<g style="mix-blend-mode:multiply">
<path d="M52.2471 19.6104C52.6477 22.5099 52.4617 25.5525 51.2599 28.2566L51.0978 27.9752C51.6415 28.042 52.2471 27.8464 52.7574 27.6223C53.2963 27.3743 53.8448 27.0929 54.2215 26.616C53.9306 27.1597 53.3965 27.546 52.8719 27.8512C52.2376 28.1946 51.5365 28.4712 50.7878 28.3567C51.9085 25.5812 52.1518 22.5767 52.2471 19.6104Z" fill="#C97063"/>
</g>
<path d="M58.8209 28.891C57.476 31.2612 55.578 34.2991 52.13 33.6123C51.2334 33.4359 50.4131 33.0019 49.6644 32.5011C49.0015 32.0576 48.31 31.533 47.8617 30.8844C47.69 30.6365 47.2417 29.2487 46.9556 29.201C51.1237 29.8496 54.7386 29.8448 58.8209 28.8862V28.891Z" fill="#A42424"/>
<path d="M58.8206 28.8909C57.6331 30.9845 54.1183 31.6235 51.8149 31.4852C50.6799 31.4184 49.5401 31.1609 48.5052 30.7126C48.0664 30.5219 47.9329 30.4408 47.6468 30.0402C47.4894 29.8256 47.2795 29.2581 46.96 29.2056C51.1281 29.8542 54.7431 29.8494 58.8253 28.8909H58.8206Z" fill="white"/>
<g style="mix-blend-mode:multiply" opacity="0.58">
<path d="M58.6756 24.5607C58.4467 24.6179 58.2226 24.6895 58.0032 24.7658C56.4151 25.3094 55.7952 26.5065 57.3499 27.4603C59.0858 28.5238 61.723 28.8004 63.5543 27.7607C64.0026 27.508 64.3794 27.0883 64.4271 26.5971C64.4938 25.9485 63.9836 25.3571 63.4065 24.9947C62.0426 24.141 60.2733 24.1458 58.6756 24.5607Z" fill="#FFA188"/>
</g>
<g style="mix-blend-mode:multiply" opacity="0.58">
<path d="M44.3356 24.7563C44.1067 24.8135 43.8826 24.885 43.6632 24.9613C42.0751 25.505 41.4551 26.702 43.0098 27.6558C44.7457 28.7193 47.383 28.9959 49.2143 27.9563C49.6626 27.7035 50.0394 27.2838 50.087 26.7926C50.1538 26.144 49.6435 25.5527 49.0665 25.1902C47.7025 24.3366 45.9332 24.3414 44.3356 24.7563Z" fill="#FFA188"/>
</g>
<path d="M43.9739 23.4253C44.0931 22.0852 45.5906 21.1266 46.8973 21.4652C48.1992 21.78 49.0004 22.7767 49.3867 23.9737C47.1691 23.2107 46.3298 22.0899 43.9739 23.4253Z" fill="black"/>
<path d="M56.3737 23.9976C56.9269 22.2044 59.216 20.3207 61.1618 21.2554C61.8437 21.6178 62.2777 22.3952 62.0965 23.0581C61.2953 22.1615 60.5036 22.1472 59.5021 22.5621C58.4673 23.0104 57.4896 23.5541 56.3689 23.9928L56.3737 23.9976Z" fill="black"/>
<path d="M43.7118 17.3736C43.8787 17.2258 44.0551 17.0923 44.2411 16.9683C45.4429 16.1909 47.0835 16.0002 48.4045 16.582C49.7255 17.1638 50.6364 18.5325 50.5124 19.9012C50.2692 19.472 49.921 19.1 49.5061 18.8139C49.5204 19.0523 49.5347 19.2908 49.5491 19.5292C49.5347 19.3194 47.9228 18.9856 47.7321 18.9569C46.9166 18.8473 46.082 18.9236 45.2665 19.0046C43.9598 19.1382 43.1681 19.72 42.138 20.4353C42.262 19.286 42.8152 18.1653 43.707 17.3736H43.7118Z" fill="#3F1F1F"/>
<path d="M62.3776 17.3736C62.1964 17.2258 61.9961 17.0923 61.7911 16.9683C60.4653 16.1909 58.6483 16.0002 57.189 16.582C55.7296 17.1638 54.7186 18.5325 54.8569 19.9012C55.124 19.472 55.5103 19.1 55.9681 18.8139C55.9538 19.0523 55.9347 19.2908 55.9204 19.5292C55.9347 19.3194 57.7183 18.9856 57.9282 18.9569C58.8295 18.8473 59.7547 18.9236 60.6513 19.0046C62.0963 19.1382 62.969 19.72 64.1088 20.4353C63.9753 19.286 63.3601 18.1653 62.3729 17.3736H62.3776Z" fill="#3F1F1F"/>
<path d="M64.2626 23.3108C64.2245 23.554 64.1911 23.7353 64.1768 23.8211C64.1529 23.9451 64.1339 24.0977 64.2292 24.1883C64.3008 24.2551 64.4105 24.2646 64.5106 24.2837C64.916 24.3409 65.3023 24.5222 65.5979 24.794C65.4263 24.6366 65.8412 21.5081 66.0033 21.2125C66.6567 20.0488 67.9872 19.4765 69.3416 19.9391C69.1938 18.5752 69.6468 16.9203 69.7136 15.5278C69.7518 14.76 69.7375 13.9874 69.6325 13.2243C69.5705 12.7665 69.0078 11.5743 69.127 11.1927C68.9124 11.87 68.8456 12.5853 68.922 13.2863C68.6644 10.7731 67.7345 8.17396 65.6409 6.58588C67.3339 6.5525 69.0221 6.33789 70.6674 5.94683C69.7947 4.58289 68.2448 3.73401 66.6758 3.13788C64.8731 2.44637 62.9559 2.01239 61.0197 1.84548C61.8114 1.64041 62.5267 1.19689 63.037 0.591227C59.5079 -0.119356 55.7785 0.0570976 52.3449 1.10628C52.7502 0.843985 53.0554 0.448157 53.1937 0.00463867C49.6647 0.305087 46.2882 1.94563 43.9895 4.47797C44.0897 3.88185 44.1898 3.29049 44.29 2.69436C41.7243 4.21568 39.769 6.6288 38.901 9.36145C38.8485 9.08961 38.7961 8.81301 38.7436 8.54118C36.9171 12.4184 36.6548 16.1954 37.2318 20.3206C39.0536 19.2238 40.2316 23.9785 40.4939 24.8703C40.5463 25.0515 40.5988 25.2375 40.7323 25.3758C40.9326 25.5809 41.2521 25.6238 41.5478 25.6572C41.7195 25.6763 41.9389 25.6715 42.0104 25.5236C42.0629 25.4235 42.0104 25.3043 41.9675 25.2041C41.2426 23.5636 40.9851 21.6655 40.7752 19.9153C40.718 19.4479 40.8134 17.6738 40.4891 17.3639C40.8229 17.6834 41.3904 17.6881 41.8149 17.4878C42.2393 17.2875 42.5445 16.9203 42.8116 16.5484C43.6414 15.3847 44.1851 14.0399 44.3949 12.6521C45.0006 13.253 45.9019 13.5868 46.7794 13.5343C46.6745 12.4279 46.4074 11.3406 45.9878 10.3009C49.1973 11.746 52.4116 13.191 55.6212 14.636C55.4495 13.5057 54.8963 12.4327 54.0569 11.6077C54.3621 11.9081 55.4161 12.0702 55.8453 12.2705C56.4653 12.5662 56.8659 12.8714 57.3189 13.3197C58.3824 14.3737 59.3792 15.3752 60.6954 16.1716C60.5762 14.9937 60.3854 13.8252 60.1231 12.6711C60.6191 13.6869 61.1198 14.7075 61.8447 15.5898C62.5696 16.472 63.5473 17.216 64.7014 17.4783C65.1115 17.5689 64.5106 21.7466 64.2579 23.306L64.2626 23.3108Z" fill="#3F1F1F"/>
<g style="mix-blend-mode:multiply" opacity="0.42">
<path d="M45.296 6.51447C45.2006 6.68616 50.003 9.6048 50.4751 9.82894C50.0936 9.02298 49.7073 8.21701 49.3258 7.41105C52.6546 8.22178 55.8546 9.55711 58.778 11.3503C58.3726 10.4298 57.9673 9.50465 57.5619 8.58423C60.0609 10.3631 62.4406 12.3136 64.682 14.4072C65.1208 13.5297 65.1828 12.4757 64.8489 11.5506C66.9855 13.5631 68.0013 16.6963 67.4481 19.5768C68.1205 19.3717 68.7977 19.5911 69.3414 19.9059C69.1935 18.4322 69.6418 16.9872 69.7086 15.5231C69.7467 14.7553 69.7324 13.9828 69.6275 13.2197C69.5655 12.7619 69.0028 11.5696 69.122 11.1881C68.9074 11.8653 68.8406 12.5807 68.9169 13.2817C68.6594 10.7684 67.7294 8.16932 65.6358 6.58124C67.3288 6.54786 69.0171 6.33325 70.6624 5.94219C69.7896 4.57825 68.2397 3.72937 66.6707 3.13324C64.868 2.44174 62.9509 2.00775 61.0147 1.84084C61.8063 1.63577 62.5217 1.19225 63.032 0.586589C59.5029 -0.123995 55.7735 0.0524589 52.3398 1.10164C52.7452 0.839346 53.0504 0.443518 53.1887 0C49.6596 0.300448 46.2832 1.94099 43.9845 4.47334C44.0847 3.87721 44.1848 3.28585 44.285 2.68972C41.7192 4.21104 39.7639 6.62416 38.896 9.35681C38.8435 9.08497 38.791 8.80837 38.7386 8.53654C36.9121 12.409 36.6545 16.1908 37.2268 20.3112C37.1314 19.6102 38.8244 20.8215 38.8673 20.8644C39.4873 21.4653 39.7973 22.1664 40.1693 22.939C39.5207 20.6069 38.8721 18.2749 38.2235 15.9428C38.5097 16.3959 39.1869 16.4531 39.659 16.2003C40.1311 15.9476 40.4411 15.4802 40.7082 15.0176C41.7908 13.1625 42.5633 11.1309 42.9878 9.02775C43.2358 9.64295 43.603 10.2057 44.0608 10.6826C44.1657 9.22327 44.5902 7.7878 45.2912 6.50494L45.296 6.51447Z" fill="#3F1F1F"/>
</g>
<path d="M72.8851 66.1937C72.866 66.2366 72.8374 66.2747 72.804 66.3081C72.0934 67.0664 70.7438 67.4527 69.728 67.6959C68.4689 67.9916 67.1765 68.0917 65.8984 68.2491C63.3804 68.5495 60.8385 68.5972 58.3014 68.5734C53.1032 68.5257 47.6808 68.2539 42.702 66.7278C42.4444 66.6467 41.9341 66.475 41.9294 66.1507C41.9198 65.4926 44.519 65.2494 45.0674 65.1635C51.4722 64.1477 57.8102 63.7567 64.3056 64.1477C65.7888 64.2384 67.2767 64.3576 68.7408 64.6008C69.4847 64.7248 70.2287 64.8822 70.9536 65.0872C71.5879 65.2637 72.3366 65.4163 72.7849 65.9123C72.8517 65.9886 72.9184 66.084 72.8946 66.1793C72.8946 66.1841 72.8946 66.1936 72.8898 66.1984L72.8851 66.1937Z" fill="white"/>
<path d="M43.3612 63.3421C43.4041 63.0322 43.4947 62.7222 43.7046 62.479C43.9144 62.2405 44.2578 62.0831 44.5821 62.1547C44.7871 61.4727 45.4882 60.9433 46.2417 60.9099C46.9952 60.8766 47.7535 61.3249 48.0348 61.9877C48.1731 61.7254 48.5976 61.8399 48.8408 62.0164C49.6897 62.6459 50.1523 63.7141 49.9949 64.7204C49.8375 65.7267 49.0602 66.628 48.0348 66.9666C45.6789 67.7487 43.0608 65.5931 43.3612 63.3374V63.3421Z" fill="#874341"/>
<path d="M61.5695 61.6062C61.9081 60.8717 62.571 60.247 63.3913 60.0181C64.2115 59.7892 65.1749 59.999 65.7329 60.6047C66.2098 61.1197 66.3528 61.8542 66.2336 62.5266C66.1144 63.199 65.7567 63.8142 65.3322 64.3674C64.965 64.8396 64.5358 65.2783 63.9874 65.5597C63.4437 65.8363 62.7665 65.9364 62.1942 65.7171C60.6777 65.1352 61.0592 62.7173 61.5695 61.6062Z" fill="#9AA55B"/>
<path d="M53.9092 63.0606C54.2287 63.0653 54.5387 63.1464 54.8057 63.3276C55.1634 63.5661 55.4019 63.9524 55.7977 64.1336C56.5274 64.4674 57.3572 63.9714 58.0201 63.5279C58.683 63.0844 59.6129 62.6838 60.2472 63.1559C60.5715 63.3992 60.7336 63.8284 61.1152 63.9858C61.4633 64.1288 61.8639 63.981 62.212 63.8284C62.7652 63.5852 63.3518 63.3276 63.9575 63.3849C64.5632 63.4468 65.164 63.9762 65.0114 64.5342C64.9637 64.7059 64.8541 64.868 64.8779 65.0397C64.9256 65.3783 65.412 65.4594 65.7697 65.4212C66.6615 65.3211 67.8109 64.9777 68.5453 65.6501C69.1796 66.232 68.8028 67.0999 68.8839 67.8343C65.1974 68.6832 60.9339 68.6928 57.1521 68.6689C53.2367 68.6451 49.3166 68.2683 45.5205 67.3431C45.2773 67.2859 45.015 67.2048 44.8957 66.9998C44.7097 66.6707 45.4203 65.8123 45.7446 65.7169C46.1786 65.5881 46.6507 65.6835 47.1086 65.6263C48.0051 65.5166 46.4743 64.2719 47.7762 63.8808C48.358 63.7044 48.9732 63.9667 49.5312 64.2051C50.0892 64.4436 50.733 64.6677 51.291 64.4293C51.62 64.291 51.8537 64.0096 52.116 63.7759C52.5929 63.3419 53.2749 63.0415 53.9187 63.051L53.9092 63.0606Z" fill="#FEB543"/>
<g style="mix-blend-mode:multiply">
<path d="M47.0595 67.4821C46.7685 67.7349 46.2344 67.4296 46.2726 67.0195C46.4538 66.1611 47.5221 66.2565 48.1802 66.2469C48.5235 66.2326 48.8812 66.1468 49.0815 65.9083L49.1721 66.1182C48.3709 66.0514 48.3376 64.8401 49.1721 64.8019C49.8159 64.7924 50.2356 65.1882 50.7078 65.2931C51.0893 65.3885 51.714 65.5077 52.0145 65.2454C52.1718 65.069 52.1194 64.7685 52.3245 64.5491C52.8204 64.0246 53.5787 64.2916 54.0365 64.635C55.7391 66.1992 57.1412 63.3664 59.0249 63.8529C59.6163 63.9483 59.912 64.6111 60.2172 64.9879C61.0279 65.6842 61.9912 64.2773 62.9021 64.2869C63.1835 64.2582 63.5459 64.2916 63.7892 64.5587C64.0133 64.7876 64.0276 65.1453 63.999 65.4314C63.8702 66.7906 65.5203 66.0752 66.2547 65.9179C66.7793 65.7891 67.5185 65.9799 67.6091 66.5998C67.695 67.1626 67.4327 67.6538 67.4804 68.1736H67.447L67.4804 67.711V68.1784H67.447C67.323 67.4821 67.8762 66.4663 67.0226 66.1325C65.9924 65.8702 64.8956 67.0624 63.9179 66.2708C63.6652 66.0371 63.6461 65.6699 63.6604 65.4219C63.7844 64.4681 62.8687 64.5825 62.2822 64.9116C61.6383 65.3313 60.6225 66.0275 59.912 65.2979C59.5352 64.9116 59.4541 64.4156 58.92 64.2964C57.3462 64.0102 56.154 66.1468 54.4896 65.441C53.9459 65.1882 53.6073 64.7542 53.1781 64.7018C52.8109 64.6493 52.5963 64.7447 52.5343 65.0976C52.4627 65.6269 51.8619 65.8559 51.4231 65.7986C51.1417 65.7843 50.8699 65.7319 50.6076 65.646C50.0496 65.5029 48.9957 64.6398 48.8383 65.4553C48.8383 65.6556 48.9957 65.8559 49.1817 65.8654L49.4583 65.8749L49.2723 66.0752C48.6714 66.6904 47.8177 66.3328 47.1071 66.4377C46.7781 66.4854 46.4156 66.6857 46.3536 67.029C46.2869 67.3533 46.7447 67.711 47.0595 67.4773V67.4821Z" fill="#FEB543"/>
</g>
<g style="mix-blend-mode:multiply">
<path d="M66.3279 68.4546C66.2659 65.9366 64.115 68.2972 63.0802 67.1908C62.8131 66.8999 62.7559 66.4564 62.4602 66.2513C61.5732 65.8555 60.648 66.3849 59.8039 66.7282C59.4319 66.8761 58.9454 66.9905 58.4971 66.8332C58.0632 66.6901 57.7341 66.4087 57.4289 66.2227C56.5991 65.741 55.6167 66.032 54.9967 66.7282C54.6247 67.0573 54.0286 66.8999 53.6614 66.6853C53.1463 66.4278 52.6074 66.2513 52.0351 66.1798C51.4915 66.1035 50.2229 66.0653 50.4852 66.8904L50.571 67.0144C50.0655 67.2719 49.5028 67.1527 49.0259 67.2242C48.6348 67.2719 48.0768 67.744 48.4011 68.1494C48.2056 67.9872 48.2533 67.6773 48.4011 67.496C48.8256 66.8618 49.7842 67.1479 50.3374 66.8522L50.2897 67.0287C50.1275 66.8141 50.1657 66.5232 50.2849 66.3276C50.4041 66.1178 50.6235 65.9843 50.8238 65.9175C51.6488 65.7029 52.4786 65.8173 53.2703 66.0701C53.8187 66.2084 54.2527 66.7139 54.7296 66.3801C54.8584 66.2847 54.9824 66.1226 55.1636 65.9795C55.8742 65.4358 56.8852 65.3595 57.6626 65.8078C58.3302 66.2752 58.8453 66.6758 59.6465 66.3133C60.3761 66.0367 61.1821 65.5884 62.0119 65.7363C62.2122 65.7649 62.4459 65.7983 62.6557 65.9461C62.8656 66.094 62.9705 66.3133 63.0515 66.4945C63.3234 67.4484 64.0769 67.2719 64.8495 67.105C65.8557 66.8856 66.4852 67.3911 66.3231 68.4451L66.3279 68.4546Z" fill="#FEB543"/>
</g>
<path d="M69.994 64.1002C69.8509 63.2227 69.0927 62.4311 68.1532 62.3262C67.5618 62.2594 66.9705 62.4597 66.4506 62.7315C64.8912 63.5566 63.7275 65.2877 63.4175 66.933C63.3651 67.2192 63.3508 67.5482 63.5654 67.7581C63.656 67.8487 63.7847 67.9059 63.9087 67.9584C65.1582 68.4591 66.6557 68.3876 67.8432 67.7628C69.1928 67.0523 70.242 65.5786 69.9988 64.0955L69.994 64.1002Z" fill="white"/>
<path d="M65.64 65.3448C65.9309 64.7153 66.5175 64.2146 67.209 64C67.5333 63.8998 67.9291 63.8712 68.1724 64.0906C68.3107 64.2098 68.3727 64.3863 68.4108 64.558C68.5634 65.259 68.3154 66.0268 67.7718 66.5276C66.4841 67.7198 64.815 67.0998 65.6352 65.3448H65.64Z" fill="#FF8E00"/>
<path d="M30.7976 61.3386C29.8009 62.1827 28.6658 62.8838 27.4402 63.3988C27.3353 63.4418 27.2161 63.4894 27.1016 63.4704C26.9776 63.4513 26.8822 63.3702 26.7916 63.2891C26.515 63.0507 26.2146 62.817 25.9666 62.5547C26.6056 62.0254 27.1874 61.2003 27.3544 60.4134C27.445 59.9794 27.4354 59.5264 27.5308 59.0924C27.7025 58.3198 28.2128 57.6522 28.7088 57.0131C29.5433 55.9353 30.4447 54.7383 31.6942 54.0468C31.9851 53.8847 35.2566 52.6876 34.9276 52.2632C35.7192 53.2885 35.2185 54.7001 34.2694 55.4584C33.9165 55.7398 33.5064 55.9544 33.1201 56.1976C33.0057 56.2692 32.8864 56.3502 32.8101 56.4599C32.4858 56.9368 32.3428 57.49 32.2521 58.0385C32.214 58.2578 32.1186 58.5631 32.1615 58.7824C32.2092 59.0352 32.4668 59.2259 32.4572 59.493C32.4524 59.6456 32.3475 59.7839 32.2426 59.9031C31.8039 60.4182 31.3222 60.8951 30.8024 61.3386H30.7976Z" fill="#AF5D54"/>
<path d="M24.421 55.8399C24.6737 55.816 24.9312 55.7922 25.184 55.7683C27.2776 55.5776 29.3664 55.382 31.4553 55.1817C35.5328 54.7907 39.5578 54.4902 43.6544 54.2756C47.9274 54.0515 52.2005 53.794 56.464 53.4935C58.3 53.3648 60.1313 53.2312 61.9674 53.0882C61.9674 52.8068 61.9245 52.5206 61.8291 52.2536C61.7862 52.1343 58.8151 52.287 58.4336 52.2965C56.8455 52.3394 55.2574 52.3823 53.6741 52.43C48.7525 52.5779 43.8452 52.7591 38.9331 53.0262C37.1876 53.1215 35.4469 53.2265 33.7062 53.3457C30.3632 53.5746 27.0248 53.8464 23.6961 54.1707C23.6436 54.1755 23.5864 54.1803 23.5387 54.2089C23.4767 54.2423 23.4433 54.309 23.4147 54.3663C23.0523 55.1961 23.4528 55.921 24.4257 55.8351L24.421 55.8399Z" fill="#E0D8B6"/>
<path d="M62.5871 68.3108C62.9018 68.2726 63.2166 68.2297 63.5313 68.1868C63.7126 67.6193 63.1307 67.1138 62.6252 66.7609C62.1197 66.4079 61.5665 65.8595 61.8049 65.3111C61.9337 65.0154 62.2675 64.8246 62.3438 64.5147C62.4631 63.9996 61.824 63.6419 61.2994 63.4655C60.7748 63.289 60.1358 62.9313 60.255 62.4163C60.3647 61.9489 61.0514 61.7725 61.1945 61.3099C61.2899 60.9951 61.0896 60.6661 60.8321 60.4467C60.5745 60.2321 60.255 60.0842 59.9927 59.8696C59.4538 59.4213 59.2392 58.6917 59.3298 58.0192C59.4204 57.3468 59.7829 56.7316 60.2407 56.207C60.5173 55.8875 60.8368 55.5918 61.0181 55.2198C61.1993 54.8479 61.2184 54.3614 60.9131 54.061C60.7081 53.8607 60.3885 53.7701 60.2216 53.5411C59.7161 52.8496 61.0228 51.7766 60.4029 51.1757C59.9021 50.6893 59.0675 51.376 58.3474 51.3283C57.9039 51.2997 57.5462 50.9897 57.117 50.8753C55.9581 50.57 54.8708 51.7861 53.6738 51.6526C53.111 51.5906 52.6055 51.2282 52.0428 51.2568C51.5706 51.2854 51.1367 51.624 51.0174 52.0532C50.9364 52.3584 50.9984 52.6923 50.8601 52.9736C50.7027 53.2932 50.3402 53.4696 50.0541 53.6985C48.7474 54.7572 49.5581 56.703 50.6264 57.6091C51.1414 58.0479 51.6183 58.2768 51.2893 59.035C50.8791 59.9889 49.7775 60.5278 49.2434 61.4291C48.7808 62.2064 48.8523 63.2127 49.3483 63.9614C49.8395 64.7054 50.7885 64.653 51.294 65.3492C52.0475 66.3889 50.7694 68.1916 50.1685 69.0309C54.3176 69.0786 58.4714 68.8401 62.5871 68.3203V68.3108Z" fill="#FFD16C"/>
<g style="mix-blend-mode:multiply">
<path d="M52.5948 69.0402C53.334 67.9243 53.8872 66.5699 53.8824 65.2393C53.5724 63.7705 51.4455 64.1329 50.7301 62.8834C49.8955 61.3717 51.7364 60.2652 52.4279 59.1827C52.8666 58.4578 52.6663 57.4944 52.0082 56.9555C51.2786 56.4119 50.3343 55.625 50.692 54.5567C50.816 54.0798 51.1879 53.6554 51.6219 53.4551C51.8222 53.3502 52.0034 53.2405 52.0559 53.0497C52.1131 52.859 52.0893 52.5967 52.2085 52.3725C52.4327 51.929 52.9477 51.6953 53.4008 51.7764C52.9382 51.743 52.4899 52.0244 52.323 52.425C52.2324 52.6205 52.28 52.8399 52.2324 53.0974C52.1799 53.374 51.9271 53.5457 51.7411 53.6602C50.9352 54.0417 50.692 55.1672 51.2499 55.7824C51.517 56.1019 51.9128 56.3308 52.28 56.6456C53.0812 57.2703 53.3578 58.515 52.8237 59.4021C52.28 60.4798 50.4964 61.3049 51.1021 62.6545C51.5695 63.3842 52.6234 63.5082 53.3531 63.9851C53.7727 64.2188 54.1638 64.6766 54.1829 65.2012C54.1972 65.4539 54.1543 65.6972 54.1114 65.9213C53.8777 67.0611 53.3435 68.1484 52.5996 69.0259L52.5948 69.0402Z" fill="#FEB543"/>
</g>
<g style="mix-blend-mode:multiply">
<path d="M55.1477 51.3091C54.8663 51.7192 54.2845 51.7001 53.8934 51.9195C53.5167 52.1484 53.3641 52.4966 53.7742 52.7636C53.8267 52.8113 53.8887 52.9353 53.841 53.0402C53.7647 53.2024 53.6311 53.231 53.5071 53.3121C52.8299 53.6554 52.0764 54.1657 52.5486 55.0051C53.0302 55.7872 54.0127 56.1306 54.6422 56.8411C55.4434 57.6137 55.1763 58.9729 54.4705 59.7026C54.151 60.0793 53.7933 60.3941 53.5357 60.7517C53.1399 61.2811 52.9205 61.9154 53.3402 62.4638C53.7456 63.0313 54.3703 63.3365 54.914 63.7991C56.8502 65.4158 55.5912 67.3616 54.4991 69.0164C55.0571 67.8003 56.0347 66.5079 55.5054 65.1106C55.1715 64.1997 54.2368 63.8564 53.5214 63.265C52.5486 62.5258 52.4198 61.4623 53.1638 60.4942C54.6899 58.7535 55.6484 57.8474 53.2591 56.2641C51.7808 55.2531 51.5232 53.87 53.3927 53.1022C53.4928 53.0545 53.6311 52.983 53.6264 52.9687C53.655 52.9782 53.593 52.8876 53.4928 52.8066C53.1352 52.4823 53.4928 51.9529 53.8362 51.8241C54.2845 51.6143 54.8138 51.7097 55.1477 51.3234V51.3091Z" fill="#FEB543"/>
</g>
<g style="mix-blend-mode:multiply">
<path d="M56.3354 68.5682C57.3512 66.7369 57.7232 65.2156 55.8585 63.8326C55.1432 63.2269 54.2895 62.5688 54.1751 61.5387C53.9223 59.7169 56.7694 58.3816 55.7155 56.6504C55.1813 55.8826 52.9113 54.8954 54.28 53.8367C54.652 53.5792 55.0907 53.3551 55.4389 53.1071C55.5104 53.0498 55.5676 52.9545 55.5676 52.9211C55.5533 52.8591 55.4579 52.8591 55.3912 52.8066C55.1575 52.7065 54.9572 52.4346 54.9906 52.1628C55.0955 51.457 55.7632 50.8609 56.4499 50.7798C55.8109 50.8418 54.5852 52.158 55.4961 52.592C55.9158 52.7065 55.8967 53.0451 55.6296 53.2978C55.415 53.479 55.2433 53.5697 55.0478 53.7127C54.6854 53.9703 54.1894 54.2182 54.2228 54.5282C54.5041 55.3628 55.5486 55.649 56.0636 56.3834C56.7694 57.2418 56.2734 58.4245 55.7202 59.1971C55.2243 59.9029 54.5566 60.6183 54.6091 61.5005C54.6949 62.3828 55.4961 62.9694 56.1065 63.5607C57.9998 65.1154 57.6135 66.7703 56.3402 68.5682H56.3354Z" fill="#FEB543"/>
</g>
<g style="mix-blend-mode:multiply">
<path d="M58.6891 51.3043C57.9976 51.3043 57.039 51.2804 56.6527 51.9338C56.5812 52.1388 56.8053 52.2342 57.0485 52.301C57.3967 52.3916 58.0405 52.5394 58.0119 53.0593C57.988 53.5457 57.473 53.7985 57.1296 53.9463C56.7099 54.1323 56.3618 54.5138 56.276 54.9573C56.2473 55.1576 56.3046 55.2387 56.5192 55.3245C57.845 55.5296 58.3409 56.7553 57.8259 57.9427C57.4205 58.9061 56.5573 59.5833 56.3093 60.5752C55.7704 62.4781 58.6414 62.2682 58.7701 63.9946C58.8083 64.2855 58.5985 64.6194 58.4125 64.791C58.3362 64.8769 58.3171 64.9389 58.3266 65.0104C58.4268 65.3347 58.794 65.4206 59.1278 65.535C60.2295 65.8641 59.8193 66.9276 59.2423 67.5618C58.9228 67.9672 58.6032 68.3726 58.2742 68.7732C58.67 68.1246 59.1946 67.5237 59.5189 66.8369C59.6095 66.6128 59.6572 66.36 59.5666 66.1693C59.3329 65.6924 58.6843 65.8259 58.2837 65.4778C58.1693 65.3824 58.0548 65.2632 58.0119 65.0772C57.9642 64.8912 58.0548 64.6909 58.1502 64.586C58.2456 64.4715 58.3171 64.3904 58.3552 64.3046C58.484 63.9994 58.3314 63.6894 58.1216 63.4366C57.4587 62.6831 56.0375 62.5305 55.8372 61.3335C55.4175 59.4116 58.112 58.2861 57.4682 56.4405C57.3824 56.2354 57.2441 56.0637 57.0676 55.9588C56.7815 55.7728 56.214 55.7919 55.9707 55.4104C55.7084 54.9573 56.0232 54.4566 56.3046 54.1275C56.6241 53.7079 57.2679 53.6315 57.6065 53.3073C58.1025 52.6396 56.9579 52.6539 56.6002 52.3344C56.4667 52.2342 56.419 52.0244 56.4858 51.8765C56.9579 51.1374 57.9499 51.2375 58.6891 51.309V51.3043Z" fill="#FEB543"/>
</g>
<g style="mix-blend-mode:multiply">
<path d="M61.9567 68.1674C60.8455 68.0052 60.483 67.5522 60.8646 66.4553C60.9695 66.0786 60.8216 65.7495 60.5212 65.5158C58.8616 64.4476 58.7662 64.3474 59.3003 62.4493C59.4005 61.5003 58.3131 61.6815 57.7742 61.0616C57.1304 60.3414 57.3116 59.2732 57.7409 58.5292C58.2988 57.5134 59.224 56.5453 58.6708 55.4246C58.585 55.272 58.4753 55.1575 58.3131 55.0478C58.1558 54.9429 57.9173 54.7569 57.8792 54.4803C57.8362 54.2132 57.9364 53.9843 58.0508 53.7983C58.3227 53.3167 59.0571 52.9781 58.9903 52.3963L59.1477 52.4439C59.038 52.5489 58.8711 52.5107 58.79 52.4439C58.1987 51.8287 59.6151 51.5045 59.9775 51.2612L59.0762 51.8144C58.9331 51.9003 58.79 52.029 58.79 52.1578C58.7805 52.277 58.9856 52.3867 59.0142 52.3104L59.1048 52.1006L59.1716 52.3581C59.3719 53.2261 58.1176 53.6076 58.1939 54.4183C58.2225 54.5566 58.3322 54.6425 58.5087 54.7521C60.0538 55.8061 58.8186 57.6565 58.1414 58.7486C57.8028 59.3543 57.6407 60.2031 58.1081 60.7468C58.4419 61.1426 59.3432 61.1855 59.6103 61.7912C59.9394 62.4112 59.4863 63.1313 59.3909 63.675C59.2097 64.5191 60.154 64.8195 60.6881 65.306C61.0315 65.573 61.2222 66.1024 61.0505 66.5125C60.6023 67.5427 60.9122 67.8908 61.9376 68.1722L61.9567 68.1674Z" fill="#FEB543"/>
</g>
<path d="M25.1847 60.1465C25.4327 60.0893 25.6807 60.032 25.9287 59.9796C27.9698 59.517 30.011 59.0496 32.0521 58.5823C36.0342 57.6618 39.9735 56.8416 43.9985 56.0976C48.1952 55.3202 52.3872 54.5047 56.5696 53.6511C58.3675 53.2839 60.1655 52.9119 61.9586 52.5304C61.9205 52.249 61.8298 51.9772 61.6963 51.7196C61.6391 51.6052 58.7157 52.1489 58.3389 52.2061C56.7747 52.4541 55.2057 52.7021 53.6414 52.9596C48.7914 53.7465 43.9556 54.5667 39.1293 55.4729C37.4173 55.7924 35.7052 56.1262 33.9979 56.4696C30.7216 57.1277 27.4548 57.8335 24.2071 58.5918C24.1546 58.6061 24.1022 58.6156 24.0592 58.649C24.002 58.6919 23.9782 58.7587 23.9639 58.8255C23.7302 59.6934 24.2309 60.3611 25.18 60.1465H25.1847Z" fill="white"/>
<path d="M35.9775 67.3287C35.4529 67.5481 34.9092 67.7103 34.3417 67.7866C33.3021 67.9296 32.2434 67.7723 31.1942 67.8295C30.145 67.882 29.0195 68.211 28.4472 69.0361C28.5998 68.8119 27.4696 66.704 27.2931 66.3749C27.0833 65.9839 25.1471 63.4182 25.3426 63.2322C26.2058 62.4214 27.1119 61.5392 27.3503 60.4184C27.4076 60.1514 27.3694 59.8748 27.4314 59.6125C28.2374 59.4646 29.0433 59.2977 29.8398 59.107C30.598 58.9257 31.342 58.6682 32.1194 58.6205C32.0574 58.6205 32.1957 58.8017 32.3149 58.797C32.4341 58.797 32.5963 58.673 32.6964 58.6158C32.8967 58.5013 33.097 58.3725 33.2782 58.2247C34.0365 57.6 34.7757 56.9561 35.5244 56.3171C36.9504 55.101 38.4192 53.6226 40.0502 52.6879C40.5033 52.3636 41.3808 52.025 41.5382 52.8405C41.6002 53.16 41.4666 53.4795 41.3236 53.7704C40.861 54.7242 40.2934 55.6304 39.6353 56.4745C39.8881 56.1454 40.4508 56.1359 40.7847 56.3886C41.1185 56.6414 41.2473 57.0801 41.2139 57.4807C41.1805 57.8718 41.0183 58.2438 40.8562 58.6062C41.5382 58.1246 41.7957 59.6268 41.7194 60.0131C41.6097 60.5472 41.2854 61.0146 40.9706 61.4676C40.8037 61.7109 40.6368 61.9493 40.4651 62.1925C40.7942 62.2688 40.9945 62.6074 40.985 62.9269C40.9373 64.329 38.9963 65.569 37.9089 66.27C37.2937 66.6659 36.6499 67.0426 35.968 67.324L35.9775 67.3287Z" fill="#C97063"/>
<g style="mix-blend-mode:multiply" opacity="0.27">
<path d="M35.9775 67.329C35.4529 67.5484 34.9092 67.7105 34.3417 67.7868C33.3021 67.9299 32.2434 67.7725 31.1942 67.8297C30.145 67.8822 29.0195 68.2113 28.4472 69.0363C28.5998 68.8122 27.4696 66.7043 27.2931 66.3752C27.0833 65.9841 25.1471 63.4184 25.3426 63.2324C26.2058 62.4217 27.1119 61.5394 27.3503 60.4187C27.4076 60.1516 27.3694 59.875 27.4314 59.6127C28.2374 59.4649 29.0433 59.298 29.8398 59.1072C30.598 58.926 31.342 58.6685 32.1194 58.6208C32.0574 58.6208 32.1957 58.802 32.3149 58.7972C32.4341 58.7972 32.5963 58.6732 32.6964 58.616C32.8967 58.5015 33.097 58.3728 33.2782 58.2249C34.0365 57.6002 34.7757 56.9564 35.5244 56.3173C36.9504 55.1012 38.4192 53.6228 40.0502 52.6881C40.1742 52.6166 40.737 52.1635 40.8371 52.4735C39.6782 53.6753 38.4955 54.8533 37.2937 56.0121C36.0824 57.1805 34.8043 58.3966 34.2988 59.999C34.2082 60.2899 34.1939 60.7001 34.48 60.805C34.6803 60.8813 34.8997 60.743 35.0714 60.6142C36.7262 59.3409 38.2857 57.9388 39.7212 56.4223C39.9119 56.2172 40.2267 56.0026 40.4413 56.179C40.6607 56.3603 40.4937 56.7132 40.3173 56.9325C39.0392 58.5349 37.599 60.0372 36.6499 61.8494C36.5545 62.0354 36.483 62.3025 36.6595 62.4169C36.8073 62.5123 36.9981 62.3978 37.1364 62.2929C38.6052 61.134 39.9596 59.8416 41.19 58.4348C41.4714 58.5874 41.3331 59.0214 41.1471 59.2837C40.6082 60.0515 39.9882 60.7668 39.311 61.4154C38.6386 62.0545 37.8422 62.7364 37.7754 63.6616C37.7659 63.7665 37.7754 63.881 37.8565 63.9478C37.9662 64.0431 38.1331 63.9811 38.2618 63.9144C39.0964 63.4661 39.8547 62.87 40.4794 62.1594C40.6464 61.9686 40.9945 62.8414 40.9897 62.9272C40.942 64.3293 39.001 65.5692 37.9137 66.2703C37.2985 66.6661 36.6547 67.0429 35.9727 67.3242L35.9775 67.329Z" fill="#C97063"/>
</g>
<g style="mix-blend-mode:multiply">
<path d="M40.4682 55.2017C39.9055 56.4321 39.0184 57.4765 38.1123 58.4494C37.1919 59.3936 36.2476 60.4667 34.96 60.9149C36.0569 60.1376 36.8438 59.0836 37.7689 58.1251C38.6894 57.1617 39.5955 56.2222 40.473 55.2064L40.4682 55.2017Z" fill="#C97063"/>
</g>
<g style="mix-blend-mode:multiply">
<path d="M41.1761 57.7434C40.6706 59.9133 38.8822 61.5443 37.0652 62.6889C38.4673 61.0102 40.0554 59.6415 41.1761 57.7434Z" fill="#C97063"/>
</g>
<g style="mix-blend-mode:multiply">
<path d="M41.2698 60.9529C40.8406 62.4122 39.6102 63.5138 38.2606 64.1338C39.2239 62.9702 40.2588 62.0831 41.2698 60.9529Z" fill="#C97063"/>
</g>
<path d="M72.8127 66.7375C72.2262 69.06 71.1245 71.3253 69.3171 73.0278C66.036 76.0991 61.3337 76.4949 56.9319 76.4472C55.0529 76.4281 53.255 76.1659 51.4523 75.6794C49.1394 75.0594 46.9885 73.872 45.3003 72.2648C43.4738 70.5289 42.5533 68.5259 41.9381 66.1891C42.3578 66.3798 42.8204 66.48 43.2735 66.5801C45.4577 67.057 47.6037 67.2144 49.8309 67.4385C52.3155 67.6865 54.8145 67.863 57.3134 67.8773C59.9793 67.8964 62.6452 67.8105 65.2968 67.5482C67.8625 67.2955 70.5856 67.0189 72.9701 66.0603C72.9224 66.2844 72.87 66.5134 72.8127 66.7375Z" fill="#A42424"/>
<g style="mix-blend-mode:multiply" opacity="0.53">
<path d="M72.8127 66.7376C72.2261 69.0601 71.1245 71.3254 69.317 73.0279C66.0359 76.0992 61.3337 76.495 56.9319 76.4473C55.0529 76.4283 53.255 76.166 51.4523 75.6795C50.0216 75.2932 48.6433 74.6923 47.3939 73.8959C46.3065 73.2044 45.491 72.1123 44.418 71.4494C47.2269 73.1901 50.7751 72.9898 54.0657 72.675C57.6043 72.3364 61.7677 71.9645 64.6911 69.7183C63.8422 70.3716 60.3751 68.1874 59.5978 67.8393C61.658 67.9823 63.9853 67.6962 66.0503 67.4816C66.9134 67.391 72.7746 67.0238 72.9749 66.0652C72.9272 66.2893 72.8747 66.5182 72.8175 66.7424L72.8127 66.7376Z" fill="#A42424"/>
</g>
<path d="M72.073 76.4184C72.9219 75.9749 73.7947 75.5552 74.5815 75.0115C75.3303 74.4965 75.7356 73.8384 76.7228 73.6285C76.8897 73.5951 77.0662 73.5713 77.2283 73.6142C77.6194 73.7191 77.8006 74.1483 78.144 74.3486C79.7845 72.7129 81.2915 70.9579 82.6412 69.098C81.9449 68.6163 81.1008 68.3826 80.3044 68.0631C79.4793 67.734 78.9118 67.2666 78.3109 66.6658C77.7291 66.0839 77.381 65.3352 76.7801 64.7581C76.0504 64.0571 75.0584 63.6947 74.2048 63.1605C73.4179 62.6693 72.9362 62.6026 72.0063 62.7695C71.3672 62.8887 70.733 63.0556 70.0939 63.1796C68.8492 63.4276 67.5902 63.6374 66.3312 63.8043C66.6364 65.483 68.4104 65.7024 69.9127 65.6118C70.7377 65.5641 71.7917 65.2923 72.5738 65.6261C71.5198 67.467 70.0605 69.098 68.3294 70.4094C67.4662 71.0676 66.5314 71.6446 65.5443 72.131C64.6525 72.5698 63.6891 73.0944 62.7401 73.3853C62.2346 73.5427 61.6909 73.7001 61.3571 74.0911C61.0709 74.4249 61.0137 75.0688 61.4429 75.3263C61.7195 75.4932 62.659 75.6029 62.9404 75.4551C62.4921 75.6887 62.5827 76.3802 62.9881 76.6759C63.6891 77.191 64.9004 76.9764 65.7112 76.9048C65.6444 77.0336 65.7207 77.191 65.8447 77.272C65.9687 77.3531 66.1261 77.3722 66.2739 77.3817C67.2325 77.4485 68.2101 77.2482 69.0495 76.8095C68.916 76.9668 69.0352 77.2244 69.2307 77.3054C69.4262 77.3913 69.6552 77.3531 69.865 77.3054C70.6423 77.1194 71.372 76.7761 72.0778 76.4136L72.073 76.4184Z" fill="#C97063"/>
<g style="mix-blend-mode:multiply" opacity="0.32">
<path d="M72.0736 76.4186C72.9225 75.9751 73.7952 75.5554 74.5821 75.0117C75.3308 74.4967 75.7362 73.8385 76.7234 73.6287C76.8903 73.5953 77.0667 73.5715 77.2289 73.6144C77.62 73.7193 77.8012 74.1485 78.1446 74.3488C78.4068 74.5014 82.2745 69.9423 82.3985 69.308C82.3985 69.308 79.1747 68.5497 78.8456 68.3971C77.7201 67.8677 76.6566 66.9044 75.7648 66.0507C74.8492 65.1732 74.1338 64.2767 72.808 64.0478C71.7302 63.8665 70.6334 64.0621 69.5508 64.1861C68.4682 64.3101 67.3237 64.353 66.3365 63.8904C65.9168 64.3148 67.4238 65.2734 67.729 65.3926C68.411 65.6549 69.2026 65.6549 69.9228 65.612C70.8336 65.5548 73.1895 64.849 73.2945 66.3273C73.3278 66.7709 73.1323 67.2001 72.9177 67.5911C71.2104 70.6815 68.0199 72.6701 64.777 74.0675C63.5704 74.5873 62.3877 74.9402 61.0667 74.8019C60.7758 75.4743 62.4926 75.6889 62.9505 75.4505C62.5022 75.6842 62.5928 76.3757 62.9982 76.6713C63.6992 77.1864 64.9105 76.9718 65.7213 76.9003C65.6545 77.029 65.7308 77.1864 65.8548 77.2675C65.9788 77.3485 66.1362 77.3676 66.284 77.3772C67.2426 77.4439 68.2202 77.2436 69.0596 76.8049C68.926 76.9623 69.0453 77.2198 69.2408 77.3008C69.4363 77.3867 69.6652 77.3485 69.8751 77.3008C70.6524 77.1149 71.3821 76.7715 72.0879 76.409L72.0736 76.4186Z" fill="#C97063"/>
</g>
<g style="mix-blend-mode:multiply">
<path d="M61.7063 75.3409C63.4041 75.7081 64.9635 74.8068 66.4896 74.2011C68.0253 73.5287 69.5132 72.7322 70.6101 71.4255C69.8136 72.9707 68.2303 73.9531 66.6804 74.6399C65.1543 75.2503 63.323 76.0992 61.7015 75.3457L61.7063 75.3409Z" fill="#C97063"/>
</g>
<g style="mix-blend-mode:multiply">
<path d="M64.9486 76.9667C67.6813 76.2418 70.0085 74.7252 72.188 72.9512C70.5045 75.1974 67.81 76.9095 64.9486 76.9667Z" fill="#C97063"/>
</g>
<g style="mix-blend-mode:multiply">
<path d="M68.5874 77.1248C70.1325 76.0279 71.5871 75.0121 73.1465 73.9343C72.064 75.4795 70.4091 76.6288 68.5874 77.1248Z" fill="#C97063"/>
</g>
<path d="M0.309071 81.4356C0.74782 79.8332 1.47271 78.2976 2.44082 76.9146C5.74098 72.2075 11.1538 69.6609 16.166 66.9282C16.8146 66.5753 25.6993 61.4248 25.6945 61.4248C26.3241 62.0448 31.7893 70.1521 30.4254 70.5384C29.834 70.7053 29.3238 71.0534 28.8278 71.4063C27.3303 72.4746 26.677 73.8242 25.4752 75.0928C24.0874 76.5617 22.4755 77.9208 20.9398 79.2514C15.9181 83.6055 10.1952 87.1298 3.06556 86.3381C2.30252 86.2523 1.50609 86.1092 0.919505 85.6419C-0.148754 84.7882 -0.12014 83.2383 0.180308 81.9506C0.21846 81.779 0.26615 81.6073 0.31384 81.4356H0.309071Z" fill="#FFA188"/>
<g style="mix-blend-mode:multiply" opacity="0.37">
<path d="M0.309071 81.4356C0.814587 79.5947 1.87331 77.2436 3.41847 76.0228C3.57108 77.5155 3.91445 78.9843 4.44381 80.3864C4.62026 80.849 4.83964 81.3354 5.25931 81.593C6.21788 82.1748 7.38152 81.221 7.9538 80.2576C9.62773 77.4248 9.94248 73.6001 12.6417 71.7211C13.3523 73.0469 13.9246 74.449 14.3538 75.894C14.2489 74.5587 14.4635 73.1995 14.969 71.9643C15.8513 73.1089 17.0054 74.0436 18.3073 74.6684C18.7032 71.888 18.7461 69.0648 18.4409 66.2749C20.8063 67.6054 22.7711 69.637 24.0206 72.0502C23.6105 69.3318 23.2003 66.6087 22.7854 63.8904C24.7455 65.3926 26.4719 67.2001 27.8883 69.2221C27.4018 68.5259 27.5545 66.0269 27.5497 65.1732C28.203 65.5738 31.7846 70.1569 30.4254 70.5479C29.834 70.7148 29.3238 71.063 28.8278 71.4159C27.3303 72.4841 26.677 73.8338 25.4752 75.1023C24.0874 76.5712 22.4755 77.9304 20.9398 79.2609C15.9181 83.615 10.1952 87.1393 3.06556 86.3477C2.30252 86.2618 1.50609 86.1188 0.919505 85.6514C-0.148754 84.7977 -0.12014 83.2478 0.180308 81.9602C0.21846 81.7885 0.26615 81.6168 0.31384 81.4451L0.309071 81.4356Z" fill="#FFA188"/>
</g>
<path d="M79.0595 71.4064C80.0658 69.8707 81.301 68.4639 82.7269 67.2573C88.7406 70.8627 95.3123 73.5286 101.722 76.452C103.105 77.0815 104.526 77.7444 105.508 78.8556C106.748 80.2624 107.087 82.1748 107.33 83.9918C107.402 84.5116 107.464 85.0458 107.321 85.5513C106.305 89.1233 98.5028 88.0932 95.918 87.3635C91.9216 86.2332 88.2208 83.596 84.8873 81.2735C83.6187 80.3912 82.3549 79.3945 80.9576 78.7077C80.6047 78.536 76.5797 77.01 76.5606 77.0958C77.0566 75.088 77.9102 73.1614 79.0595 71.4111V71.4064Z" fill="#FFA188"/>
<g style="mix-blend-mode:multiply" opacity="0.37">
<path d="M78.8398 72.5226L78.7969 75.7417C80.5042 73.6385 82.2163 71.5354 83.9236 69.4275C84.0762 72.6275 84.968 75.7941 86.5084 78.6078C87.4622 76.2472 89.7227 74.4636 92.2407 74.082C91.5826 75.6224 91.0342 77.2105 90.605 78.832C91.3775 78.0213 92.2836 77.3488 93.2804 76.8433C92.7987 78.3169 92.8559 80.0004 93.638 81.3357C94.4202 82.671 95.9939 83.5676 97.5248 83.3578C99.0604 83.1479 100.386 81.7029 100.272 80.1578C100.739 80.7777 100.758 81.6266 101.068 82.3372C101.378 83.0526 102.318 83.6487 102.899 83.1336C103.1 82.9572 103.2 82.6949 103.286 82.4374C103.753 81.0353 104.044 79.5712 104.144 78.0976C104.144 78.1214 106.071 79.6713 106.281 80.0195C106.982 81.164 107.149 82.6854 107.325 83.9873C107.397 84.5071 107.459 85.0412 107.316 85.5468C106.3 89.1187 98.4977 88.0886 95.9129 87.359C91.9164 86.2287 88.2157 83.5915 84.8821 81.2689C83.6136 80.3867 82.3498 79.39 80.9525 78.7032C79.5933 78.0356 78.0243 77.4824 76.565 77.1008C76.832 75.4794 77.9289 73.8674 78.8303 72.5226H78.8398Z" fill="#FFA188"/>
</g>
<path d="M87.207 92.5571C87.2737 92.5571 87.3405 92.5571 87.4072 92.5619C91.6278 92.7002 96.0821 92.9338 99.6064 95.118C108.758 100.788 84.6412 103.063 82.2996 103.23C71.2451 104.017 60.1523 104.007 49.0739 103.998C37.8763 103.988 26.6262 103.974 15.5573 102.386C11.2175 101.761 6.7632 100.836 3.22936 98.3896C2.4997 97.8841 1.7462 97.102 2.02757 96.2912C2.20879 95.7666 2.76677 95.4567 3.28659 95.2087C6.60105 93.654 9.62938 93.6349 13.1441 93.2486C24.9999 91.9419 37.2134 92.1565 49.1502 92.0754C61.8406 91.9848 74.5309 92.147 87.2117 92.5571H87.207Z" fill="white"/>
<g style="mix-blend-mode:multiply" opacity="0.37">
<path d="M87.4071 92.5663C87.3403 92.5663 87.2736 92.5663 87.2068 92.5615C74.526 92.1514 61.8357 91.9893 49.1453 92.0799C41.5816 92.1323 34.018 91.932 26.4543 92.18C22.6725 92.304 18.8954 92.5377 15.1375 92.9717C12.009 93.3341 8.189 93.2864 5.25605 94.4787C3.40567 95.2322 4.68377 95.9762 6.08109 95.9809C12.0424 96.0095 18.3756 95.4134 24.2367 96.6581C24.4227 96.6963 24.6612 96.8441 24.5658 97.011C24.5181 97.0921 24.418 97.1112 24.3273 97.1255C21.8713 97.4498 19.4439 97.0683 16.9688 97.4545C15.9196 97.6167 12.2331 98.2462 14.4459 99.4289C15.7145 100.106 17.541 100.154 18.9527 100.278C23.6454 100.678 28.9867 101.022 33.4409 99.3288C33.7223 99.2239 34.0371 99.0665 34.08 98.7851C34.1038 98.6373 34.0466 98.5085 33.9464 98.394C36.4693 97.7836 38.9921 97.0587 41.4863 96.4817C51.0291 94.2736 60.9248 94.2402 70.7203 94.2212C73.5722 94.2164 76.4527 94.2116 79.2426 94.803C80.8497 95.1416 82.4044 95.6757 83.9925 96.0858C88.8998 97.3496 95.1949 97.8027 99.9973 95.9189C99.3726 92.5425 89.9538 92.6569 87.4023 92.5758L87.4071 92.5663Z" fill="#2D83A5"/>
</g>
<path d="M21.6659 96.2864C21.2176 95.7522 20.8504 95.1466 20.5977 94.4598C20.0922 93.1054 19.7059 91.6843 19.7297 90.2488C22.6197 90.9069 25.6576 91.0166 28.6239 91.05C31.1038 91.0738 34.2466 91.2789 36.6216 90.5254C36.5071 92.4616 36.2305 94.4741 35.0907 96.0908C32.2722 100.087 24.7086 99.8822 21.6659 96.2816V96.2864Z" fill="#CC3334"/>
<path d="M21.437 91.6271C25.5909 92.867 31.3661 93.0149 35.4866 91.5746C35.8204 91.4554 36.1638 91.3171 36.3974 91.0643C36.6311 90.8116 36.7217 90.411 36.5167 90.1391C36.3593 89.9341 36.0779 89.8482 35.8156 89.7815C32.5393 88.9326 29.3727 88.9183 26.0105 88.9993C24.1125 89.0423 21.7757 88.9707 20.0874 89.8912C19.9682 89.9579 19.8442 90.0342 19.7774 90.1487C19.415 90.7734 20.1876 91.2599 21.437 91.6318V91.6271Z" fill="white"/>
<path d="M21.4079 91.7226C24.6652 92.9625 28.6378 92.8862 32.0524 92.5381C33.3209 92.4093 34.6133 92.1947 35.7197 91.5604C35.4574 91.0883 34.8136 90.8117 34.2986 90.7116C32.0094 90.2728 29.6726 90.1297 27.3454 90.1917C26.1626 90.2204 24.9752 90.3014 23.7972 90.4206C22.8386 90.516 21.4795 90.5923 20.9167 91.5175C21.0789 91.5891 21.2458 91.6558 21.4079 91.7226Z" fill="#3F1F1F"/>
</svg>
