<svg width="224" height="29" viewBox="0 0 224 29" fill="none" xmlns="http://www.w3.org/2000/svg">
<rect width="224" height="29" rx="4.83" fill="white"/>
<g clip-path="url(#clip0_53_5423)">
<path d="M18.624 14.2733L14.5276 18.5177L14.5282 18.5201C14.5942 18.752 14.7345 18.9558 14.9276 19.1003C15.1206 19.2448 15.3557 19.322 15.5968 19.3201C15.8015 19.3201 15.9935 19.2657 16.1583 19.1715L16.1716 19.1637L20.7824 16.567L18.624 14.2727V14.2733Z" fill="#EA4335"/>
<path d="M22.7693 13.5509L22.7651 13.5485L20.7745 12.4219L18.5316 14.3696L20.7824 16.566L22.7627 15.4509C23.1099 15.268 23.3453 14.9111 23.3453 14.4988C23.3453 14.09 23.1129 13.7344 22.7693 13.5509Z" fill="#FBBC04"/>
<path d="M14.5273 10.4631C14.5032 10.5513 14.4899 10.6443 14.4899 10.7409V18.2394C14.4899 18.336 14.5025 18.4296 14.5273 18.5172L18.7656 14.3821L14.5267 10.4631H14.5273Z" fill="#4285F4"/>
<path d="M18.6546 14.4904L20.775 12.4213L16.1684 9.81496C15.9951 9.71361 15.798 9.66026 15.5973 9.6604C15.0853 9.6604 14.653 10.0003 14.528 10.4616V10.4628L18.654 14.4904H18.6546Z" fill="#34A853"/>
</g>
<path d="M32.6043 8.91111C33.6403 8.91111 34.5457 9.11178 35.3203 9.51311C36.1043 9.90511 36.7063 10.4744 37.1263 11.2211C37.5557 11.9584 37.7703 12.8218 37.7703 13.8111C37.7703 14.8004 37.5557 15.6591 37.1263 16.3871C36.7063 17.1151 36.1043 17.6751 35.3203 18.0671C34.5457 18.4498 33.6403 18.6411 32.6043 18.6411H29.4263V8.91111H32.6043ZM32.6043 17.3391C33.743 17.3391 34.6157 17.0311 35.2223 16.4151C35.829 15.7991 36.1323 14.9311 36.1323 13.8111C36.1323 12.6818 35.829 11.7998 35.2223 11.1651C34.6157 10.5304 33.743 10.2131 32.6043 10.2131H31.0223V17.3391H32.6043ZM42.6981 18.7671C41.9701 18.7671 41.3121 18.6038 40.7241 18.2771C40.1361 17.9411 39.6741 17.4744 39.3381 16.8771C39.0021 16.2704 38.8341 15.5704 38.8341 14.7771C38.8341 13.9931 39.0068 13.2978 39.3521 12.6911C39.6975 12.0844 40.1688 11.6178 40.7661 11.2911C41.3635 10.9644 42.0308 10.8011 42.7681 10.8011C43.5055 10.8011 44.1728 10.9644 44.7701 11.2911C45.3675 11.6178 45.8388 12.0844 46.1841 12.6911C46.5295 13.2978 46.7021 13.9931 46.7021 14.7771C46.7021 15.5611 46.5248 16.2564 46.1701 16.8631C45.8155 17.4698 45.3301 17.9411 44.7141 18.2771C44.1075 18.6038 43.4355 18.7671 42.6981 18.7671ZM42.6981 17.3811C43.1088 17.3811 43.4915 17.2831 43.8461 17.0871C44.2101 16.8911 44.5041 16.5971 44.7281 16.2051C44.9521 15.8131 45.0641 15.3371 45.0641 14.7771C45.0641 14.2171 44.9568 13.7458 44.7421 13.3631C44.5275 12.9711 44.2428 12.6771 43.8881 12.4811C43.5335 12.2851 43.1508 12.1871 42.7401 12.1871C42.3295 12.1871 41.9468 12.2851 41.5921 12.4811C41.2468 12.6771 40.9715 12.9711 40.7661 13.3631C40.5608 13.7458 40.4581 14.2171 40.4581 14.7771C40.4581 15.6078 40.6681 16.2518 41.0881 16.7091C41.5175 17.1571 42.0541 17.3811 42.6981 17.3811ZM58.6399 10.9271L56.2459 18.6411H54.5659L53.0119 12.9431L51.4579 18.6411H49.7779L47.3699 10.9271H48.9939L50.6039 17.1291L52.2419 10.9271H53.9079L55.4759 17.1011L57.0719 10.9271H58.6399ZM63.7246 10.8011C64.3313 10.8011 64.8726 10.9271 65.3486 11.1791C65.8339 11.4311 66.2119 11.8044 66.4826 12.2991C66.7533 12.7938 66.8886 13.3911 66.8886 14.0911V18.6411H65.3066V14.3291C65.3066 13.6384 65.1339 13.1111 64.7886 12.7471C64.4433 12.3738 63.9719 12.1871 63.3746 12.1871C62.7773 12.1871 62.3013 12.3738 61.9466 12.7471C61.6013 13.1111 61.4286 13.6384 61.4286 14.3291V18.6411H59.8326V10.9271H61.4286V11.8091C61.6899 11.4918 62.0213 11.2444 62.4226 11.0671C62.8333 10.8898 63.2673 10.8011 63.7246 10.8011ZM70.5204 8.28111V18.6411H68.9244V8.28111H70.5204ZM75.9618 18.7671C75.2338 18.7671 74.5758 18.6038 73.9878 18.2771C73.3998 17.9411 72.9378 17.4744 72.6018 16.8771C72.2658 16.2704 72.0978 15.5704 72.0978 14.7771C72.0978 13.9931 72.2705 13.2978 72.6158 12.6911C72.9611 12.0844 73.4325 11.6178 74.0298 11.2911C74.6271 10.9644 75.2945 10.8011 76.0318 10.8011C76.7691 10.8011 77.4365 10.9644 78.0338 11.2911C78.6311 11.6178 79.1025 12.0844 79.4478 12.6911C79.7931 13.2978 79.9658 13.9931 79.9658 14.7771C79.9658 15.5611 79.7885 16.2564 79.4338 16.8631C79.0791 17.4698 78.5938 17.9411 77.9778 18.2771C77.3711 18.6038 76.6991 18.7671 75.9618 18.7671ZM75.9618 17.3811C76.3725 17.3811 76.7551 17.2831 77.1098 17.0871C77.4738 16.8911 77.7678 16.5971 77.9918 16.2051C78.2158 15.8131 78.3278 15.3371 78.3278 14.7771C78.3278 14.2171 78.2205 13.7458 78.0058 13.3631C77.7911 12.9711 77.5065 12.6771 77.1518 12.4811C76.7971 12.2851 76.4145 12.1871 76.0038 12.1871C75.5931 12.1871 75.2105 12.2851 74.8558 12.4811C74.5105 12.6771 74.2351 12.9711 74.0298 13.3631C73.8245 13.7458 73.7218 14.2171 73.7218 14.7771C73.7218 15.6078 73.9318 16.2518 74.3518 16.7091C74.7811 17.1571 75.3178 17.3811 75.9618 17.3811ZM81.0115 14.7491C81.0115 13.9744 81.1702 13.2884 81.4875 12.6911C81.8142 12.0938 82.2529 11.6318 82.8035 11.3051C83.3635 10.9691 83.9795 10.8011 84.6515 10.8011C85.2582 10.8011 85.7855 10.9224 86.2335 11.1651C86.6909 11.3984 87.0549 11.6924 87.3255 12.0471V10.9271H88.9355V18.6411H87.3255V17.4931C87.0549 17.8571 86.6862 18.1604 86.2195 18.4031C85.7529 18.6458 85.2209 18.7671 84.6235 18.7671C83.9609 18.7671 83.3542 18.5991 82.8035 18.2631C82.2529 17.9178 81.8142 17.4418 81.4875 16.8351C81.1702 16.2191 81.0115 15.5238 81.0115 14.7491ZM87.3255 14.7771C87.3255 14.2451 87.2135 13.7831 86.9895 13.3911C86.7749 12.9991 86.4902 12.7004 86.1355 12.4951C85.7809 12.2898 85.3982 12.1871 84.9875 12.1871C84.5769 12.1871 84.1942 12.2898 83.8395 12.4951C83.4849 12.6911 83.1955 12.9851 82.9715 13.3771C82.7569 13.7598 82.6495 14.2171 82.6495 14.7491C82.6495 15.2811 82.7569 15.7478 82.9715 16.1491C83.1955 16.5504 83.4849 16.8584 83.8395 17.0731C84.2035 17.2784 84.5862 17.3811 84.9875 17.3811C85.3982 17.3811 85.7809 17.2784 86.1355 17.0731C86.4902 16.8678 86.7749 16.5691 86.9895 16.1771C87.2135 15.7758 87.3255 15.3091 87.3255 14.7771ZM90.4998 14.7491C90.4998 13.9744 90.6585 13.2884 90.9758 12.6911C91.3025 12.0938 91.7411 11.6318 92.2918 11.3051C92.8518 10.9691 93.4725 10.8011 94.1538 10.8011C94.6578 10.8011 95.1525 10.9131 95.6378 11.1371C96.1325 11.3518 96.5245 11.6411 96.8138 12.0051V8.28111H98.4238V18.6411H96.8138V17.4791C96.5525 17.8524 96.1885 18.1604 95.7218 18.4031C95.2645 18.6458 94.7371 18.7671 94.1398 18.7671C93.4678 18.7671 92.8518 18.5991 92.2918 18.2631C91.7411 17.9178 91.3025 17.4418 90.9758 16.8351C90.6585 16.2191 90.4998 15.5238 90.4998 14.7491ZM96.8138 14.7771C96.8138 14.2451 96.7018 13.7831 96.4778 13.3911C96.2631 12.9991 95.9785 12.7004 95.6238 12.4951C95.2691 12.2898 94.8865 12.1871 94.4758 12.1871C94.0651 12.1871 93.6825 12.2898 93.3278 12.4951C92.9731 12.6911 92.6838 12.9851 92.4598 13.3771C92.2451 13.7598 92.1378 14.2171 92.1378 14.7491C92.1378 15.2811 92.2451 15.7478 92.4598 16.1491C92.6838 16.5504 92.9731 16.8584 93.3278 17.0731C93.6918 17.2784 94.0745 17.3811 94.4758 17.3811C94.8865 17.3811 95.2691 17.2784 95.6238 17.0731C95.9785 16.8678 96.2631 16.5691 96.4778 16.1771C96.7018 15.7758 96.8138 15.3091 96.8138 14.7771ZM107.503 18.7671C106.775 18.7671 106.117 18.6038 105.529 18.2771C104.941 17.9411 104.479 17.4744 104.143 16.8771C103.807 16.2704 103.639 15.5704 103.639 14.7771C103.639 13.9931 103.811 13.2978 104.157 12.6911C104.502 12.0844 104.973 11.6178 105.571 11.2911C106.168 10.9644 106.835 10.8011 107.573 10.8011C108.31 10.8011 108.977 10.9644 109.575 11.2911C110.172 11.6178 110.643 12.0844 110.989 12.6911C111.334 13.2978 111.507 13.9931 111.507 14.7771C111.507 15.5611 111.329 16.2564 110.975 16.8631C110.62 17.4698 110.135 17.9411 109.519 18.2771C108.912 18.6038 108.24 18.7671 107.503 18.7671ZM107.503 17.3811C107.913 17.3811 108.296 17.2831 108.651 17.0871C109.015 16.8911 109.309 16.5971 109.533 16.2051C109.757 15.8131 109.869 15.3371 109.869 14.7771C109.869 14.2171 109.761 13.7458 109.547 13.3631C109.332 12.9711 109.047 12.6771 108.693 12.4811C108.338 12.2851 107.955 12.1871 107.545 12.1871C107.134 12.1871 106.751 12.2851 106.397 12.4811C106.051 12.6771 105.776 12.9711 105.571 13.3631C105.365 13.7458 105.263 14.2171 105.263 14.7771C105.263 15.6078 105.473 16.2518 105.893 16.7091C106.322 17.1571 106.859 17.3811 107.503 17.3811ZM116.977 10.8011C117.583 10.8011 118.125 10.9271 118.601 11.1791C119.086 11.4311 119.464 11.8044 119.735 12.2991C120.005 12.7938 120.141 13.3911 120.141 14.0911V18.6411H118.559V14.3291C118.559 13.6384 118.386 13.1111 118.041 12.7471C117.695 12.3738 117.224 12.1871 116.627 12.1871C116.029 12.1871 115.553 12.3738 115.199 12.7471C114.853 13.1111 114.681 13.6384 114.681 14.3291V18.6411H113.085V10.9271H114.681V11.8091C114.942 11.4918 115.273 11.2444 115.675 11.0671C116.085 10.8898 116.519 10.8011 116.977 10.8011ZM132.855 11.7111C132.603 11.2258 132.253 10.8618 131.805 10.6191C131.357 10.3671 130.839 10.2411 130.251 10.2411C129.607 10.2411 129.033 10.3858 128.529 10.6751C128.025 10.9644 127.628 11.3751 127.339 11.9071C127.059 12.4391 126.919 13.0551 126.919 13.7551C126.919 14.4551 127.059 15.0758 127.339 15.6171C127.628 16.1491 128.025 16.5598 128.529 16.8491C129.033 17.1384 129.607 17.2831 130.251 17.2831C131.119 17.2831 131.824 17.0404 132.365 16.5551C132.906 16.0698 133.238 15.4118 133.359 14.5811H129.705V13.3071H135.067V14.5531C134.964 15.3091 134.694 16.0044 134.255 16.6391C133.826 17.2738 133.261 17.7824 132.561 18.1651C131.87 18.5384 131.1 18.7251 130.251 18.7251C129.336 18.7251 128.501 18.5151 127.745 18.0951C126.989 17.6658 126.387 17.0731 125.939 16.3171C125.5 15.5611 125.281 14.7071 125.281 13.7551C125.281 12.8031 125.5 11.9491 125.939 11.1931C126.387 10.4371 126.989 9.84911 127.745 9.42911C128.51 8.99978 129.346 8.78511 130.251 8.78511C131.287 8.78511 132.206 9.04178 133.009 9.55511C133.821 10.0591 134.409 10.7778 134.773 11.7111H132.855ZM139.987 18.7671C139.259 18.7671 138.601 18.6038 138.013 18.2771C137.425 17.9411 136.963 17.4744 136.627 16.8771C136.291 16.2704 136.123 15.5704 136.123 14.7771C136.123 13.9931 136.296 13.2978 136.641 12.6911C136.987 12.0844 137.458 11.6178 138.055 11.2911C138.653 10.9644 139.32 10.8011 140.057 10.8011C140.795 10.8011 141.462 10.9644 142.059 11.2911C142.657 11.6178 143.128 12.0844 143.473 12.6911C143.819 13.2978 143.991 13.9931 143.991 14.7771C143.991 15.5611 143.814 16.2564 143.459 16.8631C143.105 17.4698 142.619 17.9411 142.003 18.2771C141.397 18.6038 140.725 18.7671 139.987 18.7671ZM139.987 17.3811C140.398 17.3811 140.781 17.2831 141.135 17.0871C141.499 16.8911 141.793 16.5971 142.017 16.2051C142.241 15.8131 142.353 15.3371 142.353 14.7771C142.353 14.2171 142.246 13.7458 142.031 13.3631C141.817 12.9711 141.532 12.6771 141.177 12.4811C140.823 12.2851 140.44 12.1871 140.029 12.1871C139.619 12.1871 139.236 12.2851 138.881 12.4811C138.536 12.6771 138.261 12.9711 138.055 13.3631C137.85 13.7458 137.747 14.2171 137.747 14.7771C137.747 15.6078 137.957 16.2518 138.377 16.7091C138.807 17.1571 139.343 17.3811 139.987 17.3811ZM148.915 18.7671C148.187 18.7671 147.529 18.6038 146.941 18.2771C146.353 17.9411 145.891 17.4744 145.555 16.8771C145.219 16.2704 145.051 15.5704 145.051 14.7771C145.051 13.9931 145.224 13.2978 145.569 12.6911C145.914 12.0844 146.386 11.6178 146.983 11.2911C147.58 10.9644 148.248 10.8011 148.985 10.8011C149.722 10.8011 150.39 10.9644 150.987 11.2911C151.584 11.6178 152.056 12.0844 152.401 12.6911C152.746 13.2978 152.919 13.9931 152.919 14.7771C152.919 15.5611 152.742 16.2564 152.387 16.8631C152.032 17.4698 151.547 17.9411 150.931 18.2771C150.324 18.6038 149.652 18.7671 148.915 18.7671ZM148.915 17.3811C149.326 17.3811 149.708 17.2831 150.063 17.0871C150.427 16.8911 150.721 16.5971 150.945 16.2051C151.169 15.8131 151.281 15.3371 151.281 14.7771C151.281 14.2171 151.174 13.7458 150.959 13.3631C150.744 12.9711 150.46 12.6771 150.105 12.4811C149.75 12.2851 149.368 12.1871 148.957 12.1871C148.546 12.1871 148.164 12.2851 147.809 12.4811C147.464 12.6771 147.188 12.9711 146.983 13.3631C146.778 13.7458 146.675 14.2171 146.675 14.7771C146.675 15.6078 146.885 16.2518 147.305 16.7091C147.734 17.1571 148.271 17.3811 148.915 17.3811ZM157.605 10.8011C158.202 10.8011 158.729 10.9224 159.187 11.1651C159.653 11.3984 160.017 11.6924 160.279 12.0471V10.9271H161.889V18.7671C161.889 19.4764 161.739 20.1064 161.441 20.6571C161.142 21.2171 160.708 21.6558 160.139 21.9731C159.579 22.2904 158.907 22.4491 158.123 22.4491C157.077 22.4491 156.209 22.2018 155.519 21.7071C154.828 21.2218 154.436 20.5591 154.343 19.7191H155.925C156.046 20.1204 156.303 20.4424 156.695 20.6851C157.096 20.9371 157.572 21.0631 158.123 21.0631C158.767 21.0631 159.285 20.8671 159.677 20.4751C160.078 20.0831 160.279 19.5138 160.279 18.7671V17.4791C160.008 17.8431 159.639 18.1511 159.173 18.4031C158.715 18.6458 158.193 18.7671 157.605 18.7671C156.933 18.7671 156.317 18.5991 155.757 18.2631C155.206 17.9178 154.767 17.4418 154.441 16.8351C154.123 16.2191 153.965 15.5238 153.965 14.7491C153.965 13.9744 154.123 13.2884 154.441 12.6911C154.767 12.0938 155.206 11.6318 155.757 11.3051C156.317 10.9691 156.933 10.8011 157.605 10.8011ZM160.279 14.7771C160.279 14.2451 160.167 13.7831 159.943 13.3911C159.728 12.9991 159.443 12.7004 159.089 12.4951C158.734 12.2898 158.351 12.1871 157.941 12.1871C157.53 12.1871 157.147 12.2898 156.793 12.4951C156.438 12.6911 156.149 12.9851 155.925 13.3771C155.71 13.7598 155.603 14.2171 155.603 14.7491C155.603 15.2811 155.71 15.7478 155.925 16.1491C156.149 16.5504 156.438 16.8584 156.793 17.0731C157.157 17.2784 157.539 17.3811 157.941 17.3811C158.351 17.3811 158.734 17.2784 159.089 17.0731C159.443 16.8678 159.728 16.5691 159.943 16.1771C160.167 15.7758 160.279 15.3091 160.279 14.7771ZM165.581 8.28111V18.6411H163.985V8.28111H165.581ZM174.746 14.5951C174.746 14.8844 174.728 15.1458 174.69 15.3791H168.796C168.843 15.9951 169.072 16.4898 169.482 16.8631C169.893 17.2364 170.397 17.4231 170.994 17.4231C171.853 17.4231 172.46 17.0638 172.814 16.3451H174.536C174.303 17.0544 173.878 17.6378 173.262 18.0951C172.656 18.5431 171.9 18.7671 170.994 18.7671C170.257 18.7671 169.594 18.6038 169.006 18.2771C168.428 17.9411 167.97 17.4744 167.634 16.8771C167.308 16.2704 167.144 15.5704 167.144 14.7771C167.144 13.9838 167.303 13.2884 167.62 12.6911C167.947 12.0844 168.4 11.6178 168.978 11.2911C169.566 10.9644 170.238 10.8011 170.994 10.8011C171.722 10.8011 172.371 10.9598 172.94 11.2771C173.51 11.5944 173.953 12.0424 174.27 12.6211C174.588 13.1904 174.746 13.8484 174.746 14.5951ZM173.08 14.0911C173.071 13.5031 172.861 13.0318 172.45 12.6771C172.04 12.3224 171.531 12.1451 170.924 12.1451C170.374 12.1451 169.902 12.3224 169.51 12.6771C169.118 13.0224 168.885 13.4938 168.81 14.0911H173.08ZM186.758 11.8091C186.758 12.3038 186.641 12.7704 186.408 13.2091C186.174 13.6478 185.801 14.0071 185.288 14.2871C184.774 14.5578 184.116 14.6931 183.314 14.6931H181.55V18.6411H179.954V8.91111H183.314C184.06 8.91111 184.69 9.04178 185.204 9.30311C185.726 9.55511 186.114 9.90045 186.366 10.3391C186.627 10.7778 186.758 11.2678 186.758 11.8091ZM183.314 13.3911C183.92 13.3911 184.373 13.2558 184.672 12.9851C184.97 12.7051 185.12 12.3131 185.12 11.8091C185.12 10.7451 184.518 10.2131 183.314 10.2131H181.55V13.3911H183.314ZM189.876 8.28111V18.6411H188.28V8.28111H189.876ZM191.439 14.7491C191.439 13.9744 191.598 13.2884 191.915 12.6911C192.242 12.0938 192.681 11.6318 193.231 11.3051C193.791 10.9691 194.407 10.8011 195.079 10.8011C195.686 10.8011 196.213 10.9224 196.661 11.1651C197.119 11.3984 197.483 11.6924 197.753 12.0471V10.9271H199.363V18.6411H197.753V17.4931C197.483 17.8571 197.114 18.1604 196.647 18.4031C196.181 18.6458 195.649 18.7671 195.051 18.7671C194.389 18.7671 193.782 18.5991 193.231 18.2631C192.681 17.9178 192.242 17.4418 191.915 16.8351C191.598 16.2191 191.439 15.5238 191.439 14.7491ZM197.753 14.7771C197.753 14.2451 197.641 13.7831 197.417 13.3911C197.203 12.9991 196.918 12.7004 196.563 12.4951C196.209 12.2898 195.826 12.1871 195.415 12.1871C195.005 12.1871 194.622 12.2898 194.267 12.4951C193.913 12.6911 193.623 12.9851 193.399 13.3771C193.185 13.7598 193.077 14.2171 193.077 14.7491C193.077 15.2811 193.185 15.7478 193.399 16.1491C193.623 16.5504 193.913 16.8584 194.267 17.0731C194.631 17.2784 195.014 17.3811 195.415 17.3811C195.826 17.3811 196.209 17.2784 196.563 17.0731C196.918 16.8678 197.203 16.5691 197.417 16.1771C197.641 15.7758 197.753 15.3091 197.753 14.7771ZM208.404 10.9271L203.672 22.2671H202.02L203.588 18.5151L200.55 10.9271H202.328L204.498 16.8071L206.752 10.9271H208.404Z" fill="black"/>
<defs>
<clipPath id="clip0_53_5423">
<rect width="9.05625" height="9.66" fill="white" transform="translate(14.49 9.66016)"/>
</clipPath>
</defs>
</svg>
