<svg width="395" height="190" viewBox="0 0 395 190" fill="none" xmlns="http://www.w3.org/2000/svg">
<rect width="394.656" height="193.453" fill="#ADD7DE"/>
<g clip-path="url(#clip0_1_2829)">
<g clip-path="url(#clip1_1_2829)">
<path d="M-92.0002 136.98C-92.0002 136.98 -85.5962 134.683 -78.7913 144.016C-78.7913 144.016 -72.6558 130.704 -70.7592 131.373C-68.8627 132.042 -70.7592 147.772 -70.7592 147.772C-70.7592 147.772 -61.3885 138.624 -60.3845 140.074C-59.3805 141.524 -62.9503 150.561 -62.9503 150.561C-62.9503 150.561 -54.8078 146.433 -52.3531 152.903H70.0246C70.0246 152.903 68.9091 149.668 72.5905 149.557C72.5905 149.557 70.694 141.362 73.2598 141.108C75.8257 140.855 81.7381 147.214 81.7381 147.214C81.7381 147.214 82.3373 130.762 85.5378 130.292C88.7382 129.823 88.32 144.016 88.32 144.016C88.32 144.016 98.4182 129.124 104.023 131.364V160.486H-92.0002V136.98Z" fill="#816B05"/>
</g>
<path d="M295 0H99V196H295V0Z" fill="url(#paint0_linear_1_2829)"/>
<path d="M295 150.853H99V167.478H295V150.853Z" fill="#978507"/>
<path d="M397 167H-3V196H397V167Z" fill="#4D4849"/>
<path d="M295 167H99V169H295V167Z" fill="#706B6C"/>
<path d="M139.661 153.516H99V129.952C103.37 128.287 113.145 140.769 113.145 140.769C113.145 140.769 117.078 126.934 121.23 129.043C125.382 131.153 122.759 144.894 122.759 144.894C122.759 144.894 129.636 136.357 132.374 137.642C135.112 138.926 132.374 149.046 132.374 149.046C132.374 149.046 140.156 149.246 139.661 153.516Z" fill="#978507"/>
<path d="M258.095 151.311H295.023V127.747C290.653 126.082 280.878 138.563 280.878 138.563C280.878 138.563 281.402 126.984 276.538 127.164C271.884 127.336 271.264 142.689 271.264 142.689C271.264 142.689 265.377 137.278 262.639 138.563C259.901 139.848 261.649 146.841 261.649 146.841C261.649 146.841 257.6 147.04 258.095 151.311Z" fill="#978507"/>
<path d="M99 136.98C99 136.98 105.404 134.683 112.209 144.016C112.209 144.016 118.344 130.704 120.241 131.373C122.138 132.042 120.241 147.772 120.241 147.772C120.241 147.772 129.612 138.624 130.616 140.074C131.62 141.524 128.05 150.561 128.05 150.561C128.05 150.561 136.192 146.433 138.647 152.903H261.025C261.025 152.903 259.909 149.668 263.591 149.557C263.591 149.557 261.694 141.362 264.26 141.108C266.826 140.855 272.738 147.214 272.738 147.214C272.738 147.214 273.338 130.762 276.538 130.292C279.738 129.823 279.32 144.016 279.32 144.016C279.32 144.016 289.418 129.124 295.023 131.364V160.486H99V136.98Z" fill="#816B05"/>
<path d="M491.023 136.98C491.023 136.98 484.619 134.683 477.814 144.016C477.814 144.016 471.678 130.704 469.782 131.373C467.885 132.042 469.782 147.772 469.782 147.772C469.782 147.772 460.411 138.624 459.407 140.074C458.403 141.524 461.973 150.561 461.973 150.561C461.973 150.561 453.83 146.433 451.376 152.903H328.998C328.998 152.903 330.114 149.668 326.432 149.557C326.432 149.557 328.329 141.362 325.763 141.108C323.197 140.855 317.285 147.214 317.285 147.214C317.285 147.214 316.685 130.762 313.485 130.292C310.284 129.823 310.703 144.016 310.703 144.016C310.703 144.016 300.605 129.124 295 131.364V160.486H491.023V136.98Z" fill="#816B05"/>
<path d="M109.254 183.362H112.929" stroke="#EDEDED" stroke-width="0.49" stroke-miterlimit="10"/>
<path d="M131.46 183.362H275.236" stroke="#EDEDED" stroke-width="0.49" stroke-miterlimit="10" stroke-dasharray="6.98 18.53"/>
<path d="M284.501 183.362H288.176" stroke="#EDEDED" stroke-width="0.49" stroke-miterlimit="10"/>
<path d="M400 160H-6V167H400V160Z" fill="#878283"/>
<path d="M292.887 60.2864C292.887 60.2864 289.56 56.7701 284.162 56.9769C284.162 56.9769 282.738 50.5731 278.165 50.151C273.593 49.7291 271.367 55.9425 271.367 55.9425C271.367 55.9425 269.615 45.1865 262.837 45.1865C256.056 45.1865 254.04 56.7699 254.04 56.7699C254.04 56.7699 242.622 55.4733 237.809 60.2861H292.887V60.2864Z" fill="url(#paint1_linear_1_2829)"/>
<path d="M179.592 59.3935H110.27C110.27 59.3935 113.286 42.6745 122.496 40.4215C131.812 38.1427 139.918 49.9076 139.918 49.9076C139.918 49.9076 141.588 30.8459 153.001 32.6116C164.29 34.3582 162.638 52.1158 162.638 52.1158C162.638 52.1158 179.592 52.9892 179.592 59.3935Z" fill="url(#paint2_linear_1_2829)"/>
<path d="M184.072 52.61H182.441V61.7671H184.072V52.61Z" fill="#A12B21"/>
<path d="M234.117 52.6102H232.486V61.7673H234.117V52.6102Z" fill="#A12B21"/>
<path d="M238.273 52.6099H180.119C172.964 52.6099 167.163 46.8093 167.163 39.6536C167.163 32.4981 172.963 26.6973 180.119 26.6973H238.273C245.429 26.6973 251.23 32.4979 251.23 39.6536C251.23 46.8093 245.429 52.6099 238.273 52.6099Z" fill="#CB5539"/>
<path d="M180.119 50.5317C174.121 50.5317 169.241 45.6518 169.241 39.6537C169.241 33.6556 174.121 28.7757 180.119 28.7757H238.273C244.271 28.7757 249.151 33.6556 249.151 39.6537C249.151 45.6518 244.271 50.5317 238.273 50.5317H180.119Z" fill="#7D3831"/>
<path d="M254.457 84.8496H155.8V160.486H254.457V84.8496Z" fill="#CB5539"/>
<path d="M254.988 61.7669H156.331V65.0651H254.988V61.7669Z" fill="#A12B21"/>
<path d="M254.988 60.8477H156.331V61.7669H254.988V60.8477Z" fill="#ECB69A"/>
<path d="M219.408 95.7207H163.994V136.981H219.408V95.7207Z" fill="#C04533"/>
<path d="M218.778 136.172V96.5296L164.624 96.5296V136.172H218.778Z" fill="#D89294"/>
<path d="M218.074 135.656V97.0449L165.328 97.0449V135.656H218.074Z" fill="#EFCAB7"/>
<path d="M215.816 133.669V99.0319L167.586 99.0319V133.669H215.816Z" fill="#5E848D"/>
<path d="M170.238 101.736L215.816 99.8531V99.0319H167.586V133.669H168.354L170.238 101.736Z" fill="#3F2C48"/>
<path d="M257.861 155.439H153.468V160.486H257.861V155.439Z" fill="#ECB69A"/>
<path d="M256.847 153.856H154.482V155.44H256.847V153.856Z" fill="#FFEBC2"/>
<path d="M252.176 93.0586H221.934V155.404H252.176V93.0586Z" fill="#FFEBC2"/>
<path d="M146.186 90.2379C148.695 90.2379 150.73 88.2037 150.73 85.6942H141.642C141.642 88.2037 143.677 90.2379 146.186 90.2379Z" fill="#FFDC78"/>
<path d="M155.254 90.2381C157.763 90.2381 159.798 88.2038 159.798 85.6943H150.711C150.711 88.2038 152.745 90.2381 155.254 90.2381Z" fill="#DB3400"/>
<path d="M164.322 90.2381C166.832 90.2381 168.866 88.2038 168.866 85.6943H159.779C159.779 88.2038 161.813 90.2381 164.322 90.2381Z" fill="#FFDC78"/>
<path d="M173.391 90.2381C175.9 90.2381 177.934 88.2038 177.934 85.6943H168.847C168.847 88.2038 170.881 90.2381 173.391 90.2381Z" fill="#DB3400"/>
<path d="M182.459 90.2381C184.968 90.2381 187.003 88.2038 187.003 85.6943H177.915C177.915 88.2038 179.949 90.2381 182.459 90.2381Z" fill="#FFDC78"/>
<path d="M191.527 90.2381C194.036 90.2381 196.07 88.2038 196.07 85.6943H186.983C186.983 88.2038 189.017 90.2381 191.527 90.2381Z" fill="#DB3400"/>
<path d="M200.595 90.2381C203.104 90.2381 205.139 88.2038 205.139 85.6943H196.051C196.051 88.2038 198.086 90.2381 200.595 90.2381Z" fill="#FFDC78"/>
<path d="M209.663 90.2381C212.172 90.2381 214.207 88.2038 214.207 85.6943H205.119C205.119 88.2038 207.154 90.2381 209.663 90.2381Z" fill="#DB3400"/>
<path d="M218.731 90.2381C221.241 90.2381 223.275 88.2038 223.275 85.6943H214.188C214.188 88.2038 216.222 90.2381 218.731 90.2381Z" fill="#FFDC78"/>
<path d="M227.799 90.2381C230.309 90.2381 232.343 88.2038 232.343 85.6943H223.256C223.256 88.2038 225.29 90.2381 227.799 90.2381Z" fill="#DB3400"/>
<path d="M236.868 90.2381C239.377 90.2381 241.411 88.2038 241.411 85.6943H232.324C232.324 88.2038 234.358 90.2381 236.868 90.2381Z" fill="#FFDC78"/>
<path d="M245.936 90.2381C248.445 90.2381 250.48 88.2038 250.48 85.6943H241.392C241.392 88.2038 243.426 90.2381 245.936 90.2381Z" fill="#DB3400"/>
<path d="M255.004 90.2381C257.513 90.2381 259.548 88.2038 259.548 85.6943H250.46C250.46 88.2038 252.495 90.2381 255.004 90.2381Z" fill="#FFDC78"/>
<path d="M264.072 90.2381C266.581 90.2381 268.616 88.2038 268.616 85.6943H259.528C259.528 88.2038 261.563 90.2381 264.072 90.2381Z" fill="#DB3400"/>
<path d="M146.205 88.8337C144.186 88.8337 142.477 87.5161 141.885 85.6945H141.662C141.662 88.2038 143.696 90.2383 146.205 90.2383C148.715 90.2383 150.749 88.204 150.749 85.6945H150.525C149.933 87.5158 148.224 88.8337 146.205 88.8337Z" fill="#FFE9A5"/>
<path d="M155.254 88.8337C153.235 88.8337 151.526 87.5161 150.934 85.6945H150.71C150.71 88.2038 152.745 90.2383 155.254 90.2383C157.764 90.2383 159.798 88.204 159.798 85.6945H159.574C158.982 87.5158 157.273 88.8337 155.254 88.8337Z" fill="#F64501"/>
<path d="M164.341 88.8337C162.322 88.8337 160.613 87.5161 160.021 85.6945H159.798C159.798 88.2038 161.832 90.2383 164.341 90.2383C166.851 90.2383 168.885 88.204 168.885 85.6945H168.661C168.069 87.5158 166.36 88.8337 164.341 88.8337Z" fill="#FFE9A5"/>
<path d="M173.39 88.8337C171.371 88.8337 169.662 87.5161 169.07 85.6945H168.847C168.847 88.2038 170.881 90.2383 173.39 90.2383C175.9 90.2383 177.934 88.204 177.934 85.6945H177.711C177.118 87.5158 175.409 88.8337 173.39 88.8337Z" fill="#F64501"/>
<path d="M182.477 88.8337C180.459 88.8337 178.75 87.5161 178.158 85.6945H177.934C177.934 88.2038 179.968 90.2383 182.478 90.2383C184.987 90.2383 187.021 88.204 187.021 85.6945H186.798C186.205 87.5158 184.496 88.8337 182.477 88.8337Z" fill="#FFE9A5"/>
<path d="M191.526 88.8337C189.507 88.8337 187.798 87.5161 187.206 85.6945H186.983C186.983 88.2038 189.017 90.2383 191.527 90.2383C194.036 90.2383 196.07 88.204 196.07 85.6945H195.847C195.254 87.5158 193.545 88.8337 191.526 88.8337Z" fill="#F64501"/>
<path d="M200.614 88.8337C198.595 88.8337 196.886 87.5161 196.294 85.6945H196.07C196.07 88.2038 198.105 90.2383 200.614 90.2383C203.123 90.2383 205.158 88.204 205.158 85.6945H204.934C204.342 87.5158 202.633 88.8337 200.614 88.8337Z" fill="#FFE9A5"/>
<path d="M209.663 88.8337C207.644 88.8337 205.935 87.5161 205.343 85.6945H205.119C205.119 88.2038 207.154 90.2383 209.663 90.2383C212.173 90.2383 214.207 88.204 214.207 85.6945H213.983C213.391 87.5158 211.682 88.8337 209.663 88.8337Z" fill="#F64501"/>
<path d="M218.75 88.8337C216.731 88.8337 215.022 87.5161 214.43 85.6945H214.206C214.206 88.2038 216.241 90.2383 218.75 90.2383C221.259 90.2383 223.294 88.204 223.294 85.6945H223.07C222.478 87.5158 220.769 88.8337 218.75 88.8337Z" fill="#FFE9A5"/>
<path d="M227.799 88.8337C225.78 88.8337 224.071 87.5161 223.479 85.6945H223.256C223.256 88.2038 225.29 90.2383 227.799 90.2383C230.309 90.2383 232.343 88.204 232.343 85.6945H232.119C231.527 87.5158 229.818 88.8337 227.799 88.8337Z" fill="#F64501"/>
<path d="M236.886 88.8337C234.867 88.8337 233.158 87.5161 232.566 85.6945H232.343C232.343 88.2038 234.377 90.2383 236.887 90.2383C239.396 90.2383 241.43 88.204 241.43 85.6945H241.207C240.614 87.5158 238.905 88.8337 236.886 88.8337Z" fill="#FFE9A5"/>
<path d="M245.936 88.8337C243.917 88.8337 242.208 87.5161 241.616 85.6945H241.392C241.392 88.2038 243.426 90.2383 245.936 90.2383C248.445 90.2383 250.479 88.204 250.479 85.6945H250.256C249.664 87.5158 247.955 88.8337 245.936 88.8337Z" fill="#F64501"/>
<path d="M255.023 88.8337C253.004 88.8337 251.295 87.5161 250.703 85.6945H250.479C250.479 88.2038 252.513 90.2383 255.023 90.2383C257.532 90.2383 259.567 88.204 259.567 85.6945H259.343C258.751 87.5158 257.041 88.8337 255.023 88.8337Z" fill="#FFE9A5"/>
<path d="M264.072 88.8337C262.053 88.8337 260.344 87.5161 259.752 85.6945H259.528C259.528 88.2038 261.562 90.2383 264.072 90.2383C266.581 90.2383 268.616 88.204 268.616 85.6945H268.392C267.8 87.5158 266.091 88.8337 264.072 88.8337Z" fill="#F64501"/>
<path d="M196.089 63.7793H187.002V85.6943H196.089V63.7793Z" fill="#F64501"/>
<path d="M177.953 63.7793H168.866V85.6943H177.953V63.7793Z" fill="#F64501"/>
<path d="M186.983 63.7793H177.934V85.6943H186.983V63.7793Z" fill="#FFE9A5"/>
<path d="M205.119 63.7793H196.07V85.6943H205.119V63.7793Z" fill="#FFE9A5"/>
<path d="M150.71 63.7791H141.662V85.6941H150.71V63.7791Z" fill="#FFE9A5"/>
<path d="M159.817 63.7793H150.729V85.6943H159.817V63.7793Z" fill="#F64501"/>
<path d="M168.846 63.7793H159.798V85.6943H168.846V63.7793Z" fill="#FFE9A5"/>
<path d="M250.479 63.7793H241.392V85.6943H250.479V63.7793Z" fill="#F64501"/>
<path d="M259.528 63.7793H250.479V85.6943H259.528V63.7793Z" fill="#FFE9A5"/>
<path d="M241.392 63.7793H232.343V85.6943H241.392V63.7793Z" fill="#FFE9A5"/>
<path d="M268.615 63.7793H259.528V85.6943H268.615V63.7793Z" fill="#F64501"/>
<path d="M232.343 63.7793H223.256V85.6943H232.343V63.7793Z" fill="#F64501"/>
<path d="M223.256 63.7793H214.207V85.6943H223.256V63.7793Z" fill="#FFE9A5"/>
<path d="M214.226 63.7793H205.138V85.6943H214.226V63.7793Z" fill="#F64501"/>
<path d="M171.879 102.866L170.455 124.307L193.416 101.704L171.879 102.866Z" fill="#A7B6BD"/>
<path d="M196.276 101.704L170.569 126.976L199.672 101.496L196.276 101.704Z" fill="#A7B6BD"/>
<path d="M250.856 94.6598H223.356V160.486H250.856V94.6598Z" fill="#ECB69A"/>
<path d="M248.759 97.1595H225.785V155.44H248.759V97.1595Z" fill="#A12B21"/>
<path d="M245.476 101.402H229.949V134.612H245.476V101.402Z" fill="#5E848D"/>
<path d="M229.949 101.402V134.612L231.33 102.701L245.476 101.402H229.949Z" fill="#3F2C48"/>
<path d="M244.894 102.252L232.139 103.553L231.826 118.882L244.894 102.252Z" fill="#A7B6BD"/>
<path d="M244.894 104.071L231.826 120.749L244.894 106.373V104.071Z" fill="#A7B6BD"/>
<path d="M174.374 43.5758V35.9502H176.951C177.546 35.9502 178.035 36.052 178.418 36.2556C178.8 36.4566 179.083 36.7334 179.267 37.0859C179.45 37.4384 179.542 37.8393 179.542 38.2886C179.542 38.7379 179.45 39.1363 179.267 39.4838C179.083 39.8313 178.801 40.1044 178.421 40.3029C178.042 40.499 177.556 40.5971 176.965 40.5971H174.88V39.763H176.936C177.343 39.763 177.67 39.7035 177.919 39.5843C178.169 39.4652 178.351 39.2964 178.462 39.0779C178.576 38.857 178.634 38.5939 178.634 38.2886C178.634 37.9832 178.576 37.7164 178.462 37.488C178.348 37.2597 178.166 37.0834 177.915 36.9593C177.664 36.8327 177.333 36.7694 176.921 36.7694H175.297V43.5758H174.374ZM177.963 40.1503L179.84 43.5758H178.768L176.921 40.1503H177.963ZM181.081 43.5758V35.9502H185.683V36.7694H182.004V39.346H185.445V40.1652H182.004V42.7567H185.743V43.5758H181.081ZM191.518 37.8566C191.473 37.4793 191.292 37.1864 190.974 36.9779C190.656 36.7694 190.266 36.6651 189.805 36.6651C189.467 36.6651 189.172 36.7198 188.919 36.829C188.668 36.9382 188.472 37.0884 188.33 37.2795C188.191 37.4706 188.122 37.6878 188.122 37.9311C188.122 38.1347 188.17 38.3097 188.267 38.4561C188.366 38.6001 188.493 38.7205 188.647 38.8173C188.801 38.9116 188.962 38.9898 189.131 39.0519C189.3 39.1114 189.455 39.1598 189.596 39.1971L190.371 39.4056C190.569 39.4577 190.79 39.5297 191.034 39.6215C191.279 39.7134 191.514 39.8387 191.737 39.9976C191.963 40.154 192.149 40.3551 192.296 40.6008C192.442 40.8466 192.515 41.1482 192.515 41.5056C192.515 41.9177 192.407 42.29 192.192 42.6226C191.978 42.9553 191.665 43.2196 191.253 43.4157C190.844 43.6118 190.346 43.7099 189.76 43.7099C189.214 43.7099 188.741 43.6218 188.341 43.4455C187.944 43.2693 187.632 43.0235 187.403 42.7083C187.177 42.393 187.049 42.0269 187.02 41.6099H187.973C187.998 41.8978 188.094 42.1361 188.263 42.3248C188.435 42.5109 188.651 42.6499 188.911 42.7418C189.174 42.8311 189.457 42.8758 189.76 42.8758C190.113 42.8758 190.429 42.8187 190.71 42.7046C190.99 42.5879 191.212 42.4265 191.376 42.2205C191.54 42.012 191.622 41.7687 191.622 41.4907C191.622 41.2375 191.551 41.0315 191.41 40.8726C191.268 40.7138 191.082 40.5847 190.851 40.4854C190.62 40.3861 190.371 40.2992 190.103 40.2247L189.164 39.9567C188.569 39.7854 188.097 39.5409 187.749 39.2231C187.402 38.9054 187.228 38.4896 187.228 37.9758C187.228 37.5488 187.344 37.1765 187.574 36.8588C187.808 36.5385 188.121 36.2903 188.513 36.1141C188.907 35.9353 189.348 35.846 189.835 35.846C190.326 35.846 190.763 35.9341 191.145 36.1103C191.527 36.2841 191.83 36.5224 192.054 36.8252C192.28 37.1281 192.399 37.4719 192.411 37.8566H191.518ZM193.617 36.7694V35.9502H199.336V36.7694H196.938V43.5758H196.015V36.7694H193.617ZM200.183 43.5758H199.215L202.015 35.9502H202.968L205.768 43.5758H204.8L202.521 37.1566H202.462L200.183 43.5758ZM200.54 40.5971H204.443V41.4162H200.54V40.5971ZM211.96 35.9502H212.884V40.9992C212.884 41.5205 212.761 41.9859 212.515 42.3955C212.272 42.8026 211.928 43.1241 211.484 43.3599C211.039 43.5932 210.518 43.7099 209.92 43.7099C209.321 43.7099 208.8 43.5932 208.356 43.3599C207.912 43.1241 207.566 42.8026 207.321 42.3955C207.077 41.9859 206.956 41.5205 206.956 40.9992V35.9502H207.879V40.9248C207.879 41.2971 207.961 41.6285 208.125 41.9189C208.289 42.2069 208.522 42.434 208.825 42.6003C209.13 42.7641 209.495 42.846 209.92 42.846C210.344 42.846 210.709 42.7641 211.014 42.6003C211.32 42.434 211.553 42.2069 211.714 41.9189C211.878 41.6285 211.96 41.2971 211.96 40.9248V35.9502ZM214.728 43.5758V35.9502H217.304C217.9 35.9502 218.389 36.052 218.771 36.2556C219.154 36.4566 219.436 36.7334 219.62 37.0859C219.804 37.4384 219.896 37.8393 219.896 38.2886C219.896 38.7379 219.804 39.1363 219.62 39.4838C219.436 39.8313 219.155 40.1044 218.775 40.3029C218.395 40.499 217.91 40.5971 217.319 40.5971H215.234V39.763H217.289C217.696 39.763 218.024 39.7035 218.272 39.5843C218.523 39.4652 218.704 39.2964 218.816 39.0779C218.93 38.857 218.987 38.5939 218.987 38.2886C218.987 37.9832 218.93 37.7164 218.816 37.488C218.702 37.2597 218.519 37.0834 218.269 36.9593C218.018 36.8327 217.686 36.7694 217.274 36.7694H215.651V43.5758H214.728ZM218.317 40.1503L220.194 43.5758H219.121L217.274 40.1503H218.317ZM221.747 43.5758H220.779L223.579 35.9502H224.532L227.332 43.5758H226.364L224.086 37.1566H224.026L221.747 43.5758ZM222.105 40.5971H226.007V41.4162H222.105V40.5971ZM234.567 35.9502V43.5758H233.673L229.518 37.5886H229.444V43.5758H228.52V35.9502H229.414L233.584 41.9524H233.658V35.9502H234.567ZM235.998 36.7694V35.9502H241.717V36.7694H239.319V43.5758H238.396V36.7694H235.998Z" fill="white"/>
<path d="M182.348 22.6372H229.279C229.279 22.6372 221.626 16.2257 218.43 15.3099C215.235 14.3941 212.871 18.9734 212.871 18.9734C212.871 18.9734 211.06 9.63133 207.561 9.08179C204.061 8.53226 201.171 19.3399 201.171 19.3399C201.171 19.3399 198.093 13.6613 195.032 13.2951C191.971 12.9288 182.348 22.6372 182.348 22.6372Z" fill="url(#paint3_linear_1_2829)"/>
<path d="M129.486 121.731L126.398 160.486H129.486L129.977 156.187H145.907L145.486 160.486H148.082L151.17 121.731H148.405L147.1 124.296H132.25L129.486 121.731Z" fill="#701D1D"/>
<path d="M148.406 121.731V124.296H132.251V121.731H129.486V160.487H132.251V156.749H148.406V160.487H151.17V121.731H148.406Z" fill="#ECB69A"/>
<path d="M151.17 130.293H129.486V153.03H151.17V130.293Z" fill="#FFEBC2"/>
<path d="M150.148 131.364H130.508V151.958H150.148V131.364Z" fill="#7D3831"/>
<path d="M136.206 137.297C136.206 136.18 135.953 135.622 135.447 135.622C135.447 135.579 135.468 135.54 135.511 135.503C135.59 135.436 135.688 135.403 135.803 135.403C136.212 135.403 136.481 135.72 136.609 136.354C136.664 136.61 136.691 136.882 136.691 137.169C136.691 137.711 136.596 138.315 136.407 138.98C136.09 140.121 135.611 140.972 134.971 141.533C134.532 141.918 134.059 142.11 133.552 142.11C132.729 142.11 132.171 141.692 131.878 140.856C131.738 140.466 131.667 140.033 131.667 139.557C131.667 139.081 131.735 138.565 131.869 138.01C132.143 136.906 132.592 136.022 133.214 135.357C133.751 134.783 134.327 134.497 134.943 134.497C135.114 134.497 135.245 134.536 135.337 134.616C135.428 134.689 135.474 134.765 135.474 134.844L135.483 134.954C135.422 134.93 135.309 134.918 135.145 134.918C134.486 134.918 133.9 135.338 133.388 136.18C132.881 137.022 132.57 137.971 132.454 139.026C132.424 139.294 132.409 139.542 132.409 139.767C132.409 140.463 132.546 140.996 132.82 141.369C133.04 141.655 133.327 141.799 133.681 141.799C134.419 141.799 135.023 141.295 135.492 140.289C135.968 139.276 136.206 138.279 136.206 137.297ZM139.039 140.737C139.039 141.103 139.137 141.286 139.332 141.286C139.582 141.286 139.856 140.951 140.155 140.28C140.503 139.511 140.677 138.791 140.677 138.12C140.677 137.663 140.555 137.434 140.311 137.434C140.073 137.434 139.811 137.62 139.524 137.992C139.237 138.364 138.981 138.797 138.755 139.291C138.536 139.779 138.347 140.243 138.188 140.682C138.029 141.115 137.932 141.436 137.895 141.643C137.865 141.857 137.84 142.015 137.822 142.119C137.804 142.229 137.773 142.399 137.73 142.631C137.694 142.863 137.657 143.04 137.621 143.162C137.59 143.284 137.547 143.436 137.493 143.62C137.438 143.809 137.38 143.952 137.319 144.05C137.264 144.153 137.2 144.257 137.127 144.361C136.98 144.562 136.794 144.663 136.568 144.663C136.276 144.663 136.129 144.495 136.129 144.159C136.129 143.562 136.587 142.436 137.502 140.783C137.593 140.112 137.688 139.569 137.785 139.154C137.999 138.172 138.225 137.413 138.462 136.876C138.706 136.333 138.926 136.061 139.121 136.061C139.219 136.061 139.268 136.119 139.268 136.235C138.975 137.01 138.673 137.992 138.362 139.182L138.307 139.392H138.426C139.121 137.879 139.777 137.123 140.393 137.123C140.967 137.123 141.253 137.577 141.253 138.486C141.253 139.145 141.086 139.804 140.75 140.463C140.378 141.207 139.933 141.579 139.414 141.579C138.993 141.579 138.783 141.304 138.783 140.755C138.783 140.463 138.862 140.127 139.021 139.749C139.185 139.365 139.399 139.081 139.661 138.898C139.716 138.867 139.762 138.88 139.798 138.935C139.805 138.965 139.801 138.986 139.789 138.999C139.557 139.182 139.374 139.45 139.24 139.804C139.106 140.158 139.039 140.469 139.039 140.737ZM136.376 144.077C136.376 144.26 136.443 144.352 136.577 144.352C136.852 144.352 137.056 143.979 137.191 143.235C137.239 142.979 137.325 142.332 137.447 141.295C136.892 142.369 136.547 143.202 136.413 143.793C136.388 143.903 136.376 143.998 136.376 144.077ZM144.121 137.141C144.585 137.141 144.816 137.413 144.816 137.955C144.816 138.267 144.713 138.593 144.505 138.935C144.152 139.502 143.682 139.786 143.096 139.786C143.005 139.786 142.928 139.77 142.867 139.74C142.806 139.709 142.761 139.664 142.73 139.603C143.163 139.603 143.56 139.352 143.92 138.852C144.213 138.45 144.359 138.081 144.359 137.745C144.359 137.495 144.258 137.37 144.057 137.37C143.654 137.37 143.279 137.684 142.931 138.312C142.559 138.996 142.373 139.697 142.373 140.417C142.373 141.027 142.547 141.393 142.895 141.515C142.962 141.539 143.047 141.552 143.151 141.552C143.255 141.552 143.365 141.527 143.48 141.478C143.596 141.423 143.694 141.359 143.773 141.286C143.932 141.14 144.063 140.978 144.167 140.801C144.191 140.752 144.237 140.728 144.304 140.728C144.414 140.728 144.466 140.746 144.46 140.783C144.441 140.85 144.371 140.963 144.249 141.121C144.133 141.28 144.023 141.408 143.92 141.506C143.822 141.597 143.691 141.68 143.526 141.753C143.368 141.832 143.206 141.872 143.041 141.872C142.395 141.872 141.983 141.567 141.806 140.957C141.751 140.749 141.724 140.536 141.724 140.316C141.724 139.908 141.818 139.462 142.007 138.98C142.306 138.248 142.718 137.721 143.243 137.397C143.529 137.226 143.822 137.141 144.121 137.141ZM145.991 140.097C146.778 138.151 147.544 137.178 148.288 137.178C148.599 137.178 148.755 137.327 148.755 137.626C148.712 137.766 148.657 137.952 148.59 138.184C148.523 138.41 148.431 138.819 148.316 139.41C148.206 140.002 148.151 140.521 148.151 140.966C148.151 141.613 148.245 141.936 148.435 141.936C148.508 141.936 148.578 141.905 148.645 141.844C148.712 141.789 148.758 141.762 148.782 141.762C148.868 141.762 148.868 141.829 148.782 141.963C148.752 142.006 148.694 142.064 148.608 142.137C148.529 142.21 148.447 142.247 148.361 142.247C148.13 142.247 147.947 142.079 147.812 141.744C147.684 141.414 147.62 140.984 147.62 140.453C147.62 139.612 147.751 138.687 148.014 137.681C148.038 137.602 148.014 137.562 147.94 137.562C147.892 137.562 147.837 137.586 147.776 137.635C147.483 137.891 147.175 138.315 146.852 138.907C146.528 139.499 146.275 140.03 146.092 140.499C145.909 140.963 145.818 141.234 145.818 141.314C145.818 141.387 145.775 141.423 145.689 141.423C145.494 141.423 145.397 141.182 145.397 140.701C145.397 139.792 145.488 138.968 145.671 138.23C145.86 137.492 146.086 137.123 146.348 137.123C146.458 137.123 146.513 137.19 146.513 137.324C146.232 138.233 146.031 139.157 145.909 140.097H145.991ZM149.972 140.847C150.021 140.67 150.118 140.582 150.265 140.582C150.411 140.582 150.484 140.652 150.484 140.792C150.484 140.914 150.417 141.146 150.283 141.487L150.21 141.652C150.106 141.652 150.027 141.564 149.972 141.387C149.947 141.295 149.935 141.207 149.935 141.121C149.935 141.03 149.947 140.938 149.972 140.847ZM149.99 139.392C149.99 138.806 150.06 138.132 150.201 137.37C150.341 136.607 150.527 135.939 150.759 135.366C150.997 134.786 151.231 134.497 151.463 134.497C151.561 134.497 151.61 134.545 151.61 134.643C151.366 135.192 151.1 136.074 150.814 137.287C150.533 138.495 150.393 139.337 150.393 139.813C150.393 139.892 150.35 139.932 150.265 139.932C150.082 139.932 149.99 139.752 149.99 139.392Z" fill="#FFEBC2"/>
<path d="M197.367 187.434C197.356 187.401 197.346 187.37 197.335 187.337C197.504 187.322 197.618 187.119 197.535 186.969C197.46 186.799 197.199 186.778 197.098 186.934C196.99 187.071 197.074 187.288 197.239 187.332C197.249 187.367 197.259 187.402 197.269 187.437C197.016 187.452 196.757 187.51 196.544 187.655C196.566 187.716 196.588 187.778 196.61 187.84C197.039 187.652 197.521 187.693 197.974 187.738C197.989 187.678 198.004 187.619 198.02 187.559C197.815 187.466 197.59 187.432 197.367 187.434Z" fill="white"/>
<path d="M119.208 76.1294H117.198V160.732H119.208V76.1294Z" fill="#A12B21"/>
<path d="M119.335 58.3628C119.335 58.9875 118.829 59.494 118.204 59.494C117.579 59.494 117.073 58.9875 117.073 58.3628C117.073 57.738 117.579 57.2316 118.204 57.2316C118.829 57.2316 119.335 57.738 119.335 58.3628Z" fill="#CB5539"/>
<path d="M120.195 75.5337C120.195 75.5337 117.805 75.5337 116.212 75.5337C114.886 71.5241 113.56 67.5144 112.234 63.5047C117.01 63.5047 119.398 63.5047 124.173 63.5047C122.847 67.5144 120.195 75.5337 120.195 75.5337Z" fill="#FFE9A5" stroke="#CB5539" stroke-width="0.969686" stroke-miterlimit="10"/>
<path d="M120.195 58.3628C118.602 58.3628 117.805 58.3628 116.212 58.3628C114.886 59.6953 113.56 61.0279 112.234 62.3605C117.01 62.3605 119.398 62.3605 124.173 62.3605C122.847 61.0279 121.521 59.6953 120.195 58.3628Z" fill="#7D3831"/>
<path d="M118.203 63.5047V75.5337" stroke="#CB5539" stroke-width="0.646457" stroke-miterlimit="10" stroke-linecap="round" stroke-linejoin="round"/>
<path d="M114.09 68.7668H122.317" stroke="#CB5539" stroke-width="0.646457" stroke-miterlimit="10" stroke-linecap="round" stroke-linejoin="round"/>
<path d="M120.985 76.6038H115.422C115.03 76.6038 114.712 76.2858 114.712 75.8938C114.712 75.5015 115.03 75.1838 115.422 75.1838H120.985C121.377 75.1838 121.695 75.5018 121.695 75.8938C121.695 76.2858 121.377 76.6038 120.985 76.6038Z" fill="#CB5539"/>
<path d="M124.857 62.3605H111.55C111.274 62.3605 111.05 62.584 111.05 62.8596V63.3555C111.05 63.6311 111.274 63.8545 111.55 63.8545H124.857C125.133 63.8545 125.356 63.6311 125.356 63.3555V62.8596C125.356 62.584 125.133 62.3605 124.857 62.3605Z" fill="#CB5539"/>
<path d="M121.242 159.971C121.242 160.391 120.902 160.732 120.482 160.732H115.91C115.49 160.732 115.15 160.391 115.15 159.971C115.15 159.551 115.49 159.211 115.91 159.211H120.482C120.902 159.211 121.242 159.551 121.242 159.971Z" fill="#CB5539"/>
<path d="M283.471 76.1294H281.461V160.732H283.471V76.1294Z" fill="#A12B21"/>
<path d="M283.598 58.3628C283.598 58.9875 283.091 59.494 282.466 59.494C281.842 59.494 281.335 58.9875 281.335 58.3628C281.335 57.738 281.842 57.2316 282.466 57.2316C283.091 57.2314 283.598 57.738 283.598 58.3628Z" fill="#CB5539"/>
<path d="M284.458 75.5337C284.458 75.5337 282.068 75.5337 280.475 75.5337C279.149 71.5241 277.823 67.5144 276.497 63.5047C281.272 63.5047 283.66 63.5047 288.436 63.5047C287.11 67.5144 284.458 75.5337 284.458 75.5337Z" fill="#FFE9A5" stroke="#CB5539" stroke-width="0.969686" stroke-miterlimit="10"/>
<path d="M284.458 58.3628C282.865 58.3628 282.068 58.3628 280.475 58.3628C279.149 59.6953 277.823 61.0279 276.497 62.3605C281.272 62.3605 283.66 62.3605 288.436 62.3605C287.11 61.0279 285.784 59.6953 284.458 58.3628Z" fill="#7D3831"/>
<path d="M282.466 63.5047V75.5337" stroke="#CB5539" stroke-width="0.646457" stroke-miterlimit="10" stroke-linecap="round" stroke-linejoin="round"/>
<path d="M278.353 68.7668H286.58" stroke="#CB5539" stroke-width="0.646457" stroke-miterlimit="10" stroke-linecap="round" stroke-linejoin="round"/>
<path d="M285.248 76.6038H279.685C279.292 76.6038 278.975 76.2858 278.975 75.8938C278.975 75.5015 279.292 75.1838 279.685 75.1838H285.248C285.64 75.1838 285.958 75.5018 285.958 75.8938C285.958 76.2858 285.64 76.6038 285.248 76.6038Z" fill="#CB5539"/>
<path d="M289.12 62.3605H275.812C275.537 62.3605 275.313 62.584 275.313 62.8596V63.3555C275.313 63.6311 275.537 63.8545 275.812 63.8545H289.12C289.395 63.8545 289.619 63.6311 289.619 63.3555V62.8596C289.619 62.584 289.395 62.3605 289.12 62.3605Z" fill="#CB5539"/>
<path d="M285.505 159.971C285.505 160.391 285.164 160.732 284.744 160.732H280.173C279.753 160.732 279.413 160.391 279.413 159.971C279.413 159.551 279.753 159.211 280.173 159.211H284.744C285.164 159.211 285.505 159.551 285.505 159.971Z" fill="#CB5539"/>
</g>
<defs>
<linearGradient id="paint0_linear_1_2829" x1="197" y1="173.88" x2="197" y2="7.8051" gradientUnits="userSpaceOnUse">
<stop stop-color="#85AABD"/>
<stop offset="0.5563" stop-color="#A8D0D8"/>
<stop offset="1" stop-color="#B0DBE1"/>
</linearGradient>
<linearGradient id="paint1_linear_1_2829" x1="265.348" y1="45.7092" x2="265.348" y2="62.2535" gradientUnits="userSpaceOnUse">
<stop stop-color="white"/>
<stop offset="0.7281" stop-color="#C0DDE3" stop-opacity="0.4903"/>
<stop offset="1" stop-color="#A8D0D8" stop-opacity="0.3"/>
</linearGradient>
<linearGradient id="paint2_linear_1_2829" x1="144.931" y1="33.4849" x2="144.931" y2="58.2364" gradientUnits="userSpaceOnUse">
<stop stop-color="white"/>
<stop offset="1" stop-color="#A8D0D8" stop-opacity="0.3"/>
</linearGradient>
<linearGradient id="paint3_linear_1_2829" x1="205.814" y1="8.79519" x2="205.814" y2="24.348" gradientUnits="userSpaceOnUse">
<stop stop-color="white"/>
<stop offset="1" stop-color="#A8D0D8" stop-opacity="0.3"/>
</linearGradient>
<clipPath id="clip0_1_2829">
<rect width="394.656" height="187.453" fill="white"/>
</clipPath>
<clipPath id="clip1_1_2829">
<rect width="394.638" height="187.453" fill="white" transform="translate(0.0090332)"/>
</clipPath>
</defs>
</svg>
