<svg width="44" height="55" viewBox="0 0 44 55" fill="none" xmlns="http://www.w3.org/2000/svg">
<g clip-path="url(#clip0_115_791)">
<path d="M4.60937 22.9667C1.02421 22.4289 -0.397309 20.2778 0.0956509 16.1064H43.6088C43.5263 17.2913 43.6088 18.5013 43.3238 19.6199C42.8864 21.3569 41.6423 22.4181 39.8766 22.8161C39.5952 22.8788 39.3084 22.9129 38.966 22.9702V23.7644C38.966 32.8886 38.966 42.014 38.966 51.1407C38.966 53.6108 37.5768 54.9983 35.0994 54.9983H8.46342C5.99683 54.9983 4.61117 53.6019 4.61117 51.1245C4.61117 42.0206 4.61117 32.9173 4.61117 23.8145L4.60937 22.9667ZM14.8988 21.4215C12.823 23.4112 10.1449 23.4435 8.08698 21.4609C6.92001 21.8696 6.87161 22.7659 6.87699 23.8199C6.91463 30.863 6.89671 37.906 6.89671 44.9509V45.7862H36.6787V43.7391C36.6787 36.7851 36.6787 29.8311 36.6787 22.877C36.6787 22.4558 36.5998 22.16 36.2072 21.9467C35.9673 21.785 35.744 21.6001 35.5404 21.3946C33.418 23.4417 30.7398 23.4058 28.6658 21.4179C26.5309 23.404 23.9675 23.4363 21.7787 21.4358C19.6043 23.4345 17.0409 23.413 14.8988 21.4215ZM21.7895 51.5368C22.528 51.5368 23.2648 51.5494 24.0033 51.5368C24.7096 51.5225 25.1864 51.0815 25.2133 50.4613C25.2402 49.841 24.758 49.2836 24.032 49.271C22.5346 49.2483 21.0366 49.2483 19.538 49.271C19.3859 49.265 19.2342 49.2896 19.0918 49.3433C18.9494 49.3971 18.8193 49.4789 18.7091 49.5839C18.5989 49.6889 18.511 49.8149 18.4504 49.9546C18.3899 50.0942 18.358 50.2446 18.3567 50.3967C18.3477 51.0475 18.8425 51.5279 19.5756 51.544C20.3088 51.5601 21.0509 51.5404 21.7895 51.5404V51.5368Z" fill="#E86B1C"/>
<path d="M38.965 6.84049H4.64425C4.64425 5.51398 4.53669 4.21077 4.67114 2.93446C4.85577 1.1849 6.34541 0.0143407 8.19535 0C11.2589 0 14.3224 0 17.3877 0H35.0948C37.5829 0 38.9632 1.37491 38.9668 3.84867L38.965 6.84049ZM21.7204 4.58005C22.4804 4.58005 23.2405 4.59439 24.0005 4.58005C24.7176 4.56391 25.1836 4.12652 25.2123 3.5045C25.241 2.88247 24.7642 2.32677 24.0328 2.31243C22.5342 2.28614 21.0362 2.28614 19.5388 2.31243C19.381 2.30625 19.2237 2.33301 19.0768 2.39101C18.93 2.44901 18.7968 2.53698 18.6858 2.6493C18.5749 2.76163 18.4885 2.89584 18.4323 3.0434C18.3761 3.19095 18.3512 3.3486 18.3593 3.50629C18.3898 4.13369 18.8594 4.5675 19.5729 4.58184C20.2863 4.59618 21.0051 4.58005 21.7204 4.58005Z" fill="#E86B1C"/>
<path d="M0.594727 13.7098C1.44262 12.4335 2.27796 11.254 3.02547 10.0189C3.41804 9.36999 3.87157 9.15129 4.63879 9.15309C16.1543 9.17938 27.6705 9.17938 39.1872 9.15309C39.7788 9.15309 40.114 9.33234 40.4223 9.8271C41.229 11.1142 42.0858 12.369 42.9821 13.7098H0.594727Z" fill="#E86B1C"/>
<path d="M30.1671 35.4931H13.3545C13.4226 35.2152 13.4656 34.9553 13.5463 34.7205C14.6218 31.5709 16.7729 29.5973 20.0139 28.848C20.5105 28.7333 20.6933 28.5558 20.6467 28.0592C20.6144 27.7254 20.6289 27.3888 20.6897 27.059C20.7224 26.8013 20.8516 26.5655 21.0512 26.3992C21.2507 26.2329 21.5059 26.1484 21.7653 26.1627C22.3479 26.1627 22.7279 26.4621 22.8767 27.0339C22.899 27.1202 22.9134 27.2084 22.9197 27.2974C22.9538 27.7599 22.8265 28.3407 23.0613 28.6508C23.2711 28.9286 23.8841 28.8838 24.3054 29.0254C27.3169 30.0436 29.2834 32.0728 30.1402 35.1435C30.1607 35.2291 30.1756 35.3159 30.185 35.4035C30.1827 35.4339 30.1767 35.464 30.1671 35.4931Z" fill="#E86B1C"/>
<path d="M21.7182 40.1074C18.8334 40.1074 15.9497 40.1074 13.0672 40.1074C12.8005 40.12 12.5334 40.0922 12.2749 40.0249C12.0207 39.961 11.7996 39.8039 11.6556 39.5849C11.5115 39.3658 11.4549 39.1006 11.4969 38.8418C11.5134 38.5811 11.6241 38.3353 11.8085 38.1502C11.9929 37.9651 12.2383 37.8535 12.499 37.8362C12.6778 37.8211 12.8574 37.817 13.0368 37.8236H30.5413C30.674 37.8236 30.8084 37.8236 30.9429 37.8236C31.5936 37.8649 32.065 38.3076 32.0937 38.8992C32.1224 39.4907 31.6456 40.0249 30.9751 40.0913C30.7961 40.1032 30.6167 40.1062 30.4374 40.1002L21.7182 40.1074Z" fill="#E86B1C"/>
</g>
<defs>
<clipPath id="clip0_115_791">
<rect width="43.6081" height="55" fill="white"/>
</clipPath>
</defs>
</svg>
