<svg width="44" height="56" viewBox="0 0 44 56" fill="none" xmlns="http://www.w3.org/2000/svg">
<g clip-path="url(#clip0_113_751)">
<path d="M43.9846 22.6782C43.9325 27.282 42.6229 31.3517 40.5941 35.2165C37.58 40.9616 33.4552 45.8499 28.7642 50.2716C26.838 52.0892 24.7664 53.7553 22.7453 55.4735C22.1562 55.9723 21.8441 55.9662 21.2658 55.5118C14.8674 50.4919 9.20028 44.7881 4.87042 37.8542C2.65194 34.3015 0.939883 30.5286 0.294228 26.3456C-0.729333 19.7055 0.918463 13.7676 5.22538 8.62528C8.7214 4.45454 13.2134 1.88722 18.5913 1.11457C26.382 -0.00384754 33.0375 2.37681 38.3573 8.19077C42.1333 12.3217 43.9111 17.2865 43.9846 22.6782ZM5.48701 22.7761C5.47324 31.8704 12.8309 39.3 21.8716 39.326C24.0471 39.3367 26.2033 38.9177 28.2164 38.093C30.2296 37.2684 32.06 36.0543 33.6028 34.5205C35.1456 32.9866 36.3703 31.1632 37.2067 29.1549C38.043 27.1466 38.4746 24.9929 38.4766 22.8175C38.4919 13.7905 31.1051 6.35325 22.0889 6.32877C12.9289 6.30429 5.50843 13.662 5.48701 22.7761Z" fill="#E86B1C"/>
<path d="M25.6474 27.409C25.6474 26.2065 25.6337 25.0024 25.6566 23.7998C25.6702 23.6431 25.6396 23.4858 25.5682 23.3457C25.4968 23.2056 25.3875 23.0883 25.2527 23.0073C22.4207 20.9663 22.0642 16.5584 24.5106 14.063C26.2013 12.3371 28.6875 12.3096 30.3858 13.9987C32.9011 16.4956 32.563 20.9678 29.6897 23.0256C29.5628 23.1019 29.4596 23.212 29.3918 23.3436C29.324 23.4752 29.2941 23.6231 29.3056 23.7707C29.3199 26.1953 29.3199 28.6203 29.3056 31.0458C29.3174 31.4411 29.1989 31.8293 28.9683 32.1506C28.7377 32.4718 28.4079 32.7084 28.0296 32.8237C27.6645 32.9519 27.2669 32.9538 26.9007 32.8289C26.5344 32.7041 26.2207 32.4597 26.01 32.1352C25.7973 31.7788 25.6768 31.3749 25.6597 30.9601C25.6184 29.7775 25.6474 28.5933 25.6474 27.409Z" fill="#E86B1C"/>
<path d="M14.6515 23.7799C13.2562 23.6116 12.3122 22.9399 11.9695 21.5629C11.928 21.3962 11.9069 21.2252 11.9067 21.0534C11.9067 18.6299 11.8838 16.2064 11.9251 13.7829C11.9429 13.6024 11.998 13.4275 12.087 13.2695C12.1761 13.1114 12.297 12.9737 12.4422 12.8649C13.0343 12.4778 13.7213 12.9797 13.7305 13.7661C13.7443 15.065 13.7305 16.3671 13.7305 17.6599V18.2046H15.5665V14.3199C15.5665 14.1103 15.5573 13.8992 15.5665 13.6896C15.5986 13.1388 15.9536 12.7716 16.4508 12.7502C16.5767 12.744 16.7026 12.7643 16.8201 12.8099C16.9377 12.8554 17.0444 12.9252 17.1332 13.0146C17.2221 13.1041 17.2912 13.2112 17.336 13.3291C17.3808 13.4469 17.4003 13.5729 17.3933 13.6988C17.4101 15.0528 17.3933 16.4084 17.3933 17.7639V18.2076H19.2293V17.3264C19.2293 16.1437 19.2293 14.9595 19.2293 13.7768C19.2293 13.1495 19.6087 12.7532 20.1473 12.7578C20.6858 12.7624 21.0484 13.1464 21.0515 13.734C21.0607 16.1957 21.0729 18.6575 21.0515 21.1192C21.0344 21.7049 20.8259 22.2689 20.4578 22.7248C20.0898 23.1807 19.5825 23.5035 19.0135 23.6437C18.7963 23.7003 18.5744 23.737 18.3174 23.7967V27.6828C18.3174 28.8089 18.3296 29.9365 18.3174 31.0611C18.3245 31.3055 18.2824 31.5489 18.1938 31.7768C18.1051 32.0047 17.9716 32.2125 17.8012 32.3879C17.6308 32.5634 17.427 32.7028 17.2017 32.798C16.9764 32.8932 16.7344 32.9423 16.4898 32.9423C16.2453 32.9423 16.0032 32.8932 15.778 32.798C15.5527 32.7028 15.3488 32.5634 15.1784 32.3879C15.008 32.2125 14.8745 32.0047 14.7859 31.7768C14.6972 31.5489 14.6552 31.3055 14.6623 31.0611C14.6485 28.8472 14.6623 26.6317 14.6623 24.4179L14.6515 23.7799Z" fill="#E86B1C"/>
</g>
<defs>
<clipPath id="clip0_113_751">
<rect width="43.9841" height="55" fill="white" transform="translate(0 0.84668)"/>
</clipPath>
</defs>
</svg>
