<svg width="55" height="55" viewBox="0 0 55 55" fill="none" xmlns="http://www.w3.org/2000/svg">
<g clip-path="url(#clip0_115_734)">
<path d="M54.9767 22.1656C54.7984 23.2408 54.6705 24.3218 54.4347 25.3884C52.5502 33.8492 45.2796 40.3494 36.6333 41.3312C26.2405 42.5128 16.7389 36.0457 14.0364 25.9504C11.4993 16.456 16.3047 6.18107 25.2357 2.01963C27.4887 0.949724 29.916 0.294325 32.4014 0.08481C32.5051 0.0669826 32.6068 0.038564 32.7047 0L35.6098 0C36.3142 0.104934 37.0199 0.196932 37.7229 0.314803C45.9006 1.67895 52.6408 8.03539 54.4347 16.0995C54.6748 17.1762 54.7999 18.2773 54.9767 19.3669V22.1656ZM32.6012 10.3339V22.3367H44.614V19.1182H35.7924V10.3339H32.6012Z" fill="#E86B1C"/>
<path d="M15.9757 41.2278L6.13488 51.1377L3.91113 48.9067L13.7275 38.9883L15.9757 41.2278Z" fill="#E86B1C"/>
<path d="M22.3097 42.7039L24.4932 44.8485L15.9964 53.4244L13.8086 51.2495L22.3097 42.7039Z" fill="#E86B1C"/>
<path d="M3.7138 41.196L1.55762 39.0671C4.38845 36.2133 7.22599 33.3551 10.0702 30.4927L12.2264 32.633L3.7138 41.196Z" fill="#E86B1C"/>
<path d="M2.22518 30.5575L0 28.3452L7.74358 20.5557C8.4925 21.3003 9.24716 22.0477 9.95439 22.7492L2.22518 30.5575Z" fill="#E86B1C"/>
<path d="M26.712 55L24.4854 52.8064L32.2634 44.9924L34.457 47.1788L26.712 55Z" fill="#E86B1C"/>
</g>
<defs>
<clipPath id="clip0_115_734">
<rect width="54.977" height="55" fill="white"/>
</clipPath>
</defs>
</svg>
