<svg width="1728" height="52" viewBox="0 0 1728 52" fill="none" xmlns="http://www.w3.org/2000/svg">
<path fill-rule="evenodd" clip-rule="evenodd" d="M41.8641 45.4326C38.3053 42.6767 32.2676 42.6767 28.7088 45.4326C23.4331 49.5181 16.4826 52 8.86623 52C-7.62843 52 -21 40.3594 -21 26C-21 11.6406 -7.62843 0 8.86623 0C16.4826 0 23.4331 2.48191 28.7088 6.56739C32.2676 9.32333 38.3053 9.32333 41.8641 6.56739C47.1397 2.48191 54.0902 0 61.7066 0C69.323 0 76.2735 2.48191 81.5492 6.56738C85.108 9.32333 91.1457 9.32333 94.7045 6.56738C99.9801 2.48191 106.931 0 114.547 0C122.163 0 129.114 2.48192 134.39 6.5674C137.948 9.32334 143.986 9.32334 147.545 6.5674C152.821 2.48192 159.771 0 167.387 0C175.004 0 181.954 2.48189 187.23 6.56732C190.789 9.32313 196.826 9.32313 200.384 6.56732C205.66 2.48189 212.61 0 220.227 0C227.843 0 234.794 2.48192 240.069 6.56739C243.628 9.32333 249.666 9.32333 253.225 6.56739C258.5 2.48192 265.451 0 273.067 0C280.684 0 287.634 2.48192 292.91 6.5674C296.469 9.32334 302.506 9.32334 306.065 6.5674C311.341 2.48192 318.291 0 325.908 0C333.524 0 340.475 2.48192 345.75 6.5674C349.309 9.32334 355.347 9.32334 358.905 6.5674C364.181 2.48192 371.132 0 378.748 0C386.364 0 393.315 2.48192 398.591 6.5674C402.149 9.32334 408.187 9.32334 411.746 6.5674C417.022 2.48192 423.972 0 431.588 0C439.205 0 446.155 2.48192 451.431 6.5674C454.99 9.32334 461.027 9.32334 464.586 6.5674C469.862 2.48192 476.812 0 484.429 0C492.045 0 498.996 2.48191 504.271 6.56737C507.83 9.32331 513.868 9.32331 517.427 6.56736C522.702 2.4819 529.653 0 537.269 0C544.886 0 551.836 2.48189 557.112 6.56732C560.67 9.32313 566.708 9.32313 570.266 6.56732C575.542 2.48189 582.492 0 590.109 0C597.725 0 604.676 2.48192 609.951 6.5674C613.51 9.32334 619.548 9.32332 623.107 6.56738C628.382 2.48191 635.333 0 642.949 0C650.565 0 657.516 2.48192 662.792 6.5674C666.35 9.32334 672.388 9.32332 675.947 6.56738C681.223 2.48191 688.173 0 695.789 0C703.406 0 710.356 2.48192 715.632 6.5674C719.191 9.32334 725.228 9.32332 728.787 6.56738C734.063 2.48191 741.013 0 748.63 0C756.246 0 763.197 2.48192 768.472 6.5674C772.031 9.32334 778.069 9.32332 781.628 6.56738C786.903 2.48191 793.854 0 801.47 0C809.087 0 816.037 2.48192 821.313 6.5674C824.872 9.32334 830.909 9.32332 834.468 6.56738C839.744 2.48191 846.694 0 854.311 0C861.927 0 868.878 2.48192 874.153 6.5674C877.712 9.32334 883.75 9.32332 887.308 6.56738C892.584 2.48191 899.535 0 907.151 0C914.767 0 921.718 2.48192 926.994 6.5674C930.552 9.32334 936.59 9.32332 940.149 6.56738C945.424 2.48191 952.375 0 959.991 0C967.608 0 974.558 2.48192 979.834 6.5674C983.393 9.32334 989.43 9.32332 992.989 6.56738C998.265 2.48191 1005.22 0 1012.83 0C1020.45 0 1027.4 2.48192 1032.67 6.5674C1036.23 9.32334 1042.27 9.32334 1045.83 6.56738C1051.11 2.48191 1058.06 0 1065.67 0C1073.29 0 1080.24 2.4819 1085.51 6.56735C1089.07 9.32329 1095.11 9.32329 1098.67 6.56735C1103.95 2.4819 1110.9 0 1118.51 0C1126.13 0 1133.08 2.48189 1138.36 6.56734C1141.91 9.32302 1147.95 9.32302 1151.51 6.56732C1156.78 2.48189 1163.73 0 1171.35 0C1178.97 0 1185.92 2.4819 1191.19 6.56735C1194.75 9.32329 1200.79 9.32329 1204.35 6.56735C1209.62 2.4819 1216.58 0 1224.19 0C1231.5 0 1238.19 2.28465 1243.38 6.07821C1246.53 8.37778 1251.25 8.37778 1254.39 6.0782C1259.58 2.28465 1266.28 0 1273.59 0C1280.89 0 1287.59 2.28451 1292.78 6.07787C1295.92 8.37721 1300.64 8.37721 1303.79 6.07787C1308.98 2.28451 1315.67 0 1322.98 0C1330.29 0 1336.98 2.28465 1342.17 6.07821C1345.32 8.37778 1350.04 8.37778 1353.18 6.0782C1358.37 2.28465 1365.07 0 1372.38 0C1379.68 0 1386.38 2.2845 1391.57 6.07784C1394.71 8.37717 1399.43 8.37716 1402.58 6.07783C1407.77 2.2845 1414.46 0 1421.77 0C1429.08 0 1435.77 2.28466 1440.96 6.07824C1444.11 8.37783 1448.82 8.37783 1451.97 6.07824C1457.16 2.28466 1463.86 0 1471.16 0C1478.47 0 1485.16 2.2845 1490.36 6.07784C1493.5 8.37717 1498.22 8.37716 1501.36 6.07783C1506.56 2.2845 1513.25 0 1520.56 0C1527.86 0 1534.56 2.28465 1539.75 6.07821C1542.9 8.37778 1547.61 8.37778 1550.76 6.0782C1555.95 2.28465 1562.64 0 1569.95 0C1577.26 0 1583.95 2.2845 1589.14 6.07784C1592.29 8.37717 1597.01 8.37716 1600.15 6.07783C1605.34 2.2845 1612.04 0 1619.34 0C1626.65 0 1633.35 2.28466 1638.54 6.07824C1641.68 8.37783 1646.4 8.37783 1649.55 6.07824C1654.74 2.28466 1661.43 0 1668.74 0C1676.05 0 1682.74 2.2845 1687.93 6.07784C1691.08 8.37717 1695.8 8.37717 1698.94 6.07783C1704.13 2.2845 1710.83 0 1718.13 0C1734.63 0 1748 11.6406 1748 26C1748 40.3594 1734.63 52 1718.13 52C1710.83 52 1704.13 49.7155 1698.94 45.9222C1695.8 43.6228 1691.08 43.6228 1687.93 45.9222C1682.74 49.7155 1676.05 52 1668.74 52C1661.43 52 1654.74 49.7153 1649.55 45.9218C1646.4 43.6222 1641.68 43.6222 1638.54 45.9218C1633.35 49.7153 1626.65 52 1619.34 52C1612.04 52 1605.34 49.7155 1600.15 45.9222C1597.01 43.6228 1592.29 43.6228 1589.14 45.9222C1583.95 49.7155 1577.26 52 1569.95 52C1562.64 52 1555.95 49.7154 1550.76 45.9218C1547.61 43.6222 1542.9 43.6222 1539.75 45.9218C1534.56 49.7153 1527.86 52 1520.56 52C1513.25 52 1506.56 49.7155 1501.36 45.9222C1498.22 43.6228 1493.5 43.6228 1490.36 45.9222C1485.16 49.7155 1478.47 52 1471.16 52C1463.86 52 1457.16 49.7153 1451.97 45.9218C1448.82 43.6222 1444.11 43.6222 1440.96 45.9218C1435.77 49.7153 1429.08 52 1421.77 52C1414.46 52 1407.77 49.7155 1402.58 45.9222C1399.43 43.6228 1394.71 43.6228 1391.57 45.9222C1386.38 49.7155 1379.68 52 1372.38 52C1365.07 52 1358.37 49.7154 1353.18 45.9218C1350.04 43.6222 1345.32 43.6222 1342.17 45.9218C1336.98 49.7153 1330.29 52 1322.98 52C1315.67 52 1308.98 49.7155 1303.79 45.9221C1300.64 43.6228 1295.92 43.6228 1292.78 45.9221C1287.59 49.7155 1280.89 52 1273.59 52C1266.28 52 1259.58 49.7154 1254.39 45.9218C1251.25 43.6222 1246.53 43.6222 1243.38 45.9218C1238.19 49.7153 1231.5 52 1224.19 52C1216.58 52 1209.62 49.5181 1204.35 45.4327C1200.79 42.6767 1194.75 42.6767 1191.19 45.4327C1185.92 49.5181 1178.97 52 1171.35 52C1163.73 52 1156.78 49.5181 1151.51 45.4327C1147.95 42.677 1141.91 42.677 1138.36 45.4327C1133.08 49.5181 1126.13 52 1118.51 52C1110.9 52 1103.95 49.5181 1098.67 45.4327C1095.11 42.6767 1089.07 42.6767 1085.51 45.4327C1080.24 49.5181 1073.29 52 1065.67 52C1058.06 52 1051.11 49.5181 1045.83 45.4326C1042.27 42.6767 1036.23 42.6767 1032.67 45.4326C1027.4 49.5181 1020.45 52 1012.83 52C1005.22 52 998.265 49.5181 992.989 45.4326C989.43 42.6767 983.393 42.6767 979.834 45.4326C974.558 49.5181 967.608 52 959.991 52C952.375 52 945.424 49.5181 940.149 45.4326C936.59 42.6767 930.552 42.6767 926.994 45.4326C921.718 49.5181 914.767 52 907.151 52C899.535 52 892.584 49.5181 887.308 45.4326C883.75 42.6767 877.712 42.6767 874.153 45.4326C868.878 49.5181 861.927 52 854.311 52C846.694 52 839.744 49.5181 834.468 45.4326C830.909 42.6767 824.872 42.6767 821.313 45.4326C816.037 49.5181 809.087 52 801.47 52C793.854 52 786.903 49.5181 781.628 45.4326C778.069 42.6767 772.031 42.6767 768.472 45.4326C763.197 49.5181 756.246 52 748.63 52C741.013 52 734.063 49.5181 728.787 45.4326C725.228 42.6767 719.191 42.6767 715.632 45.4326C710.356 49.5181 703.406 52 695.789 52C688.173 52 681.223 49.5181 675.947 45.4326C672.388 42.6767 666.35 42.6767 662.792 45.4326C657.516 49.5181 650.565 52 642.949 52C635.333 52 628.382 49.5181 623.107 45.4326C619.548 42.6767 613.51 42.6767 609.951 45.4326C604.676 49.5181 597.725 52 590.109 52C582.492 52 575.542 49.5181 570.266 45.4327C566.708 42.6769 560.67 42.6769 557.112 45.4327C551.836 49.5181 544.886 52 537.269 52C529.653 52 522.702 49.5181 517.427 45.4326C513.868 42.6767 507.83 42.6767 504.271 45.4326C498.996 49.5181 492.045 52 484.429 52C476.812 52 469.862 49.5181 464.586 45.4326C461.027 42.6767 454.99 42.6767 451.431 45.4326C446.155 49.5181 439.205 52 431.588 52C423.972 52 417.022 49.5181 411.746 45.4326C408.187 42.6767 402.149 42.6767 398.591 45.4326C393.315 49.5181 386.364 52 378.748 52C371.132 52 364.181 49.5181 358.905 45.4326C355.347 42.6767 349.309 42.6767 345.75 45.4326C340.475 49.5181 333.524 52 325.908 52C318.291 52 311.341 49.5181 306.065 45.4326C302.506 42.6767 296.469 42.6767 292.91 45.4326C287.634 49.5181 280.684 52 273.067 52C265.451 52 258.5 49.5181 253.225 45.4326C249.666 42.6767 243.628 42.6767 240.069 45.4326C234.794 49.5181 227.843 52 220.227 52C212.61 52 205.66 49.5181 200.384 45.4327C196.826 42.6769 190.789 42.6769 187.23 45.4327C181.954 49.5181 175.004 52 167.387 52C159.771 52 152.821 49.5181 147.545 45.4326C143.986 42.6767 137.948 42.6767 134.39 45.4326C129.114 49.5181 122.163 52 114.547 52C106.931 52 99.9801 49.5181 94.7045 45.4326C91.1457 42.6767 85.108 42.6767 81.5492 45.4326C76.2735 49.5181 69.323 52 61.7066 52C54.0902 52 47.1397 49.5181 41.8641 45.4326Z" fill="black"/>
</svg>
