<svg width="16" height="15" viewBox="0 0 16 15" fill="none" xmlns="http://www.w3.org/2000/svg">
<g clip-path="url(#clip0_53_6287)">
<mask id="mask0_53_6287" style="mask-type:luminance" maskUnits="userSpaceOnUse" x="0" y="0" width="16" height="15">
<path d="M15.0552 0.612793H0.953857V14.7142H15.0552V0.612793Z" fill="white"/>
</mask>
<g mask="url(#mask0_53_6287)">
<path d="M8.00454 14.7142C7.53939 14.7142 7.11096 14.5979 6.71925 14.3653C6.33979 14.1449 6.03377 13.8451 5.8012 13.4656C5.58087 13.0739 5.4707 12.6455 5.4707 12.1803C5.4707 11.5927 5.60535 11.1031 5.87465 10.7114C6.14394 10.3197 6.56013 9.86067 7.1232 9.33434C7.53939 8.95487 7.74748 8.59374 7.74748 8.251V7.92054H7.41698C7.03751 7.92054 6.51728 8.30001 5.85628 9.05894C5.20752 9.81788 4.41799 10.1973 3.4877 10.1973C3.02255 10.1973 2.59412 10.0871 2.20241 9.86681C1.82295 9.63421 1.51693 9.32821 1.28436 8.94874C1.06402 8.55707 0.953857 8.12861 0.953857 7.66347C0.953857 7.19832 1.06402 6.77602 1.28436 6.39655C1.51693 6.00485 1.82295 5.69883 2.20241 5.47849C2.59412 5.24592 3.02255 5.12963 3.4877 5.12963C4.40575 5.12963 5.18916 5.50297 5.83792 6.24966C6.48668 6.99635 7.01303 7.36969 7.41698 7.36969H7.74748V7.07592C7.74748 6.73317 7.53939 6.37207 7.1232 5.99261L6.70089 5.60702C6.39487 5.32549 6.11334 4.98887 5.85628 4.59716C5.59923 4.19321 5.4707 3.7097 5.4707 3.14663C5.4707 2.68148 5.58087 2.25918 5.8012 1.87972C6.03377 1.48801 6.33979 1.18199 6.71925 0.961654C7.11096 0.72908 7.53939 0.612793 8.00454 0.612793C8.46967 0.612793 8.89201 0.72908 9.27147 0.961654C9.66314 1.19423 9.96921 1.50025 10.1895 1.87972C10.4221 2.25918 10.5383 2.68148 10.5383 3.14663C10.5383 4.06469 10.165 4.84809 9.41834 5.49685C8.67167 6.14562 8.29834 6.67197 8.29834 7.07592V7.36969H8.59207C9.00827 7.36969 9.5346 6.99635 10.1711 6.24966C10.7954 5.50297 11.5788 5.12963 12.5214 5.12963C12.9865 5.12963 13.4088 5.24592 13.7883 5.47849C14.18 5.69883 14.486 5.99873 14.7063 6.37819C14.9389 6.75766 15.0552 7.18608 15.0552 7.66347C15.0552 8.12861 14.9389 8.55707 14.7063 8.94874C14.486 9.32821 14.18 9.63421 13.7883 9.86681C13.4088 10.0871 12.9865 10.1973 12.5214 10.1973C11.9461 10.1973 11.4503 10.0565 11.0341 9.77501C10.6302 9.49347 10.1773 9.08341 9.67541 8.54481C9.29594 8.12861 8.9348 7.92054 8.59207 7.92054H8.29834V8.251C8.29834 8.70394 8.67167 9.23027 9.41834 9.83008C10.165 10.4299 10.5383 11.2133 10.5383 12.1803C10.5383 12.6455 10.4221 13.0739 10.1895 13.4656C9.96921 13.8451 9.66927 14.1449 9.2898 14.3653C8.91034 14.5979 8.48194 14.7142 8.00454 14.7142Z" fill="#FAA307"/>
</g>
</g>
<defs>
<clipPath id="clip0_53_6287">
<rect width="14.1014" height="14.1014" fill="white" transform="translate(0.953857 0.612793)"/>
</clipPath>
</defs>
</svg>
